<?xml version="1.0" standalone="no"?>
<!DOCTYPE svg PUBLIC "-//W3C//DTD SVG 1.1//EN" "http://www.w3.org/Graphics/SVG/1.1/DTD/svg11.dtd" >
<svg>
<metadata>
Created by FontForge 20120731 at Sat Jun 29 21:23:10 2019
 By www
Copyright (c) TypeMarket, 2005. All rights reserved.
</metadata>
<defs>
<font id="LianaW03-Regular" horiz-adv-x="1188" >
  <font-face 
    font-family="LianaW03-Regular"
    font-weight="400"
    font-style="italic"
    font-stretch="normal"
    units-per-em="1000"
    panose-1="3 3 3 2 4 4 7 7 4 2"
    ascent="800"
    descent="-200"
    x-height="171"
    cap-height="804"
    bbox="-679 -570 1835.2 1122"
    underline-thickness="50"
    underline-position="-75"
    slope="-50"
    unicode-range="U+0020-FB02"
  />
<missing-glyph horiz-adv-x="500" 
d="M442 8v496h-384v-496h384zM50 512h400v-512h-400v512z" />
    <glyph glyph-name="uniF460" unicode="&#x410;`" horiz-adv-x="1040" 
d="M918 448q0 -35 -3.5 -83.5t-10.5 -111.5q-13 -123 -30 -194q5 2 8 4t8 6q6 6 12 6q11 0 11 -8q0 -6 -43 -39l-6 -54q-1 -8 -5 -13.5t-11 -11.5q-11 -8 -25 -11q-7 0 -7 17q0 11 0.5 25t3.5 31q-107 -46 -188 -46q-53 0 -191 54t-174 54q-81 0 -161 -29
q-32 -12 -65.5 -29.5t-73.5 -42.5l-127 -82q-9 -5 -30 -7q-13 0 -13 12l37 17q32 17 79 48.5t110 80.5q36 27 94 81t140 135q78 78 141 143.5t114 122.5q123 140 247 140q91 0 131 -78q14 -26 20.5 -60t7.5 -77zM866 427q0 201 -129 201q-77 0 -169 -80q-16 -13 -176 -176
l-174 -178q-46 -45 -93 -86.5t-95 -79.5q49 21 80.5 34t46.5 18q52 15 122 15q37 0 93.5 -12t133.5 -39q77 -24 118.5 -36t49.5 -14q37 0 85 17q17 6 33 12.5t33 14.5l26 212q15 126 15 177zM900 941q0 -10 -9.5 -24t-14.5 -21q0 -1 -9.5 -13.5t-23.5 -31t-31 -40t-33 -39.5
t-29 -30t-20 -12q-16 0 -17 13q0 7 15 28t35 46t40 49.5t31 38.5q21 28 32 38t20 10q12 0 13 -1t1 -11z" />
    <glyph glyph-name="uniF461" unicode="&#x415;`" horiz-adv-x="846" 
d="M911 711q0 -62 -87 -120q-84 -58 -177 -60q-75 0 -75 49q0 31 35 37q29 3 29 -11v-5t-2 -9q-1 -5 -1 -9.5v-6.5q3 -18 43 -19q72 0 133 43q61 45 61 91q0 37 -42 62q-41 23 -107 24q-63 0 -126.5 -18.5t-130.5 -57.5q-129 -78 -130 -151q0 -34 34 -80q17 -21 25 -35.5
t10 -22.5q0 -31 -90 -76q-70 -35 -111 -56.5t-55 -31.5q-64 -45 -87 -65q-37 -40 -39 -99q0 -62 47 -103q49 -39 124 -39q60 0 116 9.5t110 27.5q109 39 242 127q1 0 9 -15q-138 -99 -255 -143q-60 -21 -122 -31t-130 -12q-88 0 -140 41q-50 39 -51 109q0 76 59 135
q16 16 48.5 38t83.5 50l130 69q61 35 61 49q0 13 -34 62q-35 45 -35 75q0 86 162 181q81 46 159.5 68.5t156.5 24.5q63 0 106 -28t43 -68zM872 1063q0 -10 -9.5 -24t-14.5 -21q0 -1 -9.5 -13.5t-23.5 -31t-31 -40t-33 -39.5t-29 -30t-20 -12q-16 0 -17 13q0 7 15 28t35 46
t40 49.5t31 38.5q21 28 32 38t20 10q12 0 13 -1t1 -11z" />
    <glyph glyph-name="uniF462" unicode="&#x418;`" 
d="M1389 676q0 -5 -212 -307q-107 -149 -159.5 -232.5t-54.5 -103.5q0 -23 16 -23q2 0 4 0.5t6 2.5q9 0 12 2q-29 -38 -56 -38q-10 0 -19 8q-10 7 -10 17q0 39 96 187l113 178l-248 -238q-158 -144 -240 -145q-16 0 -29 6.5t-23 22.5q-18 25 -21 63q0 20 16 78t50 158
q33 98 49 167.5t16 112.5q0 111 -67 168q-66 57 -197 59q-32 0 -64 -7t-65 -24q-21 -10 -44 -24.5t-47 -34.5l-43 -31q-10 0 -13.5 2t-5.5 6q0 6 82 65q128 87 248 89q124 0 198 -68q75 -66 75 -178q0 -29 -16.5 -99t-51.5 -180q-32 -109 -48 -170.5t-18 -75.5q0 -24 16 -44
q16 -19 36 -19q65 0 325 246q114 109 182.5 180.5t93.5 107.5q61 88 74 104q23 29 34 29q9 0 10 -1v-16v0zM1167 941q0 -10 -9.5 -24t-14.5 -21q0 -1 -9.5 -13.5t-23.5 -31t-31 -40t-33 -39.5t-29 -30t-20 -12q-16 0 -17 13q0 7 15 28t35 46t40 49.5t31 38.5q21 28 32 38
t20 10q12 0 13 -1t1 -11z" />
    <glyph glyph-name="uniF463" unicode="&#x41e;`" horiz-adv-x="911" 
d="M1016 588q0 -67 -29 -137t-89 -145q-55 -70 -125.5 -128.5t-155.5 -106.5q-89 -49 -173.5 -73t-165.5 -26q-106 0 -175 69q-69 66 -70 170q0 78 23.5 150t72.5 141q41 57 93 105t119 86q59 35 112 52.5t102 20.5v-13q-49 5 -156 -54q-65 -35 -117.5 -76.5t-94.5 -93.5
q-54 -63 -79.5 -131t-26.5 -141q0 -109 67 -173q35 -32 79 -48.5t101 -18.5q138 0 290 85q75 41 135 91.5t109 113.5q99 129 101 258q0 81 -65 139t-158 58q-44 0 -96 -17.5t-113 -54.5q-127 -74 -207 -182q-6 -6 -20 -3q147 189 283 250q34 15 55 23.5t31 11.5q42 14 94 14
q120 0 185 -55q64 -55 64 -161zM965 1090q0 -10 -9.5 -24t-14.5 -21q0 -1 -9.5 -13.5t-23.5 -31t-31 -40t-33 -39.5t-29 -30t-20 -12q-16 0 -17 13q0 7 15 28t35 46t40 49.5t31 38.5q21 28 32 38t20 10q12 0 13 -1t1 -11z" />
    <glyph glyph-name="uniF464" unicode="&#x423;`" horiz-adv-x="1279" 
d="M1450 572q0 -8 -18 -26q-6 -5 -11.5 -10t-11.5 -12q-198 -238 -362.5 -456t-301.5 -420q-88 -134 -89 -164q0 -9 12 -17q12 -9 12 -13q0 -24 -19 -24q-10 0 -26 19t-18 32q0 43 54 126q45 67 74 109t43 62l341 440q-235 -184 -236 -184q-95 -69 -148 -69q-64 0 -106 95
q-17 35 -30 88.5t-24 125.5l-32 230q-9 79 -65 141q-60 66 -139 69q-100 0 -233 -60l3 19q18 13 43.5 26t60.5 27q84 31 142 33q66 0 139 -62q75 -68 99 -169q16 -91 31.5 -180t32.5 -180q17 -81 44 -120.5t65 -41.5q54 0 207 123q72 59 138 121.5t130 131.5q5 5 35 39
t86 99q57 67 67 67t11 -15zM1143 941q0 -10 -9.5 -24t-14.5 -21q0 -1 -9.5 -13.5t-23.5 -31t-31 -40t-33 -39.5t-29 -30t-20 -12q-16 0 -17 13q0 7 15 28t35 46t40 49.5t31 38.5q21 28 32 38t20 10q12 0 13 -1t1 -11z" />
    <glyph glyph-name="uniF465" unicode="&#x42b;`" horiz-adv-x="1190" 
d="M775 236q0 34 -6.5 71.5t-25 69t-53.5 52.5t-92 21q-23 0 -46 -9.5t-41 -26t-29.5 -39t-11.5 -47.5q-1 -24 9 -46t30 -39.5t50.5 -28t70.5 -10.5q32 1 68.5 8t76.5 24zM816 255q69 35 129.5 79t108.5 87t81.5 80t48.5 59q30 44 48 69.5t26 33.5q24 30 34 30q9 0 10 -2
v-15q0 -5 -212 -307q-53 -74 -93 -134.5t-66.5 -104.5t-40 -70.5t-13.5 -32.5q0 -12 2.5 -14.5t13.5 -2.5q5 0 11 1.5t16 6.5l3 -3q-13 -16 -30 -27t-34 -11q-11 0 -20.5 6t-9.5 19q0 19 23.5 65t72.5 122l113 178q-15 -8 -38.5 -23t-53 -33t-62.5 -37.5t-67 -37.5
q-10 -66 -50.5 -121.5t-104 -95t-146 -62t-177.5 -22.5q-57 0 -97.5 13.5t-66 35t-37.5 47.5t-12 51q0 40 23.5 82.5t60 88.5t81 96t87.5 105q28 36 53 68.5t47.5 62.5t44 60t44.5 62q16 22 25.5 41t16 34.5t12 27.5t13.5 21q10 11 22.5 11.5t27.5 0.5q7 0 12 -5.5t5 -15.5
q0 -12 -7 -27t-16.5 -30t-20.5 -27.5t-19 -20.5q-20 -21 -48.5 -54.5t-61.5 -74t-69 -86t-70 -91.5q-35 -46 -70 -89t-62.5 -82.5t-45 -75.5t-17.5 -68q0 -30 13.5 -55t36.5 -42t54 -26.5t67 -9.5q86 0 155 19.5t120.5 53t84 78t45.5 94.5q-12 -8 -30 -15t-37.5 -12.5
t-38 -8.5t-29.5 -3q-21 0 -55.5 3t-67.5 17.5t-56.5 46t-23.5 88.5q0 36 14.5 64t37.5 47t53 29t61 10q65 0 108 -25t68.5 -60.5t35 -72.5t6.5 -61zM1169 941q0 -10 -9.5 -24t-14.5 -21q0 -1 -9.5 -13.5t-23.5 -31t-31 -40t-33 -39.5t-29 -30t-20 -12q-16 0 -17 13
q0 7 15 28t35 46t40 49.5t31 38.5q21 28 32 38t20 10q12 0 13 -1t1 -11z" />
    <glyph glyph-name="uniF466" unicode="&#x42d;`" horiz-adv-x="911" 
d="M926 344q-54 -72 -133 -145t-176 -127q-80 -44 -158.5 -67t-152.5 -23q-61 0 -113 13.5t-90 44.5q-38 30 -53.5 74.5t-16.5 96.5q1 3 5 7.5t9.5 9t10 8.5t7.5 4q4 -16 11 -36.5t17.5 -41.5t24 -41.5t30.5 -37.5q34 -32 77 -49.5t97 -17.5q72 0 145.5 21.5t150.5 63.5
q87 48 158 113t116 136q-12 2 -23 4.5t-26 4t-36.5 2.5t-54.5 1q-25 0 -51 -3t-50 -6.5t-45.5 -6.5t-37.5 -3q-20 0 -33.5 5.5t-22 13t-12 14.5t-3.5 11q0 3 8 3q3 0 10 -0.5t15.5 -1.5t17.5 -2t16 -1q10 0 32.5 2.5t49 5.5t53.5 5.5t47 2.5q37 0 67.5 -3t51.5 -7
q25 -4 44 -10q27 48 40.5 92.5t13.5 91.5q0 98 -47 149.5t-140 51.5q-52 0 -109.5 -18t-116 -52t-116.5 -81.5t-110 -107.5q-4 -5 -11 -4.5t-9 3.5q63 87 133 145t136.5 92.5t125.5 48.5t101 14q46 0 86 -12.5t68.5 -39t45 -68t16.5 -99.5q0 -52 -17.5 -106t-55.5 -111
q6 -2 10.5 -4t9.5 -4q26 -14 26 -25q0 -5 -7.5 -4t-18.5 4q-5 2 -15.5 4.5t-21.5 2.5zM1011 1078q0 -10 -9.5 -24t-14.5 -21q0 -1 -9.5 -13.5t-23.5 -31t-31 -40t-33 -39.5t-29 -30t-20 -12q-16 0 -17 13q0 7 15 28t35 46t40 49.5t31 38.5q21 28 32 38t20 10q12 0 13 -1
t1 -11z" />
    <glyph glyph-name="uniF467" unicode="&#x42e;`" horiz-adv-x="1420" 
d="M-26 20q20 -10 36.5 -8.5t33 12t33.5 27.5l38 38q17 17 41 47.5t51.5 68t56.5 78t58 78.5q-15 0 -46.5 -1.5t-66 -4.5t-66 -8.5t-46.5 -13.5q-48 -25 -87.5 -54.5t-59.5 -81.5q-13 -33 -14 -63t4.5 -54t15 -39.5t18.5 -20.5zM553 385q-20 -60 -22 -128q0 -54 17.5 -98
t49.5 -75t77.5 -48.5t102.5 -18.5q68 0 141.5 21.5t144 60t134.5 92t114 116.5q101 131 101 258q0 42 -17 78t-47 62.5t-71 41.5t-88 15q-44 0 -96 -17.5t-113 -54.5q-127 -74 -207 -182q-6 -6 -20 -3q147 189 283 250q34 15 55 23.5t31 11.5q42 14 94 14q118 0 183.5 -52
t65.5 -164q0 -67 -29 -137t-89 -145q-56 -71 -130 -131.5t-156.5 -105t-168.5 -70.5t-165 -27q-51 0 -95.5 17.5t-77.5 49t-52 75.5t-20 97q0 91 31 172l-167 -17q-20 -27 -43.5 -60.5t-48 -68t-47 -66.5t-40.5 -55q-29 -39 -53 -69t-45.5 -50t-42 -29.5t-42.5 -7.5
q-32 1 -51 25.5t-25 62t2 82.5t31 89q15 29 32 55.5t39.5 48.5t52 38t70.5 25q28 6 56 9t55 4.5t54.5 3t56.5 5.5q21 31 48 78.5t52.5 104t46.5 117t30 116.5l22 -16q-2 -23 -13 -64t-32 -94t-53 -114t-77 -125q31 3 54 5.5t40.5 4t31 2t24.5 1.5q38 76 103 146.5t156 122.5
q59 35 112 52.5t102 20.5v-13q-49 5 -156 -54q-195 -104 -280 -275q17 0 34 0.5t27 1.5q-10 -22 -32 -30.5t-45 -10.5zM1100 1054q0 -10 -9.5 -24t-14.5 -21q0 -1 -9.5 -13.5t-23.5 -31t-31 -40t-33 -39.5t-29 -30t-20 -12q-16 0 -17 13q0 7 15 28t35 46t40 49.5t31 38.5
q21 28 32 38t20 10q12 0 13 -1t1 -11z" />
    <glyph glyph-name="uniF468" unicode="&#x42f;`" horiz-adv-x="1436" 
d="M1130 1110q0 -10 -9.5 -24t-14.5 -21q0 -1 -9.5 -13.5t-23.5 -31t-11.5 -15t-13.5 -14.5t-29 -30t-20 -12q-16 0 -17 13q0 7 15 28t35 46t32 38q21 28 32 38t20 10q12 0 13 -1t1 -11zM1413 97q-42 -31 -80 -54t-75.5 -38.5t-77 -23t-85.5 -7.5q-61 0 -106.5 16t-76.5 45
t-46.5 69.5t-15.5 90.5q0 63 40.5 152t107.5 194q-6 -4 -17 -12.5t-22 -16.5q-12 -11 -26 -22q-34 -28 -80 -74.5t-100 -100t-114 -107t-121 -95.5q-42 -29 -86.5 -54t-89.5 -43.5t-88 -29t-80 -10.5q-46 0 -78.5 10t-53 27.5t-29 40t-7.5 47.5q2 43 15 75.5t33.5 58.5
t46 47.5t52.5 43.5l25 -1q-12 -10 -29 -27.5t-32 -41t-26 -52t-12 -60.5q0 -123 153 -123q22 0 51 8.5t62 22.5t68 33t70 39q39 23 83 56t88 71t86 77t77 73.5t60.5 60.5t37.5 39l-3 2q-18 -10 -39 -22t-45.5 -22t-52 -16.5t-57.5 -6.5q-71 0 -114.5 45.5t-43.5 122.5
q0 62 34.5 121.5t86.5 106t113.5 74.5t115.5 28q81 0 119.5 -37t38.5 -103q0 -35 -11.5 -73.5t-25.5 -70.5q-16 -38 -36 -73l3 -1l94 74q37 29 66.5 51.5t55.5 48.5q13 0 15 -11q-331 -296 -331 -522q0 -45 16 -82.5t45.5 -64.5t72 -42.5t96.5 -15.5q48 0 80.5 4.5t61 15
t58 27.5t71.5 41zM1042 774q0 28 -11.5 52.5t-32 41.5t-48 27t-59.5 10q-40 0 -87 -20t-87.5 -57t-67.5 -89.5t-27 -116.5q0 -70 36.5 -105t103.5 -35q41 0 85.5 15.5t91.5 53.5q49 52 76 111.5t27 111.5z" />
    <glyph glyph-name="uniF469" unicode="&#x401;`" horiz-adv-x="846" 
d="M911 711q0 -62 -87 -120q-84 -58 -177 -60q-75 0 -75 49q0 31 35 37q29 3 29 -11v-5t-2 -9q-1 -5 -1 -9.5v-6.5q3 -18 43 -19q72 0 133 43q61 45 61 91q0 37 -42 62q-41 23 -107 24q-63 0 -126.5 -18.5t-130.5 -57.5q-129 -78 -130 -151q0 -34 34 -80q17 -21 25 -35.5
t10 -22.5q0 -31 -90 -76q-70 -35 -111 -56.5t-55 -31.5q-64 -45 -87 -65q-37 -40 -39 -99q0 -62 47 -103q49 -39 124 -39q60 0 116 9.5t110 27.5q109 39 242 127q1 0 9 -15q-138 -99 -255 -143q-60 -21 -122 -31t-130 -12q-88 0 -140 41q-50 39 -51 109q0 76 59 135
q16 16 48.5 38t83.5 50l130 69q61 35 61 49q0 13 -34 62q-35 45 -35 75q0 86 162 181q81 46 159.5 68.5t156.5 24.5q63 0 106 -28t43 -68zM792 1038q0 -14 -11.5 -24.5t-31.5 -10.5q-19 0 -27 5t-8 20q0 13 13.5 23t32.5 10q15 0 23.5 -4.5t8.5 -18.5zM1017 1038
q0 -13 -13 -22t-33 -9q-19 0 -25.5 8.5t-6.5 19.5q0 14 14.5 21.5t33.5 7.5q20 0 25 -6.5t5 -19.5zM906 1063q0 -10 -9.5 -24t-14.5 -21q0 -1 -9.5 -13.5t-23.5 -31t-31 -40t-33 -39.5t-29 -30t-20 -12q-16 0 -17 13q0 7 15 28t35 46t40 49.5t31 38.5q21 28 32 38t20 10
q12 0 13 -1t1 -11z" />
    <glyph glyph-name="uniF46A" unicode="&#x430;`" horiz-adv-x="440" 
d="M416 85q2 -8 -4 -11q-69 -43 -132.5 -73.5t-110.5 -30.5q-54 0 -57 81q-9 -5 -27.5 -15.5t-39 -21.5t-41 -19.5t-33.5 -9.5q-19 -2 -34.5 5t-19.5 29q0 44 82 108q42 31 80 47t64 16q37 1 38 -18q0 -18 -13 -29q-10 -9 -25 -9q-1 1 -2 4q-1 2 -2 4.5t-3 6.5q-6 15 -24 16
q-39 0 -91 -44q-50 -42 -50 -76q0 -8 3 -14.5t11 -7.5q28 -2 55.5 9t58.5 32q13 9 45 44q20 24 35 23q12 0 12 -10q0 -9 -17 -39q-16 -28 -16 -41q0 -37 36 -38q32 0 64.5 10t60.5 24t49.5 28t31.5 21q5 2 9.5 3.5t6.5 -4.5zM273 361q0 -22 -6 -35q-5 -9 -41 -51
q-20 -17 -34.5 -25t-26.5 -10q-5 0 -8 15q0 5 15 19q8 7 14.5 12.5t8.5 9.5q5 8 8.5 15t7.5 17q2 8 4.5 16.5t4.5 17.5q6 15 27 18q26 0 26 -19z" />
    <glyph glyph-name="uniF46B" unicode="&#x435;`" horiz-adv-x="248" 
d="M226 86q0 -7 -3 -10q-84 -54 -145.5 -80t-115.5 -26q-35 0 -52.5 19.5t-17.5 51.5q0 44 51 103q54 57 92 57q12 0 22.5 -5t10.5 -25q0 -17 -19 -36.5t-39 -36.5q-15 -14 -33 -26.5t-41 -24.5q1 -23 18.5 -33t37.5 -10q33 0 90.5 17.5t133.5 68.5q3 3 6.5 2t3.5 -6z
M24 160q0 8 -13 8q-17 0 -45 -31q-14 -14 -21 -30t-7 -27q2 0 13 3.5t18 8.5q26 15 40.5 34.5t14.5 33.5zM180 383q0 -22 -6 -35q-5 -9 -41 -51q-20 -17 -34.5 -25t-26.5 -10q-5 0 -8 15q0 5 15 19q8 7 14.5 12.5t8.5 9.5q5 8 8.5 15t7.5 17q2 8 4.5 16.5t4.5 17.5
q6 15 27 18q26 0 26 -19z" />
    <glyph glyph-name="uniF46C" unicode="&#x438;`" horiz-adv-x="452" 
d="M416 85q4 2 7.5 4.5t5.5 -3.5q3 -7 -5 -13q-72 -54 -135.5 -83t-115.5 -29q-33 0 -52 22.5t-15 63.5q-12 -11 -29.5 -23t-36 -23t-36.5 -18t-32 -7q-16 0 -30 10.5t-14 33.5q-1 34 30 67q14 15 43 36.5t74 50.5q6 0 8 -4.5t-1 -10.5q-13 -8 -26 -17t-27 -20
q-25 -21 -36.5 -39.5t-13.5 -35.5q-3 -30 19 -35q18 -4 41.5 9.5t53.5 37.5q11 9 27.5 27t39.5 49q35 46 51 46q13 0 14 -11q0 -11 -38 -46q-36 -34 -36 -58q0 -44 17.5 -59t49.5 -15q24 0 53 10.5t62 27.5q17 9 40 22t43 33zM246 349q0 -22 -6 -35q-5 -9 -41 -51
q-20 -17 -34.5 -25t-26.5 -10q-5 0 -8 15q0 5 15 19q8 7 14.5 12.5t8.5 9.5q5 8 8.5 15t7.5 17q2 8 4.5 16.5t4.5 17.5q6 15 27 18q26 0 26 -19z" />
    <glyph glyph-name="uniF46D" unicode="&#x43e;`" horiz-adv-x="302" 
d="M345 164q0 -3 -0.5 -5.5t-3.5 -6.5q-36 -44 -110 -94q-40 -29 -70 -43t-50 -15q-28 0 -48 19q-9 -12 -46 -33q-43 -23 -80 -23q-52 0 -52 41q0 27 20 56.5t58 63.5q37 32 69.5 47t58.5 15q51 0 51 -48q0 -53 -60 -104q13 -13 32 -13q34 0 111 55q33 23 60.5 46t49.5 46
q1 3 6 1q4 0 4 -5zM128 146q0 16 -18 18q-23 0 -40 -20q-15 -18 -17 -43q0 -37 13 -49q60 47 62 94zM51 36q-20 20 -20 52q0 43 18 61q-119 -55 -119 -115q0 -37 29 -37q44 0 92 39zM220 359q0 -22 -6 -35q-5 -9 -41 -51q-20 -17 -34.5 -25t-26.5 -10q-5 0 -8 15q0 5 15 19
q8 7 14.5 12.5t8.5 9.5q5 8 8.5 15t7.5 17q2 8 4.5 16.5t4.5 17.5q6 15 27 18q26 0 26 -19z" />
    <glyph glyph-name="uniF46E" unicode="&#x443;`" horiz-adv-x="366" 
d="M264 142q0 -9 -65 -76q-60 -60 -99.5 -100t-60.5 -62q-59 -61 -111 -122t-100 -122q-20 -27 -29.5 -46t-11.5 -29q0 -3 1 -6.5t2 -9.5t1 -10.5v-6.5q-12 -32 -47 -34q-2 12 -3 20.5t-2 16.5q0 48 56 108l333 368q-85 -55 -132 -55t-47 49q0 39 32 92q32 44 53 54
q16 1 18 -10q-2 -2 -9.5 -10t-25.5 -29q-33 -40 -36 -79q0 -31 53 -33q40 0 124 69q83 68 95 69q10 0 11 -6zM274 327q0 -22 -6 -35q-5 -9 -41 -51q-20 -17 -34.5 -25t-26.5 -10q-5 0 -8 15q0 5 15 19q8 7 14.5 12.5t8.5 9.5q5 8 8.5 15t7.5 17q2 8 4.5 16.5t4.5 17.5
q6 15 27 18q26 0 26 -19z" />
    <glyph glyph-name="uniF46F" unicode="&#x44b;`" horiz-adv-x="530" 
d="M513 80q0 -9 -3 -11q-6 -4 -18.5 -11t-27.5 -15t-30.5 -16t-26.5 -13q-80 -37 -132 -37q-24 0 -42.5 11.5t-18.5 46.5q0 22 17 51.5t35 51.5q-14 -5 -32 -11.5t-38 -12.5q-7 -14 -17 -28t-23 -30q-77 -92 -159 -93q-55 0 -56 56q0 26 19.5 61t49.5 80q20 28 38.5 51.5
t30.5 49.5q5 11 14 21.5t17 15.5q7 4 16 8t17 7t14 4.5t7 1.5q15 0 15 -11q0 -14 -19 -33.5t-54 -50.5q-23 -21 -44.5 -45t-37.5 -48t-25.5 -45.5t-9.5 -36.5q0 -22 8.5 -34t40.5 -12q16 0 34.5 9t35.5 23.5t30.5 32t19.5 35.5q-26 -11 -45 -11q-5 0 -11.5 1t-12.5 4t-10 9
t-4 15q0 12 8 24t21 22t29.5 16t33.5 6t30 -7.5t13 -24.5q0 -6 -1 -13t-5 -15q40 11 67 25.5t44 19.5q13 0 13 -9q0 -8 -32 -44q-14 -18 -22 -37.5t-8 -30.5q0 -18 5.5 -32.5t30.5 -14.5q11 0 38 5t57 17q20 8 38.5 17.5t32.5 17t22.5 13t10.5 6.5q6 3 9 3t3 -5zM168 121
q6 13 6 24q0 9 -6 17.5t-21 8.5q-14 0 -26 -10.5t-12 -23.5t7.5 -19.5t18.5 -6.5q18 0 33 10zM393 438q0 -22 -6 -35q-5 -9 -41 -51q-20 -17 -34.5 -25t-26.5 -10q-5 0 -8 15q0 5 15 19q8 7 14.5 12.5t8.5 9.5q5 8 8.5 15t7.5 17q2 8 4.5 16.5t4.5 17.5q6 15 27 18
q26 0 26 -19z" />
    <glyph glyph-name="uniF470" unicode="&#x44d;`" horiz-adv-x="328" 
d="M79 84q-5 -2 -10 -1t-7 7q-2 5 4.5 9.5t11.5 4.5q11 2 24.5 2t28.5 1q7 0 15 0.5t16 1.5q9 1 17 1q4 7 7.5 15.5t3.5 20.5q0 14 -9.5 20.5t-32.5 6.5q-15 0 -34.5 -6t-41.5 -20q-25 -17 -38 -30t-17 -13q-5 0 -5 4q0 5 2 7t5 7q10 11 33 28.5t48 28.5q49 22 86 22
q44 0 44 -36q0 -14 -10 -38t-30 -45q-28 -30 -54.5 -49.5t-49.5 -31.5t-42.5 -16.5t-32.5 -4.5q-19 0 -31.5 9t-12.5 25q0 15 6.5 23.5t15.5 8.5t12 -4.5t9 -15.5q7 -16 30 -16q12 0 29.5 5t35.5 15.5t35 26.5t29 38q-19 2 -36 0q-14 -2 -26 -4t-28 -7zM297 373
q0 -22 -6 -35q-5 -9 -41 -51q-20 -17 -34.5 -25t-26.5 -10q-5 0 -8 15q0 5 15 19q8 7 14.5 12.5t8.5 9.5q5 8 8.5 15t7.5 17q2 8 4.5 16.5t4.5 17.5q6 15 27 18q26 0 26 -19z" />
    <glyph glyph-name="uniF471" unicode="&#x44e;`" horiz-adv-x="436" 
d="M207 35q-11 11 -17 26.5t-6 31.5q0 17 6 31.5t15 24.5q-22 -5 -43.5 -18.5t-39 -30.5t-28 -35t-10.5 -31q0 -36 31 -37q44 0 92 38zM282 146q0 6 -4 11.5t-15 6.5q-21 0 -38 -20q-8 -10 -12 -21t-6 -22q0 -38 16 -51q59 48 59 96zM67 72q-13 -5 -32.5 -14.5t-43.5 -17.5
q-10 -9 -20 -20.5t-19 -21t-15.5 -16t-9.5 -6.5q-9 0 -12 3.5t-3 7.5q0 11 38 67q22 31 34 49.5t16 26.5q0 8 -5 8.5t-5 5.5q0 9 11.5 19t30.5 10q11 0 21 -4.5t5 -21.5q-1 -4 -8 -15t-15 -24t-16.5 -25t-12.5 -18q12 4 21 8t17 8l16 8t18 10q12 7 21.5 12t18.5 13
q74 62 127 62q52 0 52 -48q0 -22 -15.5 -49.5t-44.5 -53.5q6 -7 17 -11.5t22 -4.5q17 0 47.5 8t69.5 40q3 -1 5 -2q5 -3 2 -7q-41 -34 -72 -45.5t-55 -11.5q-13 0 -27 5.5t-25 15.5q-9 -9 -24 -19t-33 -19t-36.5 -15t-35.5 -6q-52 0 -52 41q0 14 7 31.5t20 36.5zM245 356
q0 -22 -6 -35q-5 -9 -41 -51q-20 -17 -34.5 -25t-26.5 -10q-5 0 -8 15q0 5 15 19q8 7 14.5 12.5t8.5 9.5q5 8 8.5 15t7.5 17q2 8 4.5 16.5t4.5 17.5q6 15 27 18q26 0 26 -19z" />
    <glyph glyph-name="uniF472" unicode="&#x44f;`" horiz-adv-x="477" 
d="M212 234q-26 0 -43 -20.5t-17 -45.5q0 -17 11.5 -29t38.5 -12q26 15 37 35t11 37q-3 35 -38 35zM52 -6q-27 -15 -56 -15q-23 0 -38 14t-15 43q0 20 13.5 37t33.5 17q17 0 17 -12q-2 -8 -4 -16.5t-2 -18.5q0 -11 4.5 -20.5t15.5 -9.5q17 0 35.5 9t47.5 29q23 15 45.5 32
t36.5 26q-5 -1 -9 -1h-9q-26 1 -40.5 14t-14.5 34q0 20 11.5 38.5t29 32t38 21.5t38.5 8q28 0 39 -12t11 -29t-8.5 -34.5t-18.5 -28.5q6 2 17 8t17 6q7 0 7 -8q0 -10 -16.5 -28t-33.5 -35q-16 -16 -26.5 -32.5t-10.5 -35.5q0 -16 9 -26t32 -10q30 -1 74 15.5t116 66.5
q2 2 6 2q2 0 5 -5q0 -9 -5 -11q-44 -27 -77.5 -45t-59 -29t-45 -15.5t-35.5 -4.5q-62 0 -62 48q0 12 10 28.5t23 33t26.5 31t20.5 23.5l-22 -8q-6 -4 -26.5 -20.5t-46 -37t-52.5 -40t-46 -29.5zM361 424q0 -22 -6 -35q-5 -9 -41 -51q-20 -17 -34.5 -25t-26.5 -10q-5 0 -8 15
q0 5 15 19q8 7 14.5 12.5t8.5 9.5q5 8 8.5 15t7.5 17q2 8 4.5 16.5t4.5 17.5q6 15 27 18q26 0 26 -19z" />
    <glyph glyph-name="uniF473" unicode="&#x451;`" horiz-adv-x="254" 
d="M226 86q1 -5 -3 -11q-83 -53 -144 -79t-117 -26q-69 0 -70 71q0 45 51 102q52 57 92 57q9 0 20 -4t13 -25q1 -17 -18.5 -37t-39.5 -37q-15 -13 -33 -25.5t-41 -24.5q-2 -13 3 -19t16 -14q18 -10 37 -11q33 0 90.5 17.5t133.5 69.5q3 2 6.5 1.5t3.5 -5.5zM24 160
q0 5 -13 8q-16 0 -45 -31q-14 -15 -21 -31t-7 -27q2 0 13 4t18 9q26 15 39.5 34t15.5 34zM116 266q0 -23 -34 -26q-29 0 -30 26q0 25 31 25q14 0 23 -8q10 -7 10 -17zM26 266q0 -23 -34 -26q-29 0 -30 26q0 25 31 25q12 0 23 -8q10 -7 10 -17zM156 439q0 -22 -6 -35
q-5 -9 -41 -51q-20 -17 -34.5 -25t-26.5 -10q-5 0 -8 15q0 5 15 19q8 7 14.5 12.5t8.5 9.5q5 8 8.5 15t7.5 17q2 8 4.5 16.5t4.5 17.5q6 15 27 18q26 0 26 -19z" />
    <glyph glyph-name="uniFB01" unicode="fi" horiz-adv-x="525" 
d="M553 645q0 -43 -104 -164q-99 -113 -216 -203q-56 -44 -106.5 -77.5t-98.5 -56.5l-39 -69h166q20 0 20 -19q0 -8 -20 -11l-194 -8q-49 -65 -78.5 -102.5t-40.5 -48.5q-23 -28 -55 -63t-76 -79q-29 -29 -59 -55t-65 -49q-57 -38 -105.5 -57t-93.5 -19q-28 0 -47 15
q-20 14 -20 33q0 23 26 23q4 -3 8 -7q6 -7 23 -20q13 -11 24.5 -15.5t23.5 -6.5q21 0 50 11t69 34q75 44 142 113q41 42 80 86.5t77 94.5q35 45 51.5 73t18.5 39h-11q-24 0 -24 21q0 17 38 17h31q20 32 60 93.5t104 152.5q130 184 229 275.5t166 92.5q19 0 33 -13
q13 -13 13 -31zM514 645q0 23 -35 23q-33 0 -115 -72q-40 -36 -75 -74.5t-67 -81.5q-33 -45 -78.5 -111t-105.5 -154l58.5 39t82.5 52q51 32 104.5 77.5t110.5 107.5q120 129 120 194zM406 239q0 -28 -40 -28q-39 0 -39 28q0 29 39 29q40 0 40 -29zM569 164q0 -6 -5 -10
q-54 -47 -87 -74t-48 -37q-88 -65 -134 -65q-28 0 -53 17q-23 16 -25 40q0 37 39 87q35 46 62 52q13 0 13 -9q0 -4 -32 -44q-30 -35 -30 -68q0 -41 37 -41q42 0 252 156q2 2 6 2q3 0 5 -6z" />
    <glyph glyph-name="uniFB02" unicode="fl" horiz-adv-x="594" 
d="M752 635q0 -42 -41 -102.5t-116 -141.5q-85 -90 -176.5 -170t-192.5 -161q1 -21 34 -39q29 -16 68 -16q74 0 173 65l131 98q3 2 8 2q3 0 3 -6q0 -7 -3 -11q-45 -37 -81 -64.5t-65 -45.5q-53 -32 -98 -48t-86 -16q-119 0 -135 79v-2q0 -8 -20 -11l-194 -8
q-49 -65 -78.5 -102.5t-40.5 -48.5q-23 -28 -55 -63t-76 -79q-29 -29 -59 -55t-65 -49q-57 -38 -105.5 -57t-93.5 -19q-28 0 -47 15q-20 14 -20 33q0 23 26 23q4 -3 8 -7q6 -7 23 -20q13 -11 24.5 -15.5t23.5 -6.5q21 0 50 11t69 34q75 44 142 113q41 42 80 86.5t77 94.5
q35 45 51.5 73t18.5 39h-11q-24 0 -24 21q0 17 38 17h31q20 32 60 93.5t104 152.5q130 184 229 275.5t166 92.5q19 0 33 -13q13 -13 13 -31q0 -10 -4 -21q91 65 153 65q13 0 19.5 -4t14.5 -12q16 -15 16 -38zM706 624q0 20 -9.5 28t-35.5 8q-23 0 -54.5 -18t-73.5 -51
q-13 -22 -34 -49t-50 -61q-73 -84 -154 -153q-14 -25 -26 -51.5t-23 -55.5q-25 -69 -28 -114q0 -13 5 -21q30 20 69.5 53t81.5 70.5t81 74.5t68 65q87 85 123 139q25 36 42.5 70t17.5 66zM514 645q0 23 -35 23q-33 0 -115 -72q-40 -36 -75 -74.5t-67 -81.5
q-33 -45 -78.5 -111t-105.5 -154l58.5 39t82.5 52q23 14 46.5 31.5t48.5 37.5q92 137 218 243q22 38 22 67zM155 75q14 0 19 -12q-1 5 -1.5 11t-0.5 12q0 81 70 199q-3 -3 -9 -7q-56 -44 -106.5 -77.5t-98.5 -56.5l-39 -69h166zM394 451q19 20 35 39.5t30 36.5
q-71 -66 -121 -134l28 28t28 30z" />
    <glyph glyph-name=".notdef" horiz-adv-x="500" 
d="M442 8v496h-384v-496h384zM50 512h400v-512h-400v512z" />
    <glyph glyph-name="glyph1" horiz-adv-x="0" 
 />
    <glyph glyph-name="glyph2" horiz-adv-x="238" 
 />
    <glyph glyph-name="space" unicode=" " horiz-adv-x="238" 
 />
    <glyph glyph-name="exclam" unicode="!" horiz-adv-x="343" 
d="M589 739q0 -16 -43 -50q-4 -2 -85 -95l-193 -223q-51 -58 -81.5 -96t-43.5 -56q-15 -24 -17 -53q0 -11 3 -29q2 -8 3 -14.5t2 -11.5q0 -11 -11 -16q-9 -6 -17 -6q-17 0 -18 38q0 61 153 259l271 351q3 6 5 11.5t6 10.5q4 10 29 12q35 0 37 -32zM71 -8q0 -12 -19 -24
q-17 -9 -28 -9q-40 0 -41 30q0 13 15 21q12 9 31 9q42 0 42 -27z" />
    <glyph glyph-name="quotedbl" unicode="&#x22;" horiz-adv-x="179" 
d="M437 645q0 -22 -10 -36q0 -1 -41 -51q-23 -20 -38.5 -29t-25.5 -11q-7 0 -7 14q0 8 13 17q8 6 14.5 12.5t13.5 14.5q18 22 30 70q3 15 26 17q25 0 25 -18zM347 645q0 -22 -9 -35q-3 -6 -43 -52q-23 -20 -38.5 -29t-25.5 -11q-6 0 -6 14q0 6 12 17q10 6 16.5 12.5
t11.5 14.5q11 12 18 29t12 41q3 15 26 17q26 0 26 -18z" />
    <glyph glyph-name="numbersign" unicode="#" horiz-adv-x="551" 
d="M597 386q0 -18 -15 -25h-25q-33 0 -52 0.5t-25 2.5q-6 3 -67 3q-11 -13 -32 -39t-53 -65l152 -7q0 -19 -15 -24h-7.5t-16.5 -1h-63t-73 2q-59 -75 -93.5 -122t-46.5 -67l-22 3q20 30 53 77t82 111q-32 1 -65.5 1.5t-71.5 0.5q-52 -54 -89 -98t-60 -82l-23 2q30 48 65 92
t74 88l-81 3q-39 0 -41 5q0 14 36 22h112l85 108l-84 2q-39 0 -40 7q0 15 35 21l111 -3l109 136l31 -14l-102 -123l127 -5l121 146l31 -14l-115 -132zM381 369l-124 6l-86 -106l128 -6z" />
    <glyph glyph-name="dollar" unicode="$" horiz-adv-x="373" 
d="M544 627q0 -28 -49 -48q-39 -12 -39 0q0 1 25 17q24 12 27 31q0 29 -42 29q-67 0 -144 -34q-91 -39 -91 -91q0 -27 35 -37l109 -35q52 -16 53 -56q0 -46 -28 -75q-11 -10 -29 -20t-43 -21q-29 -11 -58.5 -16.5t-60.5 -6.5q-22 0 -47 3l-63 -110l-13 11l59 104
q-17 6 -30 16t-24 23l11 9q30 -24 58 -34q10 -1 25.5 -2t38.5 -1q58 0 117 25q68 30 69 72q0 23 -19 30l-145 46q-53 15 -54 68q0 95 271 150l58 91l12 -9l-51 -82q62 -3 62 -47z" />
    <glyph glyph-name="percent" unicode="%" horiz-adv-x="708" 
d="M881 686q-78 -54 -137 -95t-100 -70q-72 -52 -130 -98t-106 -89q-54 -47 -111.5 -100t-120.5 -113q-51 -50 -77.5 -75.5t-30.5 -27.5q-12 -36 -23 -50q-12 -13 -36 -13q-7 0 -14 4q-7 3 -9 7q0 5 8 18t27 36q35 42 68 72q198 171 358 300t286 219q-105 -40 -167 -59.5
t-84 -20.5q-27 0 -46 3.5t-32 11.5q-110 -91 -168 -91q-65 0 -68 48q0 68 65 131q63 60 141 63l18 -8q-74 -9 -134 -60q-56 -47 -59 -97q0 -21 17 -37q18 -14 42 -14q30 0 80 34q21 15 34.5 26t19.5 22q-5 26 -3.5 49.5t9.5 44.5q15 43 43 44q27 0 28 -26q0 -30 -11.5 -58
t-36.5 -54q12 -8 25 -11t28 -4q27 0 83.5 18.5t144.5 56.5l76 39q26 13 44 19.5t30 7.5q12 0 29 -3zM665 208q0 -44 -91 -125q-93 -78 -155 -80q-22 0 -37 18q-14 19 -16 46q0 40 54 94q47 45 113 85l9 -6l-59 -40q-17 -14 -31.5 -26t-25.5 -25q-26 -31 -26 -57
q0 -11 3 -21.5t10 -19.5q11 -15 36 -17q45 0 110 51q66 54 69 108q0 52 -56 46q0 19 18 19q17 0 31 -3.5t25 -11.5q16 -12 19 -35zM449 661q0 17 -11 18q-11 0 -19 -14q-4 -6 -5.5 -13t-3.5 -13q0 -56 2 -59q37 46 37 81z" />
    <glyph glyph-name="ampersand" unicode="&#x26;" horiz-adv-x="918" 
d="M869 256q0 -6 -17 -12l-33 -11q-10 -3 -35.5 -6.5t-67.5 -6.5q-17 -23 -37.5 -49.5t-43.5 -58.5q22 -28 61 -61q20 -15 38.5 -30.5t36.5 -31.5l-21 -17q-13 7 -26 13.5t-27 14.5q-31 19 -57 38.5t-47 41.5q-95 -65 -157 -91q-67 -26 -153 -26q-97 0 -155 45
q-59 43 -61 111q0 69 58 128q59 61 210 151q-9 28 -13 60t-5 67q0 82 108 183q107 100 201 101q38 0 63 -25q26 -23 27 -57q0 -67 -138 -184q-41 -33 -88.5 -68t-102.5 -71q43 -111 227 -275q16 14 35 36.5t41 56.5q-31 0 -33 14q0 15 27 29q6 2 46 4q139 0 139 -13z
M671 708q0 62 -86 63q-41 0 -81 -18.5t-78 -56.5q-74 -74 -76 -156q0 -27 12 -69q3 -14 6.5 -25.5t8.5 -24.5q41 28 81.5 55.5t83.5 56.5q129 96 129 175zM574 97q-24 20 -47 40t-44 42q-97 100 -143 198q-121 -75 -169 -130q-47 -56 -48 -120q0 -65 43 -106q43 -40 117 -40
q91 0 145 22q27 11 63.5 34.5t82.5 59.5z" />
    <glyph glyph-name="quotesingle" unicode="'" horiz-adv-x="49" 
d="M316 643q0 -22 -6 -35q-5 -9 -41 -51q-20 -17 -34.5 -25t-26.5 -10q-5 0 -8 15q0 5 15 19q8 7 14.5 12.5t8.5 9.5q5 8 8.5 15t7.5 17q2 8 4.5 16.5t4.5 17.5q6 15 27 18q26 0 26 -19z" />
    <glyph glyph-name="parenleft" unicode="(" horiz-adv-x="332" 
d="M606 743q-89 -69 -140.5 -109t-66.5 -54q-44 -41 -89 -97.5t-92 -131.5q-45 -71 -75 -126t-46 -94q-17 -48 -29.5 -105t-18.5 -125q-13 13 -13 18q0 238 115 434q64 109 142 185q30 29 67 58t82 60q40 25 78.5 50t79.5 51z" />
    <glyph glyph-name="parenright" unicode=")" horiz-adv-x="332" 
d="M345 716q0 -237 -115 -433q-64 -109 -142 -186q-30 -29 -67.5 -58t-82.5 -60q-40 -25 -78.5 -50t-79.5 -51l-5 14q177 137 206 164q45 41 90 97t92 131q45 71 75 126t46 95q17 47 29.5 104t18.5 125q13 -13 13 -18z" />
    <glyph glyph-name="asterisk" unicode="*" horiz-adv-x="167" 
d="M421 713q0 -16 -67 -42q37 -24 38 -39q0 -10 -9 -10q-13 0 -43 33v-50q0 -20 -18 -20q-12 0 -15 30v23q-24 -12 -42 -17.5t-29 -7.5q-5 0 -5 6q0 7 7 14q11 6 27.5 15.5t39.5 24.5q-35 32 -35 47q0 10 11 10q6 0 17 -11l19 -20q7 30 22 31q9 0 2 -37q50 26 70 27
q10 0 10 -7z" />
    <glyph glyph-name="plus" unicode="+" horiz-adv-x="486" 
d="M487 257q0 -18 -15 -25h-8t-17 -2q-33 0 -60 1t-49 3q-21 2 -45.5 3t-54.5 1q-51 -54 -88 -98.5t-60 -81.5l-24 1q61 93 140 180l-151 2q-39 0 -40 6q0 16 36 22h180l130 123l31 -13l-125 -110z" />
    <glyph glyph-name="comma" unicode="," horiz-adv-x="268" 
d="M89 48q0 -22 -10 -35q-1 -2 -11 -14t-32 -37q-45 -41 -63 -42q-6 0 -7 15q0 7 15 18q21 16 26 24q10 14 29 73q5 14 27 17q26 0 26 -19z" />
    <glyph glyph-name="hyphen" unicode="-" horiz-adv-x="372" 
d="M342 102q0 -10 -28 -10q-10 0 -27 4q-8 2 -14 3t-11 3q-26 0 -51 -2.5t-51 -7.5q-23 -4 -35 -5.5t-15 -3.5q-31 0 -45 13q-30 20 -32 32q0 4 8 4q3 0 10.5 -1t19.5 -3q11 -2 20 -2h15q2 0 16.5 1.5t41.5 5.5q27 3 49 4.5t42 3.5q31 0 61 -15q26 -14 26 -24z" />
    <glyph glyph-name="period" unicode="." horiz-adv-x="265" 
d="M108 23q0 -34 -47 -35q-42 0 -43 35q0 35 44 35q17 0 32 -11q13 -8 14 -24z" />
    <glyph glyph-name="slash" unicode="/" horiz-adv-x="547" 
d="M833 674q-16 -22 -37 -37l-38 -24q-102 -69 -191 -135t-168 -131q-51 -42 -109 -93.5t-124 -113.5q-57 -54 -90 -87.5t-44 -46.5t-15 -43q-13 -14 -25 -20.5t-26 -7.5q-9 0 -10 10v8t1 16q0 45 434 395q88 72 198 150l185 130q3 1 3 15q0 9 15 11q39 9 41 4z" />
    <glyph glyph-name="zero" unicode="0" horiz-adv-x="836" 
d="M872 552q0 -115 -97 -260q-93 -134 -227 -230q-139 -97 -257 -99q-76 0 -129 60q-51 60 -54 144q0 112 78 229q29 42 61.5 77t70.5 64q93 72 212 118v-11q-164 -57 -273 -181q-54 -62 -80.5 -123.5t-26.5 -127.5q0 -86 53 -151t126 -65q105 0 227 88q113 81 193 203
q80 125 82 231q0 54 -42 93q-43 36 -106 37q-58 0 -113 -21q-56 -20 -138 -73q-5 4 -5 11q2 9 13 15q171 101 280 101q152 0 152 -129z" />
    <glyph glyph-name="one" unicode="1" horiz-adv-x="500" 
d="M577 640q0 -18 -187 -253l-300 -378l80 1l-25 -33l-145 -26q-11 -2 -16.5 -2.5t-7.5 -0.5q-34 0 -37 18q0 14 37 23l92 19q156 189 271 334.5t192 253.5q-68 9 -68 18q0 13 43 38q41 20 48 21q8 0 23 -33z" />
    <glyph glyph-name="two" unicode="2" horiz-adv-x="829" 
d="M893 607q0 -51 -56 -132q-83 -122 -228 -223q-63 -38 -124.5 -76t-124.5 -78q218 -98 298 -102q8 -4 4 -11q-24 -3 -48 -4.5t-48 -3.5q-91 0 -267 83q-152 -79 -230 -79q-39 0 -63 18q-23 17 -23 46q0 45 43 78q41 31 99 34q26 0 56 -5t66 -17q21 -7 42 -13.5t43 -14.5
q101 43 255 154q52 37 95.5 78t81.5 86q72 93 73 153q0 39 -28 63q-27 26 -73 26q-133 0 -290 -174l-8 6q96 109 173 153q37 23 78.5 33t87.5 12q114 0 116 -90zM263 78q-102 52 -164 53q-47 0 -69 -16.5t-24 -50.5q0 -24 21 -41q18 -13 54 -15q28 0 73 17t109 53z" />
    <glyph glyph-name="three" unicode="3" horiz-adv-x="662" 
d="M721 614q0 -47 -44 -88q-23 -23 -68 -52.5t-111 -68.5q62 -6 97 -44q33 -35 33 -79q0 -63 -63 -136q-32 -39 -74 -70t-93 -57q-57 -28 -114.5 -41.5t-117.5 -14.5q-125 0 -211 110l7 1q36 -27 65 -45t53 -28q45 -16 109 -17q145 0 266 88t121 195q0 51 -35 86
q-34 36 -84 34q-148 -58 -177 -58q-35 0 -35 32q0 14 37 33q38 17 70 18h23.5t27.5 -1l55 -2q204 93 204 186q0 37 -28 50q-24 12 -95 14q-80 0 -157 -38q-13 -7 -50.5 -30.5t-103.5 -65.5l-2 7l74 59q31 23 62 40.5t63 30.5q45 17 90.5 24.5t94.5 9.5q110 0 111 -82z
M394 390q-10 3 -19 4t-20 1q-10 0 -23 -4t-31 -12q-32 -15 -33 -24q0 -3 2.5 -3.5t8.5 -2.5q14 0 57 17q19 6 33 11.5t25 12.5z" />
    <glyph glyph-name="four" unicode="4" horiz-adv-x="764" 
d="M826 258q0 -12 -8 -15q-8 0 -18 5q-3 3 -6 3.5t-8 1.5q-10 0 -46 -2.5t-101 -7.5q-64 -4 -97 -5.5t-38 -3.5q-11 -14 -53 -60t-117 -127q-7 -7 -10 -22l-5 -30q-7 -32 -48 -32q-23 0 -23 13q0 17 45 56q10 8 27.5 27.5t44.5 49.5q44 51 69.5 80.5t33.5 38.5
q-227 -12 -230 -12q-146 0 -146 66q0 33 39 73q20 21 58 50t93 67q69 49 139 90t142 78q141 71 199 71q23 0 37 -14q15 -14 15 -34q0 -18 -11 -33q-8 -8 -15.5 -17.5t-15.5 -18.5l-250 -323q98 12 160 18t91 7q19 0 36 -11q8 -5 11.5 -11.5t5.5 -15.5zM766 645q0 35 -52 36
q-103 0 -422 -224q-170 -120 -170 -145q0 -53 123 -54h23.5t26.5 1l195 11q41 50 81.5 100.5t82.5 101.5q109 140 112 173z" />
    <glyph glyph-name="five" unicode="5" horiz-adv-x="669" 
d="M783 715q-3 -7 -9 -16t-17 -20q-14 -8 -24 -13t-15 -9q-8 -3 -16.5 -5t-19.5 -4q-6 -2 -268 -24q-10 -10 -58.5 -72t-139.5 -178q81 30 145.5 45.5t115.5 15.5q57 0 94 -40q18 -20 26.5 -44t10.5 -55q0 -116 -145 -224q-76 -57 -157.5 -84t-169.5 -28q-110 0 -171 119
l7 6q66 -102 164 -103q80 0 150.5 21.5t133.5 63.5q129 86 132 214q0 120 -162 122q-26 0 -105 -27q-78 -26 -77 -26q-17 0 -18 16q0 25 239 306q165 21 252.5 31t101.5 12z" />
    <glyph glyph-name="six" unicode="6" horiz-adv-x="705" 
d="M813 619q0 -27 -16 -68q-16 -42 -27 -44q-13 0 -14 15q0 6 1 17t5 28q6 31 6 55q0 32 -30 53q-16 10 -34.5 15t-43.5 6q-105 0 -237 -90q-125 -85 -207 -212q-88 -131 -89 -242q0 -76 41 -130q41 -51 101 -53q96 0 191 74q103 81 103 187q0 75 -40 119q-37 41 -111 41
q-58 0 -184 -52v11q59 32 106 47.5t84 17.5q86 0 138 -41q48 -39 48 -113q0 -116 -123 -216q-57 -47 -113.5 -69.5t-113.5 -24.5q-72 0 -123 57q-49 55 -51 141q0 59 27 122.5t81 136.5q97 130 243 225q148 98 259 98q55 0 89 -31q31 -27 34 -80z" />
    <glyph glyph-name="seven" unicode="7" horiz-adv-x="488" 
d="M684 663q0 -5 -5.5 -11.5t-19.5 -17.5q-40 -27 -56 -40q-38 -35 -71.5 -65t-61.5 -57q-60 -56 -109.5 -105t-88.5 -92q-188 -209 -188 -256q0 -6 0.5 -12t3.5 -12l4 -12q0 -4 -17 -15q-14 -10 -24 -10q-16 0 -19 38q0 50 106 159q45 49 88 97.5t87 98.5q78 82 162 158.5
t175 149.5q-11 2 -26 3t-35 2q-20 0 -53.5 -3t-83.5 -8q-48 -5 -80.5 -9.5t-50.5 -9.5q-29 -6 -62 -24q-28 -12 -37 -15q-26 0 -26 28q0 26 38 36q21 4 42.5 8t44.5 9q18 3 53.5 7t89.5 10q114 9 173 9q45 0 47 -39z" />
    <glyph glyph-name="eight" unicode="8" horiz-adv-x="687" 
d="M797 611q-48 -94 -203 -158l-179 -76q100 -58 149 -112t51 -105q0 -79 -100 -142q-49 -31 -105 -46t-119 -17q-51 0 -95 12.5t-81 38.5t-54.5 57t-19.5 68q0 148 324 253q-52 69 -52 119q0 76 79 134q76 57 182 60q63 0 103 -26q39 -26 39 -67q0 -44 -11 -68q33 23 44 34
q18 15 34 49zM678 581q0 43 -34 71q-32 24 -92 26q-89 0 -156 -51q-34 -26 -50 -55.5t-18 -64.5q0 -52 59 -114q16 5 55 18t102 36q132 48 134 134zM574 149q0 28 -17.5 56t-51.5 60l-134 108q-134 -59 -190 -101q-88 -64 -88 -149q0 -69 52 -112q51 -41 146 -41
q116 0 199 52q42 26 62 57.5t22 69.5z" />
    <glyph glyph-name="nine" unicode="9" horiz-adv-x="693" 
d="M730 503q0 -118 -94 -251q-86 -121 -216 -205q-134 -84 -245 -84q-26 0 -49.5 5.5t-46.5 18.5q-43 21 -107 84l13 7q54 -57 94 -80q21 -10 44.5 -14.5t51.5 -6.5q124 0 250 89q113 80 188 201q75 123 76 221q0 36 -13 66.5t-39 56.5q-49 52 -123 52q-103 0 -188 -71
q-81 -69 -81 -163q0 -87 57 -143q60 -55 148 -55q89 0 90 -4q0 -10 -1 -11q-72 -18 -138 -18q-77 0 -138 58q-58 58 -59 135q0 117 102 207q100 91 229 91q86 0 141 -52q52 -48 54 -134z" />
    <glyph glyph-name="colon" unicode=":" horiz-adv-x="255" 
d="M159 139q0 -34 -45 -35q-43 0 -43 35q0 36 43 36q19 0 31 -11q13 -10 14 -25zM113 23q0 -33 -46 -36q-43 0 -43 36q0 35 44 35q16 0 31 -11q13 -9 14 -24z" />
    <glyph glyph-name="semicolon" unicode=";" horiz-adv-x="246" 
d="M149 140q0 -33 -47 -34q-42 0 -43 34q0 36 44 36q15 0 31 -11q12 -11 15 -25zM90 48q0 -22 -10 -35q0 -2 -11 -14t-32 -37q-45 -41 -63 -42q-5 0 -8 15q0 7 14 18q15 9 28 26q8 11 16 28.5t13 42.5q3 14 27 17q26 0 26 -19z" />
    <glyph glyph-name="less" unicode="&#x3c;" horiz-adv-x="414" 
d="M422 468q5 -19 -37 -44q-17 -14 -34.5 -27.5t-36.5 -27.5q-47 -31 -93.5 -55.5t-95.5 -44.5q41 -21 94.5 -35t121.5 -19q74 -6 76 -24q0 -12 -38 -12q-104 0 -165 18q-23 8 -46.5 14t-49.5 14q-47 21 -46 55q0 15 9 20q5 3 14 5t25 6q20 3 87 37q44 21 80.5 43t65.5 45
q12 10 26 20t29 21q10 2 14 -9z" />
    <glyph glyph-name="equal" unicode="=" horiz-adv-x="502" 
d="M492 364q0 -9 -15 -21q-7 -5 -13.5 -7.5t-14.5 -4.5q-62 0 -133 -1t-154 -4l-49 -3q-20 0 -21 7q0 20 25 26q3 0 17.5 1t40.5 5q59 0 125 1t141 4q8 1 16.5 1.5t17.5 2.5q16 0 17 -7zM492 244q0 -11 -15 -22q-14 -9 -28 -12q-62 0 -133 -1t-154 -4l-49 -4q-19 0 -21 8
q0 19 25 26q3 0 17.5 1t40.5 5q59 0 125 1.5t141 3.5q8 1 16.5 1.5t17.5 2.5q15 0 17 -6z" />
    <glyph glyph-name="greater" unicode="&#x3e;" horiz-adv-x="415" 
d="M427 254q-2 -13 -12 -18q-4 -2 -13.5 -2.5t-24.5 -0.5q-79 -3 -214 -60q-30 -13 -46.5 -18.5t-19.5 -5.5q-9 0 -9 12q3 15 48 31q17 9 34.5 16.5t36.5 15.5q86 36 171 52q-69 50 -223 93q-35 10 -50 18.5t-14 18.5q0 10 37 6q93 -9 176 -51l86 -43q43 -30 37 -64z" />
    <glyph glyph-name="question" unicode="?" horiz-adv-x="628" 
d="M846 594q0 -61 -57 -119q-50 -45 -100 -61q-63 -16 -144 -37.5t-183 -50.5q-40 -11 -74.5 -25.5t-65.5 -33.5q-61 -40 -76 -79q-5 -13 -5 -34q1 -35 3 -35q0 -9 -10 -15q-10 -5 -21 -4q-18 3 -18 24q0 34 16.5 64t51.5 58q29 21 72.5 42.5t103.5 42.5q17 7 66 20.5
t130 35.5q112 30 166 63q36 22 63 67q24 42 26 83q0 57 -51 95q-50 36 -135 36q-58 0 -113 -14t-108 -44q-22 -11 -45 -27t-49 -37q-17 -13 -32.5 -27t-32.5 -28l-9 1q32 28 62 54t62 52q114 92 299 93q95 0 151 -39q54 -41 57 -121zM127 5q0 -13 -22 -26q-8 -5 -14 -6.5
t-12 -2.5q-40 0 -41 27q0 14 18 25q10 6 19 8.5t20 3.5q32 0 32 -29z" />
    <glyph glyph-name="at" unicode="@" horiz-adv-x="859" 
d="M836 484q0 -128 -85 -253q-43 -62 -84.5 -92.5t-85.5 -30.5q-23 0 -41 21q-16 22 -16 47q0 23 7 53.5t23 67.5l-5 3q-32 -37 -54 -62t-39 -39q-61 -52 -134 -54q-41 0 -71 20q-29 20 -29 51q0 94 93 203q100 116 217 140q13 2 22.5 2t17.5 2q32 0 39 -25q3 -17 3 -29
q0 -34 -33 -34q-1 0 -12 15q-4 8 -9 14t-10 11q-15 12 -40 9q-40 -7 -79.5 -36t-81.5 -83q-77 -100 -77 -170q0 -7 3.5 -13t13.5 -14q15 -12 30 -12q78 0 204 120q32 32 79 101q34 54 48 58q3 0 6.5 -0.5t10.5 -2.5q8 -3 11 -11q0 -5 -30 -47q-19 -26 -31 -45.5t-20 -34.5
q-17 -42 -26.5 -78t-10.5 -65q0 -48 36 -48q54 0 132 114q78 117 80 218q0 49 -15.5 84.5t-45.5 61.5q-32 25 -74.5 36.5t-97.5 13.5q-105 0 -214 -85q-97 -73 -167 -189q-67 -109 -67 -198q0 -211 309 -214q85 0 161 34.5t145 102.5q9 11 24 12q6 0 3 -8q-69 -77 -160 -122
q-89 -42 -186 -43q-145 0 -230 49q-98 59 -99 178q0 106 74 227q75 118 184 198q116 83 229 85q120 0 187 -57q68 -56 68 -157z" />
    <glyph glyph-name="A" unicode="A" horiz-adv-x="1040" 
d="M918 448q0 -35 -3.5 -83.5t-10.5 -111.5q-13 -123 -30 -194q5 2 8 4t8 6q6 6 12 6q11 0 11 -8q0 -6 -43 -39l-6 -54q-1 -8 -5 -13.5t-11 -11.5q-11 -8 -25 -11q-7 0 -7 17q0 11 0.5 25t3.5 31q-107 -46 -188 -46q-53 0 -191 54t-174 54q-81 0 -161 -29
q-32 -12 -65.5 -29.5t-73.5 -42.5l-127 -82q-9 -5 -30 -7q-13 0 -13 12l37 17q32 17 79 48.5t110 80.5q36 27 94 81t140 135q78 78 141 143.5t114 122.5q123 140 247 140q91 0 131 -78q14 -26 20.5 -60t7.5 -77zM866 427q0 201 -129 201q-77 0 -169 -80q-16 -13 -176 -176
l-174 -178q-46 -45 -93 -86.5t-95 -79.5q49 21 80.5 34t46.5 18q52 15 122 15q37 0 93.5 -12t133.5 -39q77 -24 118.5 -36t49.5 -14q37 0 85 17q17 6 33 12.5t33 14.5l26 212q15 126 15 177z" />
    <glyph glyph-name="B" unicode="B" horiz-adv-x="877" 
d="M918 691q0 -64 -58.5 -137t-175.5 -158q136 -73 136 -137q0 -110 -228 -216q-210 -95 -383 -97q-140 0 -169 7l-117 -133q-16 -19 -31 -19q-7 0 -7 10l124 145q-81 19 -81 37q0 24 33 25q7 0 16.5 -1.5t22.5 -6.5q11 -4 21.5 -5.5t21.5 -3.5l174 232q-172 18 -172 79
q0 56 119 95q27 10 56.5 17t61.5 13l96 16q137 180 251 253q91 57 202 59q35 0 60 -21q27 -20 27 -53zM873 662q0 26 -28 48q-26 18 -70 18q-107 0 -225 -111q-20 -20 -54 -60.5t-83 -103.5q32 0 70.5 -5t84.5 -16q25 -8 49 -14t49 -13q50 42 85.5 74.5t58.5 57.5
q61 70 63 125zM608 375q-75 21 -130 31t-91 12l-103 -142q93 6 203 45q43 14 73.5 27t47.5 27zM780 241q0 41 -63 83q-57 40 -86 40q-163 -91 -377 -130l-182 -241q64 -3 159 -3q185 0 364 76q185 78 185 175zM352 416q-21 2 -68 -5.5t-120 -24.5q-84 -20 -84 -52
q0 -23 71 -44q54 -16 97 -16z" />
    <glyph glyph-name="C" unicode="C" horiz-adv-x="795" 
d="M907 732q0 -112 -135 -220q-128 -104 -242 -104q-13 0 -30 7q-21 9 -22 24q0 17 16 33q8 8 16 11t16 4q5 -16 8.5 -26t5.5 -15q7 -6 23 -7q35 0 70 11t72 36q38 24 64.5 43.5t40.5 36.5q24 27 35.5 60t12.5 73q0 123 -153 123q-133 0 -284 -85q-75 -43 -137 -96.5
t-112 -119.5q-107 -146 -108 -295q0 -113 71 -179q71 -61 197 -64q35 0 75.5 8.5t88.5 27.5q23 8 49 19.5t57 25.5q43 24 50 26q6 0 6 -8q0 -18 -92 -63q-81 -38 -149.5 -56.5t-125.5 -20.5q-120 0 -197 68q-74 68 -74 182q0 157 119 318q56 75 125.5 137t155.5 112
q166 101 318 101q73 0 121 -36q46 -34 48 -92z" />
    <glyph glyph-name="D" unicode="D" horiz-adv-x="952" 
d="M972 424q0 -120 -103 -236q-49 -54 -112.5 -98t-142.5 -79q-157 -68 -317 -68q-56 0 -117.5 9.5t-130.5 28.5q-134 40 -135 71q0 26 29 26q4 -1 8 -4q4 -2 9.5 -5t13.5 -7q18 -9 39 -17.5t45 -16.5q34 -10 71.5 -18t82.5 -15q51 31 89 57t65 48q35 29 68 62.5t65 74.5
q29 38 89 124t153 222q11 0 14 -18q-21 -41 -78.5 -124.5t-152.5 -211.5q-36 -51 -109 -116q-84 -76 -171 -123l123 -4q197 0 380 124q187 126 187 284q0 81 -68 167q-17 20 -56 59t-103 99l-124 108q-23 25 -34.5 50t-12.5 54q0 83 11 86h15q-3 -15 -3 -29q0 -34 17 -67.5
t52 -71.5q35 -30 70.5 -61t70.5 -61q60 -56 94.5 -88t43.5 -42q63 -78 65 -173z" />
    <glyph glyph-name="E" unicode="E" horiz-adv-x="846" 
d="M911 711q0 -62 -87 -120q-84 -58 -177 -60q-75 0 -75 49q0 31 35 37q29 3 29 -11v-5t-2 -9q-1 -5 -1 -9.5v-6.5q3 -18 43 -19q72 0 133 43q61 45 61 91q0 37 -42 62q-41 23 -107 24q-63 0 -126.5 -18.5t-130.5 -57.5q-129 -78 -130 -151q0 -34 34 -80q17 -21 25 -35.5
t10 -22.5q0 -31 -90 -76q-70 -35 -111 -56.5t-55 -31.5q-64 -45 -87 -65q-37 -40 -39 -99q0 -62 47 -103q49 -39 124 -39q60 0 116 9.5t110 27.5q109 39 242 127q1 0 9 -15q-138 -99 -255 -143q-60 -21 -122 -31t-130 -12q-88 0 -140 41q-50 39 -51 109q0 76 59 135
q16 16 48.5 38t83.5 50l130 69q61 35 61 49q0 13 -34 62q-35 45 -35 75q0 86 162 181q81 46 159.5 68.5t156.5 24.5q63 0 106 -28t43 -68z" />
    <glyph glyph-name="F" unicode="F" horiz-adv-x="896" 
d="M1209 665q-24 -14 -45.5 -21.5t-38.5 -9.5q-13 0 -25.5 1.5t-24.5 3.5l-481 123q-36 10 -65.5 13.5t-53.5 5.5q-54 0 -110 -17.5t-114 -51.5q-130 -77 -131 -173q0 -59 72 -108q70 -49 160 -49q62 0 164 49q10 1 15 -11q-144 -67 -240 -67q-93 0 -151 45q-56 47 -56 122
q0 109 135 198q135 86 304 89q111 0 323 -54q142 -38 232 -59t131 -29zM900 631q-22 -27 -77.5 -103t-145.5 -205q63 7 105 10t63 5q8 0 8 -10q-10 -25 -47 -31l-164 -19q-39 -54 -77 -102.5t-76 -93.5q-129 -156 -171 -156q-23 0 -27 24q0 16 11 18q17 0 19 1q46 16 115 86
q35 35 79.5 89t101.5 130q-25 0 -86 -9q-44 -7 -74.5 -10.5t-49.5 -6.5q-3 4 -4 8t-2 9q0 30 45 32q20 0 70.5 5.5t135.5 18.5q43 62 101 141.5t135 180.5z" />
    <glyph glyph-name="G" unicode="G" horiz-adv-x="972" 
d="M958 341q0 -6 -23 -27q-31 -25 -48 -47q-8 -11 -21 -35t-30 -62q-20 -44 -38 -78t-33 -60q20 11 40 16.5t39 6.5q11 0 11 -9q0 -2 -27 -9q-19 -3 -37 -9.5t-36 -18.5q-68 -94 -114.5 -154t-74.5 -91q-133 -148 -228 -151q-13 0 -32 11q-21 14 -24 42q0 65 136 167
q114 84 293 175q19 32 44.5 79.5t57.5 110.5q-280 -213 -572 -216q-52 0 -93.5 16t-75.5 48q-63 60 -66 160q0 130 121 266q57 65 128 117.5t159 95.5q175 88 333 88q82 0 136 -38q53 -36 54 -97q0 -101 -134 -202q-133 -102 -268 -103q-58 0 -58 49q0 6 2 12.5t8 12.5
q7 7 12.5 10.5t13.5 3.5q23 0 25 -7q0 -10 -3 -14l-2 -10q0 -21 47 -23q98 0 203 80q55 42 82.5 84t27.5 89q0 53 -49 85q-49 30 -133 31q-155 0 -308 -77q-149 -74 -247 -191q-50 -61 -75.5 -121.5t-25.5 -121.5q0 -87 71 -153q72 -62 181 -63q117 0 278 76q142 64 211 132
q22 23 44 45t44 45q40 38 65 43q6 0 9 -9zM703 -16q-80 -39 -144.5 -77.5t-116.5 -79.5q-114 -88 -115 -145q0 -12 14 -21q7 -5 15 -7.5t19 -2.5q71 0 195 148q81 98 133 185z" />
    <glyph glyph-name="H" unicode="H" horiz-adv-x="1406" 
d="M1599 896q-15 -22 -79 -95q-69 -78 -107 -132q-73 -98 -139 -195.5t-129 -199.5q21 -9 249 -36v-16l-288 -4l-60 -93v-22q0 -10 -7 -18q-6 -8 -13 -8q-6 0 -8 2t-4 7q0 10 7.5 28.5t21.5 49.5q28 56 30 58l-141 34q-155 -159 -314.5 -237t-327.5 -79q-117 0 -197 62
q-82 65 -82 154q0 56 30.5 103.5t90.5 89.5q119 81 286 82q83 0 301 -56q109 -28 164.5 -41.5t61.5 -14.5q27 35 67.5 91.5t94.5 135.5q51 75 86 125t58 76q10 13 20.5 24.5t22.5 25.5q13 17 13 33q0 7 -6 18q-5 12 -5 20q0 11 50 35q23 11 36.5 15.5t20.5 5.5q10 0 10 -23
q0 -9 -48 -60q-33 -36 -56 -61t-36 -42q-31 -39 -73.5 -99.5t-97.5 -144.5q-55 -83 -85.5 -128t-37.5 -54l136 -31q21 35 41.5 70t42.5 69q101 160 182 273q81 114 131.5 169.5t71.5 57.5q12 0 15 -24zM901 267q-38 8 -296 78q-71 18 -129.5 27.5t-106.5 9.5
q-69 0 -127.5 -14.5t-106.5 -45.5q-94 -58 -94 -152q0 -82 78 -134q41 -26 89.5 -39t108.5 -13q193 0 366 97q143 78 218 186z" />
    <glyph glyph-name="I" unicode="I" horiz-adv-x="886" 
d="M1069 741q0 -110 -91 -270q-137 -240 -333 -375q-190 -134 -404 -136q-54 0 -97.5 14t-79.5 44q-68 56 -68 145q0 113 111 197q105 78 232 78q157 0 274 -43q121 -42 121 -98q0 -21 -6 -22l-14 7q-7 4 -16.5 9t-23.5 13q-31 17 -62.5 31t-63.5 25q-93 29 -191 29
q-68 0 -124.5 -13t-107.5 -41q-95 -54 -95 -131q0 -88 75 -145q38 -29 85 -42.5t107 -15.5q178 0 355 124q88 62 162 146.5t136 196.5q81 142 81 273q0 43 -37 70q-38 26 -100 26q-25 0 -43 -1t-29 -3q32 23 62 33t57 12q61 0 100 -46q28 -40 28 -91z" />
    <glyph glyph-name="J" unicode="J" horiz-adv-x="931" 
d="M903 735q0 -89 -87 -248q-51 -91 -123.5 -191t-170.5 -212l72 -28t72 -30q92 -42 92 -72q0 -14 -26 -14q-9 4 -21 10q-11 5 -26 12t-35 18q-91 46 -162 64q-115 -114 -202.5 -192t-147.5 -124q-174 -122 -323 -125q-57 0 -95 35q-20 16 -28.5 37.5t-9.5 48.5q0 78 85 169
q42 45 96 81.5t122 66.5q150 65 307 65q48 0 97 -5t101 -13q57 55 115 128t119 166q142 217 142 332t-134 115q-17 0 -37.5 -1.5t-47.5 -5.5q19 15 34 24.5t29 15.5q27 9 67 9q126 0 126 -136zM454 48q-95 19 -162 19q-112 0 -212 -23.5t-189 -72.5q-175 -97 -176 -218
q0 -42 39 -76q38 -32 91 -32q114 0 280 107q85 55 167 128.5t162 167.5z" />
    <glyph glyph-name="K" unicode="K" horiz-adv-x="1469" 
d="M768 248q77 -50 206 -120t313 -163l-69 -23q-56 28 -107 54t-97 51q-112 57 -188.5 101t-121.5 76q-60 -32 -128.5 -56.5t-146.5 -40.5q-60 -69 -103 -116.5t-71 -73.5q-68 -66 -187 -155q-3 4 -3 13q0 6 36 35q29 22 56 44.5t53 46.5q45 41 90.5 90.5t95.5 108.5
q-54 -8 -93 -11.5t-65 -3.5q-54 0 -94.5 11t-69.5 36q-46 38 -47 100q0 68 81 116q82 47 201 47q26 0 54 -3.5t58 -11.5q40 -9 150 -45l272 333l11 -23q-44 -54 -107 -134t-150 -188q20 -11 53.5 -29.5t82.5 -46.5q67 35 143.5 84t165.5 114q78 57 145 111.5t126 108.5
q8 8 29 28.5t55 56.5q36 34 50 37q9 0 23 -8q10 -7 11 -14q0 -44 -218 -216q-237 -183 -495 -321zM565 303q-21 -27 -47 -60.5t-58 -72.5q62 9 217 69zM541 310q-159 72 -291 72q-77 0 -135 -35q-55 -34 -55 -84q0 -47 55 -82q55 -33 139 -33q13 0 55 3t116 10z" />
    <glyph glyph-name="L" unicode="L" horiz-adv-x="1341" 
d="M1630 -132q-52 -32 -84 -41q-10 -2 -31.5 -2.5t-53.5 -1.5q-38 0 -79 5.5t-86 18.5q-17 1 -174 54l-204 64q-147 -133 -278 -198q-182 -91 -397 -91q-127 0 -203 47q-81 52 -84 151q0 124 135 205q118 71 245 71q160 0 367 -60l108 -34t110 -36q22 21 48 52t58 73
q69 94 107 144t45 60q63 81 144 168q98 104 124 105q6 0 3 -20q-1 -12 -5 -28.5t-10 -39.5q-11 5 -19.5 7t-16.5 4q-24 0 -92 -77q-56 -59 -110 -132q-13 -17 -45 -63t-86 -123q-35 -51 -61.5 -85t-46.5 -53l196 -65q135 -45 231 -66.5t156 -23.5q31 0 46 5q6 2 17 6.5
t26 14.5l8 -7q0 -1 -8 -8zM633 53q-205 55 -319 55q-132 0 -220 -51q-107 -60 -107 -183q0 -64 81 -115q87 -51 227 -51q169 0 326 80q119 61 260 190z" />
    <glyph glyph-name="M" unicode="M" horiz-adv-x="1399" 
d="M1392 659q0 -20 -77 -257q-78 -233 -78 -312v-12t2 -15v-13.5t2 -14.5q0 -5 -12 -11q-6 -2 -10.5 -2h-8.5q-13 2 -19.5 16.5t-6.5 46.5q0 41 9.5 90.5t30.5 110.5q17 48 35.5 97t38.5 100q39 105 40 157q0 37 -54 38q-68 0 -191 -114q-85 -81 -168.5 -163t-169.5 -165
q-5 -5 -33.5 -37.5t-79.5 -94.5q-90 -106 -103 -109q-8 0 -10 2v8q0 9 1 12q0 13 113 154q63 79 97.5 123.5t42.5 57.5q102 161 103 206q0 14 -11 28q-10 13 -23 13q-71 0 -252 -153q-82 -71 -155 -144t-137 -151q-137 -164 -157 -167q-1 0 -4 8q0 15 42 68q21 26 42.5 51
t43.5 51q53 66 98 129t84 128q47 78 69 134.5t24 94.5q0 49 -41 84q-38 32 -97 35q-90 0 -177 -51q-59 -37 -122 -100q-17 -19 -34.5 -38t-35.5 -38l-11 7l89 104q68 73 132 109q86 52 185 52q70 0 118 -37q46 -34 46 -97q0 -68 -18 -116q-11 -31 -36 -76t-65 -106
q88 80 154.5 133.5t113.5 82.5q69 42 128 44q14 0 26 -4t21 -13q10 -8 14 -19.5t5 -26.5q0 -52 -120 -239q122 118 200 192t114 105q60 48 108.5 70.5t89.5 24.5q53 0 55 -71z" />
    <glyph glyph-name="N" unicode="N" horiz-adv-x="1094" 
d="M1064 652q0 -49 -90 -380q-17 -60 -29.5 -122t-22.5 -128q-26 4 -33 21q-2 6 -4 31q0 53 19 120q7 27 14.5 54.5t15.5 55.5q5 22 16.5 70t31.5 123q20 81 21 120q0 28 -15 46q-14 21 -36 22q-18 0 -51 -19.5t-81 -60.5q-48 -39 -92.5 -85.5t-89.5 -100.5q-37 -45 -74 -89
t-74 -89q-33 -38 -61.5 -74.5t-54.5 -72.5q-27 -40 -44 -63t-24 -33q-11 -14 -21 -20.5t-18 -7.5q-9 0 -9 8q0 17 79 130q151 212 214 331q57 114 57 190q0 31 -8 55t-27 44q-32 33 -79 33q-36 0 -79 -13.5t-96 -39.5q-89 -44 -143 -97q-8 -8 -23 -24t-40 -43
q-14 -16 -23 -23t-13 -9q-5 0 -6 9q0 11 91 101q80 80 183 131q50 26 95 38t87 13q60 0 99 -39q20 -18 28 -42.5t10 -56.5q0 -28 -5 -56.5t-16 -58.5q-10 -30 -29.5 -71.5t-50.5 -96.5q51 51 99.5 101.5t99.5 103.5q141 136 233 138q30 0 49 -20q20 -20 20 -54z" />
    <glyph glyph-name="O" unicode="O" horiz-adv-x="911" 
d="M1016 588q0 -67 -29 -137t-89 -145q-55 -70 -125.5 -128.5t-155.5 -106.5q-89 -49 -173.5 -73t-165.5 -26q-106 0 -175 69q-69 66 -70 170q0 78 23.5 150t72.5 141q41 57 93 105t119 86q59 35 112 52.5t102 20.5v-13q-49 5 -156 -54q-65 -35 -117.5 -76.5t-94.5 -93.5
q-54 -63 -79.5 -131t-26.5 -141q0 -109 67 -173q35 -32 79 -48.5t101 -18.5q138 0 290 85q75 41 135 91.5t109 113.5q99 129 101 258q0 81 -65 139t-158 58q-44 0 -96 -17.5t-113 -54.5q-127 -74 -207 -182q-6 -6 -20 -3q147 189 283 250q34 15 55 23.5t31 11.5q42 14 94 14
q120 0 185 -55q64 -55 64 -161z" />
    <glyph glyph-name="P" unicode="P" horiz-adv-x="829" 
d="M1283 945q0 -94 -159 -224q-110 -92 -292 -157q-176 -65 -324 -65h-72t-50 2q-40 -60 -91 -131t-115 -155q-36 -47 -77 -90.5t-90 -87.5q-89 -78 -114 -78q-20 0 -22 26q0 8 10 25q8 13 21 15q9 0 15 -5q3 -3 13 -5q32 0 216 223q88 107 138 173t65 95q-111 19 -184 49
q-19 8 -21 28q0 16 30 16q18 0 84 -20q78 -21 116 -29q64 92 135.5 171t152.5 149q232 201 432 201q86 0 133 -34q25 -17 36.5 -39.5t13.5 -52.5zM1233 912q3 48 -45 82q-47 31 -121 34q-300 0 -657 -486h121q127 0 292 54q169 54 281 134q124 90 129 182z" />
    <glyph glyph-name="Q" unicode="Q" horiz-adv-x="1248" 
d="M1554 -120q0 -8 -60 -35q-32 -14 -60 -20t-51 -7q-148 0 -541 160q-77 -66 -167.5 -115t-199.5 -85q-155 -49 -247 -50q-105 0 -190 65q-42 32 -61.5 68.5t-21.5 78.5q0 97 109 175q100 75 220 75q45 0 87 -4.5t83 -15.5q60 -15 160 -49.5t243 -90.5q67 56 113.5 103
t72.5 89q50 79 53 178q0 70 -45 112q-46 43 -117 44q-155 0 -274 -113q-7 -6 -54 -59q-7 -6 -17 3q8 11 21.5 29t34.5 42q69 72 149.5 106.5t174.5 35.5q79 0 130 -49q49 -47 49 -130q0 -81 -43 -155q-33 -59 -102 -129l-120 -118q60 -25 134 -51.5t165 -55.5
q94 -29 151.5 -42.5t82.5 -15.5q36 0 74 16q19 8 31.5 11t19.5 4q13 0 13 -5zM818 -12q-29 8 -75 25t-111 43q-62 23 -109 39.5t-81 27.5q-54 14 -102.5 21t-93.5 9q-101 0 -173 -54q-70 -50 -72 -129q0 -90 78 -150q76 -58 201 -58q73 0 154 22t172 69q138 68 212 135z" />
    <glyph glyph-name="R" unicode="R" horiz-adv-x="1161" 
d="M1242 602q0 -120 -172 -259q-119 -95 -347 -215q51 -29 136 -81t210 -127q30 -21 120 -56q0 -13 -2 -14q-1 0 -24 -2q-91 0 -514 251q-20 -11 -54.5 -25t-86.5 -32q-60 -20 -109 -31.5t-91 -16.5q-42 -56 -88 -111t-100 -115q-158 -175 -217 -177q-16 0 -16 27
q0 10 12 21q13 10 21 11q7 0 16 -4q4 -2 7 -2h5q162 124 328 347q-96 0 -182 62q-82 59 -83 135q0 74 63 128q32 27 70 40t83 14q119 0 265 -88q326 440 589 443q35 0 62.5 -9.5t52.5 -26.5q45 -35 46 -87zM1189 580q0 41 -47 69q-47 27 -101 27q-132 0 -271 -120
q-78 -68 -257 -287q18 -18 195 -127q98 51 177 101t142 102q162 132 162 235zM479 217l-139 -183q113 5 291 80zM454 233q-39 33 -96 62q-79 41 -145 41q-74 0 -127 -38q-52 -37 -52 -91q0 -74 100 -128q45 -24 88.5 -34.5t87.5 -10.5z" />
    <glyph glyph-name="S" unicode="S" horiz-adv-x="900" 
d="M947 662q0 -75 -72 -135q-73 -59 -156 -59q-30 0 -53 11q-19 12 -21 30q0 45 29 45q17 0 18 -13q0 -5 -5 -10q-2 -2 -2.5 -4.5t-1.5 -6.5q0 -13 15 -23q16 -10 40 -10q56 0 108 49q53 51 53 103q0 47 -48 80q-44 32 -116 32q-114 0 -250 -71q-146 -75 -146 -160
q0 -61 77 -92l270 -102q100 -37 100 -111q0 -114 -116 -185q-59 -34 -135 -51.5t-173 -18.5q-158 0 -272 54q-111 56 -111 134q0 63 84 90q37 10 40 -1q-3 -2 -8 -6q-5 -3 -11.5 -8t-14.5 -11q-33 -21 -34 -57q0 -81 95 -128q91 -45 255 -47q78 0 142.5 14t117.5 44
q104 57 104 143q0 67 -92 103l-267 107q-79 30 -80 107q0 105 141 192q142 88 309 88q89 0 138 -32q47 -31 49 -84z" />
    <glyph glyph-name="T" unicode="T" horiz-adv-x="985" 
d="M1257 663q-5 -5 -24 -15q-20 -7 -36 -8q-185 0 -248 38q-156 -212 -268.5 -358t-181.5 -225q-34 -38 -68 -72t-69 -65q-73 -61 -101 -63q-19 0 -20 26q0 12 9 26q12 14 24 15q2 0 11 -4q6 -3 18 -4q7 0 66 51q31 28 57.5 55.5t50.5 55.5q98 114 207 255t234 312
q-322 124 -399 125q-378 0 -380 -209q0 -71 65 -121q64 -48 154 -49q21 0 55 7.5t83 21.5q11 4 17 2q4 -1 1 -10q-110 -52 -185 -52q-92 0 -162 56q-35 27 -51.5 59.5t-18.5 70.5q0 117 126 192q124 75 324 75q91 0 412 -114q35 39 61.5 57.5t44.5 19.5q4 0 4 -8
q0 -2 -30 -25q-17 -13 -28.5 -25.5t-21.5 -25.5q17 -8 56.5 -16.5t103.5 -21.5q108 -20 108 -29z" />
    <glyph glyph-name="U" unicode="U" 
d="M1389 676q0 -5 -212 -307q-107 -149 -159.5 -232.5t-54.5 -103.5q0 -23 16 -23q2 0 4 0.5t6 2.5q9 0 12 2q-29 -38 -56 -38q-10 0 -19 8q-10 7 -10 17q0 39 96 187l113 178l-248 -238q-158 -144 -240 -145q-16 0 -29 6.5t-23 22.5q-18 25 -21 63q0 20 16 78t50 158
q33 98 49 167.5t16 112.5q0 111 -67 168q-66 57 -197 59q-32 0 -64 -7t-65 -24q-21 -10 -44 -24.5t-47 -34.5l-43 -31q-10 0 -13.5 2t-5.5 6q0 6 82 65q128 87 248 89q124 0 198 -68q75 -66 75 -178q0 -29 -16.5 -99t-51.5 -180q-32 -109 -48 -170.5t-18 -75.5q0 -24 16 -44
q16 -19 36 -19q65 0 325 246q114 109 182.5 180.5t93.5 107.5q61 88 74 104q23 29 34 29q9 0 10 -1v-16v0z" />
    <glyph glyph-name="V" unicode="V" horiz-adv-x="1138" 
d="M1329 806q0 -41 -52 -170q-37 -90 -85.5 -170.5t-108.5 -155.5q-56 -68 -111.5 -124.5t-113.5 -104.5q-127 -104 -202 -104q-33 0 -62 29q-22 28 -24 71q0 20 15.5 73.5t45.5 144.5q62 176 62 236q0 100 -70 164q-70 65 -176 65q-174 0 -295 -150q-2 -2 -9 -2q-6 4 -6 13
q0 49 112 115q121 73 254 74q103 0 173 -76q68 -76 68 -192q0 -39 -15 -103t-44 -155q-56 -179 -56 -196q0 -28 18 -52q18 -22 42 -23q56 0 175 108q101 89 201 216q86 107 158 271q32 74 47.5 122.5t16.5 74.5v22q-29 0 -29 -44v-13t-1 -24v-38q0 -3 -12 -9q-13 -3 -13 0
q-6 24 -8.5 44.5t-2.5 39.5q0 47 34 71q22 16 38 16q36 0 36 -64z" />
    <glyph glyph-name="W" unicode="W" horiz-adv-x="1500" 
d="M1645 715q0 -81 -29 -165t-89 -174q-54 -83 -121.5 -151.5t-148.5 -125.5q-85 -57 -161.5 -85t-147.5 -30q-68 0 -116 48q-23 25 -35 54.5t-16 64.5q-2 38 21.5 103.5t74.5 162.5q-42 -34 -82 -66.5t-78 -65.5q-94 -76 -169.5 -142.5t-135.5 -124.5q-12 0 -15 11
q330 294 332 522q0 89 -64 147q-31 29 -72.5 42.5t-94.5 15.5q-94 0 -185 -41q-114 -49 -197 -145l-13 2q89 112 196 166.5t232 54.5q111 0 179 -61q64 -61 67 -160q0 -61 -24 -125q-11 -29 -33.5 -69.5t-54.5 -92.5q48 38 121.5 97t173.5 144q42 37 65.5 57t28.5 25
q30 25 48 26q3 0 5 -8q0 -7 -19 -19l-39 -36q-41 -42 -75 -88.5t-66 -100.5q-68 -124 -68 -214q0 -30 8.5 -55.5t28.5 -47.5q37 -43 101 -43q59 0 125.5 24t142.5 75q149 98 251 244q56 81 83 158.5t28 154.5q0 43 -16 72t-39 31q-14 0 -26.5 -3t-26.5 -11l-5 6q32 51 76 54
q29 0 53 -32q10 -17 14.5 -36.5t6.5 -43.5z" />
    <glyph glyph-name="X" unicode="X" horiz-adv-x="1028" 
d="M1074 768q-40 -24 -70 -47t-51 -44q-20 -21 -39.5 -42t-40.5 -42l-180 -181q12 -45 23 -90.5t22 -93.5q14 -50 29 -94.5t34 -83.5q6 -14 30 -25q22 -10 49 -7v-4q-13 -8 -25 -11t-23 -5q-45 0 -76 40q-13 16 -23.5 42t-21.5 64l-59 224l-164 -163q-85 -84 -135 -131.5
t-66 -61.5q-123 -111 -179 -111q-18 0 -21 15q0 11 9 19q8 11 17 11q1 0 13 -5q5 -2 10.5 -2h12.5q77 27 332 291q29 26 69 67.5t93 99.5q-33 144 -82 218q-35 54 -81.5 79.5t-106.5 26.5q-116 0 -248 -113l-6 5q85 82 149 114q31 17 67.5 24.5t78.5 7.5q192 0 273 -322
l168 171l46.5 46.5t46.5 48.5q47 42 117 76z" />
    <glyph glyph-name="Y" unicode="Y" horiz-adv-x="1279" 
d="M1450 572q0 -8 -18 -26q-6 -5 -11.5 -10t-11.5 -12q-198 -238 -362.5 -456t-301.5 -420q-88 -134 -89 -164q0 -9 12 -17q12 -9 12 -13q0 -24 -19 -24q-10 0 -26 19t-18 32q0 43 54 126q45 67 74 109t43 62l341 440q-235 -184 -236 -184q-95 -69 -148 -69q-64 0 -106 95
q-17 35 -30 88.5t-24 125.5l-32 230q-9 79 -65 141q-60 66 -139 69q-100 0 -233 -60l3 19q18 13 43.5 26t60.5 27q84 31 142 33q66 0 139 -62q75 -68 99 -169q16 -91 31.5 -180t32.5 -180q17 -81 44 -120.5t65 -41.5q54 0 207 123q72 59 138 121.5t130 131.5q5 5 35 39
t86 99q57 67 67 67t11 -15z" />
    <glyph glyph-name="Z" unicode="Z" horiz-adv-x="1447" 
d="M1304 64q-101 -63 -167 -85q-65 -24 -146 -24q-94 0 -250 58q-77 29 -128 43t-77 14q-47 0 -101 -22.5t-116 -70.5q-10 0 -10 8l673 556q-111 52 -197.5 88.5t-152.5 59.5q-150 50 -255 52q-100 0 -172 -57q-72 -56 -72 -132q0 -74 65 -127q64 -52 159 -52q113 0 208 33
l2 -7q-150 -56 -224 -56q-104 0 -175 52q-71 53 -71 130q0 108 103 176q104 70 262 71q48 0 104 -11t120 -32q106 -35 318 -135q17 -3 50 -16l-605 -497q14 2 36.5 5.5t53.5 11.5q20 5 34 6.5t24 2.5q88 0 227 -62q70 -29 122 -44t90 -16q35 0 101.5 20.5t165.5 63.5z" />
    <glyph glyph-name="bracketleft" unicode="[" horiz-adv-x="378" 
d="M706 697q-2 -3 -5.5 -3.5t-10.5 -2.5h-76q-48 0 -70 -25q-154 -180 -246.5 -288t-124.5 -147q-117 -139 -184 -224.5t-86 -120.5q-9 -26 14 -27h80q8 0 2 -10l-5 -10q-4 -10 -22 -10h-114q-11 0 -14 14q0 13 80 121q16 20 50.5 64t88.5 110q53 65 112 135t128 150
q81 94 139 162t96 112q20 23 74 24h95q15 0 15 -4z" />
    <glyph glyph-name="backslash" unicode="\" horiz-adv-x="31" 
d="M76 165q0 -9 -3 -12q-51 -44 -90.5 -75t-70.5 -51q-47 -30 -90 -45t-81 -17q9 17 47 38q68 0 278 165q10 6 10 -3z" />
    <glyph glyph-name="bracketright" unicode="]" horiz-adv-x="378" 
d="M592 706q0 -13 -80 -120q-15 -20 -50 -64t-89 -110q-52 -65 -111 -135t-128 -150q-81 -94 -139 -162t-96 -112q-20 -23 -75 -24h-95q-15 0 -15 3l16 21q4 4 16 5l76 1q24 0 41.5 5.5t27.5 19.5l372 435q118 139 184.5 224t85.5 120q10 25 -13 28h-80q-3 0 -4 4q0 3 1 5
l6 11q3 10 21 10h115q11 0 13 -15z" />
    <glyph glyph-name="asciicircum" unicode="^" horiz-adv-x="336" 
d="M475 729q10 0 10 -17t-17 -83q-8 -36 -13.5 -60.5t-7.5 -38.5q-2 -15 -3.5 -31.5t-3.5 -33.5q-3 -34 -11 -46q-3 -10 -14 -10q-14 0 -4 98q10 74 39 178q-11 -8 -24 -20t-30 -27q-35 -34 -76 -78t-90 -98l-46 -52q-15 -13 -27 -15q-1 0 -2 1q4 4 21 34q22 41 145 164
q38 39 61.5 61.5t31.5 30.5q23 22 38 32t23 11z" />
    <glyph glyph-name="underscore" unicode="_" horiz-adv-x="540" 
d="M533 -131h-525v45h525v-45z" />
    <glyph glyph-name="grave" unicode="`" horiz-adv-x="232" 
d="M167 258q-14 0 -40 29l-52 65q-1 2 -1 6.5t-1 12.5q0 7 3 9t10 4q11 0 17 -8l51 -81q16 -29 18 -33q0 -3 -5 -4z" />
    <glyph glyph-name="a" unicode="a" horiz-adv-x="411" 
d="M455 165q0 -8 -4 -11q-51 -44 -87 -72.5t-57 -42.5q-51 -34 -92 -51.5t-74 -17.5q-54 0 -57 81q-24 -20 -69 -43q-43 -23 -72 -23q-20 0 -37 10q-17 8 -17 24q0 45 81 108q42 31 77.5 47t66.5 16q37 0 38 -18q0 -20 -12 -29t-26 -9q0 1 -1 4q-1 2 -2 4.5t-3 6.5
q-6 14 -24 16q-40 0 -90 -44q-51 -42 -51 -76q0 -21 15 -22q53 0 113 41q13 9 45 44q20 25 34 23q13 0 13 -10q0 -9 -17 -39q-16 -28 -16 -41q0 -37 37 -38q45 0 144 68q13 8 46 32t88 65q2 2 6 2t4 -5z" />
    <glyph glyph-name="b" unicode="b" horiz-adv-x="365" 
d="M430 586q0 -9 -19 -28l-52 -50q-67 -66 -123 -127t-104 -118q-127 -154 -127 -214q0 -21 14 -32q14 -13 35 -13q53 0 106 75q42 62 43 94q0 19 -30 21q-21 0 -41 -26q-10 -13 -13.5 -23t-5.5 -20q0 -10 9 -17q10 -7 10 -11q0 -11 -19 -11q-26 0 -26 33q0 39 43 75
q37 28 68 30q14 0 29 -12q13 -11 13 -26q0 -46 -69 -130q-78 -92 -158 -92q-56 0 -57 55q0 52 64 138l140 167q20 24 52 57.5t77 78.5q35 33 51.5 52t18.5 24l-4 2q-4 2 -9 7q-13 6 -13 14t81 35q15 0 16 -8z" />
    <glyph glyph-name="c" unicode="c" horiz-adv-x="371" 
d="M415 161q0 -5 -59 -54q-27 -23 -47 -37.5t-33 -24.5q-63 -44 -123.5 -65t-117.5 -22q-42 0 -68 25q-25 21 -25 57q0 52 67 112q35 33 73.5 49.5t79.5 18.5q31 0 34 -30q0 -29 -45 -57q-19 -13 -36 -18.5t-31 -6.5q-23 0 -23 11q0 29 30 29q2 0 4.5 -0.5t7.5 -2.5
q6 -3 19 -5q14 0 26 16q14 16 14 27q0 8 -26 10q-45 0 -99 -48q-49 -46 -52 -86q0 -26 26 -47q20 -20 62 -20q60 0 145 47q28 14 60 35t67 50q59 46 63 46q7 0 7 -9z" />
    <glyph glyph-name="d" unicode="d" horiz-adv-x="505" 
d="M683 599q0 -79 -257 -313q-45 -38 -111.5 -91t-158.5 -122q12 -77 78 -79q43 0 124 46q53 30 124 85q57 45 60 45q6 0 6 -8q0 -7 -82 -74q-38 -30 -66 -50t-47 -32q-71 -41 -130 -43q-71 0 -94 91l-89 -49q-24 -11 -48 -16.5t-47 -7.5q-22 0 -39 14q-16 13 -16 35
q0 36 56 83q80 65 154 68q15 0 29 -11q11 -6 11 -20q0 -25 -17 -28q-3 0 -8 8q-1 5 -2 9t-3 9q-3 9 -36 9q-42 0 -108 -66q-14 -14 -20.5 -26.5t-7.5 -24.5q0 -24 32 -25q11 0 30 5.5t45 17.5q23 10 43.5 20.5t39.5 23.5q8 32 20 61t28 58q2 3 13.5 21.5t34.5 52.5
q43 66 91.5 125.5t107.5 115.5q135 130 216 132q43 0 44 -49zM642 599q0 25 -27 27q-45 0 -147 -92q-51 -45 -97.5 -97.5t-89.5 -113.5q-96 -127 -122 -222q73 54 138.5 105.5t125.5 103.5q85 73 149 156q68 88 70 133z" />
    <glyph glyph-name="e" unicode="e" horiz-adv-x="228" 
d="M271 164q0 -6 -4 -11q-52 -44 -88 -72t-57 -42q-100 -67 -181 -69q-69 0 -70 71q0 44 51 103q55 57 92 57q13 0 23 -10q11 -9 11 -20q0 -9 -3.5 -17t-14.5 -19q-10 -10 -18.5 -16.5t-19.5 -14.5q-16 -12 -34.5 -24.5t-42.5 -24.5q-1 -24 20 -40q17 -11 37 -11
q52 0 155 67q10 7 43 31t90 67q3 1 7 1q3 0 4 -6zM4 160q0 8 -13 8q-7 0 -19 -7.5t-26 -23.5q-10 -11 -18 -25t-10 -25q2 0 8 2t11 5q26 14 46.5 33t20.5 33z" />
    <glyph glyph-name="f" unicode="f" horiz-adv-x="302" 
d="M553 645q0 -43 -104 -164q-99 -113 -216 -203q-56 -44 -106.5 -77.5t-98.5 -56.5l-39 -69h166q20 0 20 -19q0 -8 -20 -11l-194 -8q-49 -65 -78.5 -102.5t-40.5 -48.5q-23 -28 -55 -63t-76 -79q-29 -29 -59 -55t-65 -49q-57 -38 -105.5 -57t-93.5 -19q-28 0 -47 15
q-20 14 -20 33q0 23 26 23q4 -3 8 -7q6 -7 23 -20q13 -11 24.5 -15.5t23.5 -6.5q21 0 50 11t69 34q75 44 142 113q41 42 80 87t77 94q67 91 70 112h-11q-24 0 -24 21q0 15 38 17h31q20 32 60.5 93.5t103.5 152.5q260 366 395 368q19 0 33 -13q13 -13 13 -31zM514 645
q0 23 -35 23q-33 0 -115 -72q-40 -36 -75 -75t-67 -81q-32 -45 -78 -111t-106 -154q24 16 58.5 38.5t82.5 52.5q102 62 215 185q120 129 120 194z" />
    <glyph glyph-name="g" unicode="g" horiz-adv-x="403" 
d="M446 164q0 -6 -4 -11q-54 -45 -83 -68t-34 -27q-77 -56 -172 -90q-35 -45 -93 -98.5t-140 -116.5q-221 -168 -351 -170q-34 0 -55 18q-23 17 -23 44q0 120 259 219q58 22 201 66q71 21 111.5 33.5t53.5 17.5q70 79 72 150q0 48 -56 48q-21 0 -41 -5t-40 -16
q-41 -24 -41 -53q0 -40 33 -41q13 0 29.5 5t39.5 17q13 6 25 12.5t25 13.5l-8 -15q-14 -8 -27.5 -16t-27.5 -18q-45 -26 -86 -26q-24 0 -39 15q-12 14 -13 38q0 35 62 74q61 35 117 37q37 0 65 -20q23 -21 24 -54q0 -47 -50 -123q33 10 96.5 51t159.5 113q3 2 7 2q2 0 4 -6z
M99 -47q-48 -13 -94.5 -26t-94.5 -28q-81 -23 -144.5 -47t-108.5 -48q-126 -64 -128 -136q0 -25 28 -44q24 -15 53 -15q31 0 91 24q61 25 113 61q103 75 173.5 139t111.5 120z" />
    <glyph glyph-name="h" unicode="h" horiz-adv-x="387" 
d="M607 659q0 -41 -94 -152q-86 -100 -171.5 -175t-173.5 -127q-15 -10 -30 -19t-31 -18q-30 -19 -88 -43l-57 -84q8 5 50.5 32.5t120.5 79.5q55 36 75 37q14 0 14 -15q0 -2 -6.5 -12.5t-21.5 -30.5q-26 -37 -26 -62q0 -9 0.5 -16t3.5 -12q4 -6 13 -8t23 -4q26 0 140 82
l77 57q4 0 6 -9q0 -3 -23 -23q-36 -28 -46 -40q-16 -14 -34.5 -28t-40.5 -29q-68 -39 -108 -40q-58 0 -61 52q0 9 2 24.5t6 38.5q-3 0 -9 -1t-14 -6q-3 -2 -31.5 -22.5t-81.5 -60.5q-29 -21 -47.5 -32t-28.5 -12q-6 0 -9 11q0 9 9.5 25.5t27.5 43.5q32 45 52 72t26 37
q46 73 112.5 155t154.5 176q188 204 256 207q24 0 44 -15q20 -14 20 -34zM561 648q0 29 -33 29q-42 0 -123 -75q-24 -24 -61.5 -66t-89.5 -102l-144 -173q-32 -42 -49 -67.5t-21 -38.5q44 7 174 103q66 50 123.5 100t108.5 103q113 121 115 187z" />
    <glyph glyph-name="i" unicode="i" horiz-adv-x="245" 
d="M126 239q0 -28 -40 -28q-39 0 -39 28q0 29 39 29q40 0 40 -29zM289 164q0 -6 -5 -10q-54 -47 -87 -74t-48 -37q-88 -65 -134 -65q-28 0 -53 17q-23 16 -25 40q0 37 39 87q35 46 62 52q13 0 13 -9q0 -8 -32 -44q-28 -36 -30 -68q0 -40 37 -41q42 0 252 156q2 2 6 2
q3 0 5 -6z" />
    <glyph glyph-name="j" unicode="j" horiz-adv-x="264" 
d="M235 292q0 -26 -39 -26t-39 26q0 25 39 27q39 0 39 -27zM148 214q0 -9 -65 -93q-27 -34 -48 -59t-37 -43q-103 -118 -200 -224t-191 -201q-78 -84 -104 -85q-14 0 -14 31q0 14 36 40q32 24 63 50.5t63 58.5q73 72 146 150.5t149 166.5q129 151 130 164q-6 -1 -15.5 -5
t-22.5 -12l-23 -15q-4 1 -5 8q0 3 1.5 6t7.5 8q13 11 29.5 21.5t38.5 21.5q18 8 30 11.5t19 5.5q12 0 12 -6z" />
    <glyph glyph-name="k" unicode="k" horiz-adv-x="513" 
d="M557 159q0 -7 -4 -10q-194 -162 -314 -164q-18 0 -45.5 5.5t-65.5 17.5q-37 13 -57.5 18.5t-25.5 6.5q-42 0 -104 -44q-19 -13 -37.5 -26t-38.5 -28l-18 5q33 37 93.5 109t149.5 181q273 337 298 392q-13 0 -29 11q-4 4 -4 19q0 6 21 15q31 12 53 28h37q0 -21 -246 -330
l-257 -324l140 74q133 70 202 70q35 0 37 -26q0 -20 -20 -21q-8 0 -27 3q-9 2 -15.5 2.5t-11.5 2.5q-65 0 -126 -31q-21 -9 -35.5 -18.5t-25.5 -19.5q136 -54 202 -54q38 0 103 34.5t160 106.5q3 2 7 2t4 -7z" />
    <glyph glyph-name="l" unicode="l" horiz-adv-x="300" 
d="M458 635q0 -85 -147 -244q-92 -98 -207 -195q-38 -30 -81.5 -64t-96.5 -72q1 -21 34 -39q29 -16 68 -16q74 0 173 65l131 98q3 2 8 2q3 0 3 -6q0 -7 -3 -11q-45 -37 -81 -64.5t-65 -45.5q-104 -63 -184 -64q-136 0 -138 107q0 94 100 246q96 141 220 246q129 111 210 111
q24 0 40 -16q16 -15 16 -38zM412 624q0 40 -51 36q-28 -2 -68 -25.5t-94 -71.5q-54 -45 -97.5 -92.5t-78.5 -98.5q-46 -67 -77 -151q-25 -69 -28 -114q0 -13 5 -21q27 13 118 86q108 89 198 177q87 85 123 139q50 73 50 136z" />
    <glyph glyph-name="m" unicode="m" horiz-adv-x="684" 
d="M727 163q0 -6 -4 -10q-47 -39 -82 -66.5t-61 -44.5q-95 -62 -163 -64q-58 0 -61 56q0 39 21 78q-11 0 -47 -21q-26 -17 -39.5 -25.5t-17.5 -10.5q-23 -14 -46.5 -27t-47.5 -27q-46 -26 -57 -26q-19 0 -19 18q0 17 26 52l68 80q-230 -143 -244 -145q-15 0 -15 13
q6 6 14 16q7 8 17.5 19.5t25.5 26.5q53 60 56 81q0 5 -12 8q-11 0 -13 6q0 9 14 20t28 11q32 0 34 -37q0 -16 -20 -41l-40 -45l141 84q37 21 54 21q26 0 27 -19q0 -13 -33 -50q-37 -40 -49 -62q147 89 187 108q51 25 78 27q6 0 6 -12q-2 -5 -6 -11q-3 -5 -8 -13t-12 -19
q-26 -39 -26 -67q0 -39 37 -40q45 0 144 66q17 11 50 35t84 62q3 2 7 2q3 0 4 -7z" />
    <glyph glyph-name="n" unicode="n" horiz-adv-x="468" 
d="M511 164q0 -6 -4 -11q-97 -80 -136 -106q-91 -62 -157 -62q-57 0 -57 60q0 11 2.5 27.5t8.5 39.5q-38 -22 -77.5 -45.5t-81.5 -51.5q-59 -39 -64 -39q-1 0 -8 4q-6 3 -6 7q0 7 8.5 23t28.5 44q21 31 33.5 49.5t17.5 26.5q-4 6 -4 17q0 8 13 17q14 8 22 9q34 0 34 -26
q0 -7 -32 -51q-15 -19 -25.5 -32t-18.5 -21q190 130 245 130q5 0 8 -13q0 -2 -31 -37q-14 -18 -22 -34.5t-8 -33.5q0 -37 51 -37q38 0 127 60q17 10 122 90q3 1 7 1q3 0 4 -5z" />
    <glyph glyph-name="o" unicode="o" horiz-adv-x="302" 
d="M345 164q0 -3 -0.5 -5.5t-3.5 -6.5q-36 -44 -110 -94q-40 -29 -70 -43t-50 -15q-28 0 -48 19q-9 -12 -46 -33q-43 -23 -80 -23q-52 0 -52 41q0 27 20 56.5t58 63.5q37 32 69.5 47t58.5 15q51 0 51 -48q0 -53 -60 -104q13 -13 32 -13q34 0 111 55q33 23 60.5 46t49.5 46
q1 3 6 1q4 0 4 -5zM128 146q0 16 -18 18q-23 0 -40 -20q-15 -18 -17 -43q0 -37 13 -49q60 47 62 94zM51 36q-20 20 -20 52q0 43 18 61q-119 -55 -119 -115q0 -37 29 -37q44 0 92 39z" />
    <glyph glyph-name="p" unicode="p" horiz-adv-x="376" 
d="M231 365q0 -1 -211 -242l38 20t39 21q48 21 87 22q42 0 45 -37q0 -24 -40 -67q-19 -20 -42 -36.5t-52 -33.5q-58 -30 -93 -31q-8 0 -13 3t-10 8q-9 9 -9 23q0 28 19 30q10 0 13 -6q3 -4 8 -14q7 -15 31 -15q31 0 88 48q58 45 58 80q0 16 -36 19q-34 0 -69 -22
q-14 -9 -41.5 -31t-68.5 -57q-52 -44 -107 -104.5t-115 -140.5q-102 -142 -111 -182v-36q0 -14 -10 -20q-8 -6 -19 -8q-6 0 -11.5 1t-10.5 5q-10 5 -13 17q0 18 13 32q11 20 17.5 29.5t7.5 11.5q32 59 93 140t152 187q43 51 127.5 146t215.5 237q13 13 22 14q5 0 8 -11z" />
    <glyph glyph-name="q" unicode="q" horiz-adv-x="354" 
d="M224 145q0 -16 -23 -28q-103 -86 -181 -160.5t-132 -137.5q-35 -42 -58.5 -71t-37.5 -46q-23 -31 -37.5 -57.5t-21.5 -49.5q29 23 77.5 61.5t115.5 95.5q45 39 77 57.5t53 20.5q22 0 22 -24q0 -9 -9 -19q-8 -9 -15 -9h-9t-13 1h-28q-18 0 -74.5 -43t-153.5 -133
l-17.5 -17.5t-22.5 -23.5q-24 -41 -42 -42q-19 0 -19 18q0 28 54 115q85 134 352 386q-14 -7 -28.5 -13.5t-30.5 -12.5q-19 -8 -31.5 -12.5t-20.5 -4.5q-18 0 -36 18q-16 16 -16 39q0 51 92 104q43 25 80.5 36.5t70.5 13.5q15 0 28 -10q10 -6 12 -21q0 -23 -48 -29v9
q2 3 2 5.5t1 3.5q0 18 -22 18q-14 0 -37.5 -8t-55.5 -25q-40 -20 -59 -41.5t-20 -44.5q0 -14 9 -24q9 -9 19 -9q20 0 45 11q13 5 24.5 11t24.5 14q15 6 37 20t50 34q39 27 53 24z" />
    <glyph glyph-name="r" unicode="r" horiz-adv-x="367" 
d="M410 166q0 -3 -0.5 -5.5t-3.5 -5.5q-52 -43 -89 -72.5t-59 -43.5q-107 -72 -188 -72q-20 0 -39 17q-16 16 -18 40q0 20 28 52q13 14 25.5 27.5t25.5 28.5q-10 0 -20.5 -1.5t-23.5 -3.5q-24 -3 -38 -3h-4q-111 -94 -183 -125q-17 0 -17 5q0 8 9 18q29 11 71.5 38t100.5 72
q-7 7 -8 15q0 19 34 56q17 18 31 26.5t25 10.5q16 0 19 -15q0 -24 -34 -55q21 5 35 7l21 3q30 0 30 -21q0 -24 -43 -63q-40 -37 -43 -61q0 -13 11 -26q10 -9 28 -12q59 0 168 71q13 8 47.5 33t91.5 70h6q4 0 4 -5z" />
    <glyph glyph-name="s" unicode="s" horiz-adv-x="306" 
d="M349 164q0 -6 -4 -11q-116 -95 -142 -112q-103 -66 -224 -68q-37 0 -59 15q-8 4 -36 32q0 7 2 11q-17 -10 -32.5 -18t-30.5 -14q-17 0 -18 5q0 3 2.5 7t7.5 11q47 23 96.5 55.5t102.5 74.5q0 1 1 3q28 22 60 24q50 0 50 -45q0 -30 -31 -71q-27 -37 -54 -53q62 0 163 64
q23 13 56 36.5t79 58.5q3 1 7 1q3 0 4 -6zM77 121q0 25 -26 25h-11t-8 -2q-38 -32 -70.5 -57.5t-60.5 -45.5q5 0 9 -2q34 -21 58 -23q21 0 41 9.5t37 30.5q15 17 22 32.5t9 32.5z" />
    <glyph glyph-name="t" unicode="t" horiz-adv-x="286" 
d="M544 383q0 -20 -40 -23h-49h-210l-146 -155q-101 -116 -101 -165q0 -32 43 -32q55 0 150 64q32 23 63.5 46.5t64.5 49.5q1 2 6 2q3 0 4 -7q0 -6 -4 -11q-52 -42 -87.5 -70.5t-57.5 -43.5q-99 -68 -166 -69q-24 0 -39 18q-16 19 -16 45q0 60 101 174q37 38 73 76t73 78
l-361 8q-13 0 -10 18q1 7 21 9h385l90 88q4 2 9.5 4t15.5 3q5 0 10 -7q3 -6 0 -11l-88 -77z" />
    <glyph glyph-name="u" unicode="u" horiz-adv-x="396" 
d="M440 164q0 -6 -5 -11q-218 -184 -306 -184q-47 0 -56 78q-26 -29 -77 -53q-39 -17 -57 -18q-16 0 -29 14q-14 12 -15 31q0 34 30 67q15 14 44 35.5t74 50.5q9 0 6 -14q-13 -8 -26 -17.5t-27 -19.5q-48 -42 -49 -76q0 -31 18 -34q10 0 39 14q18 8 32 16.5t25 16.5
q21 15 66 75q36 46 52 46q12 0 13 -11q0 -5 -9 -16t-29 -30q-36 -34 -36 -58q0 -23 14 -40q11 -17 27 -19q43 0 138 64l132 98q3 1 6 1q4 0 5 -6z" />
    <glyph glyph-name="v" unicode="v" horiz-adv-x="411" 
d="M454 164q0 -7 -4 -11q-34 -39 -100 -87q-45 -32 -81.5 -47.5t-68.5 -16.5q-28 0 -66 41q-77 -76 -128 -77q-25 0 -40 14q-15 12 -15 35q0 25 17.5 62.5t55.5 86.5q5 6 20 8q8 0 9 -6q0 -2 -1 -4q-5 0 -13.5 -12t-23.5 -37q-27 -47 -27 -72q0 -38 38 -41q27 0 95 59
q-16 24 -18 69q0 25 14 45q16 19 38 19q39 0 39 -44q0 -50 -41 -91q25 -34 51 -34q46 0 126 52q73 47 113 93q2 4 7 2q2 0 4 -6zM178 145q0 29 -18 29q-34 0 -35 -43q0 -32 14 -56l27 33q11 17 12 37z" />
    <glyph glyph-name="w" unicode="w" horiz-adv-x="557" 
d="M600 164q0 -7 -5 -11q-32 -38 -99 -87q-45 -32 -82 -47.5t-68 -16.5q-27 0 -67 41q-76 -76 -127 -77q-16 0 -35 21q-8 11 -12.5 24t-4.5 27q0 21 13 43q-37 -34 -93 -66q-54 -30 -79 -30q-8 0 -13 0.5t-9 4.5q-2 4 -4 25q0 35 39 80q20 19 39 38.5t39 39.5q19 19 39 19
q19 0 20 -25q0 -2 -14 -6q-7 -2 -11 -3.5t-6 -2.5q-52 -38 -77 -67t-27 -51q0 -10 16 -11q41 0 210 135q2 2 5 3t4 1q5 0 6.5 -4t1.5 -8q-1 0 -7 -7t-19 -26q-13 -18 -19.5 -35.5t-6.5 -37.5q0 -38 42 -39q18 0 78 51q-9 12 -13 29.5t-5 39.5q0 26 13 45q8 9 17 14t22 5
q39 0 39 -44q0 -50 -42 -91q27 -34 51 -34q47 0 127 52q75 49 113 93q1 4 6 2q3 0 5 -6zM324 145q0 29 -18 29q-35 0 -35 -43q0 -31 13 -56q13 15 19.5 23t8.5 10q11 17 12 37z" />
    <glyph glyph-name="x" unicode="x" horiz-adv-x="446" 
d="M489 164q0 -3 -1 -5.5t-3 -5.5q-69 -70 -144 -119q-88 -61 -152 -63q-61 0 -98 103q-23 -17 -59 -46t-85 -73q-9 -7 -20 -6q-5 2 -7 4q0 7 15 22.5t48 40.5q24 20 48 38.5t49 37.5q-21 34 -37 41q-23 9 -23 18q0 23 35 26q25 0 43 -19q2 -4 8 -12.5t14 -24.5
q25 19 48.5 35t46.5 30q58 32 81 32q5 0 8.5 -0.5t5.5 -4.5q0 -5 -3.5 -7.5t-14.5 -7.5q-19 -7 -31.5 -11.5t-17.5 -8.5q-64 -31 -115 -77l33 -52q23 -40 50 -41q41 0 136 65q13 8 45.5 31.5t86.5 64.5q1 1 6 1q2 0 4 -6z" />
    <glyph glyph-name="y" unicode="y" horiz-adv-x="366" 
d="M264 142q0 -9 -65 -76q-60 -60 -99.5 -100t-60.5 -62q-59 -61 -111 -122t-100 -122q-20 -27 -29.5 -46t-11.5 -29q0 -3 1 -6.5t2 -9.5t1 -10.5v-6.5q-12 -32 -47 -34q-2 12 -3 20.5t-2 16.5q0 48 56 108l333 368q-85 -55 -132 -55t-47 49q0 39 32 92q32 44 53 54
q16 1 18 -10q-2 -2 -9.5 -10t-25.5 -29q-33 -40 -36 -79q0 -31 53 -33q40 0 124 69q83 68 95 69q10 0 11 -6z" />
    <glyph glyph-name="z" unicode="z" horiz-adv-x="419" 
d="M462 165q0 -4 -4 -9q-40 -36 -77.5 -66t-75.5 -54q-73 -46 -113 -48q-9 0 -64 12q-52 13 -81 13q-12 0 -25.5 -2t-30.5 -9q-23 -11 -45 -19h-1l-3 1q84 77 191 150h-103q-16 0 -16 9q0 17 17 24q14 5 70 8q33 1 51 3q11 1 18 1q31 0 33 -17q0 -3 -75 -54q-74 -48 -81 -61
q45 0 76 -2.5t48 -7.5q17 -4 30 -5.5t24 -2.5q45 0 122 53q57 38 104 85q10 8 11 -2z" />
    <glyph glyph-name="braceleft" unicode="{" horiz-adv-x="414" 
d="M704 693q0 -9 -20 -9h-57q-55 0 -103 -48q-23 -27 -45 -53.5t-45 -54.5l-133 -151q-23 -28 -44 -45.5t-39 -27.5q-34 -18 -77 -15l-2 -3q13 -9 14 -30q0 -43 -52 -112l-120 -151q-75 -93 -75 -113t40 -20h42q8 0 9 -13q0 -8 -25 -11h-38q-51 0 -54 38q0 25 54 96l139 178
q53 69 54 102q0 10 -9 22q-8 14 -8 19q0 4 2 7q7 14 41 15q62 0 130 77l149 169l89 105q44 41 112 44h59q6 0 8 -3.5t4 -11.5z" />
    <glyph glyph-name="bar" unicode="|" horiz-adv-x="239" 
d="M198 720q0 -22 -4 -53t-13 -73q-4 -16 -7 -57.5t-9 -107.5q-5 -79 -7 -154t-3 -147q0 -54 1.5 -103t5.5 -91q0 -8 2.5 -19.5t9.5 -25.5q5 -15 7.5 -26t3.5 -18q0 -14 -9 -29v-1l-2 -4v-5q-9 0 -22 7q-14 34 -22 88t-8 132q0 104 4.5 211.5t12.5 220.5q19 271 48 273
q11 0 11 -18z" />
    <glyph glyph-name="braceright" unicode="}" horiz-adv-x="414" 
d="M525 670q0 -25 -53 -96l-139 -178q-27 -34 -40 -59t-14 -42q0 -5 1.5 -10.5t7.5 -13.5q6 -10 8 -17q0 -4 -2 -8q-8 -14 -41 -15q-62 0 -131 -76l-148 -170q-23 -26 -45 -52t-45 -53q-44 -41 -112 -44h-59q-10 0 -11 15q0 9 19 9h57q55 0 103 48q23 27 45.5 53.5
t45.5 54.5l133 152q46 53 84 73q17 8 35 12t41 2l2 3q-13 11 -14 30q0 47 52 112l119 151q38 47 56.5 75.5t18.5 37.5q0 20 -40 20h-42q-6 0 -9 13q0 8 25 11h39q51 0 53 -38z" />
    <glyph glyph-name="asciitilde" unicode="~" horiz-adv-x="544" 
d="M516 361q-8 -23 -24 -43.5t-40 -37.5q-23 -16 -46.5 -24t-49.5 -9q-61 0 -98 75q-17 35 -43 35q-19 0 -40 -7t-44 -22q-44 -29 -68 -65q-3 -3 -7 -4.5t-9 -3.5q-9 0 -6 11q6 17 23 36.5t47 41.5q60 45 113 45q39 0 66 -51q16 -29 26 -42q21 -19 49 -19q80 0 120 89
q7 15 21 12q15 0 10 -17z" />
    <glyph glyph-name="uni008E" horiz-adv-x="1447" 
d="M1304 64q-101 -63 -167 -85q-65 -24 -146 -24q-94 0 -250 58q-77 29 -128 43t-77 14q-47 0 -101 -22.5t-116 -70.5q-10 0 -10 8l673 556q-111 52 -197.5 88.5t-152.5 59.5q-150 50 -255 52q-100 0 -172 -57q-72 -56 -72 -132q0 -74 65 -127q64 -52 159 -52q113 0 208 33
l2 -7q-150 -56 -224 -56q-104 0 -175 52q-71 53 -71 130q0 108 103 176q104 70 262 71q48 0 104 -11t120 -32q106 -35 318 -135q17 -3 50 -16l-605 -497q14 2 36.5 5.5t53.5 11.5q20 5 34 6.5t24 2.5q88 0 227 -62q70 -29 122 -44t90 -16q35 0 101.5 20.5t165.5 63.5z
M688 894q0 12 7.5 22.5t15.5 10.5q6 0 10 -7l10 -17.5t14.5 -22.5t22.5 -23q20 -16 38.5 -25t40.5 -9q14 0 38 13.5t44 33.5q17 17 31.5 34.5t20.5 17.5q8 0 8 -2.5v-9.5q0 -3 -6.5 -10t-17 -17.5t-24 -22.5t-27.5 -24q-6 -5 -17 -13t-23 -15.5t-23 -13t-16 -5.5
q-6 0 -16.5 1t-24 5t-28.5 11.5t-29 20.5q-26 23 -37.5 38.5t-11.5 28.5z" />
    <glyph glyph-name="uni008E" unicode="&#x17d;" horiz-adv-x="1447" 
d="M1304 64q-101 -63 -167 -85q-65 -24 -146 -24q-94 0 -250 58q-77 29 -128 43t-77 14q-47 0 -101 -22.5t-116 -70.5q-10 0 -10 8l673 556q-111 52 -197.5 88.5t-152.5 59.5q-150 50 -255 52q-100 0 -172 -57q-72 -56 -72 -132q0 -74 65 -127q64 -52 159 -52q113 0 208 33
l2 -7q-150 -56 -224 -56q-104 0 -175 52q-71 53 -71 130q0 108 103 176q104 70 262 71q48 0 104 -11t120 -32q106 -35 318 -135q17 -3 50 -16l-605 -497q14 2 36.5 5.5t53.5 11.5q20 5 34 6.5t24 2.5q88 0 227 -62q70 -29 122 -44t90 -16q35 0 101.5 20.5t165.5 63.5z
M688 894q0 12 7.5 22.5t15.5 10.5q6 0 10 -7l10 -17.5t14.5 -22.5t22.5 -23q20 -16 38.5 -25t40.5 -9q14 0 38 13.5t44 33.5q17 17 31.5 34.5t20.5 17.5q8 0 8 -2.5v-9.5q0 -3 -6.5 -10t-17 -17.5t-24 -22.5t-27.5 -24q-6 -5 -17 -13t-23 -15.5t-23 -13t-16 -5.5
q-6 0 -16.5 1t-24 5t-28.5 11.5t-29 20.5q-26 23 -37.5 38.5t-11.5 28.5z" />
    <glyph glyph-name="uni009E" horiz-adv-x="419" 
d="M462 165q0 -4 -4 -9q-40 -36 -77.5 -66t-75.5 -54q-73 -46 -113 -48q-9 0 -64 12q-52 13 -81 13q-12 0 -25.5 -2t-30.5 -9q-23 -11 -45 -19h-1l-3 1q84 77 191 150h-103q-16 0 -16 9q0 17 17 24q14 5 70 8q33 1 51 3q11 1 18 1q31 0 33 -17q0 -3 -75 -54q-74 -48 -81 -61
q45 0 76 -2.5t48 -7.5q17 -4 30 -5.5t24 -2.5q45 0 122 53q57 38 104 85q10 8 11 -2zM55.7715 341.547q0 9.65234 5.87988 18.0977q5.88086 8.44531 12.1533 8.44531q4.7041 0 7.83984 -5.63086q3.13672 -5.62988 7.84082 -14.0752t11.3691 -18.0967
q6.66406 -9.65234 17.6416 -18.5q15.6807 -12.8691 30.1855 -20.1074q14.5049 -7.23926 31.7549 -7.23926q10.9766 0 29.7939 10.8584t34.498 26.9443q13.3291 13.6738 24.6982 27.749q11.3691 14.0762 16.0732 14.0762q6.27246 0 6.27246 -2.01074v-7.6416
q0 -2.41309 -5.09668 -8.04297q-5.0957 -5.62988 -13.3291 -14.0752q-8.23242 -8.44629 -18.8174 -18.0977q-10.584 -9.65137 -21.5615 -19.3037q-4.7041 -4.02148 -13.3291 -10.4561q-8.62402 -6.43457 -18.0332 -12.4668q-9.4082 -6.03223 -18.0332 -10.4561
t-12.5449 -4.42383q-4.7041 0 -12.9365 0.803711q-8.2334 0.804688 -18.8174 4.02148q-10.585 3.21777 -22.3457 9.25t-22.7383 16.4883q-20.3848 18.5 -29.4014 30.9668t-9.0166 22.9229z" />
    <glyph glyph-name="uni009E" unicode="&#x17e;" horiz-adv-x="419" 
d="M462 165q0 -4 -4 -9q-40 -36 -77.5 -66t-75.5 -54q-73 -46 -113 -48q-9 0 -64 12q-52 13 -81 13q-12 0 -25.5 -2t-30.5 -9q-23 -11 -45 -19h-1l-3 1q84 77 191 150h-103q-16 0 -16 9q0 17 17 24q14 5 70 8q33 1 51 3q11 1 18 1q31 0 33 -17q0 -3 -75 -54q-74 -48 -81 -61
q45 0 76 -2.5t48 -7.5q17 -4 30 -5.5t24 -2.5q45 0 122 53q57 38 104 85q10 8 11 -2zM55.7715 341.547q0 9.65234 5.87988 18.0977q5.88086 8.44531 12.1533 8.44531q4.7041 0 7.83984 -5.63086q3.13672 -5.62988 7.84082 -14.0752t11.3691 -18.0967
q6.66406 -9.65234 17.6416 -18.5q15.6807 -12.8691 30.1855 -20.1074q14.5049 -7.23926 31.7549 -7.23926q10.9766 0 29.7939 10.8584t34.498 26.9443q13.3291 13.6738 24.6982 27.749q11.3691 14.0762 16.0732 14.0762q6.27246 0 6.27246 -2.01074v-7.6416
q0 -2.41309 -5.09668 -8.04297q-5.0957 -5.62988 -13.3291 -14.0752q-8.23242 -8.44629 -18.8174 -18.0977q-10.584 -9.65137 -21.5615 -19.3037q-4.7041 -4.02148 -13.3291 -10.4561q-8.62402 -6.43457 -18.0332 -12.4668q-9.4082 -6.03223 -18.0332 -10.4561
t-12.5449 -4.42383q-4.7041 0 -12.9365 0.803711q-8.2334 0.804688 -18.8174 4.02148q-10.585 3.21777 -22.3457 9.25t-22.7383 16.4883q-20.3848 18.5 -29.4014 30.9668t-9.0166 22.9229z" />
    <glyph glyph-name="uni00A0" unicode="&#xa0;" horiz-adv-x="238" 
 />
    <glyph glyph-name="exclamdown" unicode="&#xa1;" horiz-adv-x="343" 
d="M-180.964 -188.955q0 15.999 42.9971 49.9971q4 2 84.9951 94.9941l192.988 222.986q50.9971 57.9971 81.4951 95.9941q30.498 37.998 43.4971 55.9971q14.999 23.998 16.999 52.9961q0 11 -3 28.999q-2 7.99902 -3 14.499q-1 6.49902 -2 11.499q0 10.999 11 15.999
q8.99902 6 16.999 6q16.999 0 17.999 -37.998q0 -60.9961 -152.991 -258.984l-270.983 -350.979q-3 -6 -5 -11.499q-2 -5.5 -5.99902 -10.5q-4 -9.99902 -28.999 -11.999q-34.9971 0 -36.9971 31.998zM337.004 558q0 11.999 18.999 23.998q16.999 8.99902 27.999 8.99902
q39.9971 0 40.9971 -29.998q0 -12.999 -14.999 -20.998q-11.999 -9 -30.998 -9q-41.998 0 -41.998 26.999z" />
    <glyph glyph-name="cent" unicode="&#xa2;" horiz-adv-x="371" 
d="M126 197q-21 -2 -45.5 -11.5t-51.5 -33.5q-26 -23 -34 -48t-10 -45q0 -10 3 -19q26 31 52 60q22 25 45.5 51.5t40.5 45.5zM163 211q14 -4 25.5 -14.5t11.5 -28.5q0 -28 -16.5 -44.5t-37.5 -16.5q-15 0 -20 4.5t-5 12.5t9 13.5t21 7.5q9 2 17.5 6.5t8.5 15.5q0 13 -5 20
t-22 9q-49 -55 -86 -97.5t-66 -78.5l11 -12q11 -11 27.5 -13.5t36.5 -2.5q60 0 145 47q28 14 60 35t67 50q59 46 63 46q7 0 7 -9q0 -5 -59 -54q-27 -23 -47 -37.5t-33 -24.5q-63 -44 -123.5 -65t-117.5 -22q-18 0 -37 6.5t-33 17.5q-42 -48 -69.5 -81.5t-46 -58.5t-30 -46.5
t-21.5 -45.5q-6 -15 -7.5 -28.5t-1.5 -27.5t-9.5 -20t-17.5 -6q-12 0 -18 6.5t-6 14.5q0 9 8.5 29t22.5 45q9 16 16.5 28.5t21.5 32.5t40 52.5t73 86.5l31 37q-9 18 -9 40q0 26 13.5 58t48.5 62q29 25 64 38t73 15q16 18 37.5 42.5t52.5 58.5q85 92 154.5 169t126.5 139
q13 13 22 14q5 0 8 -11q-103 -108 -200.5 -215.5t-178.5 -198.5z" />
    <glyph glyph-name="sterling" unicode="&#xa3;" horiz-adv-x="1341" 
d="M633 53q-205 55 -319 55q-132 0 -220 -51q-107 -60 -107 -183q0 -64 81 -115q87 -51 227 -51q169 0 326 80q119 61 260 190zM1117 266q-18 -1 -34 -1.5t-28 -0.5q-14 -1 -26 -1q-9 0 -26.5 -1.5t-23.5 -1.5q-9 0 -14 -0.5t-5 5.5q0 8 9.5 17t20.5 14q11 4 21.5 5t27.5 2
h41t66 1q14 19 22.5 29.5t10.5 15.5q63 81 144 168q49 52 84.5 73t60.5 21q18 0 34.5 -7.5t28.5 -21t19.5 -31.5t7.5 -39q0 -37 -28 -37q-5 0 -8.5 7t-7 17t-9 21.5t-12.5 21.5q-16 20 -28.5 24t-23.5 4q-17 0 -34 -8.5t-33.5 -23t-33 -33t-33.5 -37.5q-56 -59 -110 -132
l-23 -31l70 2q28 1 55 3t39 2q5 0 8.5 -1.5t3.5 -6.5t-5.5 -11t-18.5 -12q-9 -5 -24.5 -5.5t-32.5 -2.5q-15 -2 -49.5 -3t-72.5 -3l-81 -117q-35 -51 -61.5 -85t-46.5 -53l196 -65q135 -45 231 -66.5t156 -23.5q31 0 46 5q6 2 17 6.5t26 14.5l8 -7q0 -1 -8 -8
q-52 -32 -84 -41q-10 -2 -31.5 -2.5t-53.5 -1.5q-38 0 -79 5.5t-86 18.5q-17 1 -174 54l-204 64q-147 -133 -278 -198q-182 -91 -397 -91q-127 0 -203 47q-81 52 -84 151q0 124 135 205q118 71 245 71q160 0 367 -60l108 -34t110 -36q22 21 48 52t58 73q27 37 49.5 67.5
t40.5 53.5z" />
    <glyph glyph-name="currency" unicode="&#xa4;" horiz-adv-x="439" 
d="M377 371q0 -10 -6 -14.5t-23 -18.5l-14 -11q8 -18 14.5 -35t6.5 -34q0 -34 -12 -65t-35 -60q15 -23 27 -35t12 -20q0 -18 -17 -18q-6 0 -13 12.5t-32 39.5q-26 -17 -55 -29.5t-55 -12.5q-37 0 -59.5 14t-36.5 32q-4 -3 -11 -11t-15 -16.5t-15.5 -15t-11.5 -6.5
q-9 0 -16 4.5t-7 15.5q0 4 9.5 11t20.5 16l30 27q-7 14 -9 27.5t-2 27.5q0 32 14 68.5t40 67.5l-21 23q-8 10 -18.5 24t-10.5 21q0 8 6 11.5t11 3.5q4 0 9 -7t11.5 -17t15 -21t19.5 -20q22 13 44 20t57 7q21 0 43.5 -7.5t40.5 -22.5q5 5 7.5 7t3.5 4q1 1 5 6t9 10.5
t10.5 9.5t10.5 4t11.5 -4.5t6.5 -12.5zM322 241q0 23 -4.5 43t-16 35t-32.5 23.5t-54 8.5q-37 0 -62.5 -17t-41.5 -40.5t-23.5 -48.5t-7.5 -42q0 -11 4 -29.5t15 -36.5t30.5 -31t51.5 -13q12 0 36 6.5t47 23t40.5 45t17.5 73.5z" />
    <glyph glyph-name="yen" unicode="&#xa5;" horiz-adv-x="1279" 
d="M771 -24q28 -2 54 -4t47 -6q28 -4 28 -15q0 -2 -7 -4t-19 -4t-27 -3t-31 -2q-21 -1 -36 -0.5t-35 -0.5q-19 -26 -36.5 -52.5t-35.5 -52.5q-88 -134 -89 -164q0 -9 12 -17q12 -9 12 -13q0 -24 -19 -24q-10 0 -26 19t-18 32q0 43 54 126q30 46 56.5 84.5t43.5 61.5
q-62 8 -85 15t-25 16q0 4 8 4q3 0 15.5 0.5t29 0.5t35.5 0.5t36 0.5h14q17 21 34 45.5t34 45.5h-10t-16.5 0.5t-16.5 1t-10 0.5q-51 4 -73 10t-24 15q0 4 8 4q3 0 16 0.5t30.5 1.5t37.5 2t38 1l49 1l116 150t117 150q-235 -184 -236 -184q-95 -69 -148 -69q-64 0 -106 95
q-17 35 -30 88.5t-24 125.5l-32 230q-9 79 -65 141q-60 66 -139 69q-100 0 -233 -60l3 19q18 13 43.5 26t60.5 27q84 31 142 33q66 0 139 -62q75 -68 99 -169q16 -91 31.5 -180t32.5 -180q17 -81 44 -120.5t65 -41.5q54 0 207 123q72 59 138 121.5t130 131.5q5 5 35 39
t86 99q57 67 67 67t11 -15q0 -8 -18 -26q-6 -5 -11.5 -10t-11.5 -12q-132 -159 -250 -310.5t-224 -294.5h15q13 0 34.5 -1.5t41.5 -5t35 -8.5t15 -11q0 -5 -9.5 -8.5t-23.5 -3.5h-26.5h-39.5t-40 -0.5t-29 -0.5z" />
    <glyph glyph-name="brokenbar" unicode="&#xa6;" horiz-adv-x="239" 
d="M138 174q14 0 16.5 -19.5t1.5 -61.5v-47.5t1 -38l2 -35t3 -38.5q0 -8 2.5 -20t5.5 -24.5t5.5 -24t2.5 -20.5q0 -8 -4 -18t-17 -10q-11 0 -16 10.5t-7 27.5q-4 29 -6.5 47.5t-3.5 35.5t-1.5 38.5t-0.5 56.5q2 21 1.5 45.5t0 45.5t3 35.5t11.5 14.5zM139 465q19 271 48 273
q11 0 11 -18q0 -22 -4 -53t-13 -73q-4 -16 -10 -57.5t-6 -107.5q0 -4 0.5 -17.5t-0.5 -28t-3.5 -26t-9.5 -11.5q-9 0 -11.5 13t-2.5 32t1 39.5t0 34.5z" />
    <glyph glyph-name="section" unicode="&#xa7;" horiz-adv-x="646" 
d="M530 374q0 -50 -31 -82q-12 -11 -31.5 -22t-47.5 -24q-57 -22 -121 -25l39 -12q58 -18 58 -62q0 -25 -10 -53.5t-36 -52.5t-72.5 -40t-119.5 -16q-38 0 -64.5 6.5t-43.5 17.5t-24.5 25.5t-7.5 29.5q0 12 18 12q16 0 26.5 -11t23.5 -24t33.5 -24t55.5 -11q34 0 69.5 7.5
t65 22t48 36t18.5 50.5q0 26 -23.5 38.5t-52.5 18.5q-31 8 -52.5 13.5t-49.5 18.5q-30 14 -49.5 28.5t-19.5 39.5t16.5 48t44 42.5t64.5 35t78 26.5l-2 1q-30 8 -44 27t-15 48q0 27 25.5 56t67 53t95 40t110.5 16q14 0 30 -3.5t29 -10t21.5 -16.5t8.5 -22q0 -17 -14 -29
t-40 -23q-43 -13 -43 0q0 2 7 5.5t21 12.5q26 14 29 34q0 32 -46 32q-74 0 -158 -37q-100 -44 -100 -100q0 -28 38 -41q15 -6 31 -11q14 -5 29 -9.5t29 -7.5q16 -5 32 -12t28.5 -16t20.5 -20t8 -24zM373 419q-23 -5 -48.5 -9.5t-50.5 -15.5q-50 -21 -72.5 -49t-22.5 -57
q0 -10 8 -18t19.5 -15t23 -11.5t18.5 -7.5q15 -1 34.5 -0.5t43.5 4t51.5 10.5t57.5 20q74 33 75 79q0 22 -21.5 35.5t-47.5 21.5q-30 9 -68 13z" />
    <glyph glyph-name="dieresis" unicode="&#xa8;" horiz-adv-x="306" 
d="M140 576q0 -14 -11.5 -24.5t-31.5 -10.5q-19 0 -27 5t-8 20q0 13 13.5 23t32.5 10q15 0 23.5 -4.5t8.5 -18.5zM265 576q0 -13 -13 -22t-33 -9q-19 0 -25.5 8.5t-6.5 19.5q0 14 14.5 21.5t33.5 7.5q20 0 25 -6.5t5 -19.5z" />
    <glyph glyph-name="copyright" unicode="&#xa9;" horiz-adv-x="1101" 
d="M891 616q0 -78 -96 -159q-92 -74 -174 -74q-10 0 -25 6q-16 9 -17 22q0 14 14 27q15 13 31 13q5 -22 9 -27q2 -7 12 -7q45 0 96 32q50 31 71 55q32 37 32 89q0 77 -100 80q-144 0 -289 -123q-152 -129 -153 -288q0 -77 48 -120q47 -41 133 -43q47 0 113 25q30 10 74 32
l25.5 12t10.5 5q10 0 11 -1v-10q0 -16 -68 -51q-58 -26 -106 -39t-89 -15q-87 0 -142 51q-52 47 -54 130q0 110 85 226q77 107 197 176q120 72 227 72q54 0 88 -28q36 -26 36 -68zM1048 594q0 -149 -94 -310q-95 -159 -240 -264q-155 -110 -311 -110q-129 0 -211 72
q-90 77 -90 207q0 150 75 297q67 126 177 215q54 41 103.5 62t97.5 26v-13q-53 2 -149 -65q-111 -77 -184 -191q-45 -72 -68 -147.5t-23 -159.5q0 -114 79 -193q75 -78 199 -78q78 0 152 25t149 77q135 94 222 246q43 77 64 152t23 151q0 95 -71 152q-65 48 -173 49
q-111 0 -246 -86q-65 -43 -120 -93.5t-101 -112.5q-1 0 -3 1t-4 1.5t-5 2.5q35 48 78 92t95 85q165 135 317 137q126 0 194 -58t68 -169z" />
    <glyph glyph-name="ordfeminine" unicode="&#xaa;" horiz-adv-x="403" 
d="M454 617q0 -6 -4 -11q-10 -13 -31.5 -34t-48 -41.5t-55 -35.5t-51.5 -15q-54 0 -57 81q-24 -20 -69 -43q-23 -12 -44.5 -17.5t-35.5 -5.5q-7 0 -15 1t-15 4.5t-11.5 10.5t-4.5 18q0 45 81 108q42 31 77.5 47t66.5 16q37 0 38 -18q0 -20 -12 -29t-26 -9q0 1 -1 4
q-1 2 -2 4.5t-3 6.5q-6 14 -24 16q-40 0 -90 -44q-26 -21 -40.5 -40t-14.5 -36q0 -14 9 -20t18 -6q26 0 50 12t55 33q13 9 45 44q20 25 34 23q13 0 13 -10q0 -9 -17 -39q-16 -28 -16 -41q0 -37 37 -38q13 0 36.5 14.5t47.5 33.5t44 36.5t26 22.5q2 2 6 2t4 -5zM349 448
q0 -3 -7.5 -6t-20.5 -5.5t-29 -4.5t-32 -3q-53 -5 -94.5 -5h-79.5q-36 0 -59.5 8t-25.5 16q0 4 8 4q7 0 31 -3q13 -2 26 -2.5t19 -0.5q8 0 30.5 0.5t49.5 2.5q16 1 35.5 2.5t40.5 2.5t41.5 2t37.5 1q8 0 18.5 -1t10.5 -8z" />
    <glyph glyph-name="guillemotleft" unicode="&#xab;" horiz-adv-x="329" 
d="M19 154q0 10 6 21.5t16 24.5q11 14 24.5 26.5t26.5 23.5q14 11 28 21.5t24 11.5q7 0 7 -14q0 -7 -13 -17q-8 -6 -14.5 -12.5l-13.5 -13.5q-5 -6 -12.5 -14t-14 -17.5t-11.5 -21t-5 -23.5q0 -24 4.5 -34t8.5 -22q4 -7 7.5 -13.5t9.5 -12.5q4 -5 5.5 -8.5t-0.5 -8.5
q-6 -14 -13 -14q-8 0 -20 7.5t-23 22t-19 36.5t-8 51zM108 135q0 17 9 30t20 24q26 27 47.5 45t29.5 18q4 0 5.5 -1t1.5 -8q0 -5 -3.5 -8t-9.5 -9q-8 -8 -17.5 -18.5t-17.5 -22.5t-13 -23.5t-5 -20.5q0 -24 4.5 -34t8.5 -22q4 -7 7.5 -13.5t9.5 -12.5q4 -5 5.5 -8.5
t-0.5 -8.5q-6 -14 -13 -14q-8 0 -19.5 7.5t-22.5 21.5t-19 33.5t-8 44.5z" />
    <glyph glyph-name="logicalnot" unicode="&#xac;" horiz-adv-x="833" 
d="M124 417h585v-245h-29v214h-556v31z" />
    <glyph glyph-name="uni00AD" unicode="&#xad;" horiz-adv-x="372" 
d="M342 102q0 -10 -28 -10q-10 0 -27 4q-8 2 -14 3t-11 3q-26 0 -51 -2.5t-51 -7.5q-23 -4 -35 -5.5t-15 -3.5q-31 0 -45 13q-30 20 -32 32q0 4 8 4q3 0 10.5 -1t19.5 -3q11 -2 20 -2h15q2 0 16.5 1.5t41.5 5.5q27 3 49 4.5t42 3.5q31 0 61 -15q26 -14 26 -24z" />
    <glyph glyph-name="registered" unicode="&#xae;" horiz-adv-x="1101" 
d="M1048 594q0 -149 -94 -310q-95 -159 -240 -264q-155 -110 -311 -110q-129 0 -211 72q-90 77 -90 207q0 150 75 297q67 126 177 215q54 41 103.5 62t97.5 26v-13q-53 2 -149 -65q-111 -77 -184 -191q-45 -72 -68 -147.5t-23 -159.5q0 -114 79 -193q75 -78 199 -78
q78 0 152 25t149 77q135 94 222 246q43 77 64 152t23 151q0 95 -71 152q-65 48 -173 49q-111 0 -246 -86q-65 -43 -120 -93.5t-101 -112.5q-1 0 -3 1t-4 1.5t-5 2.5q35 48 78 92t95 85q165 135 317 137q126 0 194 -58t68 -169zM906 621q0 -62 -97 -143q-78 -62 -164.5 -92.5
t-182.5 -32.5h-22l219 -311q0 -10 -12 -11h-9.5t-21.5 1q-17 0 -93 130q-45 75 -76.5 121t-52.5 66q-25 -48 -76 -137q-69 -107 -116 -107q-21 0 -21 24q0 10 8 19q6 10 18 13q4 0 8 -4q2 -1 3.5 -1t3.5 -2q14 0 67 83q18 31 36 61.5t38 61.5q-51 12 -91 27q-16 7 -17 24
q0 3 1.5 7.5t6.5 10.5q6 9 19 11l107 -25q67 97 163 178q133 108 243 109q46 0 80 -23q28 -20 31 -58zM854 593q0 21 -22 37q-12 8 -27 11t-34 4q-164 0 -342 -235h46q113 0 238 51q135 58 141 132z" />
    <glyph glyph-name="macron" unicode="&#xaf;" horiz-adv-x="372" 
d="M402 664q0 -5 -6.5 -6t-14.5 -1q-4 0 -12.5 1t-19 2.5l-21 3t-19.5 1.5q-29 0 -67 -6t-72 -6q-20 0 -34 4t-23.5 10t-14 12.5t-5.5 10.5q0 4 8 4q3 0 10.5 -1t19.5 -3q11 -2 20 -2h15q2 0 19.5 2t47.5 5q13 1 23 2t19.5 2t20 1h25.5q12 0 29 -4.5t27 -9.5q14 -8 19.5 -12
t5.5 -10z" />
    <glyph glyph-name="degree" unicode="&#xb0;" horiz-adv-x="389" 
d="M522 557q-34 -66 -101 -110q-64 -46 -131 -46q-43 0 -68 22q-23 24 -24 60q0 15 4 32t14 36q30 64 99 109q67 46 132 46q40 0 68 -23q22 -22 25 -61q0 -29 -18 -65zM491 551q13 30 14 55q0 71 -80 71q-49 0 -101 -36q-51 -34 -77 -84q-13 -27 -16 -56q0 -17 5.5 -29
t16.5 -23q20 -19 58 -19q50 0 103 35q26 17 44.5 38.5t32.5 47.5z" />
    <glyph glyph-name="plusminus" unicode="&#xb1;" horiz-adv-x="486" 
d="M487 257q0 -18 -15 -25h-8t-17 -2q-33 0 -60 1t-49 3q-21 2 -45.5 3t-54.5 1q-26 -27 -39 -43t-21 -28t-14 -24t-17 -30l-24 1l19 38t14.5 26t18.5 25.5t31 35.5l-151 2q-39 0 -40 6q0 16 36 22h180l130 123l31 -13l-125 -110zM419 57q0 -3 -7.5 -5t-18 -2.5t-23.5 -0.5
h-23h-63t-77.5 -0.5t-70.5 -0.5h-42q-67 0 -67 17q0 7 10 7q3 0 11 -1t18 -2l20 -2t16 -1q8 0 21.5 1t29.5 2t32 2.5t30 2.5q19 1 31.5 1.5t25.5 0.5t29.5 -0.5t43.5 -0.5q28 0 51 -5t23 -13z" />
    <glyph glyph-name="uni00B2" unicode="&#xb2;" horiz-adv-x="522" 
d="M544 737q0 -17 -5.5 -35t-22.5 -43q-24 -38 -59 -72t-77 -64q-35 -23 -69.5 -45t-68.5 -45q26 -13 49 -24t43 -17q23 -7 35.5 -10.5t29.5 -5.5q8 -1 15 -1t7 -4q0 -5 -18.5 -9t-36.5 -4q-23 0 -68 12t-96 37q-43 -23 -76 -35t-56 -12q-22 0 -36.5 12.5t-14.5 28.5
q0 27 25 49q25 19 59 20q30 0 70 -13q12 -5 23.5 -8.5t24.5 -8.5q29 14 64.5 36t80.5 56q55 42 100 98q20 28 31 50t11 40q0 26 -15.5 38t-40.5 12q-37 0 -79 -25.5t-87 -77.5l-7 5q29 35 53.5 57.5t47.5 36.5q21 14 45 20t51 7q68 0 68 -56zM176 421q-27 14 -49 22t-39 8
q-52 0 -52 -39q0 -15 11 -23t30 -8q16 0 40 9.5t59 30.5z" />
    <glyph glyph-name="uni00B3" unicode="&#xb3;" horiz-adv-x="483" 
d="M525 747q0 -14 -7.5 -30t-22.5 -30q-14 -14 -39.5 -33t-73.5 -44q38 -6 60 -28.5t22 -54.5q0 -20 -8 -43t-29 -49q-23 -27 -52 -46.5t-61 -32t-65.5 -18t-65.5 -5.5q-42 0 -87.5 19.5t-76.5 58.5l10 1q22 -17 41 -28.5t37.5 -18t37 -9.5t41.5 -4q47 0 90.5 13t76.5 35.5
t52.5 52.5t19.5 64q0 38 -23 58t-53 20q-49 -20 -76.5 -26.5t-38.5 -6.5q-27 0 -27 16q0 11 29.5 24t76.5 13q11 0 19.5 -0.5t15.5 -1.5q18 7 40 21t41.5 31t33 36.5t13.5 38.5q0 16 -17.5 26.5t-52.5 10.5q-26 0 -53 -7.5t-53 -19.5q-15 -7 -25.5 -12.5t-21.5 -12.5
t-24 -16t-32 -22l-2 7q36 34 68.5 54t63.5 33q28 11 55 16.5t59 5.5t58 -13.5t26 -42.5zM320 600q-6 1 -17.5 0.5t-16.5 -0.5q-28 0 -44 -6.5t-16 -14.5q0 -5 6 -5q18 0 46 10q10 4 22 8t20 8z" />
    <glyph glyph-name="acute" unicode="&#xb4;" horiz-adv-x="419" 
d="M269 643q0 -22 -6 -35q-5 -9 -41 -51q-20 -17 -34.5 -25t-26.5 -10q-5 0 -8 15q0 5 15 19q8 7 14.5 12.5t8.5 9.5q5 8 8.5 15t7.5 17q2 8 4.5 16.5t4.5 17.5q6 15 27 18q26 0 26 -19z" />
    <glyph glyph-name="uni00B5" unicode="&#xb5;" horiz-adv-x="492" 
d="M79 146q-23 -38 -47.5 -94t-41.5 -109q-3 -11 -7 -25t-7 -28.5t-5 -27.5t-2 -20q0 -23 3.5 -37.5t3.5 -30.5q0 -14 -6 -25.5t-18 -11.5q-14 0 -21 12.5t-7 33.5q0 6 2 19t5.5 29.5t7.5 34.5t9 33q8 27 26 72.5t40.5 93.5t46 90t42.5 61q15 15 35 15q9 0 9 -16
q0 -6 -3 -12.5t-8 -15t-12 -20.5t-14 -29q-8 -18 -12 -36.5t-4 -32.5q0 -16 9 -23t18 -9q4 0 18 1.5t26 7.5q23 11 35.5 23t23.5 22q10 9 23 23.5t36 44.5q36 46 52 46q12 0 13 -11q0 -5 -9 -16t-29 -30q-36 -34 -36 -58q0 -27 7.5 -43.5t39.5 -16.5q35 0 73 25t78 57
q3 1 6 1q4 0 5 -6q0 -7 -5 -11q-20 -18 -43 -36.5t-47.5 -33.5t-49 -24.5t-46.5 -9.5q-24 0 -43.5 20.5t-19.5 58.5q-14 -15 -30 -27.5t-42 -27.5q-18 -11 -32.5 -13t-23.5 -2q-19 0 -33.5 11.5t-16.5 32.5q0 17 9.5 45.5t23.5 54.5z" />
    <glyph glyph-name="uni00B5" unicode="&#x3bc;" horiz-adv-x="492" 
d="M79 146q-23 -38 -47.5 -94t-41.5 -109q-3 -11 -7 -25t-7 -28.5t-5 -27.5t-2 -20q0 -23 3.5 -37.5t3.5 -30.5q0 -14 -6 -25.5t-18 -11.5q-14 0 -21 12.5t-7 33.5q0 6 2 19t5.5 29.5t7.5 34.5t9 33q8 27 26 72.5t40.5 93.5t46 90t42.5 61q15 15 35 15q9 0 9 -16
q0 -6 -3 -12.5t-8 -15t-12 -20.5t-14 -29q-8 -18 -12 -36.5t-4 -32.5q0 -16 9 -23t18 -9q4 0 18 1.5t26 7.5q23 11 35.5 23t23.5 22q10 9 23 23.5t36 44.5q36 46 52 46q12 0 13 -11q0 -5 -9 -16t-29 -30q-36 -34 -36 -58q0 -27 7.5 -43.5t39.5 -16.5q35 0 73 25t78 57
q3 1 6 1q4 0 5 -6q0 -7 -5 -11q-20 -18 -43 -36.5t-47.5 -33.5t-49 -24.5t-46.5 -9.5q-24 0 -43.5 20.5t-19.5 58.5q-14 -15 -30 -27.5t-42 -27.5q-18 -11 -32.5 -13t-23.5 -2q-19 0 -33.5 11.5t-16.5 32.5q0 17 9.5 45.5t23.5 54.5z" />
    <glyph glyph-name="paragraph" unicode="&#xb6;" horiz-adv-x="548" 
d="M666 699q0 -8 -9 -21.5t-17 -23.5q-7 -8 -14.5 -16t-16.5 -17q-40 -46 -71 -83.5t-57.5 -72.5t-52 -70.5t-55.5 -76.5q-19 -26 -38 -53.5t-39.5 -58t-43 -64.5t-48.5 -74q-43 -66 -63.5 -107.5t-27.5 -56.5q-7 -17 -3 -46q-17 -31 -42 -40q-9 -3 -13 7q0 2 -1.5 8
t-3.5 16q-2 7 11 33.5t36.5 65.5t55 87.5t66 99.5t70 101.5t66.5 93.5q34 47 77.5 101.5t86.5 107.5l98 116q2 2 -1 15q-3 9 11 15q36 19 39 14zM344 456q-20 20 -23.5 37t-3.5 39q0 18 5.5 43t21.5 50t43.5 48.5t71.5 38.5q19 7 40.5 10.5t39.5 4t30 -2t12 -7.5
q0 -9 -16.5 -28t-35.5 -41q-78 -91 -149.5 -179t-131.5 -171q-38 -53 -83.5 -119t-93.5 -143q-42 -67 -64 -116t-29 -64q-7 -17 -3 -46q-17 -31 -42 -40q-9 -3 -13 7q0 2 -1.5 8t-3.5 16q-3 11 21.5 57.5t68.5 117t103.5 157.5t127.5 179q24 32 52 70.5t56 73.5z" />
    <glyph glyph-name="periodcentered" unicode="&#xb7;" horiz-adv-x="245" 
d="M181 334q-2 -24 -16.5 -43.5t-45.5 -19.5q-21 0 -29.5 8.5t-6.5 33.5q2 32 15.5 50t49.5 18q22 0 28.5 -12t4.5 -35z" />
    <glyph glyph-name="cedilla" unicode="&#xb8;" horiz-adv-x="281" 
d="M128 -4q-3 -7 -6 -13.5t-3 -17.5q0 -8 5.5 -13.5t22.5 -13.5q15 -8 29.5 -12.5t26 -10t19 -14.5t8.5 -25q2 -36 -33 -57t-93 -21q-18 0 -35.5 4.5t-31 11.5t-22 15t-8.5 15q0 8 2.5 8h5.5t9.5 -6t17 -13.5t26 -13.5t36.5 -6q23 0 37.5 5t22.5 13t11 18t3 21
q0 9 -5.5 15.5t-13.5 12t-17.5 9.5t-18.5 8q-18 8 -22 16.5t-4 19.5q0 7 6.5 21t14.5 30q4 4 7 3t3 -9z" />
    <glyph glyph-name="uni00B9" unicode="&#xb9;" horiz-adv-x="534" 
d="M516 881q0 -17 -38.5 -77.5t-119.5 -163.5q-30 -39 -49 -64t-31.5 -42.5t-21.5 -30.5t-20 -28l69 2q-2 -6 -6 -12q-4 -5 -11 -12t-19 -13q-17 -9 -38.5 -14.5t-41.5 -9.5q-23 -4 -46 -6q-10 -2 -14.5 -2.5t-6.5 -0.5q-20 0 -29 6.5t-11 17.5q0 8 9 15t29 12l76 16
q33 40 53 64t33 40t22 26.5t19 23.5q42 53 76 100.5t68 93.5q-27 5 -44 8t-17 8q0 13 40 39q18 9 30.5 14t20.5 5h13.5t5.5 -15z" />
    <glyph glyph-name="ordmasculine" unicode="&#xba;" horiz-adv-x="370" 
d="M462 611q0 -24 -9.5 -50.5t-35.5 -52.5q-20 -20 -39 -31.5t-38 -17.5t-37 -8t-36 -2q-25 0 -44 8t-32 20.5t-19.5 28.5t-6.5 33q0 35 19.5 65t64.5 57q26 16 55.5 25t72.5 9q35 0 60 -24t25 -60zM414 606q0 33 -17.5 49t-44.5 16q-21 0 -44.5 -5.5t-48.5 -22.5
q-7 -5 -17 -12.5t-19.5 -19.5t-16.5 -29t-7 -39q0 -35 23 -52t56 -17q23 0 47 7.5t44 24t32.5 41t12.5 59.5zM447 412q0 -3 -7.5 -6t-20.5 -5.5t-29 -4.5t-32 -3q-53 -5 -94.5 -5h-79.5q-36 0 -59.5 8t-25.5 16q0 4 8 4q7 0 31 -3q13 -2 26 -2.5t19 -0.5q8 0 30.5 0.5
t49.5 2.5q16 1 35.5 2.5t40.5 2.5t41.5 2t37.5 1q8 0 18.5 -1t10.5 -8z" />
    <glyph glyph-name="guillemotright" unicode="&#xbb;" horiz-adv-x="340" 
d="M334.001 414.01q0 -10 -5.99902 -21.499q-6 -11.499 -15.999 -24.499q-11 -13.999 -24.499 -26.498t-26.498 -23.498q-13.999 -11 -27.998 -21.499q-14 -10.499 -23.999 -11.499q-7 0 -7 13.999q0 6.99902 13 16.999q7.99902 5.99902 14.499 12.499
q6.49902 6.5 13.499 13.499q5 6 12.499 13.999q7.5 8 13.999 17.499q6.5 9.5 11.499 20.999q5 11.499 5 23.498q0 23.999 -4.5 33.998q-4.49902 10 -8.49902 21.999q-4 6.99902 -7.5 13.499q-3.49902 6.5 -9.49902 12.499q-4 5 -5.5 8.5t0.5 8.49902q6 13.999 13 13.999
q7.99902 0 19.998 -7.49902q12 -7.5 22.999 -21.999t18.999 -36.498q7.99902 -21.998 7.99902 -50.9961zM245.007 433.008q0 -16.998 -9 -29.998q-8.99902 -12.999 -19.998 -23.998q-25.999 -26.998 -47.4971 -44.9971q-21.499 -17.999 -29.499 -17.999
q-3.99902 0 -5.49902 1t-1.5 7.99902q0 5 3.5 8q3.49902 2.99902 9.49902 8.99902q7.99902 8 17.499 18.499q9.49902 10.499 17.499 22.499q7.99902 11.999 12.999 23.498t5 20.499q0 23.998 -4.5 33.998q-4.5 9.99902 -8.5 21.998q-3.99902 7 -7.49902 13.499
q-3.5 6.5 -9.49902 12.5q-4 4.99902 -5.5 8.49902t0.5 8.5q6 13.999 12.999 13.999q8 0 19.499 -7.5q11.499 -7.49902 22.498 -21.498q11 -14 18.999 -33.498q8 -19.499 8 -44.498z" />
    <glyph glyph-name="onequarter" unicode="&#xbc;" horiz-adv-x="1246" 
d="M640 1006q0 -8 -39.5 -63.5t-120.5 -158.5l-244 -309l69 2l-37 -43l-125 -24q-10 -2 -14.5 -2.5t-6.5 -0.5q-20 0 -29 6.5t-11 17.5q0 8 9 15t29 12l76 16q128 155 223 275.5t161 210.5q-27 5 -39.5 11t-12.5 11q0 13 40 39q34 17 44 19q4 0 12 -8.5t16 -25.5zM1100 894
q-16 -22 -37 -37l-38 -24q-34 -23 -81.5 -60.5t-101 -82t-109.5 -92.5t-107 -92t-93.5 -81t-68.5 -58q-25 -21 -54.5 -47.5t-61 -56t-65 -61t-66.5 -62.5q-57 -54 -90 -87.5t-44 -46.5t-15 -43q-13 -14 -25 -20.5t-26 -7.5q-9 0 -10 10v8t1 16q0 12 29 43.5t83 82t132 119.5
t176 156q21 19 51 43.5t62.5 51.5t65 54.5t59.5 50.5q19 16 50 41.5t67.5 54.5t75.5 59.5t74 57.5t63.5 48.5t44.5 32.5q3 1 3 15q0 9 15 11q39 9 41 4zM1094 121q0 -10 -4 -14.5t-10 -6.5q-11 0 -21 5q-2 2 -7 2q-8 0 -39.5 -1.5t-85.5 -6.5q-51 -3 -84.5 -4.5t-38.5 -3.5
q-11 -14 -41 -52.5t-90 -103.5q-3 -2 -4 -6l-2 -8q-2 -14 -3 -20.5t-2 -8.5q-4 -17 -15.5 -24t-32.5 -7q-15 0 -21 5t-6 14q0 8 9.5 22t31.5 32q8 7 22.5 23t37.5 41l74 87q-174 -9 -176 -9q-132 0 -132 64q0 15 8 31.5t27 36.5q17 18 49.5 43t79.5 58q60 42 120 76.5
t120 65.5q123 62 174 62q20 0 36 -14q7 -8 11.5 -16t4.5 -19q0 -18 -12 -33q-7 -6 -13 -14.5t-13 -16.5l-212 -259q75 9 129.5 13.5t77.5 5.5q20 0 34 -10q9 -6 13 -13t6 -16zM1027 450q-1 19 -36 21q-45 0 -137.5 -46t-226.5 -141q-138 -96 -138 -118q0 -21 27.5 -29
t75.5 -9h20t23 1l161 9q35 42 69 84t69 85q90 117 93 143z" />
    <glyph glyph-name="onehalf" unicode="&#xbd;" horiz-adv-x="1246" 
d="M608 995q0 -17 -38.5 -77.5t-119.5 -163.5q-30 -39 -56 -73t-51 -67t-51 -66.5t-56 -72.5l69 2q-2 -6 -6 -12q-4 -5 -11 -12t-19 -13q-17 -9 -38.5 -14.5t-41.5 -9.5q-23 -4 -46 -6q-10 -2 -14.5 -2.5t-6.5 -0.5q-20 0 -29 6.5t-11 17.5q0 8 9 15t29 12l76 16
q66 81 120 146t99 122q42 53 76 100.5t68 93.5q-27 5 -44 8t-17 8q0 13 40 39q18 9 30.5 14t20.5 5h13.5t5.5 -15zM1037 423q0 -18 -6.5 -38.5t-24.5 -48.5q-26 -42 -65 -79.5t-86 -71.5q-37 -23 -75 -47t-74 -50q29 -13 52.5 -24.5t46.5 -18.5q23 -8 37.5 -12t32.5 -6
q9 -1 17.5 -2t8.5 -5q0 -6 -21 -11.5t-42 -5.5q-25 0 -74.5 13.5t-105.5 39.5q-48 -24 -84 -37t-62 -13q-25 0 -41.5 14.5t-16.5 32.5q0 31 28 55q26 21 67 22q32 0 78 -13q13 -5 25.5 -9.5t26.5 -9.5q32 15 70 39.5t88 62.5q63 47 110 107q23 30 34.5 54t11.5 44
q0 28 -16.5 40.5t-42.5 12.5q-42 0 -89 -28t-95 -85l-9 7q64 76 112 105q23 15 50 22t57 8q77 0 77 -64zM1100 894q-16 -22 -37 -37l-38 -24q-34 -23 -81.5 -60.5t-101 -82t-109.5 -92.5t-107 -92t-93.5 -81t-68.5 -58q-25 -21 -54.5 -47.5t-61 -56t-65 -61t-66.5 -62.5
q-57 -54 -90 -87.5t-44 -46.5t-15 -43q-13 -14 -25 -20.5t-26 -7.5q-9 0 -10 10v8t1 16q0 12 29 43.5t83 82t132 119.5t176 156q21 19 51 43.5t62.5 51.5t65 54.5t59.5 50.5q19 16 50 41.5t67.5 54.5t75.5 59.5t74 57.5t63.5 48.5t44.5 32.5q3 1 3 15q0 9 15 11q39 9 41 4z
M624 75q-57 31 -92 31q-55 0 -55 -41q0 -32 43 -32q17 0 42 9.5t62 32.5z" />
    <glyph glyph-name="threequarters" unicode="&#xbe;" horiz-adv-x="1246" 
d="M1100 894q-16 -22 -37 -37l-38 -24q-34 -23 -81.5 -60.5t-101 -82t-109.5 -92.5t-107 -92t-93.5 -81t-68.5 -58q-25 -21 -54.5 -47.5t-61 -56t-65 -61t-66.5 -62.5q-57 -54 -90 -87.5t-44 -46.5t-15 -43q-13 -14 -25 -20.5t-26 -7.5q-9 0 -10 10v8t1 16q0 12 29 43.5
t83 82t132 119.5t176 156q21 19 51 43.5t62.5 51.5t65 54.5t59.5 50.5q19 16 50 41.5t67.5 54.5t75.5 59.5t74 57.5t63.5 48.5t44.5 32.5q3 1 3 15q0 9 15 11q39 9 41 4zM1072 126q0 -10 -3.5 -14t-8.5 -6q-10 0 -20 5q-2 1 -7 1q-7 0 -35.5 -1t-78.5 -6q-47 -3 -78 -4.5
t-36 -3.5q-11 -12 -38.5 -47.5t-82.5 -95.5q-3 -2 -3.5 -6t-1.5 -7q-2 -13 -3 -19t-2 -8q-3 -16 -13.5 -22t-30.5 -6q-14 0 -19 4.5t-5 12.5q0 7 8.5 20t28.5 30q8 7 21 21.5t35 37.5l68 81q-161 -9 -162 -9q-63 0 -91.5 15t-28.5 44q0 14 6 29.5t23 32.5t46.5 39.5
t73.5 53.5q55 39 110 70.5t111 60.5q57 29 97 43t63 14q19 0 33 -12q7 -8 11 -15.5t4 -16.5q0 -8 -2 -15.5t-9 -15.5q-6 -5 -12 -13t-12 -15l-195 -239q69 8 119 12t72 5q19 0 31 -9q8 -5 11.5 -11.5t5.5 -14.5zM1011 428q-1 11 -9.5 15t-24.5 5q-41 0 -126.5 -42.5
t-208.5 -129.5q-128 -89 -128 -110q0 -19 25.5 -26.5t69.5 -8.5h19.5t20.5 1l149 9q32 38 63.5 77t63.5 78q83 109 86 132zM569 863q0 -14 -7.5 -30t-22.5 -30q-14 -14 -39.5 -33t-73.5 -44q38 -6 60 -28.5t22 -54.5q0 -20 -8 -43t-29 -49q-23 -27 -52 -46.5t-61 -32
t-65.5 -18t-65.5 -5.5q-42 0 -87.5 19.5t-76.5 58.5l10 1q22 -17 41 -28.5t37.5 -18t37 -9.5t41.5 -4q47 0 90.5 13t76.5 35.5t52.5 52.5t19.5 64q0 38 -23 58t-53 20q-49 -20 -76.5 -26.5t-38.5 -6.5q-27 0 -27 16q0 11 29.5 24t76.5 13q11 0 19.5 -0.5t15.5 -1.5
q18 7 40 21t41.5 31t33 36.5t13.5 38.5q0 16 -17.5 26.5t-52.5 10.5q-26 0 -53 -7.5t-53 -19.5q-15 -7 -25.5 -12.5t-21.5 -12.5t-24 -16t-32 -22l-2 7q36 34 68.5 54t63.5 33q28 11 55 16.5t59 5.5t58 -13.5t26 -42.5zM364 716q-6 1 -17.5 0.5t-16.5 -0.5q-28 0 -44 -6.5
t-16 -14.5q0 -5 6 -5q18 0 46 10q10 4 22 8t20 8z" />
    <glyph glyph-name="questiondown" unicode="&#xbf;" horiz-adv-x="473" 
d="M-358.948 -83.9639q0 60.9961 56.9961 118.993q49.9971 44.9971 99.9941 60.9961q62.9961 15.999 143.991 37.498q80.9951 21.498 182.989 50.4961q39.9971 11 74.4951 25.499t65.4961 33.498q60.9961 39.9971 75.9951 78.9951q5 12.999 5 33.998q-1 34.9971 -3 34.9971
q0 9 9.99902 14.999q10 5 20.999 4q17.999 -3 17.999 -23.998q0 -33.998 -16.499 -63.9961t-51.4971 -57.9971q-28.998 -20.998 -72.4951 -42.4971q-43.498 -21.499 -103.494 -42.4971q-16.999 -7 -65.9961 -20.499t-129.992 -35.498q-111.993 -29.998 -165.989 -62.9961
q-35.998 -21.998 -62.9961 -66.9961q-23.999 -41.9971 -25.999 -82.9941q0 -56.9971 50.9971 -94.9951q49.9971 -35.9971 134.992 -35.9971q57.9961 0 112.993 13.999q54.9961 13.999 107.993 43.9971q21.999 10.999 44.9971 26.998q22.999 15.999 48.9971 36.998
q16.999 12.999 32.498 26.998q15.499 14 32.498 27.999l8.99902 -1q-31.998 -27.999 -61.9961 -53.9971t-61.9961 -51.9971q-113.993 -91.9941 -298.981 -92.9941q-94.9941 0 -150.991 38.998q-53.9961 40.9971 -56.9961 120.992zM360.008 505q0 13 21.999 25.999
q7.99902 4.99902 13.999 6.49902q5.99902 1.5 11.999 2.5q39.9971 0 40.9971 -26.998q0 -13.999 -17.998 -24.999q-10 -5.99902 -18.999 -8.49902q-9 -2.5 -19.999 -3.5q-31.998 0 -31.998 28.998z" />
    <glyph glyph-name="Agrave" unicode="&#xc0;" horiz-adv-x="1040" 
d="M918 448q0 -35 -3.5 -83.5t-10.5 -111.5q-13 -123 -30 -194q5 2 8 4t8 6q6 6 12 6q11 0 11 -8q0 -6 -43 -39l-6 -54q-1 -8 -5 -13.5t-11 -11.5q-11 -8 -25 -11q-7 0 -7 17q0 11 0.5 25t3.5 31q-107 -46 -188 -46q-53 0 -191 54t-174 54q-81 0 -161 -29
q-32 -12 -65.5 -29.5t-73.5 -42.5l-127 -82q-9 -5 -30 -7q-13 0 -13 12l37 17q32 17 79 48.5t110 80.5q36 27 94 81t140 135q78 78 141 143.5t114 122.5q123 140 247 140q91 0 131 -78q14 -26 20.5 -60t7.5 -77zM866 427q0 201 -129 201q-77 0 -169 -80q-16 -13 -176 -176
l-174 -178q-46 -45 -93 -86.5t-95 -79.5q49 21 80.5 34t46.5 18q52 15 122 15q37 0 93.5 -12t133.5 -39q77 -24 118.5 -36t49.5 -14q37 0 85 17q17 6 33 12.5t33 14.5l26 212q15 126 15 177zM861.477 716.335q-19.6562 0 -56.1621 35.4443l-73.0107 79.4453
q-1.40332 2.44434 -1.40332 7.94434t-1.4043 15.2783q0 8.55566 4.21191 11t14.04 4.88867q15.4453 0 23.8691 -9.77734l71.6074 -99.001q22.4648 -35.4443 25.2725 -40.334q0 -3.66602 -7.02051 -4.88867z" />
    <glyph glyph-name="Aacute" unicode="&#xc1;" horiz-adv-x="1040" 
d="M918 448q0 -35 -3.5 -83.5t-10.5 -111.5q-13 -123 -30 -194q5 2 8 4t8 6q6 6 12 6q11 0 11 -8q0 -6 -43 -39l-6 -54q-1 -8 -5 -13.5t-11 -11.5q-11 -8 -25 -11q-7 0 -7 17q0 11 0.5 25t3.5 31q-107 -46 -188 -46q-53 0 -191 54t-174 54q-81 0 -161 -29
q-32 -12 -65.5 -29.5t-73.5 -42.5l-127 -82q-9 -5 -30 -7q-13 0 -13 12l37 17q32 17 79 48.5t110 80.5q36 27 94 81t140 135q78 78 141 143.5t114 122.5q123 140 247 140q91 0 131 -78q14 -26 20.5 -60t7.5 -77zM866 427q0 201 -129 201q-77 0 -169 -80q-16 -13 -176 -176
l-174 -178q-46 -45 -93 -86.5t-95 -79.5q49 21 80.5 34t46.5 18q52 15 122 15q37 0 93.5 -12t133.5 -39q77 -24 118.5 -36t49.5 -14q37 0 85 17q17 6 33 12.5t33 14.5l26 212q15 126 15 177zM927.697 860.466q0 -25.3008 -7.08594 -40.251
q-5.90527 -10.3506 -48.4229 -58.6514q-23.6201 -19.5498 -40.7451 -28.751q-17.125 -9.19922 -31.2979 -11.5q-5.90527 0 -9.44824 17.251q0 5.75 17.7158 21.8506q9.44824 8.0498 17.125 14.375t10.0391 10.9248q5.90527 9.2002 10.0381 17.251
q4.13379 8.0498 8.8584 19.5498q2.36133 9.2002 5.31445 18.9756q2.95215 9.77539 5.31445 20.125q7.08594 17.251 31.8877 20.7012q30.707 0 30.707 -21.8506z" />
    <glyph glyph-name="Acircumflex" unicode="&#xc2;" horiz-adv-x="1040" 
d="M918 448q0 -35 -3.5 -83.5t-10.5 -111.5q-13 -123 -30 -194q5 2 8 4t8 6q6 6 12 6q11 0 11 -8q0 -6 -43 -39l-6 -54q-1 -8 -5 -13.5t-11 -11.5q-11 -8 -25 -11q-7 0 -7 17q0 11 0.5 25t3.5 31q-107 -46 -188 -46q-53 0 -191 54t-174 54q-81 0 -161 -29
q-32 -12 -65.5 -29.5t-73.5 -42.5l-127 -82q-9 -5 -30 -7q-13 0 -13 12l37 17q32 17 79 48.5t110 80.5q36 27 94 81t140 135q78 78 141 143.5t114 122.5q123 140 247 140q91 0 131 -78q14 -26 20.5 -60t7.5 -77zM866 427q0 201 -129 201q-77 0 -169 -80q-16 -13 -176 -176
l-174 -178q-46 -45 -93 -86.5t-95 -79.5q49 21 80.5 34t46.5 18q52 15 122 15q37 0 93.5 -12t133.5 -39q77 -24 118.5 -36t49.5 -14q37 0 85 17q17 6 33 12.5t33 14.5l26 212q15 126 15 177zM914 713q0 -8 -4.5 -14.5t-9.5 -6.5q-7 0 -16.5 12.5t-29.5 32.5q-32 32 -51.5 43
t-36.5 11q-10 0 -27.5 -10t-37.5 -27q-18 -15 -31.5 -28t-19.5 -13q-8 0 -8 2.5v9.5q0 5 19 20.5t48 38.5q15 12 35.5 24t37.5 12q27 0 51 -19t47 -40q25 -23 29.5 -33.5t4.5 -14.5z" />
    <glyph glyph-name="Atilde" unicode="&#xc3;" horiz-adv-x="1040" 
d="M918 448q0 -35 -3.5 -83.5t-10.5 -111.5q-13 -123 -30 -194q5 2 8 4t8 6q6 6 12 6q11 0 11 -8q0 -6 -43 -39l-6 -54q-1 -8 -5 -13.5t-11 -11.5q-11 -8 -25 -11q-7 0 -7 17q0 11 0.5 25t3.5 31q-107 -46 -188 -46q-53 0 -191 54t-174 54q-81 0 -161 -29
q-32 -12 -65.5 -29.5t-73.5 -42.5l-127 -82q-9 -5 -30 -7q-13 0 -13 12l37 17q32 17 79 48.5t110 80.5q36 27 94 81t140 135q78 78 141 143.5t114 122.5q123 140 247 140q91 0 131 -78q14 -26 20.5 -60t7.5 -77zM866 427q0 201 -129 201q-77 0 -169 -80q-16 -13 -176 -176
l-174 -178q-46 -45 -93 -86.5t-95 -79.5q49 21 80.5 34t46.5 18q52 15 122 15q37 0 93.5 -12t133.5 -39q77 -24 118.5 -36t49.5 -14q37 0 85 17q17 6 33 12.5t33 14.5l26 212q15 126 15 177zM1040 847q0 -3 -7 -10t-18 -17t-26 -21t-31 -22q-21 -14 -48 -24.5t-51 -11.5
q-28 0 -50.5 11.5t-44.5 34.5q-15 17 -31.5 28t-29.5 11q-30 0 -56 -16q-18 -12 -29.5 -21t-24.5 -23q-2 -2 -6 -4.5t-8 -2.5q-3 0 -4.5 3t-1.5 6q0 4 5 10.5t12 13.5t15.5 13.5t15.5 11.5q23 16 47.5 26t52.5 10q38 0 74 -41q12 -14 22 -22.5t19.5 -13t19 -6t21.5 -1.5
q19 0 37.5 7t35 17.5t30.5 21.5t24 19l13.5 13.5t16.5 8.5q5 0 5.5 -2t0.5 -7z" />
    <glyph glyph-name="Adieresis" unicode="&#xc4;" horiz-adv-x="1040" 
d="M918 448q0 -35 -3.5 -83.5t-10.5 -111.5q-13 -123 -30 -194q5 2 8 4t8 6q6 6 12 6q11 0 11 -8q0 -6 -43 -39l-6 -54q-1 -8 -5 -13.5t-11 -11.5q-11 -8 -25 -11q-7 0 -7 17q0 11 0.5 25t3.5 31q-107 -46 -188 -46q-53 0 -191 54t-174 54q-81 0 -161 -29
q-32 -12 -65.5 -29.5t-73.5 -42.5l-127 -82q-9 -5 -30 -7q-13 0 -13 12l37 17q32 17 79 48.5t110 80.5q36 27 94 81t140 135q78 78 141 143.5t114 122.5q123 140 247 140q91 0 131 -78q14 -26 20.5 -60t7.5 -77zM866 427q0 201 -129 201q-77 0 -169 -80q-16 -13 -176 -176
l-174 -178q-46 -45 -93 -86.5t-95 -79.5q49 21 80.5 34t46.5 18q52 15 122 15q37 0 93.5 -12t133.5 -39q77 -24 118.5 -36t49.5 -14q37 0 85 17q17 6 33 12.5t33 14.5l26 212q15 126 15 177zM745 762q0 -14 -11.5 -24.5t-31.5 -10.5q-19 0 -27 5t-8 20q0 13 13.5 23t32.5 10
q15 0 23.5 -4.5t8.5 -18.5zM870 762q0 -13 -13 -22t-33 -9q-19 0 -25.5 8.5t-6.5 19.5q0 14 14.5 21.5t33.5 7.5q20 0 25 -6.5t5 -19.5z" />
    <glyph glyph-name="Aring" unicode="&#xc5;" horiz-adv-x="1040" 
d="M918 448q0 -35 -3.5 -83.5t-10.5 -111.5q-13 -123 -30 -194q5 2 8 4t8 6q6 6 12 6q11 0 11 -8q0 -6 -43 -39l-6 -54q-1 -8 -5 -13.5t-11 -11.5q-11 -8 -25 -11q-7 0 -7 17q0 11 0.5 25t3.5 31q-107 -46 -188 -46q-53 0 -191 54t-174 54q-81 0 -161 -29
q-32 -12 -65.5 -29.5t-73.5 -42.5l-127 -82q-9 -5 -30 -7q-13 0 -13 12l37 17q32 17 79 48.5t110 80.5q36 27 94 81t140 135q78 78 141 143.5t114 122.5q123 140 247 140q91 0 131 -78q14 -26 20.5 -60t7.5 -77zM866 427q0 201 -129 201q-77 0 -169 -80q-16 -13 -176 -176
l-174 -178q-46 -45 -93 -86.5t-95 -79.5q49 21 80.5 34t46.5 18q52 15 122 15q37 0 93.5 -12t133.5 -39q77 -24 118.5 -36t49.5 -14q37 0 85 17q17 6 33 12.5t33 14.5l26 212q15 126 15 177zM937 847q0 -30 -12 -54t-33 -41t-48 -26t-57 -9q-40 0 -62.5 22t-22.5 56
q0 28 13 50.5t35 38t50 23.5t58 8q33 0 56 -16.5t23 -51.5zM895 844q0 16 -6 26t-14.5 16t-18 8t-16.5 2q-14 0 -31 -6t-32 -18t-25.5 -29.5t-10.5 -40.5t11.5 -44t41.5 -21q23 0 41.5 8.5t32 23t20.5 34t7 41.5z" />
    <glyph glyph-name="AE" unicode="&#xc6;" horiz-adv-x="1264" 
d="M856 531q-14 -1 -23 -1.5t-12 -0.5q-5 0 -12 0.5t-7 7.5q0 8 14.5 13t34.5 9q-15 41 -44 55t-70 14q-77 0 -169 -80q-16 -13 -176 -176l-174 -178q-46 -45 -93 -86.5t-95 -79.5q49 21 80.5 34t46.5 18q52 15 122 15q37 0 88 -13t128 -40q71 -23 113 -33.5t69 -15t46.5 -4
t45.5 0.5q7 21 16.5 53.5t19 71t18.5 79.5t16 78q-18 -1 -33 -1.5t-20 -0.5t-12 0.5t-7 7.5q0 8 14 12.5t35 9.5l28 6q4 19 7.5 43t6 46t4 40t1.5 26q0 28 -2 42t-5 28zM910 534q3 -17 4 -32.5t1 -26.5q0 -12 -1.5 -32t-4 -42.5t-5.5 -45.5t-7 -42q14 2 28.5 3t35.5 3
q29 2 46.5 2.5t32 1.5t30 2t40.5 3q-7 -17 -23 -26t-34 -11q-44 -5 -88 -9.5t-79 -7.5q-7 -39 -16.5 -81.5t-19 -81t-18.5 -69.5t-15 -49q3 0 28 -1t61 -0.5t76.5 4.5t74.5 14q14 4 30.5 10.5t30.5 12.5t24 10t11 4q6 0 7.5 -1t1.5 -6q0 -3 -13.5 -11.5t-34.5 -19t-47 -20.5
t-51 -15q-20 -4 -48 -7.5t-58 -5.5t-59 -3.5t-51 -1.5q-20 -39 -44 -39q-8 0 -8 8q0 9 10 32h-44t-29.5 1t-24 2.5t-28.5 4.5q-26 5 -74.5 17.5t-117.5 39.5t-112 39t-61 12q-81 0 -161 -29q-32 -12 -65.5 -29.5t-73.5 -42.5l-127 -82q-9 -5 -30 -7q-13 0 -13 12l37 17
q32 17 79 48.5t110 80.5q36 27 94 81t140 135q78 78 141 143.5t114 122.5q123 140 247 140q54 0 88.5 -26t54.5 -73q22 1 38.5 2.5t34 3t39 2.5t53.5 2q58 2 111.5 5t103.5 8q-3 -8 -11.5 -14.5t-19 -11t-21.5 -7.5t-20 -4q-70 -8 -145 -9.5t-155 -6.5z" />
    <glyph glyph-name="Ccedilla" unicode="&#xc7;" horiz-adv-x="795" 
d="M907 732q0 -112 -135 -220q-128 -104 -242 -104q-13 0 -30 7q-21 9 -22 24q0 17 16 33q8 8 16 11t16 4q5 -16 8.5 -26t5.5 -15q7 -6 23 -7q35 0 70 11t72 36q38 24 64.5 43.5t40.5 36.5q24 27 35.5 60t12.5 73q0 123 -153 123q-133 0 -284 -85q-75 -43 -137 -96.5
t-112 -119.5q-107 -146 -108 -295q0 -113 71 -179q71 -61 197 -64q35 0 75.5 8.5t88.5 27.5q23 8 49 19.5t57 25.5q43 24 50 26q6 0 6 -8q0 -18 -92 -63q-81 -38 -149.5 -56.5t-125.5 -20.5q-14 0 -27 1t-25 3q-4 -8 -4 -21q0 -8 5.5 -13.5t22.5 -13.5q15 -8 29.5 -12.5
t26 -10t19 -14.5t8.5 -25q2 -36 -33 -57t-93 -21q-18 0 -35.5 4.5t-31 11.5t-22 15t-8.5 15q0 8 2.5 8h5.5t9.5 -6t17 -13.5t26 -13.5t36.5 -6q23 0 37.5 5t22.5 13t11 18t3 21q0 9 -5.5 15.5t-13.5 12t-17.5 9.5t-18.5 8q-18 8 -22 16.5t-4 19.5q0 5 4 15t9 21
q-76 13 -132 63q-74 68 -74 182q0 157 119 318q56 75 125.5 137t155.5 112q166 101 318 101q73 0 121 -36q46 -34 48 -92z" />
    <glyph glyph-name="Egrave" unicode="&#xc8;" horiz-adv-x="846" 
d="M911 711q0 -62 -87 -120q-84 -58 -177 -60q-75 0 -75 49q0 31 35 37q29 3 29 -11v-5t-2 -9q-1 -5 -1 -9.5v-6.5q3 -18 43 -19q72 0 133 43q61 45 61 91q0 37 -42 62q-41 23 -107 24q-63 0 -126.5 -18.5t-130.5 -57.5q-129 -78 -130 -151q0 -34 34 -80q17 -21 25 -35.5
t10 -22.5q0 -31 -90 -76q-70 -35 -111 -56.5t-55 -31.5q-64 -45 -87 -65q-37 -40 -39 -99q0 -62 47 -103q49 -39 124 -39q60 0 116 9.5t110 27.5q109 39 242 127q1 0 9 -15q-138 -99 -255 -143q-60 -21 -122 -31t-130 -12q-88 0 -140 41q-50 39 -51 109q0 76 59 135
q16 16 48.5 38t83.5 50l130 69q61 35 61 49q0 13 -34 62q-35 45 -35 75q0 86 162 181q81 46 159.5 68.5t156.5 24.5q63 0 106 -28t43 -68zM794.428 862.951q-16.3828 0 -46.8086 31.917l-60.8525 71.5381q-1.16992 2.20117 -1.16992 7.1543q0 4.95215 -1.16992 13.7568
q0 7.7041 3.51074 9.90527t11.7021 4.40234q12.8721 0 19.8936 -8.80469l59.6816 -89.1475q18.7236 -31.917 21.0645 -36.3193q0 -3.30176 -5.85156 -4.40234z" />
    <glyph glyph-name="Eacute" unicode="&#xc9;" horiz-adv-x="846" 
d="M911 711q0 -62 -87 -120q-84 -58 -177 -60q-75 0 -75 49q0 31 35 37q29 3 29 -11v-5t-2 -9q-1 -5 -1 -9.5v-6.5q3 -18 43 -19q72 0 133 43q61 45 61 91q0 37 -42 62q-41 23 -107 24q-63 0 -126.5 -18.5t-130.5 -57.5q-129 -78 -130 -151q0 -34 34 -80q17 -21 25 -35.5
t10 -22.5q0 -31 -90 -76q-70 -35 -111 -56.5t-55 -31.5q-64 -45 -87 -65q-37 -40 -39 -99q0 -62 47 -103q49 -39 124 -39q60 0 116 9.5t110 27.5q109 39 242 127q1 0 9 -15q-138 -99 -255 -143q-60 -21 -122 -31t-130 -12q-88 0 -140 41q-50 39 -51 109q0 76 59 135
q16 16 48.5 38t83.5 50l130 69q61 35 61 49q0 13 -34 62q-35 45 -35 75q0 86 162 181q81 46 159.5 68.5t156.5 24.5q63 0 106 -28t43 -68zM886 977q0 -22 -6 -35q-5 -9 -41 -51q-20 -17 -34.5 -25t-26.5 -10q-5 0 -8 15q0 5 15 19q8 7 14.5 12.5t8.5 9.5q5 8 8.5 15t7.5 17
q2 8 4.5 16.5t4.5 17.5q6 15 27 18q26 0 26 -19z" />
    <glyph glyph-name="Ecircumflex" unicode="&#xca;" horiz-adv-x="846" 
d="M911 711q0 -62 -87 -120q-84 -58 -177 -60q-75 0 -75 49q0 31 35 37q29 3 29 -11v-5t-2 -9q-1 -5 -1 -9.5v-6.5q3 -18 43 -19q72 0 133 43q61 45 61 91q0 37 -42 62q-41 23 -107 24q-63 0 -126.5 -18.5t-130.5 -57.5q-129 -78 -130 -151q0 -34 34 -80q17 -21 25 -35.5
t10 -22.5q0 -31 -90 -76q-70 -35 -111 -56.5t-55 -31.5q-64 -45 -87 -65q-37 -40 -39 -99q0 -62 47 -103q49 -39 124 -39q60 0 116 9.5t110 27.5q109 39 242 127q1 0 9 -15q-138 -99 -255 -143q-60 -21 -122 -31t-130 -12q-88 0 -140 41q-50 39 -51 109q0 76 59 135
q16 16 48.5 38t83.5 50l130 69q61 35 61 49q0 13 -34 62q-35 45 -35 75q0 86 162 181q81 46 159.5 68.5t156.5 24.5q63 0 106 -28t43 -68zM890 876q0 -8 -4.5 -14.5t-9.5 -6.5q-7 0 -16.5 12.5t-29.5 32.5q-32 32 -51.5 43t-36.5 11q-10 0 -27.5 -10t-37.5 -27
q-18 -15 -31.5 -28t-19.5 -13q-8 0 -8 2.5v9.5q0 5 19 20.5t48 38.5q15 12 35.5 24t37.5 12q27 0 51 -19t47 -40q25 -23 29.5 -33.5t4.5 -14.5z" />
    <glyph glyph-name="Edieresis" unicode="&#xcb;" horiz-adv-x="846" 
d="M911 711q0 -62 -87 -120q-84 -58 -177 -60q-75 0 -75 49q0 31 35 37q29 3 29 -11v-5t-2 -9q-1 -5 -1 -9.5v-6.5q3 -18 43 -19q72 0 133 43q61 45 61 91q0 37 -42 62q-41 23 -107 24q-63 0 -126.5 -18.5t-130.5 -57.5q-129 -78 -130 -151q0 -34 34 -80q17 -21 25 -35.5
t10 -22.5q0 -31 -90 -76q-70 -35 -111 -56.5t-55 -31.5q-64 -45 -87 -65q-37 -40 -39 -99q0 -62 47 -103q49 -39 124 -39q60 0 116 9.5t110 27.5q109 39 242 127q1 0 9 -15q-138 -99 -255 -143q-60 -21 -122 -31t-130 -12q-88 0 -140 41q-50 39 -51 109q0 76 59 135
q16 16 48.5 38t83.5 50l130 69q61 35 61 49q0 13 -34 62q-35 45 -35 75q0 86 162 181q81 46 159.5 68.5t156.5 24.5q63 0 106 -28t43 -68zM728 916q0 -14 -11.5 -24.5t-31.5 -10.5q-19 0 -27 5t-8 20q0 13 13.5 23t32.5 10q15 0 23.5 -4.5t8.5 -18.5zM853 916q0 -13 -13 -22
t-33 -9q-19 0 -25.5 8.5t-6.5 19.5q0 14 14.5 21.5t33.5 7.5q20 0 25 -6.5t5 -19.5z" />
    <glyph glyph-name="Igrave" unicode="&#xcc;" horiz-adv-x="886" 
d="M1069 741q0 -110 -91 -270q-137 -240 -333 -375q-190 -134 -404 -136q-54 0 -97.5 14t-79.5 44q-68 56 -68 145q0 113 111 197q105 78 232 78q157 0 274 -43q121 -42 121 -98q0 -21 -6 -22l-14 7q-7 4 -16.5 9t-23.5 13q-31 17 -62.5 31t-63.5 25q-93 29 -191 29
q-68 0 -124.5 -13t-107.5 -41q-95 -54 -95 -131q0 -88 75 -145q38 -29 85 -42.5t107 -15.5q178 0 355 124q88 62 162 146.5t136 196.5q81 142 81 273q0 43 -37 70q-38 26 -100 26q-25 0 -43 -1t-29 -3q32 23 62 33t57 12q61 0 100 -46q28 -40 28 -91zM953.516 952.478
q-22.1758 0 -63.3574 33.4375l-82.3643 74.9463q-1.58398 2.30566 -1.58398 7.49414q0 5.18945 -1.58398 14.4131q0 8.07129 4.75195 10.377q4.75195 2.30664 15.8398 4.6123q17.4229 0 26.9268 -9.22461l80.7793 -93.3936q25.3428 -33.4375 28.5107 -38.0498
q0 -3.45898 -7.91895 -4.6123z" />
    <glyph glyph-name="Iacute" unicode="&#xcd;" horiz-adv-x="886" 
d="M1069 741q0 -110 -91 -270q-137 -240 -333 -375q-190 -134 -404 -136q-54 0 -97.5 14t-79.5 44q-68 56 -68 145q0 113 111 197q105 78 232 78q157 0 274 -43q121 -42 121 -98q0 -21 -6 -22l-14 7q-7 4 -16.5 9t-23.5 13q-31 17 -62.5 31t-63.5 25q-93 29 -191 29
q-68 0 -124.5 -13t-107.5 -41q-95 -54 -95 -131q0 -88 75 -145q38 -29 85 -42.5t107 -15.5q178 0 355 124q88 62 162 146.5t136 196.5q81 142 81 273q0 43 -37 70q-38 26 -100 26q-25 0 -43 -1t-29 -3q32 23 62 33t57 12q61 0 100 -46q28 -40 28 -91zM1023.7 1062.82
q0 -21.6855 -7.08594 -34.5q-5.90527 -8.87109 -48.4229 -50.2715q-23.6201 -16.7578 -40.7451 -24.6426q-17.125 -7.88672 -31.2979 -9.85742q-5.90527 0 -9.44824 14.7852q0 4.92871 17.7158 18.7285q9.44824 6.90039 17.125 12.3223q7.67676 5.4209 10.0391 9.36426
q5.90527 7.88574 10.0381 14.7852q4.13379 6.90039 8.8584 16.7578q2.36133 7.88574 5.31445 16.2646q2.95215 8.37793 5.31445 17.25q7.08594 14.7852 31.8877 17.7422q30.707 0 30.707 -18.7285z" />
    <glyph glyph-name="Icircumflex" unicode="&#xce;" horiz-adv-x="886" 
d="M1069 741q0 -110 -91 -270q-137 -240 -333 -375q-190 -134 -404 -136q-54 0 -97.5 14t-79.5 44q-68 56 -68 145q0 113 111 197q105 78 232 78q157 0 274 -43q121 -42 121 -98q0 -21 -6 -22l-14 7q-7 4 -16.5 9t-23.5 13q-31 17 -62.5 31t-63.5 25q-93 29 -191 29
q-68 0 -124.5 -13t-107.5 -41q-95 -54 -95 -131q0 -88 75 -145q38 -29 85 -42.5t107 -15.5q178 0 355 124q88 62 162 146.5t136 196.5q81 142 81 273q0 43 -37 70q-38 26 -100 26q-25 0 -43 -1t-29 -3q32 23 62 33t57 12q61 0 100 -46q28 -40 28 -91zM1094 944
q0 -8 -4.5 -14.5t-9.5 -6.5q-7 0 -16.5 12.5t-29.5 32.5q-32 32 -51.5 43t-36.5 11q-10 0 -27.5 -10t-37.5 -27q-18 -15 -31.5 -28t-19.5 -13q-8 0 -8 2.5v9.5q0 5 19 20.5t48 38.5q15 12 35.5 24t37.5 12q27 0 51 -19t47 -40q25 -23 29.5 -33.5t4.5 -14.5z" />
    <glyph glyph-name="Idieresis" unicode="&#xcf;" horiz-adv-x="886" 
d="M1069 741q0 -110 -91 -270q-137 -240 -333 -375q-190 -134 -404 -136q-54 0 -97.5 14t-79.5 44q-68 56 -68 145q0 113 111 197q105 78 232 78q157 0 274 -43q121 -42 121 -98q0 -21 -6 -22l-14 7q-7 4 -16.5 9t-23.5 13q-31 17 -62.5 31t-63.5 25q-93 29 -191 29
q-68 0 -124.5 -13t-107.5 -41q-95 -54 -95 -131q0 -88 75 -145q38 -29 85 -42.5t107 -15.5q178 0 355 124q88 62 162 146.5t136 196.5q81 142 81 273q0 43 -37 70q-38 26 -100 26q-25 0 -43 -1t-29 -3q32 23 62 33t57 12q61 0 100 -46q28 -40 28 -91zM940 973
q0 -14 -11.5 -24.5t-31.5 -10.5q-19 0 -27 5t-8 20q0 13 13.5 23t32.5 10q15 0 23.5 -4.5t8.5 -18.5zM1065 973q0 -13 -13 -22t-33 -9q-19 0 -25.5 8.5t-6.5 19.5q0 14 14.5 21.5t33.5 7.5q20 0 25 -6.5t5 -19.5z" />
    <glyph glyph-name="Eth" unicode="&#xd0;" horiz-adv-x="953" 
d="M541 297q0 -1 -7.5 -10.5t-18 -23.5t-22.5 -29.5t-23 -28.5q-29 -35 -55 -64t-52.5 -54.5t-55.5 -49t-63 -47.5l123 -4q197 0 380 124q187 126 187 284q0 81 -68 167q-17 20 -56 59t-103 99l-124 108q-23 25 -34.5 50t-12.5 54q0 83 11 86h15q-3 -15 -3 -29
q0 -34 17 -67.5t52 -71.5q35 -30 70.5 -61t70.5 -61q60 -56 94.5 -88t43.5 -42q63 -78 65 -173q0 -120 -103 -236q-49 -54 -112.5 -98t-142.5 -79q-157 -68 -317 -68q-56 0 -117.5 9.5t-130.5 28.5q-134 40 -135 71q0 26 29 26q4 -1 8 -4q4 -2 9.5 -5t13.5 -7
q18 -9 39 -17.5t45 -16.5q34 -10 71.5 -18t82.5 -15q89 72 164.5 150t131.5 150q-34 -2 -60.5 -3t-35.5 -1q-16 0 -35.5 -0.5t-37 0t-29.5 3.5t-12 9q0 9 12 12.5t29.5 5t36 1.5t30.5 1l128 6q16 23 38 54t46 68t50 78t51 84q11 0 14 -18q-23 -37 -62 -103.5t-106 -161.5
l56 3q13 1 32 2t37 2.5t31.5 2.5t16.5 1q13 0 16.5 -3.5t3.5 -7.5q0 -6 -8 -10t-20 -6.5t-26 -4.5t-26 -4q-2 0 -14.5 -1t-31.5 -2t-43 -2.5t-48 -2.5z" />
    <glyph glyph-name="Ntilde" unicode="&#xd1;" horiz-adv-x="1094" 
d="M1071 940q0 -8 -16 -28t-39 -39q-19 -15 -39.5 -24t-42.5 -10q-26 0 -43.5 14.5t-37.5 37.5q-14 17 -29 28.5t-26 11.5q-28 0 -51 -17q-17 -12 -27.5 -21.5t-21.5 -23.5q-2 -2 -6 -4.5t-7 -2.5t-4.5 3t-1.5 6q0 4 4.5 10.5t11 14t14.5 14.5t14 12q21 16 43 26.5t48 10.5
q17 0 34 -11.5t33 -31.5q22 -29 37.5 -36.5t37.5 -7.5q17 0 30.5 6t24 15t18 20t13.5 21q4 6 8 12.5t12 6.5q5 0 7 -2.5t2 -10.5zM1064 652q0 -49 -90 -380q-17 -60 -29.5 -122t-22.5 -128q-26 4 -33 21q-2 6 -4 31q0 53 19 120q7 27 14.5 54.5t15.5 55.5q5 22 16.5 70
t31.5 123q20 81 21 120q0 28 -15 46q-14 21 -36 22q-18 0 -51 -19.5t-81 -60.5q-48 -39 -92.5 -85.5t-89.5 -100.5q-37 -45 -74 -89t-74 -89q-33 -38 -61.5 -74.5t-54.5 -72.5q-27 -40 -44 -63t-24 -33q-11 -14 -21 -20.5t-18 -7.5q-9 0 -9 8q0 17 79 130q151 212 214 331
q57 114 57 190q0 31 -8 55t-27 44q-32 33 -79 33q-36 0 -79 -13.5t-96 -39.5q-89 -44 -143 -97q-8 -8 -23 -24t-40 -43q-14 -16 -23 -23t-13 -9q-5 0 -6 9q0 11 91 101q80 80 183 131q50 26 95 38t87 13q60 0 99 -39q20 -18 28 -42.5t10 -56.5q0 -28 -5 -56.5t-16 -58.5
q-10 -30 -29.5 -71.5t-50.5 -96.5q51 51 99.5 101.5t99.5 103.5q141 136 233 138q30 0 49 -20q20 -20 20 -54z" />
    <glyph glyph-name="Ograve" unicode="&#xd2;" horiz-adv-x="911" 
d="M1016 588q0 -67 -29 -137t-89 -145q-55 -70 -125.5 -128.5t-155.5 -106.5q-89 -49 -173.5 -73t-165.5 -26q-106 0 -175 69q-69 66 -70 170q0 78 23.5 150t72.5 141q41 57 93 105t119 86q59 35 112 52.5t102 20.5v-13q-49 5 -156 -54q-65 -35 -117.5 -76.5t-94.5 -93.5
q-54 -63 -79.5 -131t-26.5 -141q0 -109 67 -173q35 -32 79 -48.5t101 -18.5q138 0 290 85q75 41 135 91.5t109 113.5q99 129 101 258q0 81 -65 139t-158 58q-44 0 -96 -17.5t-113 -54.5q-127 -74 -207 -182q-6 -6 -20 -3q147 189 283 250q34 15 55 23.5t31 11.5q42 14 94 14
q120 0 185 -55q64 -55 64 -161zM792.615 872.012q-21.5117 0 -61.4648 35.9707l-79.9043 80.623q-1.53613 2.48047 -1.53613 8.0625q0 5.58105 -1.53613 15.5039q0 8.68262 4.60938 11.1641q4.60938 2.48047 15.3662 4.96094q16.9033 0 26.1221 -9.92285l78.3682 -100.469
q24.5859 -35.9707 27.6592 -40.9316q0 -3.72168 -7.68359 -4.96191z" />
    <glyph glyph-name="Oacute" unicode="&#xd3;" horiz-adv-x="911" 
d="M1016 588q0 -67 -29 -137t-89 -145q-55 -70 -125.5 -128.5t-155.5 -106.5q-89 -49 -173.5 -73t-165.5 -26q-106 0 -175 69q-69 66 -70 170q0 78 23.5 150t72.5 141q41 57 93 105t119 86q59 35 112 52.5t102 20.5v-13q-49 5 -156 -54q-65 -35 -117.5 -76.5t-94.5 -93.5
q-54 -63 -79.5 -131t-26.5 -141q0 -109 67 -173q35 -32 79 -48.5t101 -18.5q138 0 290 85q75 41 135 91.5t109 113.5q99 129 101 258q0 81 -65 139t-158 58q-44 0 -96 -17.5t-113 -54.5q-127 -74 -207 -182q-6 -6 -20 -3q147 189 283 250q34 15 55 23.5t31 11.5q42 14 94 14
q120 0 185 -55q64 -55 64 -161zM962 959q0 -22 -6 -35q-5 -9 -41 -51q-20 -17 -34.5 -25t-26.5 -10q-5 0 -8 15q0 5 15 19q8 7 14.5 12.5t8.5 9.5q5 8 8.5 15t7.5 17q2 8 4.5 16.5t4.5 17.5q6 15 27 18q26 0 26 -19z" />
    <glyph glyph-name="Ocircumflex" unicode="&#xd4;" horiz-adv-x="911" 
d="M1016 588q0 -67 -29 -137t-89 -145q-55 -70 -125.5 -128.5t-155.5 -106.5q-89 -49 -173.5 -73t-165.5 -26q-106 0 -175 69q-69 66 -70 170q0 78 23.5 150t72.5 141q41 57 93 105t119 86q59 35 112 52.5t102 20.5v-13q-49 5 -156 -54q-65 -35 -117.5 -76.5t-94.5 -93.5
q-54 -63 -79.5 -131t-26.5 -141q0 -109 67 -173q35 -32 79 -48.5t101 -18.5q138 0 290 85q75 41 135 91.5t109 113.5q99 129 101 258q0 81 -65 139t-158 58q-44 0 -96 -17.5t-113 -54.5q-127 -74 -207 -182q-6 -6 -20 -3q147 189 283 250q34 15 55 23.5t31 11.5q42 14 94 14
q120 0 185 -55q64 -55 64 -161zM910 872q0 -8 -4.5 -14.5t-9.5 -6.5q-7 0 -16.5 12.5t-29.5 32.5q-32 32 -51.5 43t-36.5 11q-10 0 -27.5 -10t-37.5 -27q-18 -15 -31.5 -28t-19.5 -13q-8 0 -8 2.5v9.5q0 5 19 20.5t48 38.5q15 12 35.5 24t37.5 12q27 0 51 -19t47 -40
q25 -23 29.5 -33.5t4.5 -14.5z" />
    <glyph glyph-name="Otilde" unicode="&#xd5;" horiz-adv-x="911" 
d="M1016 588q0 -67 -29 -137t-89 -145q-55 -70 -125.5 -128.5t-155.5 -106.5q-89 -49 -173.5 -73t-165.5 -26q-106 0 -175 69q-69 66 -70 170q0 78 23.5 150t72.5 141q41 57 93 105t119 86q59 35 112 52.5t102 20.5v-13q-49 5 -156 -54q-65 -35 -117.5 -76.5t-94.5 -93.5
q-54 -63 -79.5 -131t-26.5 -141q0 -109 67 -173q35 -32 79 -48.5t101 -18.5q138 0 290 85q75 41 135 91.5t109 113.5q99 129 101 258q0 81 -65 139t-158 58q-44 0 -96 -17.5t-113 -54.5q-127 -74 -207 -182q-6 -6 -20 -3q147 189 283 250q34 15 55 23.5t31 11.5q42 14 94 14
q120 0 185 -55q64 -55 64 -161zM984 975q0 -3 -7 -10t-18 -17t-26 -21t-31 -22q-21 -14 -48 -24.5t-51 -11.5q-28 0 -50.5 11.5t-44.5 34.5q-15 17 -31.5 28t-29.5 11q-30 0 -56 -16q-18 -12 -29.5 -21t-24.5 -23q-2 -2 -6 -4.5t-8 -2.5q-3 0 -4.5 3t-1.5 6q0 4 5 10.5
t12 13.5t15.5 13.5t15.5 11.5q23 16 47.5 26t52.5 10q38 0 74 -41q12 -14 22 -22.5t19.5 -13t19 -6t21.5 -1.5q19 0 37.5 7t35 17.5t30.5 21.5t24 19l13.5 13.5t16.5 8.5q5 0 5.5 -2t0.5 -7z" />
    <glyph glyph-name="Odieresis" unicode="&#xd6;" horiz-adv-x="911" 
d="M1016 588q0 -67 -29 -137t-89 -145q-55 -70 -125.5 -128.5t-155.5 -106.5q-89 -49 -173.5 -73t-165.5 -26q-106 0 -175 69q-69 66 -70 170q0 78 23.5 150t72.5 141q41 57 93 105t119 86q59 35 112 52.5t102 20.5v-13q-49 5 -156 -54q-65 -35 -117.5 -76.5t-94.5 -93.5
q-54 -63 -79.5 -131t-26.5 -141q0 -109 67 -173q35 -32 79 -48.5t101 -18.5q138 0 290 85q75 41 135 91.5t109 113.5q99 129 101 258q0 81 -65 139t-158 58q-44 0 -96 -17.5t-113 -54.5q-127 -74 -207 -182q-6 -6 -20 -3q147 189 283 250q34 15 55 23.5t31 11.5q42 14 94 14
q120 0 185 -55q64 -55 64 -161zM738.951 891.57q0 -16.2988 -13.6318 -28.5225t-37.3389 -12.2236q-22.5225 0 -32.0049 5.82031q-9.4834 5.82129 -9.4834 23.2842q0 15.1338 16.0029 26.7764q16.002 11.6416 38.5244 11.6416q17.7803 0 27.8555 -5.23926
q10.0762 -5.23828 10.0762 -21.5371zM887.121 891.57q0 -15.1348 -15.4092 -25.6123q-15.4102 -10.4775 -39.1172 -10.4775q-22.5225 0 -30.2266 9.89551q-7.70508 9.89551 -7.70508 22.7021q0 16.2979 17.1875 25.0293q17.1885 8.73145 39.71 8.73145
q23.707 0 29.6338 -7.56738q5.92676 -7.56641 5.92676 -22.7012z" />
    <glyph glyph-name="multiply" unicode="&#xd7;" horiz-adv-x="456" 
d="M404 93q0 -5 -2.5 -9t-10.5 -4q-3 0 -17.5 12.5t-35 32t-45 43t-46.5 44.5q-22 -21 -48.5 -49t-49.5 -52.5t-40 -41.5t-20 -17q-11 0 -11 15q0 3 16 22t39 45t48 53.5t43 45.5q-42 41 -69 66.5t-42.5 41t-21 23t-5.5 11.5q0 8 2.5 10t9.5 2q8 0 29.5 -23t56.5 -58l60 -58
q4 4 12 11.5t16.5 16.5t17.5 18t16 17q10 10 20.5 22t20 22.5t17 17.5t10.5 7q10 0 10 -13q0 -4 -11 -17.5t-28 -33t-38.5 -42.5t-42.5 -44q29 -27 54.5 -50t44.5 -40.5t30 -29.5t11 -17z" />
    <glyph glyph-name="Oslash" unicode="&#xd8;" horiz-adv-x="663" 
d="M269 -110q-8 -16 -21.5 -28.5t-21.5 -13.5q-5 0 -7 1.5t-2 9.5q0 5 15.5 35t41.5 78q-50 2 -93.5 18.5t-77.5 50.5q-69 66 -70 170q0 78 23.5 150t72.5 141q41 57 93 105t119 86q59 35 112 52.5t102 20.5v-13q-49 5 -156 -54q-65 -35 -117.5 -76.5t-94.5 -93.5
q-54 -63 -79.5 -131t-26.5 -141q0 -109 67 -173q29 -28 67 -44t83 -21q36 68 84 156.5t102.5 186t112 200t113.5 198.5q-78 -9 -179 -70q-127 -74 -207 -182q-6 -6 -20 -3q147 189 283 250q34 15 55 23.5t31 11.5q27 9 61 12q24 41 47 78t44 72q13 9 24 9t7 -9l-82 -148
q114 -2 178 -55q64 -55 64 -161q0 -67 -29 -137t-89 -145q-55 -70 -125.5 -128.5t-155.5 -106.5q-78 -44 -153.5 -67.5t-148.5 -29.5zM339 17q133 3 279 85q75 41 135 91.5t109 113.5q99 129 101 258q0 81 -65 139q-61 55 -147 58z" />
    <glyph glyph-name="Ugrave" unicode="&#xd9;" 
d="M1389 691q0 -5 -212 -307q-107 -149 -159.5 -232.5t-54.5 -103.5q0 -23 16 -23q2 0 4 0.5t6 2.5q9 0 12 2q-29 -38 -56 -38q-10 0 -19 8q-10 7 -10 17q0 39 96 187l113 178l-248 -238q-158 -144 -240 -145q-16 0 -29 6.5t-23 22.5q-18 25 -21 63q0 20 16 78t50 158
q33 98 49 167.5t16 112.5q0 111 -67 168q-66 57 -197 59q-32 0 -64 -7t-65 -24q-21 -10 -44 -24.5t-47 -34.5l-43 -31q-10 0 -13.5 2t-5.5 6q0 6 82 65q128 87 248 89q124 0 198 -68q75 -66 75 -178q0 -29 -16.5 -99t-51.5 -180q-32 -109 -48 -170.5t-18 -75.5q0 -24 16 -44
q16 -19 36 -19q65 0 325 246q114 109 182.5 180.5t93.5 107.5q61 88 74 104q23 29 34 29q9 0 10 -1v-16v0zM1077.53 740.43q-16.9785 0 -48.5107 35.0059l-63.0635 78.4609q-1.21289 2.41406 -1.21289 7.8457q0 5.43262 -1.21289 15.0889q0 8.4502 3.6377 10.8643
q3.63867 2.41406 12.1279 4.82812q13.3408 0 20.6172 -9.65625l61.8516 -97.7754q19.4043 -35.0049 21.8291 -39.834q0 -3.62109 -6.06348 -4.82812z" />
    <glyph glyph-name="Uacute" unicode="&#xda;" 
d="M1389 676q0 -5 -212 -307q-107 -149 -159.5 -232.5t-54.5 -103.5q0 -23 16 -23q2 0 4 0.5t6 2.5q9 0 12 2q-29 -38 -56 -38q-10 0 -19 8q-10 7 -10 17q0 39 96 187l113 178l-248 -238q-158 -144 -240 -145q-16 0 -29 6.5t-23 22.5q-18 25 -21 63q0 20 16 78t50 158
q33 98 49 167.5t16 112.5q0 111 -67 168q-66 57 -197 59q-32 0 -64 -7t-65 -24q-21 -10 -44 -24.5t-47 -34.5l-43 -31q-10 0 -13.5 2t-5.5 6q0 6 82 65q128 87 248 89q124 0 198 -68q75 -66 75 -178q0 -29 -16.5 -99t-51.5 -180q-32 -109 -48 -170.5t-18 -75.5q0 -24 16 -44
q16 -19 36 -19q65 0 325 246q114 109 182.5 180.5t93.5 107.5q61 88 74 104q23 29 34 29q9 0 10 -1v-16v0zM1225 835q0 -22 -6 -35q-5 -9 -41 -51q-20 -17 -34.5 -25t-26.5 -10q-5 0 -8 15q0 5 15 19q8 7 14.5 12.5t8.5 9.5q5 8 8.5 15t7.5 17q2 8 4.5 16.5t4.5 17.5
q6 15 27 18q26 0 26 -19z" />
    <glyph glyph-name="Ucircumflex" unicode="&#xdb;" 
d="M1389 676q0 -5 -212 -307q-107 -149 -159.5 -232.5t-54.5 -103.5q0 -23 16 -23q2 0 4 0.5t6 2.5q9 0 12 2q-29 -38 -56 -38q-10 0 -19 8q-10 7 -10 17q0 39 96 187l113 178l-248 -238q-158 -144 -240 -145q-16 0 -29 6.5t-23 22.5q-18 25 -21 63q0 20 16 78t50 158
q33 98 49 167.5t16 112.5q0 111 -67 168q-66 57 -197 59q-32 0 -64 -7t-65 -24q-21 -10 -44 -24.5t-47 -34.5l-43 -31q-10 0 -13.5 2t-5.5 6q0 6 82 65q128 87 248 89q124 0 198 -68q75 -66 75 -178q0 -29 -16.5 -99t-51.5 -180q-32 -109 -48 -170.5t-18 -75.5q0 -24 16 -44
q16 -19 36 -19q65 0 325 246q114 109 182.5 180.5t93.5 107.5q61 88 74 104q23 29 34 29q9 0 10 -1v-16v0zM1178 781q0 -8 -4.5 -14.5t-9.5 -6.5q-7 0 -16.5 12.5t-29.5 32.5q-32 32 -51.5 43t-36.5 11q-10 0 -27.5 -10t-37.5 -27q-18 -15 -31.5 -28t-19.5 -13q-8 0 -8 2.5
v9.5q0 5 19 20.5t48 38.5q15 12 35.5 24t37.5 12q27 0 51 -19t47 -40q25 -23 29.5 -33.5t4.5 -14.5z" />
    <glyph glyph-name="Udieresis" unicode="&#xdc;" 
d="M1389 676q0 -5 -212 -307q-107 -149 -159.5 -232.5t-54.5 -103.5q0 -23 16 -23q2 0 4 0.5t6 2.5q9 0 12 2q-29 -38 -56 -38q-10 0 -19 8q-10 7 -10 17q0 39 96 187l113 178l-248 -238q-158 -144 -240 -145q-16 0 -29 6.5t-23 22.5q-18 25 -21 63q0 20 16 78t50 158
q33 98 49 167.5t16 112.5q0 111 -67 168q-66 57 -197 59q-32 0 -64 -7t-65 -24q-21 -10 -44 -24.5t-47 -34.5l-43 -31q-10 0 -13.5 2t-5.5 6q0 6 82 65q128 87 248 89q124 0 198 -68q75 -66 75 -178q0 -29 -16.5 -99t-51.5 -180q-32 -109 -48 -170.5t-18 -75.5q0 -24 16 -44
q16 -19 36 -19q65 0 325 246q114 109 182.5 180.5t93.5 107.5q61 88 74 104q23 29 34 29q9 0 10 -1v-16v0zM1041 771q0 -14 -11.5 -24.5t-31.5 -10.5q-19 0 -27 5t-8 20q0 13 13.5 23t32.5 10q15 0 23.5 -4.5t8.5 -18.5zM1166 771q0 -13 -13 -22t-33 -9q-19 0 -25.5 8.5
t-6.5 19.5q0 14 14.5 21.5t33.5 7.5q20 0 25 -6.5t5 -19.5z" />
    <glyph glyph-name="Yacute" unicode="&#xdd;" horiz-adv-x="1279" 
d="M1450 572q0 -8 -18 -26q-6 -5 -11.5 -10t-11.5 -12q-198 -238 -362.5 -456t-301.5 -420q-88 -134 -89 -164q0 -9 12 -17q12 -9 12 -13q0 -24 -19 -24q-10 0 -26 19t-18 32q0 43 54 126q45 67 74 109t43 62l341 440q-235 -184 -236 -184q-95 -69 -148 -69q-64 0 -106 95
q-17 35 -30 88.5t-24 125.5l-32 230q-9 79 -65 141q-60 66 -139 69q-100 0 -233 -60l3 19q18 13 43.5 26t60.5 27q84 31 142 33q66 0 139 -62q75 -68 99 -169q16 -91 31.5 -180t32.5 -180q17 -81 44 -120.5t65 -41.5q54 0 207 123q72 59 138 121.5t130 131.5q5 5 35 39
t86 99q57 67 67 67t11 -15zM1157 787q0 -22 -6 -35q-5 -9 -41 -51q-20 -17 -34.5 -25t-26.5 -10q-5 0 -8 15q0 5 15 19q8 7 14.5 12.5t8.5 9.5q5 8 8.5 15t7.5 17q2 8 4.5 16.5t4.5 17.5q6 15 27 18q26 0 26 -19z" />
    <glyph glyph-name="Thorn" unicode="&#xde;" horiz-adv-x="554" 
d="M203 692q-19 -44 -40 -92.5t-42.5 -98t-42.5 -97.5t-39 -91l-85 -203q100 2 193 31t164.5 81t114 125t42.5 162q0 46 -16 81t-43 58t-63 34.5t-76 11.5q-22 0 -38.5 -0.5t-28.5 -1.5zM177 712q28 65 49.5 112.5t32.5 64.5q13 9 24 9t7 -9q-10 -22 -22 -49
q-11 -23 -24.5 -54.5t-30.5 -69.5q11 1 19.5 1.5t17 0.5h18.5h24q34 0 75.5 -10.5t77 -33.5t59.5 -58.5t24 -85.5q0 -104 -49.5 -187.5t-129.5 -142t-180 -90t-201 -31.5h-11.5t-14.5 1q-20 -48 -37.5 -90.5t-30.5 -74.5q-16 -38 -28 -70q-7 -17 -21 -29t-22 -13
q-5 0 -7 1.5t-2 9.5q0 1 8.5 23t23 58t34 84.5t42.5 102.5q-18 1 -36 3.5t-32 6t-23 8t-9 10.5q0 9 9 11.5t19 2.5q15 0 37 -5t47 -8q17 40 33 77t32.5 75t34.5 78t38 87l114 259q-11 -2 -17.5 -3.5t-15.5 -1.5t-12 1t-3 9t16.5 12.5t42.5 7.5z" />
    <glyph glyph-name="germandbls" unicode="&#xdf;" horiz-adv-x="481" 
d="M459 612q0 -21 -10 -43t-28 -43t-42.5 -40.5t-54.5 -35.5q-48 -26 -76.5 -46t-28.5 -43q0 -16 14.5 -36.5t33.5 -38.5q15 -15 33.5 -31t34 -35t26.5 -42.5t11 -52.5q0 -59 -37.5 -98t-103.5 -39q-29 0 -46 6t-35 15q-9 4 -18.5 13t-18 19.5t-14 21t-5.5 18.5
q0 17 4.5 18.5t16.5 1.5q4 0 8 -8t8.5 -18.5t10 -21.5t13.5 -18q7 -6 14 -10.5t15.5 -7.5t20.5 -4.5t31 -1.5q17 0 33.5 7t29 20t20.5 31t8 39q0 41 -17.5 72t-51.5 66q-20 21 -32.5 35.5t-19 26.5t-9 22t-2.5 21q0 18 8 31.5t22.5 26t36 26t48.5 30.5q31 19 52 35t34 31.5
t18.5 31.5t5.5 36q0 24 -7.5 37.5t-17.5 19.5t-20.5 7.5t-17.5 1.5q-24 0 -51.5 -15.5t-46.5 -38.5q-8 -9 -13.5 -15.5t-12.5 -17.5t-16 -32t-23 -58q-29 -86 -59 -170q-13 -36 -27.5 -75.5t-30 -79.5t-31 -78t-30.5 -72q-14 -33 -29 -71.5t-29 -71.5t-26 -55.5t-21 -22.5
q-11 0 -13.5 6t-2.5 9q0 5 8.5 28t22 56.5t30 74t32.5 79.5t30 73.5t22 55.5l87 229q32 83 63.5 144t57.5 85q28 26 61.5 45.5t80.5 19.5q12 0 24.5 -4t22.5 -13.5t16 -26t6 -41.5z" />
    <glyph glyph-name="agrave" unicode="&#xe0;" horiz-adv-x="411" 
d="M455 165q0 -8 -4 -11q-51 -44 -87 -72.5t-57 -42.5q-51 -34 -92 -51.5t-74 -17.5q-54 0 -57 81q-24 -20 -69 -43q-43 -23 -72 -23q-20 0 -37 10q-17 8 -17 24q0 45 81 108q42 31 77.5 47t66.5 16q37 0 38 -18q0 -20 -12 -29t-26 -9q0 1 -1 4q-1 2 -2 4.5t-3 6.5
q-6 14 -24 16q-40 0 -90 -44q-51 -42 -51 -76q0 -21 15 -22q53 0 113 41q13 9 45 44q20 25 34 23q13 0 13 -10q0 -9 -17 -39q-16 -28 -16 -41q0 -37 37 -38q45 0 144 68q13 8 46 32t88 65q2 2 6 2t4 -5zM109 236q-14 0 -40 29l-52 65q-1 2 -1 6.5t-1 12.5q0 7 3 9t10 4
q11 0 17 -8l51 -81q16 -29 18 -33q0 -3 -5 -4z" />
    <glyph glyph-name="aacute" unicode="&#xe1;" horiz-adv-x="411" 
d="M455 165q0 -8 -4 -11q-51 -44 -87 -72.5t-57 -42.5q-51 -34 -92 -51.5t-74 -17.5q-54 0 -57 81q-24 -20 -69 -43q-43 -23 -72 -23q-20 0 -37 10q-17 8 -17 24q0 45 81 108q42 31 77.5 47t66.5 16q37 0 38 -18q0 -20 -12 -29t-26 -9q0 1 -1 4q-1 2 -2 4.5t-3 6.5
q-6 14 -24 16q-40 0 -90 -44q-51 -42 -51 -76q0 -21 15 -22q53 0 113 41q13 9 45 44q20 25 34 23q13 0 13 -10q0 -9 -17 -39q-16 -28 -16 -41q0 -37 37 -38q45 0 144 68q13 8 46 32t88 65q2 2 6 2t4 -5zM239 364q0 -22 -6 -35q-5 -9 -41 -51q-20 -17 -34.5 -25t-26.5 -10
q-5 0 -8 15q0 5 15 19q8 7 14.5 12.5t8.5 9.5q5 8 8.5 15t7.5 17q2 8 4.5 16.5t4.5 17.5q6 15 27 18q26 0 26 -19z" />
    <glyph glyph-name="acircumflex" unicode="&#xe2;" horiz-adv-x="411" 
d="M455 165q0 -8 -4 -11q-51 -44 -87 -72.5t-57 -42.5q-51 -34 -92 -51.5t-74 -17.5q-54 0 -57 81q-24 -20 -69 -43q-43 -23 -72 -23q-20 0 -37 10q-17 8 -17 24q0 45 81 108q42 31 77.5 47t66.5 16q37 0 38 -18q0 -20 -12 -29t-26 -9q0 1 -1 4q-1 2 -2 4.5t-3 6.5
q-6 14 -24 16q-40 0 -90 -44q-51 -42 -51 -76q0 -21 15 -22q53 0 113 41q13 9 45 44q20 25 34 23q13 0 13 -10q0 -9 -17 -39q-16 -28 -16 -41q0 -37 37 -38q45 0 144 68q13 8 46 32t88 65q2 2 6 2t4 -5zM238 260q0 -8 -4.5 -14.5t-9.5 -6.5q-7 0 -16.5 10t-29.5 30
q-35 36 -53 36q-10 0 -27 -8.5t-37 -25.5q-18 -15 -31.5 -28t-19.5 -13q-8 0 -8 2.5v9.5q0 5 19 20.5t48 38.5q15 12 35.5 24t37.5 12q11 0 25 -9t37 -30q25 -23 29.5 -33.5t4.5 -14.5z" />
    <glyph glyph-name="atilde" unicode="&#xe3;" horiz-adv-x="411" 
d="M455 168q0 -8 -4 -11q-51 -44 -87 -72.5t-57 -42.5q-51 -34 -92 -51.5t-74 -17.5q-54 0 -57 81q-24 -20 -69 -43q-43 -23 -72 -23q-20 0 -37 10q-17 8 -17 24q0 45 81 108q42 31 77.5 47t66.5 16q37 0 38 -18q0 -20 -12 -29t-26 -9q0 1 -1 4q-1 2 -2 4.5t-3 6.5
q-6 14 -24 16q-40 0 -90 -44q-51 -42 -51 -76q0 -21 15 -22q53 0 113 41q13 9 45 44q20 25 34 23q13 0 13 -10q0 -9 -17 -39q-16 -28 -16 -41q0 -37 37 -38q45 0 144 68q13 8 46 32t88 65q2 2 6 2t4 -5zM335 311q0 -6 -15.5 -23t-38.5 -34q-18 -13 -38 -20.5t-41 -7.5
q-25 0 -42 12t-37 32q-13 14 -27.5 24t-25.5 10q-28 0 -50 -15q-16 -10 -26 -18t-21 -20q-2 -2 -6 -4t-7 -2q-5 0 -5 8q0 3 4.5 8.5t10.5 12t13.5 12.5t13.5 10q20 14 41.5 23t46.5 9q17 0 33.5 -10t31.5 -27q22 -24 37 -30.5t36 -6.5q17 0 30 5t23 12.5t17.5 17t13.5 17.5
q3 5 7 11t12 6q5 0 7 -2t2 -10z" />
    <glyph glyph-name="adieresis" unicode="&#xe4;" horiz-adv-x="411" 
d="M455 165q0 -8 -4 -11q-51 -44 -87 -72.5t-57 -42.5q-51 -34 -92 -51.5t-74 -17.5q-54 0 -57 81q-24 -20 -69 -43q-43 -23 -72 -23q-20 0 -37 10q-17 8 -17 24q0 45 81 108q42 31 77.5 47t66.5 16q37 0 38 -18q0 -20 -12 -29t-26 -9q0 1 -1 4q-1 2 -2 4.5t-3 6.5
q-6 14 -24 16q-40 0 -90 -44q-51 -42 -51 -76q0 -21 15 -22q53 0 113 41q13 9 45 44q20 25 34 23q13 0 13 -10q0 -9 -17 -39q-16 -28 -16 -41q0 -37 37 -38q45 0 144 68q13 8 46 32t88 65q2 2 6 2t4 -5zM106 278q0 -14 -11.5 -24.5t-31.5 -10.5q-19 0 -27 5t-8 20
q0 13 13.5 23t32.5 10q15 0 23.5 -4.5t8.5 -18.5zM231 278q0 -13 -13 -22t-33 -9q-19 0 -25.5 8.5t-6.5 19.5q0 14 14.5 21.5t33.5 7.5q20 0 25 -6.5t5 -19.5z" />
    <glyph glyph-name="aring" unicode="&#xe5;" horiz-adv-x="411" 
d="M455 165q0 -8 -4 -11q-51 -44 -87 -72.5t-57 -42.5q-51 -34 -92 -51.5t-74 -17.5q-54 0 -57 81q-24 -20 -69 -43q-43 -23 -72 -23q-20 0 -37 10q-17 8 -17 24q0 45 81 108q42 31 77.5 47t66.5 16q37 0 38 -18q0 -20 -12 -29t-26 -9q0 1 -1 4q-1 2 -2 4.5t-3 6.5
q-6 14 -24 16q-40 0 -90 -44q-51 -42 -51 -76q0 -21 15 -22q53 0 113 41q13 9 45 44q20 25 34 23q13 0 13 -10q0 -9 -17 -39q-16 -28 -16 -41q0 -37 37 -38q45 0 144 68q13 8 46 32t88 65q2 2 6 2t4 -5zM280.366 340.708q0 -24.8115 -8.89844 -44.6602t-24.4697 -33.9072
q-15.5723 -14.0596 -35.5928 -21.5029q-20.0215 -7.44336 -42.2666 -7.44336q-29.6611 0 -46.3447 18.1943q-16.6846 18.1943 -16.6846 46.3135q0 23.1572 9.63965 41.7646q9.63965 18.6084 25.9531 31.4277q16.3135 12.8184 37.0762 19.4346t43.0078 6.61621
q24.4697 0 41.5254 -13.6455q17.0547 -13.6465 17.0547 -42.5918zM249.223 338.227q0 13.2324 -4.44922 21.5029t-10.752 13.2324t-13.3477 6.61621q-7.04395 1.6543 -12.2344 1.6543q-10.3818 0 -22.9873 -4.96289q-12.6064 -4.96191 -23.7285 -14.8867
q-11.123 -9.92383 -18.9092 -24.3965q-7.78516 -14.4736 -7.78516 -33.4951t8.52734 -36.3887q8.52734 -17.3682 30.7725 -17.3682q17.0547 0 30.7734 7.03027q13.7178 7.0293 23.7285 19.0215q10.0098 11.9922 15.2002 28.1191q5.19141 16.127 5.19141 34.3213z" />
    <glyph glyph-name="ae" unicode="&#xe6;" horiz-adv-x="546" 
d="M577 149q0 -6 -4 -11q-26 -22 -45 -37.5t-34 -26.5t-26.5 -19.5t-21.5 -15.5q-51 -35 -100 -52.5t-84 -17.5q-36 0 -49 17t-17 38q-34 -22 -58.5 -34t-38.5 -12t-18 7t-4 21q0 9 2.5 23t5.5 24q-27 -22 -71 -45q-17 -9 -40.5 -16t-38.5 -7q-46 0 -46 34q0 45 81 108
q42 31 77.5 47t66.5 16q37 0 38 -18q0 -20 -12 -29t-26 -9q0 1 -1 4q-1 2 -2 4.5t-3 6.5q-6 14 -24 16q-40 0 -90 -44q-51 -42 -51 -76q0 -21 15 -22q53 0 113 41q13 9 45 44q20 25 34 23q13 0 13 -10q0 -9 -17 -39q-8 -14 -14.5 -30t-6.5 -22q0 -14 13 -14q11 0 24 7.5
t33 20.5q6 30 18.5 53.5t32.5 46.5q29 30 53.5 43.5t38.5 13.5q11 0 23 -4t12 -21q0 -19 -19.5 -37t-38.5 -35q-15 -14 -34 -28.5t-44 -27.5q3 -19 15 -30t35 -11q27 0 69.5 15t94.5 49q5 3 13 8.5t21 15t32.5 24t48.5 35.5q3 1 7 1q3 0 4 -6zM331 162q0 10 -14 10
q-7 0 -18.5 -6t-25.5 -22q-7 -7 -13.5 -18t-12 -22t-8.5 -21.5t-4 -16.5q5 2 16 9.5t16 11.5q26 19 45 40t19 35z" />
    <glyph glyph-name="ccedilla" unicode="&#xe7;" horiz-adv-x="371" 
d="M21 -41q-32 3 -54 24q-25 21 -25 57q0 52 67 112q35 33 73.5 49.5t79.5 18.5q31 0 34 -30q0 -29 -45 -57q-19 -13 -36 -18.5t-31 -6.5q-23 0 -23 11q0 29 30 29q2 0 4.5 -0.5t7.5 -2.5q6 -3 19 -5q14 0 26 16q14 16 14 27q0 8 -26 10q-45 0 -99 -48q-49 -46 -52 -86
q0 -26 26 -47q20 -20 62 -20q60 0 145 47q28 14 60 35t67 50q59 46 63 46q7 0 7 -9q0 -5 -59 -54q-27 -23 -47 -37.5t-33 -24.5q-63 -44 -123.5 -65t-117.5 -22q-2 -8 -2 -13q0 -8 5.5 -13.5t22.5 -13.5q15 -8 29.5 -12.5t26 -10t19 -14.5t8.5 -25q2 -36 -33 -57t-93 -21
q-18 0 -35.5 4.5t-31 11.5t-22 15t-8.5 15q0 8 2.5 8h5.5t9.5 -6t17 -13.5t26 -13.5t36.5 -6q23 0 37.5 5t22.5 13t11 18t3 21q0 9 -5.5 15.5t-13.5 12t-17.5 9.5t-18.5 8q-18 8 -22 16.5t-4 19.5q0 8 10 28z" />
    <glyph glyph-name="egrave" unicode="&#xe8;" horiz-adv-x="228" 
d="M271 164q0 -6 -4 -11q-52 -44 -88 -72t-57 -42q-100 -67 -181 -69q-69 0 -70 71q0 44 51 103q55 57 92 57q13 0 23 -10q11 -9 11 -20q0 -9 -3.5 -17t-14.5 -19q-10 -10 -18.5 -16.5t-19.5 -14.5q-16 -12 -34.5 -24.5t-42.5 -24.5q-1 -24 20 -40q17 -11 37 -11
q52 0 155 67q10 7 43 31t90 67q3 1 7 1q3 0 4 -6zM4 160q0 8 -13 8q-7 0 -19 -7.5t-26 -23.5q-10 -11 -18 -25t-10 -25q2 0 8 2t11 5q26 14 46.5 33t20.5 33zM60 256q-14 0 -40 29l-52 65q-1 2 -1 6.5t-1 12.5q0 7 3 9t10 4q11 0 17 -8l51 -81q16 -29 18 -33q0 -3 -5 -4z
" />
    <glyph glyph-name="eacute" unicode="&#xe9;" horiz-adv-x="228" 
d="M271 164q0 -6 -4 -11q-52 -44 -88 -72t-57 -42q-100 -67 -181 -69q-69 0 -70 71q0 44 51 103q55 57 92 57q13 0 23 -10q11 -9 11 -20q0 -9 -3.5 -17t-14.5 -19q-10 -10 -18.5 -16.5t-19.5 -14.5q-16 -12 -34.5 -24.5t-42.5 -24.5q-1 -24 20 -40q17 -11 37 -11
q52 0 155 67q10 7 43 31t90 67q3 1 7 1q3 0 4 -6zM4 160q0 8 -13 8q-7 0 -19 -7.5t-26 -23.5q-10 -11 -18 -25t-10 -25q2 0 8 2t11 5q26 14 46.5 33t20.5 33zM135 392q0 -22 -6 -35q-5 -9 -41 -51q-20 -17 -34.5 -25t-26.5 -10q-5 0 -8 15q0 5 15 19q8 7 14.5 12.5t8.5 9.5
q5 8 8.5 15t7.5 17q2 8 4.5 16.5t4.5 17.5q6 15 27 18q26 0 26 -19z" />
    <glyph glyph-name="ecircumflex" unicode="&#xea;" horiz-adv-x="228" 
d="M271 164q0 -6 -4 -11q-52 -44 -88 -72t-57 -42q-100 -67 -181 -69q-69 0 -70 71q0 44 51 103q55 57 92 57q13 0 23 -10q11 -9 11 -20q0 -9 -3.5 -17t-14.5 -19q-10 -10 -18.5 -16.5t-19.5 -14.5q-16 -12 -34.5 -24.5t-42.5 -24.5q-1 -24 20 -40q17 -11 37 -11
q52 0 155 67q10 7 43 31t90 67q3 1 7 1q3 0 4 -6zM4 160q0 8 -13 8q-7 0 -19 -7.5t-26 -23.5q-10 -11 -18 -25t-10 -25q2 0 8 2t11 5q26 14 46.5 33t20.5 33zM159 260q0 -8 -4.5 -14.5t-9.5 -6.5q-7 0 -16.5 10t-29.5 30q-35 36 -53 36q-10 0 -27 -8.5t-37 -25.5
q-18 -15 -31.5 -28t-19.5 -13q-8 0 -8 2.5v9.5q0 5 19 20.5t48 38.5q15 12 35.5 24t37.5 12q11 0 25 -9t37 -30q25 -23 29.5 -33.5t4.5 -14.5z" />
    <glyph glyph-name="edieresis" unicode="&#xeb;" horiz-adv-x="228" 
d="M271 164q0 -6 -4 -11q-52 -44 -88 -72t-57 -42q-100 -67 -181 -69q-69 0 -70 71q0 44 51 103q55 57 92 57q13 0 23 -10q11 -9 11 -20q0 -9 -3.5 -17t-14.5 -19q-10 -10 -18.5 -16.5t-19.5 -14.5q-16 -12 -34.5 -24.5t-42.5 -24.5q-1 -24 20 -40q17 -11 37 -11
q52 0 155 67q10 7 43 31t90 67q3 1 7 1q3 0 4 -6zM4 160q0 8 -13 8q-7 0 -19 -7.5t-26 -23.5q-10 -11 -18 -25t-10 -25q2 0 8 2t11 5q26 14 46.5 33t20.5 33zM-5 288q0 -14 -11.5 -24.5t-31.5 -10.5q-19 0 -27 5t-8 20q0 13 13.5 23t32.5 10q15 0 23.5 -4.5t8.5 -18.5z
M120 288q0 -13 -13 -22t-33 -9q-19 0 -25.5 8.5t-6.5 19.5q0 14 14.5 21.5t33.5 7.5q20 0 25 -6.5t5 -19.5z" />
    <glyph glyph-name="igrave" unicode="&#xec;" horiz-adv-x="245" 
d="M289 164q0 -6 -5 -10q-54 -47 -87 -74t-48 -37q-88 -65 -134 -65q-28 0 -53 17q-23 16 -25 40q0 37 39 87q35 46 62 52q13 0 13 -9q0 -8 -32 -44q-28 -36 -30 -68q0 -40 37 -41q42 0 252 156q2 2 6 2q3 0 5 -6zM99 227q-14 0 -40 29l-52 65q-1 2 -1 6.5t-1 12.5q0 7 3 9
t10 4q11 0 17 -8l51 -81q16 -29 18 -33q0 -3 -5 -4z" />
    <glyph glyph-name="iacute" unicode="&#xed;" horiz-adv-x="245" 
d="M289 164q0 -6 -5 -10q-54 -47 -87 -74t-48 -37q-88 -65 -134 -65q-28 0 -53 17q-23 16 -25 40q0 37 39 87q35 46 62 52q13 0 13 -9q0 -8 -32 -44q-28 -36 -30 -68q0 -40 37 -41q42 0 252 156q2 2 6 2q3 0 5 -6zM168 365q0 -22 -6 -35q-5 -9 -41 -51q-20 -17 -34.5 -25
t-26.5 -10q-5 0 -8 15q0 5 15 19q8 7 14.5 12.5t8.5 9.5q5 8 8.5 15t7.5 17q2 8 4.5 16.5t4.5 17.5q6 15 27 18q26 0 26 -19z" />
    <glyph glyph-name="icircumflex" unicode="&#xee;" horiz-adv-x="245" 
d="M289 164q0 -6 -5 -10q-54 -47 -87 -74t-48 -37q-88 -65 -134 -65q-28 0 -53 17q-23 16 -25 40q0 37 39 87q35 46 62 52q13 0 13 -9q0 -8 -32 -44q-28 -36 -30 -68q0 -40 37 -41q42 0 252 156q2 2 6 2q3 0 5 -6zM189 260q0 -8 -4.5 -14.5t-9.5 -6.5q-7 0 -16.5 10
t-29.5 30q-35 36 -53 36q-10 0 -27 -8.5t-37 -25.5q-18 -15 -31.5 -28t-19.5 -13q-8 0 -8 2.5v9.5q0 5 19 20.5t48 38.5q15 12 35.5 24t37.5 12q11 0 25 -9t37 -30q25 -23 29.5 -33.5t4.5 -14.5z" />
    <glyph glyph-name="idieresis" unicode="&#xef;" horiz-adv-x="245" 
d="M289 164q0 -6 -5 -10q-54 -47 -87 -74t-48 -37q-88 -65 -134 -65q-28 0 -53 17q-23 16 -25 40q0 37 39 87q35 46 62 52q13 0 13 -9q0 -8 -32 -44q-28 -36 -30 -68q0 -40 37 -41q42 0 252 156q2 2 6 2q3 0 5 -6zM51 283q0 -14 -11.5 -24.5t-31.5 -10.5q-19 0 -27 5t-8 20
q0 13 13.5 23t32.5 10q15 0 23.5 -4.5t8.5 -18.5zM176 283q0 -13 -13 -22t-33 -9q-19 0 -25.5 8.5t-6.5 19.5q0 14 14.5 21.5t33.5 7.5q20 0 25 -6.5t5 -19.5z" />
    <glyph glyph-name="eth" unicode="&#xf0;" horiz-adv-x="449" 
d="M346 521q-17 62 -55 95t-87 33q-32 0 -56 -3t-57 -8q-3 4 -3 9q0 3 1 5q25 14 63.5 21t77.5 7q34 0 61 -11t46.5 -29.5t33 -43t21.5 -51.5q21 10 41 20t36.5 18t28 12.5t14.5 4.5q5 0 5 -3q0 -5 -16.5 -16.5t-40.5 -24.5l-62 -33q7 -35 7 -73q0 -32 -9 -80.5t-30 -103
t-55 -109t-84 -98.5q-58 -51 -103.5 -71t-77.5 -20t-54.5 17.5t-22.5 62.5q0 18 15.5 52t49.5 65q32 29 66.5 43.5t75.5 14.5q10 0 21 -3.5t20.5 -10t15.5 -16t6 -22.5q0 -14 -7 -24.5t-15 -10.5q-10 0 -10 8q0 7 2 15t-2 17q-4 10 -15 17t-31 7q-23 0 -50.5 -8t-54.5 -32
q-20 -18 -35 -43t-15 -48q0 -33 12 -50t40 -17q25 0 44.5 5.5t36 14.5t30.5 19.5t29 20.5q13 9 39.5 39t53.5 78t47 111t20 138q0 20 -1 36t-3 33l-91 -43q-12 -6 -24 -11t-22.5 -8.5t-17 -4t-6.5 3.5q0 7 13 16t35 20t49 24t56 27z" />
    <glyph glyph-name="ntilde" unicode="&#xf1;" horiz-adv-x="468" 
d="M511 164q0 -6 -4 -11q-97 -80 -136 -106q-91 -62 -157 -62q-57 0 -57 60q0 11 2.5 27.5t8.5 39.5q-38 -22 -77.5 -45.5t-81.5 -51.5q-59 -39 -64 -39q-1 0 -8 4q-6 3 -6 7q0 7 8.5 23t28.5 44q21 31 33.5 49.5t17.5 26.5q-4 6 -4 17q0 8 13 17q14 8 22 9q34 0 34 -26
q0 -7 -32 -51q-15 -19 -25.5 -32t-18.5 -21q190 130 245 130q5 0 8 -13q0 -2 -31 -37q-14 -18 -22 -34.5t-8 -33.5q0 -37 51 -37q38 0 127 60q17 10 122 90q3 1 7 1q3 0 4 -5zM413 330q0 -6 -15.5 -23t-38.5 -34q-18 -13 -38 -20.5t-41 -7.5q-25 0 -42 12t-37 32
q-13 14 -27.5 24t-25.5 10q-28 0 -50 -15q-16 -10 -26 -18t-21 -20q-2 -2 -6 -4t-7 -2q-5 0 -5 8q0 3 4.5 8.5t10.5 12t13.5 12.5t13.5 10q20 14 41.5 23t46.5 9q17 0 33.5 -10t31.5 -27q22 -24 37 -30.5t36 -6.5q17 0 30 5t23 12.5t17.5 17t13.5 17.5q3 5 7 11t12 6
q5 0 7 -2t2 -10z" />
    <glyph glyph-name="ograve" unicode="&#xf2;" horiz-adv-x="302" 
d="M345 164q0 -3 -0.5 -5.5t-3.5 -6.5q-36 -44 -110 -94q-40 -29 -70 -43t-50 -15q-28 0 -48 19q-9 -12 -46 -33q-43 -23 -80 -23q-52 0 -52 41q0 27 20 56.5t58 63.5q37 32 69.5 47t58.5 15q51 0 51 -48q0 -53 -60 -104q13 -13 32 -13q34 0 111 55q33 23 60.5 46t49.5 46
q1 3 6 1q4 0 4 -5zM128 146q0 16 -18 18q-23 0 -40 -20q-15 -18 -17 -43q0 -37 13 -49q60 47 62 94zM51 36q-20 20 -20 52q0 43 18 61q-119 -55 -119 -115q0 -37 29 -37q44 0 92 39zM132 250q-14 0 -40 29l-52 65q-1 2 -1 6.5t-1 12.5q0 7 3 9t10 4q11 0 17 -8l51 -81
q16 -29 18 -33q0 -3 -5 -4z" />
    <glyph glyph-name="oacute" unicode="&#xf3;" horiz-adv-x="302" 
d="M345 164q0 -3 -0.5 -5.5t-3.5 -6.5q-36 -44 -110 -94q-40 -29 -70 -43t-50 -15q-28 0 -48 19q-9 -12 -46 -33q-43 -23 -80 -23q-52 0 -52 41q0 27 20 56.5t58 63.5q37 32 69.5 47t58.5 15q51 0 51 -48q0 -53 -60 -104q13 -13 32 -13q34 0 111 55q33 23 60.5 46t49.5 46
q1 3 6 1q4 0 4 -5zM128 146q0 16 -18 18q-23 0 -40 -20q-15 -18 -17 -43q0 -37 13 -49q60 47 62 94zM51 36q-20 20 -20 52q0 43 18 61q-119 -55 -119 -115q0 -37 29 -37q44 0 92 39zM217 358q0 -22 -6 -35q-5 -9 -41 -51q-20 -17 -34.5 -25t-26.5 -10q-5 0 -8 15q0 5 15 19
q8 7 14.5 12.5t8.5 9.5q5 8 8.5 15t7.5 17q2 8 4.5 16.5t4.5 17.5q6 15 27 18q26 0 26 -19z" />
    <glyph glyph-name="ocircumflex" unicode="&#xf4;" horiz-adv-x="302" 
d="M345 164q0 -3 -0.5 -5.5t-3.5 -6.5q-36 -44 -110 -94q-40 -29 -70 -43t-50 -15q-28 0 -48 19q-9 -12 -46 -33q-43 -23 -80 -23q-52 0 -52 41q0 27 20 56.5t58 63.5q37 32 69.5 47t58.5 15q51 0 51 -48q0 -53 -60 -104q13 -13 32 -13q34 0 111 55q33 23 60.5 46t49.5 46
q1 3 6 1q4 0 4 -5zM128 146q0 16 -18 18q-23 0 -40 -20q-15 -18 -17 -43q0 -37 13 -49q60 47 62 94zM51 36q-20 20 -20 52q0 43 18 61q-119 -55 -119 -115q0 -37 29 -37q44 0 92 39zM222 240q0 -8 -4.5 -14.5t-9.5 -6.5q-7 0 -16.5 10t-29.5 30q-35 36 -53 36
q-10 0 -27 -8.5t-37 -25.5q-18 -15 -31.5 -28t-19.5 -13q-8 0 -8 2.5v9.5q0 5 19 20.5t48 38.5q15 12 35.5 24t37.5 12q11 0 25 -9t37 -30q25 -23 29.5 -33.5t4.5 -14.5z" />
    <glyph glyph-name="otilde" unicode="&#xf5;" horiz-adv-x="302" 
d="M345 164q0 -3 -0.5 -5.5t-3.5 -6.5q-36 -44 -110 -94q-40 -29 -70 -43t-50 -15q-28 0 -48 19q-9 -12 -46 -33q-43 -23 -80 -23q-52 0 -52 41q0 27 20 56.5t58 63.5q37 32 69.5 47t58.5 15q51 0 51 -48q0 -53 -60 -104q13 -13 32 -13q34 0 111 55q33 23 60.5 46t49.5 46
q1 3 6 1q4 0 4 -5zM128 146q0 16 -18 18q-23 0 -40 -20q-15 -18 -17 -43q0 -37 13 -49q60 47 62 94zM51 36q-20 20 -20 52q0 43 18 61q-119 -55 -119 -115q0 -37 29 -37q44 0 92 39zM342 311q0 -6 -15.5 -23t-38.5 -34q-18 -13 -38 -20.5t-41 -7.5q-25 0 -42 12t-37 32
q-13 14 -27.5 24t-25.5 10q-28 0 -50 -15q-16 -10 -26 -18t-21 -20q-2 -2 -6 -4t-7 -2q-5 0 -5 8q0 3 4.5 8.5t10.5 12t13.5 12.5t13.5 10q20 14 41.5 23t46.5 9q17 0 33.5 -10t31.5 -27q22 -24 37 -30.5t36 -6.5q17 0 30 5t23 12.5t17.5 17t13.5 17.5q3 5 7 11t12 6
q5 0 7 -2t2 -10z" />
    <glyph glyph-name="odieresis" unicode="&#xf6;" horiz-adv-x="302" 
d="M345 164q0 -3 -0.5 -5.5t-3.5 -6.5q-36 -44 -110 -94q-40 -29 -70 -43t-50 -15q-28 0 -48 19q-9 -12 -46 -33q-43 -23 -80 -23q-52 0 -52 41q0 27 20 56.5t58 63.5q37 32 69.5 47t58.5 15q51 0 51 -48q0 -53 -60 -104q13 -13 32 -13q34 0 111 55q33 23 60.5 46t49.5 46
q1 3 6 1q4 0 4 -5zM128 146q0 16 -18 18q-23 0 -40 -20q-15 -18 -17 -43q0 -37 13 -49q60 47 62 94zM51 36q-20 20 -20 52q0 43 18 61q-119 -55 -119 -115q0 -37 29 -37q44 0 92 39zM107 304q0 -14 -11.5 -24.5t-31.5 -10.5q-19 0 -27 5t-8 20q0 13 13.5 23t32.5 10
q15 0 23.5 -4.5t8.5 -18.5zM232 304q0 -13 -13 -22t-33 -9q-19 0 -25.5 8.5t-6.5 19.5q0 14 14.5 21.5t33.5 7.5q20 0 25 -6.5t5 -19.5z" />
    <glyph glyph-name="divide" unicode="&#xf7;" horiz-adv-x="574" 
d="M371 392q0 -20 -15 -28.5t-32 -8.5q-36 0 -36 30q0 14 12.5 27t38.5 13q12 0 22 -5t10 -28zM311 104q0 -17 -14.5 -31t-36.5 -14q-11 0 -23.5 8t-12.5 27q0 20 15 33.5t38 13.5q16 0 25 -7t9 -30zM33 225q-10 0 -12.5 1.5t-2.5 7.5q0 8 3.5 11t12.5 5q7 1 19.5 2.5
t26.5 2.5t28 1.5t23 1.5q54 3 106 6t97 5.5t80 4.5t56 3l94 5q11 1 17 0.5t6 -6.5q0 -7 -11.5 -12t-25.5 -10q-10 -3 -26 -3t-41 -2q-30 -2 -54.5 -3t-49.5 -2.5t-55 -3t-71 -2.5q-18 0 -52 -2.5t-69.5 -4.5t-64 -4t-34.5 -2z" />
    <glyph glyph-name="oslash" unicode="&#xf8;" horiz-adv-x="273" 
d="M31 0q20 2 47 18t48 39q28 29 37.5 51t9.5 35q0 15 -7.5 23t-15.5 12zM189 268q4 6 10 14t11 15t9.5 11.5t7.5 4.5h4.5t1.5 -4t-4.5 -12.5t-9.5 -16.5l-58 -85q16 -5 27 -17t11 -30q0 -24 -12 -46t-29 -45q-30 -41 -70.5 -66t-76.5 -25h-3l-69 -103q-8 -13 -12 -19t-9 -6
q-4 0 -7 6t-3 13q0 8 8 19l69 97q-14 8 -21 23t-7 32q0 11 4 31t18 44q8 14 20 28.5t27 27.5q1 1 7.5 5.5t14.5 9t16 8.5t14 4q3 0 3 -5q0 -2 -8 -5t-20 -13q-14 -11 -24 -21.5t-19 -26.5q-14 -23 -16.5 -37.5t-2.5 -27.5q0 -14 3.5 -26t13.5 -19l120 174
q-18 -3 -40.5 -15.5t-41.5 -35.5q-2 -1 -3 0q-3 0 -3 4q0 2 2.5 6t4.5 7q5 6 15 14t22.5 16t27 14t28.5 8z" />
    <glyph glyph-name="ugrave" unicode="&#xf9;" horiz-adv-x="396" 
d="M440 164q0 -6 -5 -11q-218 -184 -306 -184q-47 0 -56 78q-26 -29 -77 -53q-39 -17 -57 -18q-16 0 -29 14q-14 12 -15 31q0 34 30 67q15 14 44 35.5t74 50.5q9 0 6 -14q-13 -8 -26 -17.5t-27 -19.5q-48 -42 -49 -76q0 -31 18 -34q10 0 39 14q18 8 32 16.5t25 16.5
q21 15 66 75q36 46 52 46q12 0 13 -11q0 -5 -9 -16t-29 -30q-36 -34 -36 -58q0 -23 14 -40q11 -17 27 -19q43 0 138 64l132 98q3 1 6 1q4 0 5 -6zM163 247q-14 0 -40 29l-52 65q-1 2 -1 6.5t-1 12.5q0 7 3 9t10 4q11 0 17 -8l51 -81q16 -29 18 -33q0 -3 -5 -4z" />
    <glyph glyph-name="uacute" unicode="&#xfa;" horiz-adv-x="396" 
d="M440 164q0 -6 -5 -11q-218 -184 -306 -184q-47 0 -56 78q-26 -29 -77 -53q-39 -17 -57 -18q-16 0 -29 14q-14 12 -15 31q0 34 30 67q15 14 44 35.5t74 50.5q9 0 6 -14q-13 -8 -26 -17.5t-27 -19.5q-48 -42 -49 -76q0 -31 18 -34q10 0 39 14q18 8 32 16.5t25 16.5
q21 15 66 75q36 46 52 46q12 0 13 -11q0 -5 -9 -16t-29 -30q-36 -34 -36 -58q0 -23 14 -40q11 -17 27 -19q43 0 138 64l132 98q3 1 6 1q4 0 5 -6zM214 377q0 -22 -6 -35q-5 -9 -41 -51q-20 -17 -34.5 -25t-26.5 -10q-5 0 -8 15q0 5 15 19q8 7 14.5 12.5t8.5 9.5q5 8 8.5 15
t7.5 17q2 8 4.5 16.5t4.5 17.5q6 15 27 18q26 0 26 -19z" />
    <glyph glyph-name="ucircumflex" unicode="&#xfb;" horiz-adv-x="396" 
d="M440 164q0 -6 -5 -11q-218 -184 -306 -184q-47 0 -56 78q-26 -29 -77 -53q-39 -17 -57 -18q-16 0 -29 14q-14 12 -15 31q0 34 30 67q15 14 44 35.5t74 50.5q9 0 6 -14q-13 -8 -26 -17.5t-27 -19.5q-48 -42 -49 -76q0 -31 18 -34q10 0 39 14q18 8 32 16.5t25 16.5
q21 15 66 75q36 46 52 46q12 0 13 -11q0 -5 -9 -16t-29 -30q-36 -34 -36 -58q0 -23 14 -40q11 -17 27 -19q43 0 138 64l132 98q3 1 6 1q4 0 5 -6zM288 260q0 -8 -4.5 -14.5t-9.5 -6.5q-7 0 -16.5 10t-29.5 30q-35 36 -53 36q-10 0 -27 -8.5t-37 -25.5q-18 -15 -31.5 -28
t-19.5 -13q-8 0 -8 2.5v9.5q0 5 19 20.5t48 38.5q15 12 35.5 24t37.5 12q11 0 25 -9t37 -30q25 -23 29.5 -33.5t4.5 -14.5z" />
    <glyph glyph-name="udieresis" unicode="&#xfc;" horiz-adv-x="396" 
d="M440 164q0 -6 -5 -11q-218 -184 -306 -184q-47 0 -56 78q-26 -29 -77 -53q-39 -17 -57 -18q-16 0 -29 14q-14 12 -15 31q0 34 30 67q15 14 44 35.5t74 50.5q9 0 6 -14q-13 -8 -26 -17.5t-27 -19.5q-48 -42 -49 -76q0 -31 18 -34q10 0 39 14q18 8 32 16.5t25 16.5
q21 15 66 75q36 46 52 46q12 0 13 -11q0 -5 -9 -16t-29 -30q-36 -34 -36 -58q0 -23 14 -40q11 -17 27 -19q43 0 138 64l132 98q3 1 6 1q4 0 5 -6zM131 292q0 -14 -11.5 -24.5t-31.5 -10.5q-19 0 -27 5t-8 20q0 13 13.5 23t32.5 10q15 0 23.5 -4.5t8.5 -18.5zM256 292
q0 -13 -13 -22t-33 -9q-19 0 -25.5 8.5t-6.5 19.5q0 14 14.5 21.5t33.5 7.5q20 0 25 -6.5t5 -19.5z" />
    <glyph glyph-name="yacute" unicode="&#xfd;" horiz-adv-x="366" 
d="M264 142q0 -9 -65 -76q-60 -60 -99.5 -100t-60.5 -62q-59 -61 -111 -122t-100 -122q-20 -27 -29.5 -46t-11.5 -29q0 -3 1 -6.5t2 -9.5t1 -10.5v-6.5q-12 -32 -47 -34q-2 12 -3 20.5t-2 16.5q0 48 56 108l333 368q-85 -55 -132 -55t-47 49q0 39 32 92q32 44 53 54
q16 1 18 -10q-2 -2 -9.5 -10t-25.5 -29q-33 -40 -36 -79q0 -31 53 -33q40 0 124 69q83 68 95 69q10 0 11 -6zM232 295q0 -22 -6 -35q-5 -9 -41 -51q-20 -17 -34.5 -25t-26.5 -10q-5 0 -8 15q0 5 15 19q8 7 14.5 12.5t8.5 9.5q5 8 8.5 15t7.5 17q2 8 4.5 16.5t4.5 17.5
q6 15 27 18q26 0 26 -19z" />
    <glyph glyph-name="thorn" unicode="&#xfe;" horiz-adv-x="376" 
d="M480 641q0 -1 -24.5 -28t-64 -71.5t-89 -100.5t-101 -113t-99 -111t-82.5 -94l38 20t39 21q48 21 87 22q42 0 45 -37q0 -24 -40 -67q-19 -20 -42 -36.5t-52 -33.5q-58 -30 -93 -31q-8 0 -13 3t-10 8q-9 9 -9 23q0 28 19 30q10 0 13 -6q3 -4 8 -14q7 -15 31 -15
q31 0 88 48q58 45 58 80q0 16 -36 19q-34 0 -69 -22q-14 -9 -41.5 -31t-68.5 -57q-52 -44 -107 -104.5t-115 -140.5q-102 -142 -111 -182v-36q0 -14 -10 -20q-8 -6 -19 -8q-6 0 -11.5 1t-10.5 5q-10 5 -13 17q0 18 13 32q11 20 17.5 29.5t7.5 11.5q32 59 93 140t152 187
q12 14 43 49t73.5 83t93 105t101.5 114q80 89 152 167.5t129 140.5q13 13 22 14q5 0 8 -11z" />
    <glyph glyph-name="ydieresis" unicode="&#xff;" horiz-adv-x="366" 
d="M264 142q0 -9 -65 -76q-60 -60 -99.5 -100t-60.5 -62q-59 -61 -111 -122t-100 -122q-20 -27 -29.5 -46t-11.5 -29q0 -3 1 -6.5t2 -9.5t1 -10.5v-6.5q-12 -32 -47 -34q-2 12 -3 20.5t-2 16.5q0 48 56 108l333 368q-85 -55 -132 -55t-47 49q0 39 32 92q32 44 53 54
q16 1 18 -10q-2 -2 -9.5 -10t-25.5 -29q-33 -40 -36 -79q0 -31 53 -33q40 0 124 69q83 68 95 69q10 0 11 -6zM167 289q0 -14 -11.5 -24.5t-31.5 -10.5q-19 0 -27 5t-8 20q0 13 13.5 23t32.5 10q15 0 23.5 -4.5t8.5 -18.5zM292 289q0 -13 -13 -22t-33 -9q-19 0 -25.5 8.5
t-6.5 19.5q0 14 14.5 21.5t33.5 7.5q20 0 25 -6.5t5 -19.5z" />
    <glyph glyph-name="dotlessi" unicode="&#x131;" horiz-adv-x="245" 
d="M289 164q0 -6 -5 -10q-54 -47 -87 -74t-48 -37q-88 -65 -134 -65q-28 0 -53 17q-23 16 -25 40q0 37 39 87q35 46 62 52q13 0 13 -9q0 -8 -32 -44q-28 -36 -30 -68q0 -40 37 -41q42 0 252 156q2 2 6 2q3 0 5 -6z" />
    <glyph glyph-name="Lslash" unicode="&#x141;" horiz-adv-x="1341" 
d="M1638 -124q-22 -18 -40.5 -28.5t-38.5 -15.5t-43.5 -7t-54.5 -2q-38 0 -79 5.5t-86 18.5q-8 1 -51 15t-123 39l-204 64q-147 -133 -278 -198q-182 -91 -397 -91q-47 0 -96.5 8.5t-90.5 31t-69 61t-31 97.5q0 58 33.5 111t101.5 94q118 71 245 71q80 0 171.5 -14.5
t195.5 -45.5q54 -16 108 -33.5t110 -36.5q14 14 31 31.5t37 41.5t44 55.5t51 72.5q-37 -15 -72.5 -30.5t-64 -28t-46.5 -20t-20 -7.5q-5 0 -5 6q0 12 4.5 24t10.5 18t24 14t41.5 16.5t50 17t50 16t41 13.5t22.5 9q12 16 36.5 48.5t55.5 71t65.5 79.5t67 75t59.5 56t43 23
q6 0 3 -20q-1 -12 -5 -28.5t-10 -39.5q-11 5 -19.5 7t-16.5 4q-31 -14 -63.5 -44.5t-63.5 -67t-59 -74.5t-49 -67q49 22 80 36.5t49 23.5t25.5 13t10.5 4q5 0 5 -8q0 -21 -19 -33.5t-55 -29.5q-28 -13 -61.5 -26.5t-72.5 -30.5q-67 -105 -108 -157.5t-60 -71.5l196 -65
q135 -45 231 -66.5t156 -23.5q31 0 46 5q6 2 17 6.5t26 14.5zM881 -22q-94 29 -155 47.5t-93 27.5q-103 30 -182.5 42.5t-136.5 12.5q-132 0 -220 -51q-107 -60 -107 -183q0 -32 15.5 -57t41.5 -43.5t59 -31t67 -20t66.5 -11t58.5 -3.5q169 0 326 80q119 61 260 190z" />
    <glyph glyph-name="lslash" unicode="&#x142;" horiz-adv-x="300" 
d="M458 635q0 -85 -147 -244q-46 -49 -97 -98t-110 -97q-72 -61 -178 -136q1 -21 34 -39q29 -16 68 -16q43 0 85.5 17.5t81.5 42.5t73.5 53t63.5 50q3 2 8 2q3 0 3 -6q0 -7 -3 -11q-45 -37 -81 -64.5t-65 -45.5q-107 -64 -184 -64q-136 0 -138 107q0 84 80 214
q-36 -15 -70 -29t-61 -24.5t-44 -16.5t-19 -6q-3 0 -3 8t4.5 17t10.5 15q3 3 27.5 11.5t57 20t67 23.5t56.5 21q47 68 99.5 127t114.5 111q129 111 210 111q24 0 40 -16q16 -15 16 -38zM412 624q0 20 -12.5 28t-38.5 8q-29 0 -68.5 -24.5t-93.5 -72.5q-54 -46 -97.5 -93
t-78.5 -98l-10 -14q15 7 31.5 15.5t32.5 17t29.5 15t21.5 11.5q7 4 11 6.5t6 2.5q3 0 5 -4t2 -8q0 -18 -21.5 -29.5t-54.5 -27.5q-20 -11 -42 -20.5t-45 -20.5q-13 -23 -23.5 -46.5t-19.5 -48.5q-25 -69 -28 -114q0 -13 5 -21q27 13 118 86q108 89 198 177q87 85 123 139
q50 73 50 136z" />
    <glyph glyph-name="OE" unicode="&#x152;" horiz-adv-x="1491" 
d="M989 704q5 -1 13 -4t17 -4q22 -2 41 -4t40.5 -4t48.5 -3.5t65 -1.5q45 0 77.5 2.5t55.5 6.5t39 8.5t29 7.5v-6q-8 -8 -32 -15.5t-54.5 -14.5t-62.5 -11t-55 -4q-77 0 -129 2.5t-76 3.5q10 -31 10 -75q0 -92 -55 -189l58.5 4.5t74.5 4.5q72 4 121.5 3.5t79.5 -0.5
q16 0 48 1.5t69 6.5l2 -6q-16 -9 -45 -17.5t-71 -10.5q-91 -3 -154.5 -5.5t-111.5 -7.5q-8 0 -69 -9l-25 -3q-9 -14 -19 -27t-21 -27q-55 -70 -125.5 -128.5t-155.5 -106.5l-14 -8q35 6 76.5 7t83.5 1q56 0 113 -11.5t126 -24.5q35 -6 61 -10t47.5 -6.5t41 -3t40.5 -0.5
q40 0 69.5 5.5t50 12t32 12t14.5 5.5q7 0 7 -7q0 -11 -18.5 -22t-46.5 -20t-61 -14.5t-62 -5.5q-23 0 -44 1.5t-45.5 4.5t-54.5 8.5t-72 13.5q-38 7 -70 11t-61 5.5t-56.5 2t-57.5 0.5q-66 0 -118.5 -0.5t-97.5 -11.5q-115 -43 -222 -44q-106 0 -175 69q-69 66 -70 170
q0 78 23.5 150t72.5 141q41 57 93 105t119 86q59 35 112 52.5t102 20.5v-13q-49 5 -156 -54q-65 -35 -117.5 -76.5t-94.5 -93.5q-54 -63 -79.5 -131t-26.5 -141q0 -109 67 -173q35 -32 79 -48.5t101 -18.5q138 0 290 85q75 41 135 91.5t109 113.5q10 13 18.5 25t16.5 25
q-26 0 -40 11q-31 23 -31 33q0 3 7 3q2 0 9 -0.5t20 -2.5t22 -3t15 -2h20q22 43 32.5 85t11.5 84q0 81 -65 139t-158 58q-44 0 -96 -17.5t-113 -54.5q-127 -74 -207 -182q-6 -6 -20 -3q147 189 283 250q34 15 55 23.5t31 11.5q42 14 94 14q120 0 185 -55q24 -21 37 -45z" />
    <glyph glyph-name="oe" unicode="&#x153;" horiz-adv-x="483" 
d="M257 156q0 10 -14 10q-7 0 -18.5 -6t-25.5 -22q-14 -14 -23.5 -33.5t-11.5 -31.5q5 2 14 6t15 8q29 18 46.5 36.5t17.5 32.5zM54 39q-13 7 -23 20.5t-10 34.5q0 17 7.5 33.5t19.5 27.5l-2 1q-24 -12 -45 -27t-37 -31t-25 -32.5t-9 -31.5q0 -37 29 -37q21 0 46 11t49 31z
M121 38q-11 -5 -22.5 -5.5t-23.5 -0.5q-5 -6 -22 -20.5t-36 -25.5q-23 -12 -42.5 -18.5t-38.5 -6.5q-23 0 -37 13t-14 36q0 29 18 54.5t56 59.5q37 32 73 47t59 15q51 0 51 -48q0 -13 -5.5 -26.5t-13.5 -25.5t-16.5 -21.5t-14.5 -14.5q8 1 15.5 1.5t16.5 5.5q9 35 48 81
q54 56 92 57q11 0 23 -4t12 -21q0 -19 -15.5 -35.5t-41.5 -36.5q-16 -13 -34 -23.5t-44 -21.5q-2 -27 21 -44q17 -11 37 -11q52 0 155 67q10 7 43 31t90 67q3 1 7 1q3 0 4 -6q0 -6 -4 -11q-52 -44 -88 -72t-57 -42q-100 -67 -181 -69q-36 0 -53 20t-17 54zM118 137
q0 15 -6 22t-13 7q-11 0 -18 -3.5t-15 -11.5q-9 -10 -13 -24.5t-5 -25.5q0 -35 23 -47q18 16 32.5 38t14.5 45z" />
    <glyph glyph-name="Scaron" unicode="&#x160;" horiz-adv-x="900" 
d="M947 662q0 -75 -72 -135q-73 -59 -156 -59q-30 0 -53 11q-19 12 -21 30q0 45 29 45q17 0 18 -13q0 -5 -5 -10q-2 -2 -2.5 -4.5t-1.5 -6.5q0 -13 15 -23q16 -10 40 -10q56 0 108 49q53 51 53 103q0 47 -48 80q-44 32 -116 32q-114 0 -250 -71q-146 -75 -146 -160
q0 -61 77 -92l270 -102q100 -37 100 -111q0 -114 -116 -185q-59 -34 -135 -51.5t-173 -18.5q-158 0 -272 54q-111 56 -111 134q0 63 84 90q37 10 40 -1q-3 -2 -8 -6q-5 -3 -11.5 -8t-14.5 -11q-33 -21 -34 -57q0 -81 95 -128q91 -45 255 -47q78 0 142.5 14t117.5 44
q104 57 104 143q0 67 -92 103l-267 107q-79 30 -80 107q0 105 141 192q142 88 309 88q89 0 138 -32q47 -31 49 -84zM636 954q0 12 7.5 22.5t15.5 10.5q6 0 10 -7l10 -17.5t14.5 -22.5t22.5 -23q20 -16 38.5 -25t40.5 -9q14 0 38 13.5t44 33.5q17 17 31.5 34.5t20.5 17.5
q8 0 8 -2.5v-9.5q0 -3 -6.5 -10t-17 -17.5t-24 -22.5t-27.5 -24q-6 -5 -17 -13t-23 -15.5t-23 -13t-16 -5.5q-6 0 -16.5 1t-24 5t-28.5 11.5t-29 20.5q-26 23 -37.5 38.5t-11.5 28.5z" />
    <glyph glyph-name="scaron" unicode="&#x161;" horiz-adv-x="306" 
d="M349 164q0 -6 -4 -11q-116 -95 -142 -112q-103 -66 -224 -68q-37 0 -59 15q-8 4 -36 32q0 7 2 11q-17 -10 -32.5 -18t-30.5 -14q-17 0 -18 5q0 3 2.5 7t7.5 11q47 23 96.5 55.5t102.5 74.5q0 1 1 3q28 22 60 24q50 0 50 -45q0 -30 -31 -71q-27 -37 -54 -53q62 0 163 64
q23 13 56 36.5t79 58.5q3 1 7 1q3 0 4 -6zM77 121q0 25 -26 25h-11t-8 -2q-38 -32 -70.5 -57.5t-60.5 -45.5q5 0 9 -2q34 -21 58 -23q21 0 41 9.5t37 30.5q15 17 22 32.5t9 32.5zM-7.46484 317.547q0 9.65234 6.2793 18.0977t12.9766 8.44531q5.02344 0 8.37305 -5.63086
q3.34863 -5.62988 8.37207 -14.0752t12.1396 -18.0967q7.11621 -9.65234 18.8369 -18.5q16.7451 -12.8691 32.2334 -20.1074q15.4883 -7.23926 33.9072 -7.23926q11.7207 0 31.8145 10.8584q20.0928 10.8584 36.8379 26.9443q14.2324 13.6738 26.3721 27.749
q12.1396 14.0762 17.1631 14.0762q6.69727 0 6.69727 -2.01074v-7.6416q0 -2.41309 -5.44141 -8.04297q-5.44238 -5.62988 -14.2334 -14.0752q-8.79004 -8.44629 -20.0928 -18.0977t-23.0234 -19.3037q-5.02344 -4.02148 -14.2324 -10.4561
q-9.20996 -6.43457 -19.2568 -12.4668q-10.0459 -6.03223 -19.2559 -10.4561q-9.20898 -4.42383 -13.3955 -4.42383q-5.02344 0 -13.8135 0.803711q-8.79102 0.804688 -20.0938 4.02148q-11.3027 3.21777 -23.8604 9.25q-12.5586 6.03223 -24.2793 16.4883
q-21.7686 18.5 -31.3965 30.9668t-9.62793 22.9229z" />
    <glyph glyph-name="Ydieresis" unicode="&#x178;" horiz-adv-x="1279" 
d="M1450 572q0 -8 -18 -26q-6 -5 -11.5 -10t-11.5 -12q-198 -238 -362.5 -456t-301.5 -420q-88 -134 -89 -164q0 -9 12 -17q12 -9 12 -13q0 -24 -19 -24q-10 0 -26 19t-18 32q0 43 54 126q45 67 74 109t43 62l341 440q-235 -184 -236 -184q-95 -69 -148 -69q-64 0 -106 95
q-17 35 -30 88.5t-24 125.5l-32 230q-9 79 -65 141q-60 66 -139 69q-100 0 -233 -60l3 19q18 13 43.5 26t60.5 27q84 31 142 33q66 0 139 -62q75 -68 99 -169q16 -91 31.5 -180t32.5 -180q17 -81 44 -120.5t65 -41.5q54 0 207 123q72 59 138 121.5t130 131.5q5 5 35 39
t86 99q57 67 67 67t11 -15zM965 666q0 -14 -11.5 -24.5t-31.5 -10.5q-19 0 -27 5t-8 20q0 13 13.5 23t32.5 10q15 0 23.5 -4.5t8.5 -18.5zM1090 666q0 -13 -13 -22t-33 -9q-19 0 -25.5 8.5t-6.5 19.5q0 14 14.5 21.5t33.5 7.5q20 0 25 -6.5t5 -19.5z" />
    <glyph glyph-name="florin" unicode="&#x192;" horiz-adv-x="302" 
d="M553 645q0 -43 -104 -164q-99 -113 -216 -203q-56 -44 -106.5 -77.5t-98.5 -56.5l-39 -69h166q20 0 20 -19q0 -8 -20 -11l-194 -8q-49 -65 -78.5 -102.5t-40.5 -48.5q-23 -28 -55 -63t-76 -79q-29 -29 -59 -55t-65 -49q-57 -38 -105.5 -57t-93.5 -19q-28 0 -47 15
q-20 14 -20 33q0 23 26 23q4 -3 8 -7q6 -7 23 -20q13 -11 24.5 -15.5t23.5 -6.5q21 0 50 11t69 34q75 44 142 113q41 42 80 87t77 94q67 91 70 112h-11q-24 0 -24 21q0 15 38 17h31q20 32 60.5 93.5t103.5 152.5q260 366 395 368q19 0 33 -13q13 -13 13 -31zM514 645
q0 23 -35 23q-33 0 -115 -72q-40 -36 -75 -75t-67 -81q-32 -45 -78 -111t-106 -154q24 16 58.5 38.5t82.5 52.5q102 62 215 185q120 129 120 194z" />
    <glyph glyph-name="circumflex" unicode="&#x2c6;" horiz-adv-x="306" 
d="M222 240q0 -8 -4.5 -14.5t-9.5 -6.5q-7 0 -16.5 10t-29.5 30q-35 36 -53 36q-10 0 -27 -8.5t-37 -25.5q-18 -15 -31.5 -28t-19.5 -13q-8 0 -8 2.5v9.5q0 5 19 20.5t48 38.5q15 12 35.5 24t37.5 12q11 0 25 -9t37 -30q25 -23 29.5 -33.5t4.5 -14.5z" />
    <glyph glyph-name="caron" unicode="&#x2c7;" horiz-adv-x="385" 
d="M52 682q0 12 7.5 22.5t15.5 10.5q6 0 10 -7l10 -17.5t14.5 -22.5t22.5 -23q20 -16 38.5 -25t40.5 -9q14 0 38 13.5t44 33.5q17 17 31.5 34.5t20.5 17.5q8 0 8 -2.5v-9.5q0 -3 -6.5 -10t-17 -17.5t-24 -22.5t-27.5 -24q-6 -5 -17 -13t-23 -15.5t-23 -13t-16 -5.5
q-6 0 -16.5 1t-24 5t-28.5 11.5t-29 20.5q-26 23 -37.5 38.5t-11.5 28.5z" />
    <glyph glyph-name="breve" unicode="&#x2d8;" horiz-adv-x="384" 
d="M343 343q0 -5 -5 -9q-14 -16 -36.5 -33.5t-50 -32t-57.5 -24t-59 -9.5q-11 0 -23.5 4.5t-22.5 13t-16.5 22t-6.5 32.5q0 9 3 21.5t9.5 24t17 20t24.5 8.5q19 0 19 -13q0 -10 -3.5 -17t-7.5 -13.5t-7 -14t-3 -17.5q0 -19 10.5 -31t40.5 -12q23 0 66 17t99 67h4q4 0 5 -4z
" />
    <glyph glyph-name="dotaccent" unicode="&#x2d9;" horiz-adv-x="222" 
d="M111 682q24 0 38.5 -14t14.5 -39t-14 -38.5t-39 -13.5q-23 0 -37.5 14.5t-14.5 37.5q0 24 14.5 38.5t37.5 14.5z" />
    <glyph glyph-name="ring" unicode="&#x2da;" horiz-adv-x="333" 
d="M281 707q0 -30 -12 -54t-33 -41t-48 -26t-57 -9q-40 0 -62.5 22t-22.5 56q0 28 13 50.5t35 38t50 23.5t58 8q33 0 56 -16.5t23 -51.5zM239 704q0 16 -6 26t-14.5 16t-18 8t-16.5 2q-14 0 -31 -6t-32 -18t-25.5 -29.5t-10.5 -40.5t11.5 -44t41.5 -21q23 0 41.5 8.5t32 23
t20.5 34t7 41.5z" />
    <glyph glyph-name="ogonek" unicode="&#x2db;" horiz-adv-x="315" 
d="M247 -89q-25 -23 -53 -39.5t-62 -16.5q-27 0 -45.5 18.5t-18.5 46.5q0 23 15.5 46.5t40.5 43.5h44q-21 -18 -35.5 -36.5t-14.5 -36.5q0 -17 11.5 -29t29.5 -12t38 11t34 25z" />
    <glyph glyph-name="tilde" unicode="&#x2dc;" horiz-adv-x="469" 
d="M413 330q0 -6 -15.5 -23t-38.5 -34q-18 -13 -38 -20.5t-41 -7.5q-25 0 -42 12t-37 32q-13 14 -27.5 24t-25.5 10q-28 0 -50 -15q-16 -10 -26 -18t-21 -20q-2 -2 -6 -4t-7 -2q-5 0 -5 8q0 3 4.5 8.5t10.5 12t13.5 12.5t13.5 10q20 14 41.5 23t46.5 9q17 0 33.5 -10
t31.5 -27q22 -24 37 -30.5t36 -6.5q17 0 30 5t23 12.5t17.5 17t13.5 17.5q3 5 7 11t12 6q5 0 7 -2t2 -10z" />
    <glyph glyph-name="hungarumlaut" unicode="&#x2dd;" horiz-adv-x="344" 
d="M184 742q6 0 11 -2t5 -8q0 -4 -5.5 -12t-14.5 -19t-19 -24.5t-19 -26.5q-18 -27 -37 -51.5t-41 -38.5q-3 -2 -10.5 -5.5t-12.5 -3.5q-4 0 -4 7q0 3 14.5 22t31.5 47q16 27 29.5 47t19.5 28q11 15 24 27.5t28 12.5z" />
    <glyph glyph-name="acutecomb" unicode="&#x301;" horiz-adv-x="2" 
d="M-50 358q0 -22 -6 -35q-5 -9 -41 -51q-20 -17 -34.5 -25t-26.5 -10q-5 0 -8 15q0 5 15 19q8 7 14.5 12.5t8.5 9.5q5 8 8.5 15t7.5 17q2 8 4.5 16.5t4.5 17.5q6 15 27 18q26 0 26 -19z" />
    <glyph glyph-name="afii10023" unicode="&#x401;" horiz-adv-x="894" 
d="M885 986q0 -32 -21 -56q-20 -21 -44 -21q-15 0 -15 33q0 20 17 40q16 22 39 22q24 0 24 -18zM706 986q0 -31 -22 -56q-20 -21 -43 -21q-17 0 -17 33q0 18 17 40q18 22 40 22t25 -18zM911 711q0 -61 -87 -120q-84 -58 -177 -60q-75 0 -75 49q0 31 35 37q29 3 29 -11v-4.5
t-2 -9.5q-1 -5 -1 -9.5v-6.5q3 -17 43 -18q72 0 133 43t61 90q0 37 -42 62q-41 24 -107 24q-63 0 -126.5 -18.5t-130.5 -56.5q-129 -78 -130 -152q0 -35 34 -79q17 -22 25 -36t10 -22q0 -31 -90 -77q-70 -34 -111 -56t-55 -32q-64 -44 -87 -65q-37 -40 -39 -99
q0 -62 47 -102q49 -40 124 -40q60 0 116 9.5t110 27.5q55 20 115 51t127 76q2 -1 3.5 -4.5t5.5 -9.5q-138 -100 -255 -143q-60 -22 -122 -32t-130 -11q-90 0 -140 40q-50 39 -51 109q0 40 15 73t44 62q30 32 132 88q32 18 64.5 35t65.5 35q61 34 61 49q0 12 -34 61
q-35 45 -35 75q0 86 162 181q162 92 316 93q32 0 58 -6.5t48 -21.5q43 -26 43 -68z" />
    <glyph glyph-name="afii10051" unicode="&#x402;" horiz-adv-x="877" 
d="M1034 767q-48 -28 -83 -30q-14 0 -26 0.5t-24 3.5l-482 123q-35 8 -65 13t-54 5q-18 0 -44 -4t-56 -12.5t-62 -21.5t-61 -31q-129 -74 -131 -173q0 -29 19.5 -57t51.5 -50t74 -35.5t86 -13.5q16 0 37 3t43.5 9t44 15t39.5 21q12 1 16 -11q-25 -18 -56.5 -30.5t-64 -20.5
t-63.5 -11.5t-55 -4.5q-93 0 -150 44t-59 124q0 109 136 197q34 22 73 38.5t78.5 28t78.5 17t74 5.5q112 1 322 -54q143 -36 232.5 -58t130.5 -29zM156 -122q13 0 27 -16.5t35 -36t52.5 -35.5t78.5 -16q67 0 133.5 19t119 64t85.5 119.5t33 185.5q0 64 -19 108t-49 72.5
t-67.5 44t-74.5 22.5t-70 8.5t-54 1.5q-29 -43 -59 -85q-26 -36 -55.5 -77.5t-55.5 -76.5l-221 -263q-17 -19 -31 -19q-6 0 -6 11q22 24 44 50q19 22 40 47t38 47q49 65 97.5 129.5t87.5 117.5q46 62 87 118q-22 2 -67.5 -5.5t-117.5 -25.5l-3 13q48 17 102.5 31t111.5 23
q69 91 139 164t139 121l-9 -22q-10 -9 -38.5 -39.5t-64 -69.5t-71.5 -80.5t-61 -73.5q20 0 54 -2t73 -10t78.5 -25t72 -47.5t52.5 -77t20 -112.5q0 -124 -40 -207t-104 -133t-142.5 -71t-156.5 -21q-46 0 -82.5 11.5t-62 27t-39 31.5t-13.5 26q0 23 12.5 28.5t21.5 5.5z" />
    <glyph glyph-name="afii10052" unicode="&#x403;" horiz-adv-x="985" 
d="M1257 663q-5 -5 -24 -15q-20 -7 -36 -8q-185 0 -248 38q-156 -212 -268.5 -358t-181.5 -225q-34 -38 -68 -72t-69 -65q-73 -61 -101 -63q-19 0 -20 26q0 12 9 26q12 14 24 15q2 0 11 -4q6 -3 18 -4q7 0 66 51q31 28 57.5 55.5t50.5 55.5q98 114 207 255t234 312
q-322 124 -399 125q-378 0 -380 -209q0 -71 65 -121q64 -48 154 -49q21 0 55 7.5t83 21.5q11 4 17 2q4 -1 1 -10q-110 -52 -185 -52q-92 0 -162 56q-35 27 -51.5 59.5t-18.5 70.5q0 117 126 192q124 75 324 75q91 0 412 -114q35 39 61.5 57.5t44.5 19.5q4 0 4 -8
q0 -2 -30 -25q-17 -13 -28.5 -25.5t-21.5 -25.5q17 -8 56.5 -16.5t103.5 -21.5q108 -20 108 -29zM1088 1076q0 -10 -9.5 -24t-14.5 -21q0 -1 -9.5 -13.5t-23.5 -31t-31 -40t-33 -39.5t-29 -30t-20 -12q-16 0 -17 13q0 7 15 28t35 46t40 49.5t31 38.5q21 28 32 38t20 10
q12 0 13 -1t1 -11z" />
    <glyph glyph-name="afii10053" unicode="&#x404;" horiz-adv-x="795" 
d="M82 346q-17 -60 -18 -120q0 -113 71 -179q71 -61 197 -64q35 0 75.5 8.5t88.5 27.5q23 8 49 19.5t57 25.5q43 24 50 26q6 0 6 -8q0 -18 -92 -63q-81 -38 -149.5 -56.5t-125.5 -20.5q-120 0 -197 68q-74 68 -74 182q0 77 28 154q-3 0 -6 0.5t-7 0.5q-8 1 -15 1h-13
q-3 0 -3 6q0 3 3 9q24 22 29 24h5.5t8.5 2q12 0 16 1q14 29 32 59.5t41 60.5q56 75 125.5 137t155.5 112q166 101 318 101q73 0 121 -36t48 -92q0 -20 -4 -43t-16 -49t-33.5 -53.5t-55.5 -54.5q-32 -26 -60.5 -40.5t-52 -21.5t-40 -8.5t-25.5 -1.5q-13 0 -31.5 8t-20.5 23
q0 17 16 33q8 8 16 11t16 4q5 -12 4.5 -21t9.5 -20q4 -5 14.5 -7.5t21.5 -2.5q38 0 73.5 20.5t74.5 63.5q26 29 35 62t9 65q0 123 -153 123q-133 0 -284 -85q-75 -43 -137 -96.5t-112 -119.5q-24 -32 -42 -65t-32 -66l53 2q16 0 46 1.5t62 2.5t60 2t39 1q13 0 13 -5
q0 -42 -91 -44z" />
    <glyph glyph-name="afii10054" unicode="&#x405;" horiz-adv-x="900" 
d="M947 662q0 -75 -72 -135q-73 -59 -156 -59q-30 0 -53 11q-19 12 -21 30q0 45 29 45q17 0 18 -13q0 -5 -5 -10q-2 -2 -2.5 -4.5t-1.5 -6.5q0 -13 15 -23q16 -10 40 -10q56 0 108 49q53 51 53 103q0 47 -48 80q-44 32 -116 32q-114 0 -250 -71q-146 -75 -146 -160
q0 -61 77 -92l270 -102q100 -37 100 -111q0 -114 -116 -185q-59 -34 -135 -51.5t-173 -18.5q-158 0 -272 54q-111 56 -111 134q0 63 84 90q37 10 40 -1q-3 -2 -8 -6q-5 -3 -11.5 -8t-14.5 -11q-33 -21 -34 -57q0 -81 95 -128q91 -45 255 -47q78 0 142.5 14t117.5 44
q104 57 104 143q0 67 -92 103l-267 107q-79 30 -80 107q0 105 141 192q142 88 309 88q89 0 138 -32q47 -31 49 -84z" />
    <glyph glyph-name="afii10055" unicode="&#x406;" horiz-adv-x="886" 
d="M1069 741q0 -110 -91 -270q-137 -240 -333 -375q-190 -134 -404 -136q-54 0 -97.5 14t-79.5 44q-68 56 -68 145q0 113 111 197q105 78 232 78q157 0 274 -43q121 -42 121 -98q0 -21 -6 -22l-14 7q-7 4 -16.5 9t-23.5 13q-31 17 -62.5 31t-63.5 25q-93 29 -191 29
q-68 0 -124.5 -13t-107.5 -41q-95 -54 -95 -131q0 -88 75 -145q38 -29 85 -42.5t107 -15.5q178 0 355 124q88 62 162 146.5t136 196.5q81 142 81 273q0 43 -37 70q-38 26 -100 26q-25 0 -43 -1t-29 -3q32 23 62 33t57 12q61 0 100 -46q28 -40 28 -91z" />
    <glyph glyph-name="afii10056" unicode="&#x407;" horiz-adv-x="886" 
d="M1069 741q0 -110 -91 -270q-137 -240 -333 -375q-190 -134 -404 -136q-54 0 -97.5 14t-79.5 44q-68 56 -68 145q0 113 111 197q26 19 61.5 34t71.5 24.5t67.5 14.5t50.5 5q36 0 63 -8.5t35 -37.5q-19 -2 -45 -1t-54 -2q-37 -4 -68.5 -7.5t-59.5 -9.5t-53.5 -14.5
t-50.5 -22.5q-95 -54 -95 -131q0 -88 75 -145q38 -29 85 -42.5t107 -15.5q178 0 355 124q88 62 162 146.5t136 196.5q81 142 81 273q0 43 -37 70q-38 26 -100 26q-25 0 -43 -1t-29 -3q31 25 61.5 34t57.5 11q61 0 100 -46q28 -40 28 -91zM1160 1021q0 -32 -21 -56
q-20 -21 -44 -21q-15 0 -15 33q0 20 17 40q16 22 39 22q24 0 24 -18zM981 1021q0 -31 -22 -56q-20 -21 -43 -21q-17 0 -17 33q0 18 17 40q18 22 40 22t25 -18z" />
    <glyph glyph-name="afii10057" unicode="&#x408;" horiz-adv-x="931" 
d="M903 735q0 -89 -87 -248q-51 -91 -123.5 -191t-170.5 -212l72 -28t72 -30q92 -42 92 -72q0 -14 -26 -14q-9 4 -21 10q-11 5 -26 12t-35 18q-91 46 -162 64q-115 -114 -202.5 -192t-147.5 -124q-174 -122 -323 -125q-57 0 -95 35q-20 16 -28.5 37.5t-9.5 48.5q0 78 85 169
q42 45 96 81.5t122 66.5q150 65 307 65q48 0 97 -5t101 -13q57 55 115 128t119 166q142 217 142 332t-134 115q-17 0 -37.5 -1.5t-47.5 -5.5q19 15 34 24.5t29 15.5q27 9 67 9q126 0 126 -136zM454 48q-95 19 -162 19q-112 0 -212 -23.5t-189 -72.5q-175 -97 -176 -218
q0 -42 39 -76q38 -32 91 -32q114 0 280 107q85 55 167 128.5t162 167.5z" />
    <glyph glyph-name="afii10058" unicode="&#x409;" horiz-adv-x="1436" 
d="M852 86q0 -62 39.5 -88.5t107.5 -26.5q74 0 131.5 19.5t101 49.5t74 67t49.5 72t27.5 63t8.5 42q0 39 -10 71.5t-31.5 56t-54.5 36.5t-79 13q-26 0 -52 -9t-48 -25.5t-35.5 -39.5t-13.5 -51q0 -25 14.5 -51t43 -43.5t71 -20.5t98.5 17v-3q0 -5 1 -6q3 -5 8 -4
q-14 -11 -40 -18t-56 -7.5t-61.5 6.5t-57 23t-41.5 42t-16 64q0 31 17.5 60t44 50.5t59 34.5t62.5 13q44 0 82 -13t65.5 -38.5t43.5 -62t16 -83.5q0 -82 -39.5 -147t-103.5 -110.5t-144 -70t-161 -25.5q-52 0 -86 12t-54.5 31t-29 43.5t-8.5 48.5q0 42 13 89.5t34 96
t47.5 95.5t53.5 90t52 79t43 61l-8 4q-24 -18 -62 -59.5t-84.5 -92t-98 -103t-101.5 -94.5q-42 -37 -83.5 -70t-82.5 -61q-84 -58 -164 -94t-155 -36q-73 0 -121 36q-24 18 -35 40.5t-13 51.5q0 110 135 220q130 104 242 104q14 0 32 -7.5t20 -23.5q0 -17 -16 -31.5
t-33 -15.5q-6 28 -12.5 37t-23.5 10q-47 4 -111.5 -25.5t-135.5 -101.5q-26 -25 -39.5 -60.5t-8.5 -72.5q8 -62 42 -92t112 -30q22 0 51 8t62 22t68 32.5t69 39.5q58 34 119.5 84t122.5 108t121 120.5t116 122t106 113t92 93.5l15 -11q-22 -32 -54.5 -81.5t-68 -108.5
t-71.5 -124.5t-64.5 -129t-46.5 -121.5t-18 -103z" />
    <glyph glyph-name="afii10059" unicode="&#x40a;" horiz-adv-x="1694" 
d="M901 267q-38 8 -296 78q-71 18 -129.5 27.5t-106.5 9.5q-69 0 -127.5 -14.5t-106.5 -45.5q-94 -58 -94 -152q0 -82 78 -134q41 -26 89.5 -39t108.5 -13q193 0 366 97q143 78 218 186zM1080 98q0 -62 39.5 -88.5t107.5 -26.5q74 0 131.5 19.5t101 49.5t74 67t49.5 72
t27.5 63t8.5 42q0 39 -10 71.5t-31.5 56t-54.5 36.5t-79 13q-26 0 -52 -9t-48 -25.5t-35.5 -39.5t-13.5 -51q0 -21 -3.5 -24.5t-9.5 -3.5q-8 0 -12.5 4t-6.5 9q-3 6 -4 14q0 31 17.5 60t44 50.5t59 34.5t62.5 13q44 0 82 -13t65.5 -38.5t43.5 -62t16 -83.5q0 -82 -39.5 -147
t-103.5 -110.5t-144 -70t-161 -25.5q-52 0 -86 12t-54.5 31t-29 43.5t-8.5 48.5q0 16 8 38.5t17.5 43.5t17 35.5l7.5 14.5l-141 34q-155 -159 -314.5 -237t-327.5 -79q-117 0 -197 62q-82 65 -82 154q0 56 30.5 103.5t90.5 89.5q119 81 286 82q83 0 301 -56
q109 -28 164.5 -41.5t61.5 -14.5q27 35 67.5 91.5t94.5 135.5q51 75 86 125t58 76q10 13 20.5 24.5t22.5 25.5q13 17 13 33q0 7 -6 18q-5 12 -5 20q0 11 50 35q23 11 36.5 15.5t20.5 5.5q10 0 10 -23q0 -9 -48 -60q-33 -36 -56 -61t-36 -42q-31 -39 -73.5 -99.5
t-97.5 -144.5q-55 -83 -85.5 -128t-37.5 -54l136 -31q21 35 41.5 70t42.5 69q101 160 182 273q81 114 131.5 169.5t71.5 57.5q12 0 15 -24q-15 -22 -79 -95q-69 -78 -107 -132q-32 -42 -67.5 -91.5t-71 -101t-68 -103t-58.5 -97.5q8 -2 19.5 -5.5t26.5 -8.5
q-15 -23 -35.5 -33t-43.5 -15q-21 -42 -28 -68t-7 -48z" />
    <glyph glyph-name="afii10060" unicode="&#x40b;" horiz-adv-x="1179" 
d="M609 216q-28 -44 -48.5 -78.5t-36.5 -67.5q-19 -40 -31.5 -73t-21.5 -57t-16 -37t-15 -13q-14 0 -16 7.5t-2 20.5q0 15 15.5 50t43 84.5t65.5 111t84 128.5q64 94 138.5 191t149.5 200q-322 124 -399 125q-378 0 -380 -209q0 -35 12 -66t38.5 -54t68 -36.5t100.5 -13.5
q21 0 55 7.5t83 21.5q11 4 17 2q4 -1 1 -10q-110 -52 -185 -52q-54 0 -96.5 14.5t-72 40t-46 59t-17.5 72.5q0 117 126 192q124 75 324 75q91 0 412 -114q35 39 61.5 57.5t44.5 19.5q4 0 4 -8q0 -2 -30 -25q-17 -13 -28.5 -25.5t-21.5 -25.5q17 -8 56.5 -16.5t103.5 -21.5
q108 -20 108 -29q-5 -5 -24 -15q-20 -7 -36 -8q-185 0 -248 38q-84 -114 -154.5 -208t-129.5 -170q19 13 34.5 24t32 21.5t35 22t42.5 25.5q85 50 143 71t103 22q30 0 49 -20q20 -20 20 -54q0 -25 -27.5 -122t-72.5 -264q0 -14 2 -21.5t4 -12t4 -8.5t2 -10q0 -7 -3.5 -15
t-9.5 -14.5t-13 -10.5t-14 -4q-14 0 -18 5t-4 17q0 28 6 56t14 56q5 22 16.5 70t31.5 123q20 81 21 120q0 28 -15 46q-14 21 -36 22q-9 0 -26 -2t-39 -8t-47.5 -16t-52.5 -26q-29 -18 -61.5 -38.5t-64 -43t-61 -47t-51.5 -48.5z" />
    <glyph glyph-name="afii10061" unicode="&#x40c;" horiz-adv-x="1469" 
d="M1288 941q0 -10 -9.5 -24t-14.5 -21q0 -1 -9.5 -13.5t-23.5 -31t-31 -40t-33 -39.5t-29 -30t-20 -12q-16 0 -17 13q0 7 15 28t35 46t40 49.5t31 38.5q21 28 32 38t20 10q12 0 13 -1t1 -11zM768 249q77 -50 206 -120t313 -163l-69 -23q-56 28 -107 54t-97 51
q-112 57 -188.5 101t-121.5 76q-60 -32 -128.5 -56.5t-146.5 -40.5q-60 -69 -103 -116.5t-71 -73.5q-68 -66 -187 -155q-3 4 -3 13q0 6 36 35q29 22 56 44.5t53 46.5q45 41 90.5 90.5t95.5 108.5q-54 -8 -93 -11.5t-65 -3.5q-54 0 -94.5 11t-69.5 36q-46 38 -47 100
q0 68 81 116q82 47 201 47q26 0 54 -3.5t58 -11.5q40 -9 150 -45l272 333l11 -23q-44 -54 -107 -134t-150 -188q20 -11 53.5 -29.5t82.5 -46.5q67 35 143.5 84t165.5 114q78 57 145 111.5t126 108.5q8 8 29 28.5t55 56.5q36 34 50 37q9 0 23 -8q10 -7 11 -14
q0 -44 -218 -216q-237 -183 -495 -321zM565 304q-21 -27 -47 -60.5t-58 -72.5q62 9 217 69zM541 311q-159 72 -291 72q-77 0 -135 -35q-55 -34 -55 -84q0 -47 55 -82q55 -33 139 -33q13 0 55 3t116 10z" />
    <glyph glyph-name="afii10062" unicode="&#x40e;" horiz-adv-x="1279" 
d="M1312 833q0 -6 -4 -10q-27 -23 -44 -37t-31 -25t-27.5 -21.5t-33.5 -26.5q-45 -37 -85 -54.5t-81 -17.5q-11 0 -28.5 4t-34.5 14.5t-29 29.5t-12 48q0 11 3.5 25.5t12 27.5t21.5 22t32 9q20 0 20 -22q0 -9 -4 -16t-9 -14.5t-9 -16.5t-4 -22q0 -59 62 -59q27 0 50 9
t52.5 29t70 51.5t102.5 77.5q1 2 6 2q3 0 4 -7zM1450 572q0 -8 -18 -26q-6 -5 -11.5 -10t-11.5 -12q-198 -238 -362.5 -456t-301.5 -420q-88 -134 -89 -164q0 -9 12 -17q12 -9 12 -13q0 -24 -19 -24q-10 0 -26 19t-18 32q0 43 54 126q45 67 74 109t43 62l341 440
q-235 -184 -236 -184q-95 -69 -148 -69q-64 0 -106 95q-17 35 -30 88.5t-24 125.5l-32 230q-9 79 -65 141q-60 66 -139 69q-100 0 -233 -60l3 19q18 13 43.5 26t60.5 27q84 31 142 33q66 0 139 -62q75 -68 99 -169q16 -91 31.5 -180t32.5 -180q17 -81 44 -120.5t65 -41.5
q54 0 207 123q72 59 138 121.5t130 131.5q5 5 35 39t86 99q57 67 67 67t11 -15z" />
    <glyph glyph-name="afii10145" unicode="&#x40f;" 
d="M1389 676q0 -5 -212 -307q-107 -149 -159.5 -232.5t-54.5 -103.5q0 -23 16 -23q2 0 4 0.5t6 2.5q9 0 12 2q-29 -38 -56 -38q-10 0 -19 8q-10 7 -10 17q0 39 96 187l113 178l-248 -238q-158 -144 -240 -145q-16 0 -29 6.5t-23 22.5q-18 25 -21 63q0 20 16 78t50 158
q33 98 49 167.5t16 112.5q0 111 -67 168q-66 57 -197 59q-32 0 -64 -7t-65 -24q-21 -10 -44 -24.5t-47 -34.5l-43 -31q-10 0 -13.5 2t-5.5 6q0 6 82 65q128 87 248 89q124 0 198 -68q75 -66 75 -178q0 -29 -16.5 -99t-51.5 -180q-32 -109 -48 -170.5t-18 -75.5q0 -24 16 -44
q16 -19 36 -19q65 0 325 246q114 109 182.5 180.5t93.5 107.5q61 88 74 104q23 29 34 29q9 0 10 -1v-16zM798 -23q0 -3 -5 -15t-11 -26.5t-11.5 -27t-6.5 -16.5q-8 -24 -15 -52t-13.5 -51t-12.5 -38.5t-12 -15.5h-8t-5 11q0 17 5.5 49t14 66.5t18 65.5t18.5 47q10 18 30 18
q11 0 12.5 -5t1.5 -10z" />
    <glyph glyph-name="afii10017" unicode="&#x410;" horiz-adv-x="1040" 
d="M918 448q0 -35 -3.5 -83.5t-10.5 -111.5q-13 -123 -30 -194q5 2 8 4t8 6q6 6 12 6q11 0 11 -8q0 -6 -43 -39l-6 -54q-1 -8 -5 -13.5t-11 -11.5q-11 -8 -25 -11q-7 0 -7 17q0 11 0.5 25t3.5 31q-107 -46 -188 -46q-53 0 -191 54t-174 54q-81 0 -161 -29
q-32 -12 -65.5 -29.5t-73.5 -42.5l-127 -82q-9 -5 -30 -7q-13 0 -13 12l37 17q32 17 79 48.5t110 80.5q36 27 94 81t140 135q78 78 141 143.5t114 122.5q123 140 247 140q91 0 131 -78q14 -26 20.5 -60t7.5 -77zM866 427q0 201 -129 201q-77 0 -169 -80q-16 -13 -176 -176
l-174 -178q-46 -45 -93 -86.5t-95 -79.5q49 21 80.5 34t46.5 18q52 15 122 15q37 0 93.5 -12t133.5 -39q77 -24 118.5 -36t49.5 -14q37 0 85 17q17 6 33 12.5t33 14.5l26 212q15 126 15 177z" />
    <glyph glyph-name="afii10018" unicode="&#x411;" horiz-adv-x="877" 
d="M1034 767q-48 -28 -83 -30q-14 0 -26 0.5t-24 3.5l-482 123q-35 8 -65 13t-54 5q-18 0 -44 -4t-56 -12.5t-62 -21.5t-61 -31q-129 -74 -131 -173q0 -29 19.5 -57t51.5 -50t74 -35.5t86 -13.5q63 0 164 48q12 1 16 -11q-74 -33 -132.5 -49t-106.5 -18q-93 0 -150 44
t-59 124q0 109 136 197q34 22 73 38.5t78.5 28t78.5 17t74 5.5q112 1 322 -54q143 -36 232.5 -58t130.5 -29zM71 -5q32 -3 64 -5t63 -2q102 0 198 17.5t199 62.5q184 76 184 174q0 36 -26.5 67t-77 54.5t-123.5 38t-166 17.5q-29 -43 -59 -85q-26 -36 -55.5 -77.5
t-55.5 -76.5q-21 -28 -46 -60t-47 -60q-26 -33 -52 -65zM164 400q27 10 50.5 18t55.5 19q24 8 54 10.5t54 6.5q69 91 139 164t139 121l-9 -22q-10 -9 -38.5 -39.5t-64 -69.5t-71.5 -80.5t-61 -73.5q26 0 66.5 -3t86 -11t91 -21.5t82.5 -35t60 -52t23 -71.5q0 -108 -230 -216
q-65 -30 -121.5 -49t-107.5 -29.5t-97.5 -14t-92.5 -3.5q-37 0 -69.5 2t-61.5 4l-118 -133q-17 -19 -31 -19q-6 0 -6 11l30 36q15 18 38 45t54 63q-42 8 -61.5 18t-19.5 19q0 11 8.5 18.5t25.5 7.5q6 0 15.5 -2.5t20.5 -5.5q14 -5 23 -7t20 -4q30 37 60 75q26 32 54 68.5
t51 68.5q22 29 48 65t48 67q26 36 51 73q-22 2 -67.5 -5.5t-117.5 -25.5z" />
    <glyph glyph-name="afii10019" unicode="&#x412;" horiz-adv-x="877" 
d="M918 691q0 -64 -58.5 -137t-175.5 -158q136 -73 136 -137q0 -110 -228 -216q-210 -95 -383 -97q-140 0 -169 7l-117 -133q-16 -19 -31 -19q-7 0 -7 10l124 145q-81 19 -81 37q0 24 33 25q7 0 16.5 -1.5t22.5 -6.5q11 -4 21.5 -5.5t21.5 -3.5l174 232q-172 18 -172 79
q0 56 119 95q27 10 56.5 17t61.5 13l96 16q137 180 251 253q91 57 202 59q35 0 60 -21q27 -20 27 -53zM873 662q0 26 -28 48q-26 18 -70 18q-107 0 -225 -111q-20 -20 -54 -60.5t-83 -103.5q32 0 70.5 -5t84.5 -16q25 -8 49 -14t49 -13q50 42 85.5 74.5t58.5 57.5
q61 70 63 125zM608 375q-75 21 -130 31t-91 12l-103 -142q93 6 203 45q43 14 73.5 27t47.5 27zM780 241q0 41 -63 83q-57 40 -86 40q-163 -91 -377 -130l-182 -241q64 -3 159 -3q185 0 364 76q185 78 185 175zM352 416q-21 2 -68 -5.5t-120 -24.5q-84 -20 -84 -52
q0 -23 71 -44q54 -16 97 -16z" />
    <glyph glyph-name="afii10020" unicode="&#x413;" horiz-adv-x="985" 
d="M1257 663q-5 -5 -24 -15q-20 -7 -36 -8q-185 0 -248 38q-156 -212 -268.5 -358t-181.5 -225q-34 -38 -68 -72t-69 -65q-73 -61 -101 -63q-19 0 -20 26q0 12 9 26q12 14 24 15q2 0 11 -4q6 -3 18 -4q7 0 66 51q31 28 57.5 55.5t50.5 55.5q98 114 207 255t234 312
q-322 124 -399 125q-378 0 -380 -209q0 -71 65 -121q64 -48 154 -49q21 0 55 7.5t83 21.5q11 4 17 2q4 -1 1 -10q-110 -52 -185 -52q-92 0 -162 56q-35 27 -51.5 59.5t-18.5 70.5q0 117 126 192q124 75 324 75q91 0 412 -114q35 39 61.5 57.5t44.5 19.5q4 0 4 -8
q0 -2 -30 -25q-17 -13 -28.5 -25.5t-21.5 -25.5q17 -8 56.5 -16.5t103.5 -21.5q108 -20 108 -29z" />
    <glyph glyph-name="afii10021" unicode="&#x414;" horiz-adv-x="952" 
d="M972 424q0 -120 -103 -236q-49 -54 -112.5 -98t-142.5 -79q-157 -68 -317 -68q-56 0 -117.5 9.5t-130.5 28.5q-134 40 -135 71q0 26 29 26q4 -1 8 -4q4 -2 9.5 -5t13.5 -7q18 -9 39 -17.5t45 -16.5q34 -10 71.5 -18t82.5 -15q51 31 89 57t65 48q35 29 68 62.5t65 74.5
q29 38 89 124t153 222q11 0 14 -18q-21 -41 -78.5 -124.5t-152.5 -211.5q-36 -51 -109 -116q-84 -76 -171 -123l123 -4q197 0 380 124q187 126 187 284q0 81 -68 167q-17 20 -56 59t-103 99l-124 108q-23 25 -34.5 50t-12.5 54q0 83 11 86h15q-3 -15 -3 -29q0 -34 17 -67.5
t52 -71.5q35 -30 70.5 -61t70.5 -61q60 -56 94.5 -88t43.5 -42q63 -78 65 -173z" />
    <glyph glyph-name="afii10022" unicode="&#x415;" horiz-adv-x="846" 
d="M911 711q0 -62 -87 -120q-84 -58 -177 -60q-75 0 -75 49q0 31 35 37q29 3 29 -11v-5t-2 -9q-1 -5 -1 -9.5v-6.5q3 -18 43 -19q72 0 133 43q61 45 61 91q0 37 -42 62q-41 23 -107 24q-63 0 -126.5 -18.5t-130.5 -57.5q-129 -78 -130 -151q0 -34 34 -80q17 -21 25 -35.5
t10 -22.5q0 -31 -90 -76q-70 -35 -111 -56.5t-55 -31.5q-64 -45 -87 -65q-37 -40 -39 -99q0 -62 47 -103q49 -39 124 -39q60 0 116 9.5t110 27.5q109 39 242 127q1 0 9 -15q-138 -99 -255 -143q-60 -21 -122 -31t-130 -12q-88 0 -140 41q-50 39 -51 109q0 76 59 135
q16 16 48.5 38t83.5 50l130 69q61 35 61 49q0 13 -34 62q-35 45 -35 75q0 86 162 181q81 46 159.5 68.5t156.5 24.5q63 0 106 -28t43 -68z" />
    <glyph glyph-name="afii10024" unicode="&#x416;" horiz-adv-x="1177" 
d="M107 -39q-34 0 -64 14t-52.5 39t-36.5 59.5t-15 75.5l6 2q8 -37 20 -67t30 -51.5t44 -33t61 -11.5q50 0 84.5 13t70 42t81.5 76t118 116q7 6 19 17.5t27 25t31.5 29.5t32.5 31q38 36 82 77q-17 64 -42.5 120t-59.5 97t-77 65t-94 24q-58 0 -119.5 -31.5t-128.5 -88.5
l-6 12q42 41 79 69.5t70 45.5q62 32 146 32q88 0 153.5 -72t107.5 -212l62 223q4 17 5 25.5t1 16.5q0 13 11.5 19.5t27.5 6.5q11 0 22 -4.5t11 -17.5q0 -8 -7.5 -23t-18.5 -38q-5 -11 -9.5 -20t-9.5 -21.5t-12 -30.5t-17 -46l-41 -112l216 170q29 23 61.5 42t66.5 31.5
t69 17t69 -1.5l4 -13q-35 4 -69 -3.5t-65.5 -22t-60.5 -34t-54 -38.5l-239 -187q6 -23 21.5 -61t33.5 -79.5t35 -80t27 -60.5q12 -28 27 -60.5t34.5 -60.5t45 -46.5t58.5 -18.5q24 0 43.5 7.5t38 22t37.5 35t42 46.5l12 -8q-25 -33 -47.5 -56.5t-45 -39t-47 -23t-53.5 -7.5
q-30 0 -53.5 9.5t-42.5 26t-33.5 38.5t-27.5 46q-25 46 -49 102t-44 105q-23 57 -44 114l-29 -75q-28 -72 -45.5 -122.5t-27.5 -85.5t-15 -57.5t-7 -37t-3.5 -24.5t-4.5 -20q-17 -3 -22 10q-4 5 -4 14q-2 15 4 46.5t18.5 74.5t32 95.5t43.5 109.5l33 78q-15 -14 -36 -34
t-44.5 -42.5t-47.5 -46t-45 -43.5q-42 -42 -83 -85.5t-84 -79t-90.5 -58t-101.5 -22.5z" />
    <glyph glyph-name="afii10025" unicode="&#x417;" horiz-adv-x="662" 
d="M721 614q0 -95 -223 -209q58 -6 94 -40.5t36 -82.5q0 -31 -17 -66.5t-47.5 -71t-73 -68t-92.5 -57.5q-56 -28 -110.5 -42t-121.5 -14q-125 0 -211 110l7 1q36 -27 65 -45t53 -28q45 -16 109 -17q145 0 266 88t121 195q0 25 -9 47t-25 38t-38 25.5t-47 9.5
q-148 -58 -177 -58q-17 0 -27.5 7t-7.5 25q2 15 40 33t105 18q44 0 68 -3q51 23 89 48.5t63.5 50t38.5 47t13 40.5q0 21 -10 34t-27 19.5t-39.5 8.5t-46.5 2q-22 0 -52.5 -6t-69.5 -21.5t-86.5 -41.5t-102.5 -65l-2 7l74 59q72 54 152 79.5t158 25.5q56 0 83.5 -22t27.5 -60
zM416 390q-7 2 -22.5 2h-34.5q-38 0 -63 -10t-25 -23q0 -4 1.5 -5.5t9.5 -1.5q10 0 28 4t38.5 10t39 12.5t28.5 11.5z" />
    <glyph glyph-name="afii10026" unicode="&#x418;" 
d="M1389 676q0 -5 -212 -307q-107 -149 -159.5 -232.5t-54.5 -103.5q0 -23 16 -23q2 0 4 0.5t6 2.5q9 0 12 2q-29 -38 -56 -38q-10 0 -19 8q-10 7 -10 17q0 39 96 187l113 178l-248 -238q-158 -144 -240 -145q-16 0 -29 6.5t-23 22.5q-18 25 -21 63q0 20 16 78t50 158
q33 98 49 167.5t16 112.5q0 111 -67 168q-66 57 -197 59q-32 0 -64 -7t-65 -24q-21 -10 -44 -24.5t-47 -34.5l-43 -31q-10 0 -13.5 2t-5.5 6q0 6 82 65q128 87 248 89q124 0 198 -68q75 -66 75 -178q0 -29 -16.5 -99t-51.5 -180q-32 -109 -48 -170.5t-18 -75.5q0 -24 16 -44
q16 -19 36 -19q65 0 325 246q114 109 182.5 180.5t93.5 107.5q61 88 74 104q23 29 34 29q9 0 10 -1v-16v0z" />
    <glyph glyph-name="afii10027" unicode="&#x419;" 
d="M1332 908q0 -6 -4 -10q-27 -23 -44 -37t-31 -25t-27.5 -21.5t-33.5 -26.5q-45 -37 -85 -54.5t-81 -17.5q-11 0 -28.5 4t-34.5 14.5t-29 29.5t-12 48q0 11 3.5 25.5t12 27.5t21.5 22t32 9q20 0 20 -22q0 -9 -4 -16t-9 -14.5t-9 -16.5t-4 -22q0 -59 62 -59q27 0 50 9
t52.5 29t70 51.5t102.5 77.5q1 2 6 2q3 0 4 -7zM1389 676q0 -5 -212 -307q-107 -149 -159.5 -232.5t-54.5 -103.5q0 -23 16 -23q2 0 4 0.5t6 2.5q9 0 12 2q-29 -38 -56 -38q-10 0 -19 8q-10 7 -10 17q0 39 96 187l113 178l-248 -238q-158 -144 -240 -145q-16 0 -29 6.5
t-23 22.5q-18 25 -21 63q0 20 16 78t50 158q33 98 49 167.5t16 112.5q0 111 -67 168q-66 57 -197 59q-32 0 -64 -7t-65 -24q-21 -10 -44 -24.5t-47 -34.5l-43 -31q-10 0 -13.5 2t-5.5 6q0 6 82 65q128 87 248 89q124 0 198 -68q75 -66 75 -178q0 -29 -16.5 -99t-51.5 -180
q-32 -109 -48 -170.5t-18 -75.5q0 -24 16 -44q16 -19 36 -19q65 0 325 246q114 109 182.5 180.5t93.5 107.5q61 88 74 104q23 29 34 29q9 0 10 -1v-16z" />
    <glyph glyph-name="afii10028" unicode="&#x41a;" horiz-adv-x="1469" 
d="M768 248q77 -50 206 -120t313 -163l-69 -23q-56 28 -107 54t-97 51q-112 57 -188.5 101t-121.5 76q-60 -32 -128.5 -56.5t-146.5 -40.5q-60 -69 -103 -116.5t-71 -73.5q-68 -66 -187 -155q-3 4 -3 13q0 6 36 35q29 22 56 44.5t53 46.5q45 41 90.5 90.5t95.5 108.5
q-54 -8 -93 -11.5t-65 -3.5q-54 0 -94.5 11t-69.5 36q-46 38 -47 100q0 68 81 116q82 47 201 47q26 0 54 -3.5t58 -11.5q40 -9 150 -45l272 333l11 -23q-44 -54 -107 -134t-150 -188q20 -11 53.5 -29.5t82.5 -46.5q67 35 143.5 84t165.5 114q78 57 145 111.5t126 108.5
q8 8 29 28.5t55 56.5q36 34 50 37q9 0 23 -8q10 -7 11 -14q0 -44 -218 -216q-237 -183 -495 -321zM565 303q-21 -27 -47 -60.5t-58 -72.5q62 9 217 69zM541 310q-159 72 -291 72q-77 0 -135 -35q-55 -34 -55 -84q0 -47 55 -82q55 -33 139 -33q13 0 55 3t116 10z" />
    <glyph glyph-name="afii10029" unicode="&#x41b;" horiz-adv-x="1436" 
d="M518 113q-84 -58 -164 -94t-155 -36q-36 0 -67 7.5t-53.5 23t-35.5 39.5t-13 58q0 33 8.5 61t25.5 54t42 52t59 53q130 104 242 104q24 0 38 -7t14 -24q0 -20 -16 -33t-33 -14q-2 23 -10.5 35t-25.5 12q-48 0 -112 -27.5t-135 -99.5q-26 -25 -37 -62t-11 -71
q0 -122 154 -122q25 0 55.5 7t62.5 20.5t65.5 32t66.5 42.5q53 38 119 96.5t143 123.5q49 41 88 73.5t77 65.5q94 77 169 143t135 124q14 0 15 -11q-329 -294 -331 -521q0 -45 16.5 -83t47 -65.5t74 -42.5t96.5 -15q42 0 85.5 9t91.5 31q28 13 47.5 24.5t37.5 25t37.5 30.5
t47.5 41l13 -4q-58 -55 -107 -92.5t-95.5 -60t-93.5 -32t-101 -9.5q-60 0 -105.5 17t-76.5 47t-47 70.5t-16 88.5q0 28 5 56.5t17.5 61.5t34 73.5t54.5 93.5q-47 -37 -112 -96.5t-165 -142.5q-42 -37 -83.5 -70t-82.5 -61z" />
    <glyph glyph-name="afii10030" unicode="&#x41c;" horiz-adv-x="1699" 
d="M1410 13q48 0 88 7.5t80 26t84 49t98 77.5l13 -4q-58 -55 -107 -93t-95.5 -61t-93.5 -32.5t-101 -7.5q-54 1 -99 17t-77 44.5t-50 68.5t-19 90q0 31 5 60.5t17.5 62.5t34 73t54.5 92q-24 -18 -54 -46.5t-64.5 -63t-73 -73.5t-78.5 -79q-13 -13 -34.5 -35t-46.5 -47
t-51 -50.5t-49 -46.5t-40 -35t-23 -15l-16 2q-7 0 -2 29t18.5 74.5t33 100t41.5 105.5q13 30 37 79t56 101q-41 -30 -89.5 -74t-105 -94.5t-119 -103t-129.5 -98.5q-83 -58 -163 -94t-156 -36q-72 0 -119.5 35t-49.5 93q0 110 135 220q130 104 243 104q7 0 15.5 -2t16 -5.5
t13.5 -9.5t7 -14q0 -17 -16.5 -31.5t-33.5 -15.5q-6 28 -12.5 35.5t-23.5 11.5q-24 6 -59 -6t-70 -32t-64.5 -43t-43.5 -39q-25 -26 -41 -63t-17 -77q0 -122 154 -122q22 0 51 8t62 22t68 32.5t69 39.5q45 27 96 69t105.5 90.5t111.5 100.5t115 99q94 75 168.5 142
t134.5 125q14 0 15 -11q-54 -48 -105 -107.5t-96 -124t-82.5 -130.5t-66 -127.5t-46 -115t-21.5 -92.5q12 8 33 28t42 41.5t38 39.5t21 22q75 77 153.5 156t156.5 154q88 82 165.5 145.5t138.5 121.5q14 0 15 -11q-331 -294 -331 -521q0 -45 16 -82.5t46 -64.5t72.5 -42
t96.5 -16z" />
    <glyph glyph-name="afii10031" unicode="&#x41d;" horiz-adv-x="1406" 
d="M1599 896q-15 -22 -79 -95q-69 -78 -107 -132q-73 -98 -139 -195.5t-129 -199.5q21 -9 249 -36v-16l-288 -4l-60 -93v-22q0 -10 -7 -18q-6 -8 -13 -8q-6 0 -8 2t-4 7q0 10 7.5 28.5t21.5 49.5q28 56 30 58l-141 34q-155 -159 -314.5 -237t-327.5 -79q-117 0 -197 62
q-82 65 -82 154q0 56 30.5 103.5t90.5 89.5q119 81 286 82q83 0 301 -56q109 -28 164.5 -41.5t61.5 -14.5q27 35 67.5 91.5t94.5 135.5q51 75 86 125t58 76q10 13 20.5 24.5t22.5 25.5q13 17 13 33q0 7 -6 18q-5 12 -5 20q0 11 50 35q23 11 36.5 15.5t20.5 5.5q10 0 10 -23
q0 -9 -48 -60q-33 -36 -56 -61t-36 -42q-31 -39 -73.5 -99.5t-97.5 -144.5q-55 -83 -85.5 -128t-37.5 -54l136 -31q21 35 41.5 70t42.5 69q101 160 182 273q81 114 131.5 169.5t71.5 57.5q12 0 15 -24zM901 267q-38 8 -296 78q-71 18 -129.5 27.5t-106.5 9.5
q-69 0 -127.5 -14.5t-106.5 -45.5q-94 -58 -94 -152q0 -82 78 -134q41 -26 89.5 -39t108.5 -13q193 0 366 97q143 78 218 186z" />
    <glyph glyph-name="afii10032" unicode="&#x41e;" horiz-adv-x="911" 
d="M1016 588q0 -67 -29 -137t-89 -145q-55 -70 -125.5 -128.5t-155.5 -106.5q-89 -49 -173.5 -73t-165.5 -26q-106 0 -175 69q-69 66 -70 170q0 78 23.5 150t72.5 141q41 57 93 105t119 86q59 35 112 52.5t102 20.5v-13q-49 5 -156 -54q-65 -35 -117.5 -76.5t-94.5 -93.5
q-54 -63 -79.5 -131t-26.5 -141q0 -109 67 -173q35 -32 79 -48.5t101 -18.5q138 0 290 85q75 41 135 91.5t109 113.5q99 129 101 258q0 81 -65 139t-158 58q-44 0 -96 -17.5t-113 -54.5q-127 -74 -207 -182q-6 -6 -20 -3q147 189 283 250q34 15 55 23.5t31 11.5q42 14 94 14
q120 0 185 -55q64 -55 64 -161z" />
    <glyph glyph-name="afii10033" unicode="&#x41f;" horiz-adv-x="1094" 
d="M1064 652q0 -49 -90 -380q-17 -60 -29.5 -122t-22.5 -128q-26 4 -33 21q-2 6 -4 31q0 53 19 120q7 27 14.5 54.5t15.5 55.5q5 22 16.5 70t31.5 123q20 81 21 120q0 28 -15 46q-14 21 -36 22q-18 0 -51 -19.5t-81 -60.5q-48 -39 -92.5 -85.5t-89.5 -100.5q-37 -45 -74 -89
t-74 -89q-33 -38 -61.5 -74.5t-54.5 -72.5q-27 -40 -44 -63t-24 -33q-11 -14 -21 -20.5t-18 -7.5q-9 0 -9 8q0 17 79 130q151 212 214 331q57 114 57 190q0 31 -8 55t-27 44q-32 33 -79 33q-36 0 -79 -13.5t-96 -39.5q-89 -44 -143 -97q-8 -8 -23 -24t-40 -43
q-14 -16 -23 -23t-13 -9q-5 0 -6 9q0 11 91 101q80 80 183 131q50 26 95 38t87 13q60 0 99 -39q20 -18 28 -42.5t10 -56.5q0 -28 -5 -56.5t-16 -58.5q-10 -30 -29.5 -71.5t-50.5 -96.5q51 51 99.5 101.5t99.5 103.5q141 136 233 138q30 0 49 -20q20 -20 20 -54z" />
    <glyph glyph-name="afii10034" unicode="&#x420;" horiz-adv-x="829" 
d="M1283 945q0 -94 -159 -224q-110 -92 -292 -157q-176 -65 -324 -65h-72t-50 2q-40 -60 -91 -131t-115 -155q-36 -47 -77 -90.5t-90 -87.5q-89 -78 -114 -78q-20 0 -22 26q0 8 10 25q8 13 21 15q9 0 15 -5q3 -3 13 -5q32 0 216 223q88 107 138 173t65 95q-111 19 -184 49
q-19 8 -21 28q0 16 30 16q18 0 84 -20q78 -21 116 -29q64 92 135.5 171t152.5 149q232 201 432 201q86 0 133 -34q25 -17 36.5 -39.5t13.5 -52.5zM1233 912q3 48 -45 82q-47 31 -121 34q-300 0 -657 -486h121q127 0 292 54q169 54 281 134q124 90 129 182z" />
    <glyph glyph-name="afii10035" unicode="&#x421;" horiz-adv-x="795" 
d="M907 732q0 -112 -135 -220q-128 -104 -242 -104q-13 0 -30 7q-21 9 -22 24q0 17 16 33q8 8 16 11t16 4q5 -16 8.5 -26t5.5 -15q7 -6 23 -7q35 0 70 11t72 36q38 24 64.5 43.5t40.5 36.5q24 27 35.5 60t12.5 73q0 123 -153 123q-133 0 -284 -85q-75 -43 -137 -96.5
t-112 -119.5q-107 -146 -108 -295q0 -113 71 -179q71 -61 197 -64q35 0 75.5 8.5t88.5 27.5q23 8 49 19.5t57 25.5q43 24 50 26q6 0 6 -8q0 -18 -92 -63q-81 -38 -149.5 -56.5t-125.5 -20.5q-120 0 -197 68q-74 68 -74 182q0 157 119 318q56 75 125.5 137t155.5 112
q166 101 318 101q73 0 121 -36q46 -34 48 -92z" />
    <glyph glyph-name="afii10036" unicode="&#x422;" horiz-adv-x="1399" 
d="M1392 659q0 -20 -77 -257q-78 -233 -78 -312v-12t2 -15v-13.5t2 -14.5q0 -5 -12 -11q-6 -2 -10.5 -2h-8.5q-13 2 -19.5 16.5t-6.5 46.5q0 41 9.5 90.5t30.5 110.5q17 48 35.5 97t38.5 100q39 105 40 157q0 37 -54 38q-68 0 -191 -114q-85 -81 -168.5 -163t-169.5 -165
q-5 -5 -33.5 -37.5t-79.5 -94.5q-90 -106 -103 -109q-8 0 -10 2v8q0 9 1 12q0 13 113 154q63 79 97.5 123.5t42.5 57.5q102 161 103 206q0 14 -11 28q-10 13 -23 13q-71 0 -252 -153q-82 -71 -155 -144t-137 -151q-137 -164 -157 -167q-1 0 -4 8q0 15 42 68q21 26 42.5 51
t43.5 51q53 66 98 129t84 128q47 78 69 134.5t24 94.5q0 49 -41 84q-38 32 -97 35q-90 0 -177 -51q-59 -37 -122 -100q-17 -19 -34.5 -38t-35.5 -38l-11 7l89 104q68 73 132 109q86 52 185 52q70 0 118 -37q46 -34 46 -97q0 -68 -18 -116q-11 -31 -36 -76t-65 -106
q88 80 154.5 133.5t113.5 82.5q69 42 128 44q14 0 26 -4t21 -13q10 -8 14 -19.5t5 -26.5q0 -52 -120 -239q122 118 200 192t114 105q60 48 108.5 70.5t89.5 24.5q53 0 55 -71z" />
    <glyph glyph-name="afii10037" unicode="&#x423;" horiz-adv-x="1279" 
d="M1450 572q0 -8 -18 -26q-6 -5 -11.5 -10t-11.5 -12q-198 -238 -362.5 -456t-301.5 -420q-88 -134 -89 -164q0 -9 12 -17q12 -9 12 -13q0 -24 -19 -24q-10 0 -26 19t-18 32q0 43 54 126q45 67 74 109t43 62l341 440q-235 -184 -236 -184q-95 -69 -148 -69q-64 0 -106 95
q-17 35 -30 88.5t-24 125.5l-32 230q-9 79 -65 141q-60 66 -139 69q-100 0 -233 -60l3 19q18 13 43.5 26t60.5 27q84 31 142 33q66 0 139 -62q75 -68 99 -169q16 -91 31.5 -180t32.5 -180q17 -81 44 -120.5t65 -41.5q54 0 207 123q72 59 138 121.5t130 131.5q5 5 35 39
t86 99q57 67 67 67t11 -15z" />
    <glyph glyph-name="afii10038" unicode="&#x424;" horiz-adv-x="943" 
d="M754 807q48 6 88 6q67 0 113 -16.5t74 -46.5t40.5 -71.5t12.5 -90.5q0 -62 -29.5 -132t-82.5 -139t-126.5 -132.5t-161.5 -113.5q-79 -44 -171.5 -72.5t-187.5 -28.5q-28 0 -55 3q-13 -22 -24 -46.5t-17 -40.5q-3 -8 -2 -29t4 -35q-13 -33 -37 -43q-5 -2 -8.5 0.5t-6 7
t-4.5 10.5t-2 11q-1 17 5.5 38.5t16 44t21 44.5t20.5 42q-50 6 -86.5 28.5t-60.5 56t-36 76.5t-12 91q0 68 23 139t68 134q38 54 88.5 98t107 77.5t115.5 56t115 32.5v-13q-30 0 -77 -17t-98.5 -47t-103 -71t-90.5 -89q-52 -63 -79 -135t-27 -140q0 -42 10.5 -79.5
t32.5 -67.5t55.5 -51t78.5 -30q18 37 38 76.5t45 86.5t57.5 103t76 125t100 154t129.5 190q-50 -12 -87.5 -22t-71 -23t-67 -32.5t-76.5 -52.5l-6 11q35 30 77.5 55t82 44t71 31.5t46.5 17.5q11 4 27.5 8t34.5 6l54 75q2 0 -3 16q-5 8 10 16q19 11 27 15t11 2
q-4 -13 -9.5 -25t-12.5 -23q-15 -17 -28.5 -35t-29.5 -38zM292 20q8 -1 17 -2t19 -1q35 0 80.5 5.5t94 16t95.5 26.5t85 37q76 42 139.5 96t109.5 114.5t71.5 125t25.5 127.5q0 52 -17 90.5t-48.5 64t-75 37.5t-96.5 12q-16 0 -32.5 -1t-33.5 -3q-134 -205 -245.5 -393.5
t-188.5 -351.5z" />
    <glyph glyph-name="afii10039" unicode="&#x425;" horiz-adv-x="1028" 
d="M1074 768q-40 -24 -70 -47t-51 -44q-20 -21 -39.5 -42t-40.5 -42l-180 -181q12 -45 23 -90.5t22 -93.5q14 -50 29 -94.5t34 -83.5q6 -14 30 -25q22 -10 49 -7v-4q-13 -8 -25 -11t-23 -5q-45 0 -76 40q-13 16 -23.5 42t-21.5 64l-59 224l-164 -163q-85 -84 -135 -131.5
t-66 -61.5q-123 -111 -179 -111q-18 0 -21 15q0 11 9 19q8 11 17 11q1 0 13 -5q5 -2 10.5 -2h12.5q77 27 332 291q29 26 69 67.5t93 99.5q-33 144 -82 218q-35 54 -81.5 79.5t-106.5 26.5q-116 0 -248 -113l-6 5q85 82 149 114q31 17 67.5 24.5t78.5 7.5q192 0 273 -322
l168 171l46.5 46.5t46.5 48.5q47 42 117 76z" />
    <glyph glyph-name="afii10040" unicode="&#x426;" 
d="M927 -15q-11 5 -11 18q0 36 97 187q54 85 81.5 128t30.5 48l-248 -237q-157 -145 -240 -145q-38 0 -55.5 18.5t-17.5 73.5q0 20 16 78t50 158q33 98 49 167.5t17 111.5q0 111 -67 169.5t-198 58.5q-49 0 -94.5 -18t-82 -40.5t-59.5 -41.5t-27 -21q-16 0 -19 8
q0 2 12.5 14t34.5 29t53 35.5t68 35t78 27.5t85 13q61 2 111 -15t86 -49.5t55.5 -79t19.5 -102.5q0 -60 -67 -279q-33 -109 -50 -170.5t-17 -76.5q0 -32 16 -47.5t36 -15.5q67 0 325 248q227 217 277 287q30 44 47.5 69.5t25.5 33.5q22 30 35 31q4 0 8 -6.5t1 -11.5
q-4 -7 -17.5 -27.5t-39 -57t-64 -91.5t-91.5 -130q-107 -150 -159.5 -234t-54.5 -104q0 -22 16 -22q1 0 17 5t35 11.5t36 12.5t19 7q-2 -7 -10.5 -31.5t-23.5 -58.5t-36 -73t-46 -75q-39 -51 -68.5 -83.5t-52.5 -52.5q-20 -17 -35 -22.5t-21 -3.5q-2 2 -4 5t0 8q-4 9 4 20
q5 3 12.5 8.5t17.5 12.5q28 21 55 43.5t52 54.5q11 14 27.5 36.5t33.5 50.5t32.5 61t24.5 69q-9 -6 -28 -12t-39 -11t-36 -7.5t-18 0.5z" />
    <glyph glyph-name="afii10041" unicode="&#x427;" horiz-adv-x="1187" 
d="M978 10q5 0 11 1.5t16 6.5l3 -3q-13 -16 -30 -27t-34 -11q-11 0 -20.5 6t-9.5 19q0 36 98 187q13 21 32.5 49.5t41.5 61.5t45.5 68t46.5 68q54 78 113 164q-28 -22 -67 -49.5t-81 -56.5t-82.5 -57t-70.5 -49q-88 -62 -144.5 -90.5t-97.5 -28.5q-30 0 -52 21.5t-21 69.5
q0 10 3.5 39.5t7 65t6.5 70.5t3 56q0 115 -67 171.5t-197 56.5q-39 0 -84 -18.5t-83.5 -41t-65.5 -41.5t-31 -21q-16 0 -19 8q0 3 14 15t38.5 28.5t57 35t69 35t75.5 27.5t77 13q61 3 111 -11.5t86 -46t55.5 -79t19.5 -109.5q0 -23 -3 -52t-6.5 -59t-6.5 -59.5t-3 -53.5
q0 -32 9.5 -50.5t29.5 -18.5q13 0 31 4t44.5 15t63 31.5t85.5 52.5q21 15 54.5 36.5t70.5 46.5t75 50.5t70 47.5t53.5 37.5t25.5 21.5q22 30 35 30q4 0 9 -6t0 -12q-9 -12 -23.5 -33.5t-38.5 -56.5t-60.5 -88t-89.5 -128q-107 -149 -160.5 -238t-53.5 -99q0 -8 2.5 -15
t13.5 -7z" />
    <glyph glyph-name="afii10042" unicode="&#x428;" horiz-adv-x="1704" 
d="M1436 10q5 0 11 1.5t16 6.5l3 -3q-13 -16 -30 -27t-34 -11q-11 0 -20.5 6t-9.5 19q0 9 1.5 19.5t8 27t20 41.5t37.5 63q55 85 96 140t55 73l-4 3l-264 -248q-79 -74 -139.5 -105t-102.5 -32q-29 0 -47.5 17.5t-18.5 52.5q0 24 12 57t32 74t47.5 92t57.5 111l-3 1
q-31 -30 -67 -63t-73.5 -66.5t-74 -67t-67.5 -63.5q-80 -73 -140 -108.5t-101 -36.5q-15 0 -28 3.5t-23 13t-16 27.5t-6 48q0 37 66 235q65 197 66 280q0 111 -66.5 169.5t-197.5 58.5q-42 0 -87.5 -18t-83.5 -40.5t-63.5 -41.5t-29.5 -21q-17 0 -18 8q0 2 13.5 14.5
t37 29.5t55.5 36.5t68.5 35.5t76 27t79.5 11q61 0 111.5 -17t86.5 -49.5t55.5 -78t19.5 -101.5q0 -30 -16.5 -99.5t-51.5 -179.5q-33 -109 -50 -170.5t-17 -76.5q0 -37 16 -50t36 -13q34 0 114.5 61.5t211.5 185.5q115 109 183 180.5t93 107.5q30 43 48 69t26 34
q24 30 34 30q4 0 8 -6t2 -11q-14 -19 -39 -55.5t-55 -83.5t-61.5 -100.5t-57.5 -106.5l-40 -78t-36 -73t-26.5 -59.5t-10.5 -37.5q0 -35 15 -46t35 -11q36 0 115.5 56t209.5 180q114 109 182.5 180.5t94.5 107.5q60 88 73 103q24 30 35 30q4 0 8.5 -6t1.5 -11
q-8 -14 -65 -98.5t-164 -236.5q-53 -75 -89 -127t-57.5 -87t-30.5 -54t-9 -28q0 -12 3 -18t14 -6z" />
    <glyph glyph-name="afii10043" unicode="&#x429;" horiz-adv-x="1704" 
d="M1541 47q-2 -7 -11 -32t-24 -58.5t-35.5 -72.5t-46.5 -74q-38 -52 -68 -84.5t-52 -51.5q-20 -17 -33.5 -25.5t-22.5 -0.5q-15 13 0 31q5 5 13 10t17 13q28 20 55 42.5t52 54.5q11 14 27.5 36t33.5 50.5t32.5 61.5t24.5 69q-13 -7 -27.5 -13.5t-29 -12t-26.5 -9t-19 -4.5
q-11 -2 -20 5t-9 20q0 9 1.5 19.5t8 27t20 41.5t37.5 63q21 32 44 64t44 60.5t38.5 51t26.5 35.5l-2 2q-61 -60 -133 -122.5t-135 -122.5q-79 -74 -139.5 -105t-102.5 -32q-29 0 -47.5 17.5t-18.5 52.5q0 24 11.5 57t32 74t47.5 91.5t57 110.5l-3 2q-31 -30 -67 -63
t-73 -66.5t-73.5 -67t-67.5 -63.5q-80 -73 -140 -108.5t-101 -36.5q-15 0 -28 3.5t-23 13t-16 27.5t-6 48q0 37 66 235q65 197 66 280q0 111 -66.5 169.5t-197.5 58.5q-42 0 -87.5 -18t-83.5 -40.5t-63.5 -41.5t-29.5 -21q-17 0 -18 8q0 2 13.5 14.5t37 29.5t55.5 36.5
t68.5 35.5t76 27t79.5 11q61 0 111.5 -17t86.5 -49.5t55.5 -78t19.5 -101.5q0 -30 -16.5 -99.5t-51.5 -179.5q-33 -109 -50 -170.5t-17 -76.5q0 -37 16 -50t36 -13q34 0 114.5 61.5t211.5 185.5q115 109 183 180.5t93 107.5q30 43 48 69t26 34q24 30 34 30q4 0 8 -6t2 -11
q-14 -19 -39 -55.5t-55 -83.5t-61.5 -100.5t-57.5 -106.5l-40 -78t-36 -73t-26.5 -59.5t-10.5 -37.5q0 -35 15 -46t35 -11q36 0 115.5 56t209.5 180q114 109 182.5 180.5t94.5 107.5q60 88 73 103q24 30 35 30q4 0 8.5 -6t1.5 -11q-8 -14 -65 -98.5t-164 -236.5
q-53 -75 -88.5 -127t-57 -86.5t-31 -54t-9.5 -28.5q0 -11 3.5 -18.5t11.5 -5.5q23 5 47.5 15t59.5 22z" />
    <glyph glyph-name="afii10044" unicode="&#x42a;" horiz-adv-x="916" 
d="M427 411q-27 -37 -52 -69.5t-47.5 -63.5t-43.5 -62t-40 -66q-10 -19 -14 -38t-4 -34q0 -62 39.5 -88.5t107.5 -26.5q111 0 194 31.5t138.5 78t83 100t27.5 97.5q0 39 -10 71.5t-31.5 56t-54.5 36.5t-79 13q-26 0 -50 -8.5t-42.5 -24.5t-30 -38.5t-11.5 -50.5
q0 -20 7.5 -40.5t24 -37.5t42.5 -28t63 -11q20 0 42 5t48 14v-3q0 -5 1 -6q2 -6 8 -4q-14 -11 -39.5 -17.5t-55.5 -6.5q-34 0 -66 6.5t-56.5 22t-39.5 41.5t-15 64q0 31 15 59.5t39 49.5t54 33.5t60 12.5q44 0 82 -13t65.5 -38.5t43.5 -62t16 -83.5q0 -54 -22 -101
t-59.5 -85.5t-87 -68t-105 -50t-113.5 -31.5t-112 -11q-52 0 -87.5 11t-57 28.5t-31 38.5t-9.5 41q0 43 12.5 74.5t35.5 67.5q23 37 47.5 67.5t50 60t52.5 61t57 69.5q39 50 73.5 89t60 73t40.5 66.5t15 70.5q0 29 -11.5 49t-29.5 32.5t-41 18t-46 5.5q-40 0 -92 -21.5
t-108.5 -56.5t-113 -79.5t-104.5 -90.5q-2 -2 -3 0.5t-2 7.5q19 19 48.5 48t65.5 60t77.5 62.5t85.5 56.5t89.5 40.5t88.5 15.5q63 0 102 -31t39 -93q0 -42 -11.5 -74.5t-37.5 -70.5t-69 -89.5t-106 -131.5z" />
    <glyph glyph-name="afii10045" unicode="&#x42b;" horiz-adv-x="1190" 
d="M775 236q0 34 -6.5 71.5t-25 69t-53.5 52.5t-92 21q-23 0 -46 -9.5t-41 -26t-29.5 -39t-11.5 -47.5q-1 -24 9 -46t30 -39.5t50.5 -28t70.5 -10.5q32 1 68.5 8t76.5 24zM816 255q69 35 129.5 79t108.5 87t81.5 80t48.5 59q30 44 48 69.5t26 33.5q24 30 34 30q9 0 10 -2
v-15q0 -5 -212 -307q-53 -74 -93 -134.5t-66.5 -104.5t-40 -70.5t-13.5 -32.5q0 -12 2.5 -14.5t13.5 -2.5q5 0 11 1.5t16 6.5l3 -3q-13 -16 -30 -27t-34 -11q-11 0 -20.5 6t-9.5 19q0 19 23.5 65t72.5 122l113 178q-15 -8 -38.5 -23t-53 -33t-62.5 -37.5t-67 -37.5
q-10 -66 -50.5 -121.5t-104 -95t-146 -62t-177.5 -22.5q-57 0 -97.5 13.5t-66 35t-37.5 47.5t-12 51q0 40 23.5 82.5t60 88.5t81 96t87.5 105q28 36 53 68.5t47.5 62.5t44 60t44.5 62q16 22 25.5 41t16 34.5t12 27.5t13.5 21q10 11 22.5 11.5t27.5 0.5q7 0 12 -5.5t5 -15.5
q0 -12 -7 -27t-16.5 -30t-20.5 -27.5t-19 -20.5q-20 -21 -48.5 -54.5t-61.5 -74t-69 -86t-70 -91.5q-35 -46 -70 -89t-62.5 -82.5t-45 -75.5t-17.5 -68q0 -30 13.5 -55t36.5 -42t54 -26.5t67 -9.5q86 0 155 19.5t120.5 53t84 78t45.5 94.5q-12 -8 -30 -15t-37.5 -12.5
t-38 -8.5t-29.5 -3q-21 0 -55.5 3t-67.5 17.5t-56.5 46t-23.5 88.5q0 36 14.5 64t37.5 47t53 29t61 10q65 0 108 -25t68.5 -60.5t35 -72.5t6.5 -61z" />
    <glyph glyph-name="afii10046" unicode="&#x42c;" horiz-adv-x="868" 
d="M405 324q0 31 15 59.5t39 49.5t54 33.5t60 12.5q44 0 82 -13t65.5 -38.5t43.5 -62t16 -83.5q0 -54 -22 -101t-59.5 -85.5t-87 -68t-105 -50t-113.5 -31.5t-112 -11q-52 0 -87.5 11t-57 28.5t-31 38.5t-9.5 41q0 43 12.5 74.5t35.5 67.5q23 37 47.5 67.5t50 60t52.5 61
t57 69.5q28 36 52.5 68.5t47.5 62.5t45 60t45 62q16 22 25.5 40.5t16.5 33.5t14 27t19 21q11 8 19.5 11.5t24.5 3.5q7 0 9 -3t2 -14q0 -19 -19 -51t-44 -60q-20 -22 -47.5 -55t-60.5 -73.5t-68.5 -85.5t-70.5 -91q-27 -37 -52 -69.5t-47.5 -63.5t-43.5 -62t-40 -66
q-10 -19 -14 -38t-4 -34q0 -62 39.5 -88.5t107.5 -26.5q111 0 194 31.5t138.5 78t83 100t27.5 97.5q0 39 -10 71.5t-31.5 56t-54.5 36.5t-79 13q-26 0 -50 -8.5t-42.5 -24.5t-30 -38.5t-11.5 -50.5q0 -20 7.5 -40.5t24 -37.5t42.5 -28t63 -11q20 0 42 5t48 14v-3q0 -5 1 -6
q2 -6 8 -4q-14 -11 -39.5 -17.5t-55.5 -6.5q-34 0 -66 6.5t-56.5 22t-39.5 41.5t-15 64z" />
    </font>
</defs>
</svg>
