<svg width="32" height="32" viewBox="0 0 32 32" fill="none" xmlns="http://www.w3.org/2000/svg">
<path d="M15.9993 10.0928C14.4322 10.0928 12.9294 10.7153 11.8214 11.8233C10.7133 12.9314 10.0908 14.4342 10.0908 16.0012C10.0908 17.5682 10.7133 19.0711 11.8214 20.1791C12.9294 21.2872 14.4322 21.9097 15.9993 21.9097C17.5663 21.9097 19.0691 21.2872 20.1772 20.1791C21.2852 19.0711 21.9077 17.5682 21.9077 16.0012C21.9077 14.4342 21.2852 12.9314 20.1772 11.8233C19.0691 10.7153 17.5663 10.0928 15.9993 10.0928ZM15.9993 19.8384C14.9812 19.8384 14.0049 19.434 13.2851 18.7141C12.5652 17.9943 12.1608 17.018 12.1608 15.9999C12.1608 14.9819 12.5652 14.0056 13.2851 13.2858C14.0049 12.5659 14.9812 12.1615 15.9993 12.1615C17.0173 12.1615 17.9936 12.5659 18.7135 13.2858C19.4333 14.0056 19.8377 14.9819 19.8377 15.9999C19.8377 17.018 19.4333 17.9943 18.7135 18.7141C17.9936 19.434 17.0173 19.8384 15.9993 19.8384Z" fill="#32524F" stroke="#32524F" stroke-width="0.5"/>
<path d="M22.1411 11.2529C22.9019 11.2529 23.5186 10.6362 23.5186 9.87549C23.5186 9.11475 22.9019 8.49805 22.1411 8.49805C21.3804 8.49805 20.7637 9.11475 20.7637 9.87549C20.7637 10.6362 21.3804 11.2529 22.1411 11.2529Z" fill="#32524F" stroke="#32524F" stroke-width="0.5"/>
<path d="M26.9037 8.47513C26.6078 7.71125 26.1558 7.01754 25.5765 6.43842C24.9971 5.8593 24.3033 5.40753 23.5393 5.11201C22.6452 4.77641 21.7008 4.59495 20.746 4.57535C19.5155 4.52168 19.1258 4.50635 16.0055 4.50635C12.8852 4.50635 12.4852 4.50635 11.2649 4.57535C10.3109 4.59395 9.36712 4.77545 8.47426 5.11201C7.71007 5.40718 7.01602 5.85884 6.43663 6.438C5.85725 7.01716 5.40533 7.71105 5.10987 8.47513C4.77421 9.36908 4.59316 10.3136 4.57449 11.2683C4.51954 12.4976 4.50293 12.8873 4.50293 16.0089C4.50293 19.1292 4.50293 19.5266 4.57449 20.7495C4.59365 21.7052 4.77382 22.6482 5.10987 23.544C5.40616 24.3078 5.85852 25.0014 6.43804 25.5805C7.01757 26.1595 7.71151 26.6114 8.47554 26.9071C9.36671 27.2562 10.3109 27.4506 11.2675 27.4821C12.498 27.5357 12.8877 27.5524 16.008 27.5524C19.1284 27.5524 19.5283 27.5524 20.7486 27.4821C21.7032 27.4627 22.6477 27.2816 23.5418 26.9467C24.3056 26.6505 24.9993 26.1983 25.5786 25.619C26.1578 25.0398 26.61 24.3461 26.9062 23.5823C27.2423 22.6879 27.4224 21.7449 27.4416 20.7891C27.4965 19.5599 27.5132 19.1701 27.5132 16.0485C27.5132 12.9269 27.5132 12.5308 27.4416 11.308C27.4267 10.3398 27.2447 9.38139 26.9037 8.47513ZM25.3473 20.6549C25.3391 21.3913 25.2047 22.1208 24.9499 22.8118C24.758 23.3087 24.4643 23.7599 24.0875 24.1364C23.7108 24.513 23.2594 24.8065 22.7624 24.9981C22.0791 25.2516 21.3573 25.3861 20.6285 25.3955C19.4146 25.4517 19.0722 25.4657 15.9595 25.4657C12.8443 25.4657 12.5261 25.4657 11.2892 25.3955C10.5608 25.3865 9.83935 25.2521 9.1566 24.9981C8.65786 24.8077 8.20465 24.5147 7.82629 24.1381C7.44792 23.7615 7.15283 23.3096 6.9601 22.8118C6.70894 22.1283 6.57461 21.4073 6.56271 20.6792C6.50776 19.4653 6.49498 19.1229 6.49498 16.0102C6.49498 12.8962 6.49498 12.5781 6.56271 11.3399C6.57097 10.6039 6.70538 9.87483 6.9601 9.18429C7.34982 8.17613 8.14843 7.38263 9.1566 6.99674C9.83968 6.74392 10.5609 6.60952 11.2892 6.59935C12.5044 6.5444 12.8455 6.52907 15.9595 6.52907C19.0734 6.52907 19.3929 6.52907 20.6285 6.59935C21.3573 6.60812 22.0792 6.74255 22.7624 6.99674C23.2593 7.18875 23.7107 7.48255 24.0874 7.85928C24.4641 8.236 24.7579 8.68733 24.9499 9.18429C25.2011 9.86784 25.3354 10.5888 25.3473 11.3169C25.4023 12.5321 25.4163 12.8732 25.4163 15.9872C25.4163 19.0999 25.4163 19.4346 25.3614 20.6562H25.3473V20.6549Z" fill="#32524F" stroke="#32524F" stroke-width="0.5"/>
</svg>
