<svg width="425" height="56" viewBox="0 0 425 56" fill="none" xmlns="http://www.w3.org/2000/svg">
<path d="M13.4881 10.748V42.2792C13.4881 43.8241 13.4881 45.2236 13.5015 46.4911C13.5146 47.7588 13.541 48.9074 13.5674 49.9375C13.5938 50.6109 13.9241 51.0466 14.5714 51.2445L18.8648 52.6045L18.9838 54.2683C15.919 54.1891 12.8409 54.1494 9.76271 54.1494C6.63174 54.1494 3.42177 54.1891 0.145401 54.2683L0 52.6045L4.75583 51.1786C5.42976 50.9674 5.77315 50.5712 5.79956 49.977C5.82598 48.9471 5.85239 47.7852 5.86572 46.5175C5.87881 45.2369 5.87881 43.8241 5.87881 42.2792V10.9066C5.87881 9.58606 5.87881 8.4111 5.86572 7.35457C5.85239 6.29828 5.82598 5.33451 5.79956 4.48943C5.77315 3.81608 5.46927 3.38034 4.87482 3.16913L0.0794808 1.66377L0 0C3.3292 0.105605 6.52608 0.158408 9.60423 0.158408C12.6824 0.158408 15.7472 0.105605 18.7856 0L18.9838 1.66377L14.5714 3.02381C13.9505 3.16913 13.6202 3.56514 13.5674 4.21209C13.541 5.1497 13.5146 6.15318 13.5015 7.23588C13.4881 8.31857 13.4881 9.49379 13.4881 10.748ZM14.479 26.791L30.0806 9.37487C31.2828 8.01485 32.2737 6.85295 33.0136 5.91534C33.7665 4.96466 34.1363 4.21208 34.1363 3.64434C34.1363 3.12939 33.7929 2.77287 33.0928 2.60114L29.9221 1.74296L29.8429 0C32.3925 0.105605 35.246 0.158408 38.3903 0.158408C41.4153 0.158408 44.2557 0.105605 46.911 0L47.0695 1.66377L43.1592 2.90488C41.9703 3.28782 40.9399 3.88195 40.081 4.68755C39.2094 5.47959 38.2977 6.43028 37.307 7.51321L21.8373 24.5461L39.4338 47.7324C40.1869 48.7095 40.9265 49.5018 41.6533 50.109C42.3665 50.7165 43.3046 51.1917 44.4671 51.5218L47.9942 52.6045L48.0735 54.2683C45.907 54.2155 43.1592 54.1891 39.8302 54.1891C38.945 54.1891 38.06 54.2024 37.1616 54.2155C36.25 54.2288 35.3516 54.2419 34.4535 54.2683C33.5419 52.4067 31.1641 48.9074 27.2932 43.7844L14.479 26.791ZM191.542 54.1494C188.358 54.1494 184.844 54.1891 180.999 54.2683L180.841 52.6045L186.574 50.9013C187.222 50.7165 187.552 50.3202 187.578 49.6997C187.631 47.7455 187.657 45.2369 187.657 42.1867V3.56514H173.998L170.55 13.8907L169.004 14.1547L168 0.317077L168.264 0C174.619 0.105605 180.696 0.158408 186.495 0.158408H196.852C202.638 0.158408 208.742 0.105605 215.162 0L215.387 0.317077L212.956 13.8907L211.41 14.1547L208.927 3.56514H195.267V42.1867C195.267 45.2369 195.293 47.7455 195.346 49.6997C195.373 50.3202 195.703 50.7165 196.35 50.9013L202.084 52.6045L202.15 54.2683C198.16 54.1891 194.619 54.1494 191.542 54.1494ZM70.2561 6.38475H78.5898C83.6977 6.38475 89.0977 6.33799 94.7899 6.24474L94.9886 6.52499L93.0015 17.1092L91.634 17.3546L89.5068 9.39883H73.6924V28.2541H76.8132C79.1859 28.2541 81.8276 28.2309 84.7497 28.1842C85.3456 28.1607 85.7314 27.8688 85.9185 27.3081L87.1105 22.7167L88.969 22.6467C88.899 25.8359 88.8638 28.1958 88.8638 29.7144C88.8638 31.1982 88.899 33.523 88.969 36.6771L87.1105 36.8173L85.8834 32.1211C85.6963 31.5252 85.3456 31.2215 84.8197 31.1983C81.8509 31.1515 79.1743 31.128 76.7781 31.128H73.6924V43.6049C73.6924 46.1399 73.716 48.64 73.7627 51.105H90.1964L94.3808 42.4016L95.9119 42.1329L95.1638 54.0489L94.9184 54.2942C89.0158 54.2242 83.5574 54.1891 78.5549 54.1891H70.3964C67.6263 54.1891 64.7861 54.2124 61.8873 54.2591L61.7589 52.7872L65.9666 51.5255C66.5392 51.362 66.8431 51.0115 66.8898 50.4624C66.9134 49.5512 66.9366 48.5233 66.9483 47.4016C66.9601 46.2685 66.9601 45.0184 66.9601 43.6516V15.8943C66.9601 14.7261 66.9601 13.6863 66.9483 12.7518C66.9366 11.8171 66.9134 10.9643 66.8898 10.2166C66.8666 9.62096 66.5978 9.23535 66.0717 9.04836L61.8289 7.71668L61.7589 6.24474C64.7042 6.33799 67.5328 6.38475 70.2561 6.38475ZM130.836 29.7847L138.761 14.8077C139.334 13.7214 139.813 12.7751 140.198 12.0041C140.596 11.2213 140.783 10.5905 140.783 10.0882C140.783 9.37558 140.28 8.88486 139.275 8.60438L136.201 7.78667L136.131 6.24474C138.597 6.33799 141.11 6.38475 143.693 6.38475C146.183 6.38475 148.602 6.33799 150.952 6.24474L151.092 7.71668L147.632 8.81487C146.814 9.05999 146.183 9.45721 145.727 10.0063C145.283 10.5554 144.839 11.2331 144.383 12.0273L132.531 33.1374V43.5465C132.531 44.9133 132.543 46.1634 132.554 47.2732C132.566 48.3947 132.578 49.411 132.601 50.3222C132.624 50.8948 133.022 51.2801 133.793 51.4904L138.048 52.7872L138.118 54.2591C134.916 54.1891 131.958 54.154 129.247 54.154C126.465 54.154 123.508 54.1891 120.352 54.2591L120.212 52.7872L124.805 51.4204C125.378 51.2569 125.682 50.9064 125.728 50.3573C125.752 49.4461 125.775 48.4298 125.787 47.2965C125.799 46.1634 125.799 44.9133 125.799 43.5465V33.8619L113.748 12.9853C112.895 11.5952 112.205 10.5905 111.667 9.97144C111.141 9.36373 110.429 8.93162 109.528 8.67463L106.42 7.71668L106.35 6.24474C108.43 6.33799 111.235 6.38475 114.776 6.38475C117.851 6.38475 121.041 6.33799 124.326 6.24474L124.466 7.71668L121.24 8.60438C120.761 8.72137 120.422 8.88487 120.212 9.10673C120.013 9.31722 119.908 9.58583 119.908 9.90119C119.908 10.3803 120.083 10.9759 120.434 11.6652C120.796 12.3662 121.228 13.1723 121.754 14.0835L130.836 29.7847ZM240.979 43.64C240.979 45.0184 240.979 46.245 240.991 47.3432C241.003 48.4414 241.026 49.4345 241.049 50.3222C241.073 51.0348 241.365 51.4788 241.938 51.6541L245.736 52.7872L245.842 54.2591C243.13 54.1891 240.406 54.154 237.683 54.154C234.913 54.154 232.073 54.1891 229.174 54.2591L229.046 52.7872L233.253 51.5255C233.826 51.362 234.13 51.0115 234.177 50.4624C234.2 49.5512 234.223 48.5233 234.235 47.4016C234.247 46.2685 234.247 45.0184 234.247 43.6516V15.8943C234.247 14.7261 234.247 13.6863 234.235 12.7518C234.223 11.8171 234.2 10.9643 234.177 10.2166C234.153 9.62096 233.885 9.23535 233.358 9.04836L229.116 7.71668L229.046 6.24474C231.991 6.33799 234.866 6.38475 237.671 6.38475C238.232 6.38475 238.934 6.36149 239.787 6.32637C240.64 6.29125 241.68 6.25638 242.896 6.22125C244.147 6.17451 245.187 6.15125 246.017 6.12775C246.847 6.11613 247.501 6.1045 247.992 6.1045C253.252 6.1045 257.191 7.08571 259.821 9.04836C262.451 10.9994 263.771 13.8616 263.771 17.6232C263.771 21.0113 262.871 23.7681 261.06 25.871C259.26 27.9739 256.513 29.5977 252.808 30.7426C254.269 32.9272 255.613 35.0533 256.829 37.0978C258.056 39.1421 259.201 41.0231 260.253 42.7288C261.305 44.4226 262.263 45.9296 263.14 47.2381C264.017 48.5349 264.835 49.5628 265.583 50.3222C265.969 50.7078 266.366 51.0466 266.752 51.3269C267.138 51.619 267.547 51.8527 267.968 52.0395C268.388 52.2148 268.832 52.3783 269.3 52.5186C269.767 52.6469 270.293 52.7872 270.854 52.9274L270.96 54.4345C269.323 54.6447 267.932 54.7498 266.822 54.7498C265.887 54.7498 265.057 54.7266 264.356 54.6798C263.643 54.6331 263.012 54.5396 262.451 54.411C261.901 54.271 261.399 54.0956 260.943 53.8737C260.487 53.6516 260.043 53.3714 259.61 53.0325C258.664 52.3199 257.728 51.3036 256.817 49.9601C255.905 48.6284 254.958 47.1097 253.977 45.4157C252.983 43.7216 251.966 41.9227 250.902 40.0068C249.839 38.1025 248.717 36.2334 247.536 34.3991C247.186 33.85 246.894 33.4179 246.648 33.1025C246.414 32.7753 246.145 32.5299 245.853 32.343C245.561 32.1562 245.234 32.0392 244.848 31.9692C244.462 31.8992 243.971 31.8525 243.375 31.829L240.979 31.759V43.64ZM240.979 29.2005C242.37 29.2705 243.656 29.3056 244.848 29.3056C248.787 29.3056 251.674 28.4646 253.509 26.7938C255.344 25.1233 256.267 22.5064 256.267 18.9316C256.267 15.4854 255.391 12.962 253.638 11.3615C251.873 9.77282 249.126 8.97837 245.386 8.97837C244.754 8.97837 244.065 9.00161 243.34 9.04836C242.604 9.09511 241.821 9.16535 240.979 9.24698V29.2005ZM278.873 6.24474C281.818 6.33799 284.646 6.38475 287.37 6.38475C290.117 6.38475 292.957 6.33799 295.879 6.24474L296.008 7.71668L291.765 8.97837C291.215 9.11861 290.923 9.48071 290.876 10.0414C290.853 10.8475 290.83 11.7236 290.818 12.6699C290.806 13.6163 290.806 14.6442 290.806 15.7657V34.5042C290.806 41.0348 291.846 45.5675 293.915 48.0909C295.996 50.6143 299.339 51.876 303.944 51.876C308.619 51.876 311.997 50.5675 314.101 47.9623C316.193 45.3573 317.245 41.0113 317.245 34.9014V15.7424C317.245 14.621 317.245 13.5811 317.234 12.6348C317.222 11.6887 317.187 10.8124 317.14 10.0179C317.117 9.49234 316.824 9.13022 316.252 8.95485L312.243 7.78667L312.172 6.24474C315.071 6.33799 317.561 6.38475 319.63 6.38475C321.605 6.38475 324.012 6.33799 326.876 6.24474L327.005 7.71668L322.692 9.04836C322.166 9.23535 321.897 9.62096 321.874 10.2166C321.85 10.9643 321.827 11.8171 321.815 12.7518C321.803 13.6863 321.803 14.7377 321.803 15.8943V33.4646C321.803 40.9529 320.284 46.4904 317.234 50.0768C314.194 53.6635 309.402 55.4508 302.857 55.4508C296.44 55.4508 291.718 53.8386 288.656 50.6027C285.605 47.3783 284.074 42.3548 284.074 35.5557V15.8943C284.074 14.7377 284.074 13.6863 284.062 12.7518C284.051 11.8171 284.027 10.9643 284.004 10.2166C283.98 9.62096 283.712 9.23535 283.185 9.04836L278.943 7.71668L278.873 6.24474ZM364.758 9.39883C362.362 8.60437 360.164 8.20716 358.154 8.20716C355.138 8.20716 352.731 8.9316 350.942 10.3919C349.154 11.8406 348.254 13.8732 348.254 16.455C348.254 17.9388 348.569 19.2472 349.201 20.357C349.82 21.4785 350.673 22.4597 351.737 23.3009C352.789 24.1537 353.993 24.9014 355.349 25.5673C356.693 26.2215 358.084 26.8757 359.522 27.5183C361.099 28.1958 362.63 28.9202 364.115 29.6912C365.599 30.4505 366.944 31.3501 368.136 32.3781C369.34 33.4063 370.298 34.6328 371.023 36.0696C371.736 37.5067 372.098 39.1889 372.098 41.1048C372.098 45.6375 370.321 49.1072 366.768 51.5022C363.215 53.897 358.621 55.1003 352.988 55.1003C349.353 55.1003 345.343 54.4812 340.937 53.2544L340.727 52.9742L342.41 41.3385L343.941 41.1048L346.349 50.7896C348.768 51.7476 351.234 52.2265 353.771 52.2265C357.172 52.2265 359.825 51.4787 361.73 49.9717C363.636 48.4765 364.594 46.3385 364.594 43.5698C364.594 42.1095 364.29 40.8245 363.671 39.7147C363.051 38.6049 362.221 37.6586 361.181 36.8525C360.141 36.058 358.96 35.3338 357.64 34.6796C356.319 34.037 354.94 33.3944 353.525 32.752C351.936 32.0627 350.381 31.3266 348.873 30.5324C347.366 29.7263 345.998 28.8032 344.771 27.7402C343.555 26.6771 342.573 25.3803 341.849 23.8384C341.112 22.2962 340.75 20.497 340.75 18.4411C340.75 14.3172 342.48 11.1161 345.94 8.86138C349.399 6.60686 353.689 5.47354 358.797 5.47354C362.408 5.47354 366.184 5.89426 370.134 6.73522L370.38 6.98058L368.358 17.6583L366.978 17.892L364.758 9.39883ZM403.13 54.154C400.314 54.154 397.205 54.1891 393.803 54.2591L393.663 52.7872L398.736 51.2801C399.309 51.1166 399.601 50.7662 399.624 50.2171C399.671 48.4881 399.694 46.2685 399.694 43.5698V9.39883H387.609L384.558 18.5344L383.19 18.7681L382.302 6.52499L382.536 6.24474C388.158 6.33799 393.534 6.38475 398.666 6.38475H407.829C412.949 6.38475 418.349 6.33799 424.029 6.24474L424.228 6.52499L422.077 18.5344L420.71 18.7681L418.512 9.39883H406.427V43.5698C406.427 46.2685 406.45 48.4881 406.497 50.2171C406.52 50.7662 406.812 51.1166 407.385 51.2801L412.458 52.7872L412.516 54.2591C408.987 54.1891 405.854 54.154 403.13 54.154Z" fill="#32524F"/>
</svg>
