<svg width="425" height="219" viewBox="0 0 425 219" fill="none" xmlns="http://www.w3.org/2000/svg">
<path d="M14.0467 129.451V160.982C14.0467 162.527 14.0467 163.927 14.0601 165.194C14.0731 166.462 14.0996 167.611 14.126 168.641C14.1524 169.314 14.4827 169.75 15.13 169.948L19.4234 171.308L19.5424 172.971C16.4776 172.892 13.3995 172.853 10.3213 172.853C7.19034 172.853 3.98037 172.892 0.703995 172.971L0.558594 171.308L5.31442 169.882C5.98836 169.671 6.33174 169.274 6.35816 168.68C6.38457 167.65 6.41098 166.488 6.42431 165.221C6.4374 163.94 6.4374 162.527 6.4374 160.982V129.61C6.4374 128.289 6.4374 127.114 6.42431 126.058C6.41098 125.001 6.38457 124.038 6.35816 123.193C6.33174 122.519 6.02786 122.083 5.43341 121.872L0.638075 120.367L0.558594 118.703C3.8878 118.809 7.08468 118.862 10.1628 118.862C13.241 118.862 16.3058 118.809 19.3442 118.703L19.5424 120.367L15.13 121.727C14.5091 121.872 14.1788 122.268 14.126 122.915C14.0996 123.853 14.0731 124.856 14.0601 125.939C14.0467 127.022 14.0467 128.197 14.0467 129.451ZM15.0376 145.494L30.6392 128.078C31.8414 126.718 32.8323 125.556 33.5722 124.618C34.3251 123.668 34.6949 122.915 34.6949 122.347C34.6949 121.833 34.3515 121.476 33.6514 121.304L30.4807 120.446L30.4014 118.703C32.9511 118.809 35.8046 118.862 38.9488 118.862C41.9739 118.862 44.8143 118.809 47.4696 118.703L47.6281 120.367L43.7178 121.608C42.5289 121.991 41.4985 122.585 40.6396 123.391C39.7679 124.183 38.8563 125.133 37.8656 126.216L22.3959 143.249L39.9923 166.436C40.7455 167.413 41.4851 168.205 42.2119 168.812C42.9251 169.42 43.8632 169.895 45.0257 170.225L48.5528 171.308L48.6321 172.971C46.4656 172.919 43.7178 172.892 40.3888 172.892C39.5036 172.892 38.6186 172.906 37.7202 172.919C36.8086 172.932 35.9102 172.945 35.0121 172.971C34.1005 171.11 31.7227 167.611 27.8518 162.487L15.0376 145.494ZM192.1 172.853C188.916 172.853 185.402 172.892 181.558 172.971L181.399 171.308L187.133 169.604C187.78 169.42 188.11 169.023 188.137 168.403C188.19 166.449 188.216 163.94 188.216 160.89V122.268H174.556L171.108 132.594L169.563 132.858L168.559 119.02L168.823 118.703C175.177 118.809 181.254 118.862 187.053 118.862H197.411C203.197 118.862 209.3 118.809 215.721 118.703L215.945 119.02L213.514 132.594L211.969 132.858L209.485 122.268H195.825V160.89C195.825 163.94 195.852 166.449 195.905 168.403C195.931 169.023 196.261 169.42 196.909 169.604L202.642 171.308L202.708 172.971C198.719 172.892 195.178 172.853 192.1 172.853ZM70.8147 125.088H79.1484C84.2563 125.088 89.6563 125.041 95.3485 124.948L95.5472 125.228L93.5601 135.812L92.1926 136.058L90.0654 128.102H74.251V146.957H77.3718C79.7445 146.957 82.3862 146.934 85.3083 146.887C85.9042 146.864 86.29 146.572 86.4771 146.011L87.6691 141.42L89.5276 141.35C89.4576 144.539 89.4224 146.899 89.4224 148.418C89.4224 149.901 89.4576 152.226 89.5276 155.38L87.6691 155.52L86.442 150.824C86.2549 150.228 85.9042 149.925 85.3783 149.901C82.4095 149.855 79.7329 149.831 77.3367 149.831H74.251V162.308C74.251 164.843 74.2746 167.343 74.3213 169.808H90.755L94.9394 161.105L96.4705 160.836L95.7224 172.752L95.477 172.997C89.5744 172.927 84.116 172.892 79.1135 172.892H70.955C68.1849 172.892 65.3447 172.915 62.4459 172.962L62.3175 171.49L66.5252 170.229C67.0978 170.065 67.4017 169.715 67.4484 169.166C67.472 168.254 67.4952 167.226 67.5069 166.105C67.5187 164.972 67.5187 163.722 67.5187 162.355V134.597C67.5187 133.429 67.5187 132.389 67.5069 131.455C67.4952 130.52 67.472 129.667 67.4484 128.92C67.4252 128.324 67.1564 127.938 66.6303 127.751L62.3875 126.42L62.3175 124.948C65.2628 125.041 68.0914 125.088 70.8147 125.088ZM131.395 148.488L139.32 133.511C139.892 132.425 140.371 131.478 140.757 130.707C141.154 129.924 141.342 129.294 141.342 128.791C141.342 128.079 140.839 127.588 139.834 127.308L136.76 126.49L136.69 124.948C139.156 125.041 141.669 125.088 144.252 125.088C146.742 125.088 149.161 125.041 151.51 124.948L151.65 126.42L148.191 127.518C147.373 127.763 146.742 128.16 146.286 128.709C145.841 129.259 145.397 129.936 144.941 130.73L133.09 151.841V162.25C133.09 163.616 133.101 164.867 133.113 165.976C133.125 167.098 133.136 168.114 133.16 169.025C133.183 169.598 133.581 169.983 134.352 170.193L138.607 171.49L138.677 172.962C135.474 172.892 132.517 172.857 129.805 172.857C127.023 172.857 124.066 172.892 120.911 172.962L120.77 171.49L125.364 170.123C125.936 169.96 126.24 169.61 126.287 169.06C126.31 168.149 126.334 167.133 126.345 166C126.357 164.867 126.357 163.616 126.357 162.25V152.565L114.307 131.688C113.453 130.298 112.764 129.294 112.226 128.675C111.7 128.067 110.987 127.635 110.087 127.378L106.978 126.42L106.908 124.948C108.988 125.041 111.794 125.088 115.335 125.088C118.409 125.088 121.6 125.041 124.884 124.948L125.025 126.42L121.799 127.308C121.32 127.424 120.981 127.588 120.77 127.81C120.571 128.02 120.466 128.289 120.466 128.604C120.466 129.083 120.642 129.679 120.992 130.368C121.354 131.069 121.787 131.875 122.313 132.787L131.395 148.488ZM241.538 162.343C241.538 163.722 241.538 164.948 241.549 166.046C241.561 167.145 241.584 168.138 241.608 169.025C241.631 169.738 241.924 170.182 242.496 170.357L246.295 171.49L246.4 172.962C243.688 172.892 240.965 172.857 238.242 172.857C235.472 172.857 232.631 172.892 229.733 172.962L229.604 171.49L233.812 170.229C234.384 170.065 234.688 169.715 234.735 169.166C234.759 168.254 234.782 167.226 234.794 166.105C234.805 164.972 234.805 163.722 234.805 162.355V134.597C234.805 133.429 234.805 132.389 234.794 131.455C234.782 130.52 234.759 129.667 234.735 128.92C234.712 128.324 234.443 127.938 233.917 127.751L229.674 126.42L229.604 124.948C232.549 125.041 235.425 125.088 238.23 125.088C238.791 125.088 239.492 125.065 240.346 125.029C241.199 124.994 242.239 124.96 243.455 124.924C244.705 124.878 245.746 124.854 246.575 124.831C247.405 124.819 248.06 124.808 248.551 124.808C253.811 124.808 257.749 125.789 260.379 127.751C263.009 129.703 264.33 132.565 264.33 136.326C264.33 139.714 263.43 142.471 261.618 144.574C259.818 146.677 257.071 148.301 253.366 149.446C254.827 151.63 256.171 153.756 257.387 155.801C258.614 157.845 259.76 159.726 260.812 161.432C261.864 163.126 262.822 164.633 263.699 165.941C264.575 167.238 265.393 168.266 266.142 169.025C266.527 169.411 266.925 169.75 267.31 170.03C267.696 170.322 268.105 170.556 268.526 170.743C268.947 170.918 269.391 171.081 269.858 171.222C270.326 171.35 270.852 171.49 271.413 171.631L271.518 173.138C269.882 173.348 268.491 173.453 267.381 173.453C266.445 173.453 265.616 173.43 264.914 173.383C264.201 173.336 263.57 173.243 263.009 173.114C262.46 172.974 261.957 172.799 261.501 172.577C261.045 172.355 260.601 172.075 260.169 171.736C259.222 171.023 258.287 170.007 257.375 168.663C256.464 167.332 255.517 165.813 254.535 164.119C253.542 162.425 252.525 160.626 251.461 158.71C250.397 156.806 249.275 154.936 248.095 153.102C247.744 152.553 247.452 152.121 247.207 151.806C246.973 151.478 246.704 151.233 246.412 151.046C246.12 150.859 245.792 150.742 245.407 150.672C245.021 150.602 244.53 150.556 243.934 150.532L241.538 150.462V162.343ZM241.538 147.904C242.929 147.974 244.214 148.009 245.407 148.009C249.346 148.009 252.232 147.168 254.068 145.497C255.903 143.826 256.826 141.21 256.826 137.635C256.826 134.189 255.949 131.665 254.196 130.065C252.431 128.476 249.685 127.681 245.944 127.681C245.313 127.681 244.623 127.705 243.899 127.751C243.162 127.798 242.379 127.868 241.538 127.95V147.904ZM279.431 124.948C282.377 125.041 285.205 125.088 287.928 125.088C290.675 125.088 293.515 125.041 296.438 124.948L296.566 126.42L292.323 127.681C291.774 127.822 291.482 128.184 291.435 128.745C291.412 129.551 291.388 130.427 291.377 131.373C291.365 132.319 291.365 133.347 291.365 134.469V153.207C291.365 159.738 292.405 164.271 294.474 166.794C296.555 169.317 299.897 170.579 304.502 170.579C309.178 170.579 312.556 169.271 314.66 166.665C316.752 164.06 317.804 159.714 317.804 153.605V134.446C317.804 133.324 317.804 132.284 317.792 131.338C317.78 130.392 317.745 129.516 317.699 128.721C317.675 128.195 317.383 127.833 316.81 127.658L312.801 126.49L312.731 124.948C315.63 125.041 318.119 125.088 320.188 125.088C322.163 125.088 324.571 125.041 327.435 124.948L327.563 126.42L323.25 127.751C322.724 127.938 322.455 128.324 322.432 128.92C322.409 129.667 322.385 130.52 322.374 131.455C322.362 132.389 322.362 133.441 322.362 134.597V152.168C322.362 159.656 320.843 165.194 317.792 168.78C314.753 172.367 309.961 174.154 303.416 174.154C296.999 174.154 292.277 172.542 289.214 169.306C286.164 166.081 284.632 161.058 284.632 154.259V134.597C284.632 133.441 284.632 132.389 284.621 131.455C284.609 130.52 284.586 129.667 284.562 128.92C284.539 128.324 284.27 127.938 283.744 127.751L279.501 126.42L279.431 124.948ZM365.316 128.102C362.92 127.307 360.723 126.91 358.712 126.91C355.697 126.91 353.289 127.635 351.501 129.095C349.713 130.544 348.812 132.576 348.812 135.158C348.812 136.642 349.128 137.95 349.759 139.06C350.379 140.182 351.232 141.163 352.296 142.004C353.348 142.857 354.551 143.605 355.907 144.27C357.251 144.925 358.642 145.579 360.08 146.221C361.658 146.899 363.189 147.623 364.674 148.394C366.158 149.154 367.502 150.053 368.694 151.081C369.898 152.109 370.857 153.336 371.581 154.773C372.294 156.21 372.657 157.892 372.657 159.808C372.657 164.341 370.88 167.81 367.327 170.205C363.774 172.6 359.18 173.803 353.546 173.803C349.911 173.803 345.902 173.184 341.496 171.958L341.285 171.677L342.968 160.042L344.499 159.808L346.907 169.493C349.327 170.451 351.793 170.93 354.329 170.93C357.731 170.93 360.384 170.182 362.289 168.675C364.194 167.18 365.153 165.042 365.153 162.273C365.153 160.813 364.849 159.528 364.229 158.418C363.61 157.308 362.78 156.362 361.74 155.556C360.7 154.761 359.519 154.037 358.198 153.383C356.877 152.74 355.498 152.098 354.084 151.455C352.494 150.766 350.94 150.03 349.432 149.236C347.924 148.429 346.557 147.506 345.329 146.443C344.114 145.38 343.132 144.083 342.407 142.541C341.671 140.999 341.309 139.2 341.309 137.144C341.309 133.02 343.039 129.819 346.498 127.565C349.958 125.31 354.248 124.177 359.355 124.177C362.967 124.177 366.742 124.597 370.693 125.438L370.938 125.684L368.916 136.361L367.537 136.595L365.316 128.102ZM403.689 172.857C400.872 172.857 397.763 172.892 394.362 172.962L394.222 171.49L399.294 169.983C399.867 169.82 400.159 169.469 400.183 168.92C400.23 167.191 400.253 164.972 400.253 162.273V128.102H388.167L385.117 137.238L383.749 137.471L382.861 125.228L383.094 124.948C388.716 125.041 394.093 125.088 399.224 125.088H408.388C413.507 125.088 418.907 125.041 424.588 124.948L424.787 125.228L422.636 137.238L421.268 137.471L419.071 128.102H406.985V162.273C406.985 164.972 407.009 167.191 407.055 168.92C407.079 169.469 407.371 169.82 407.944 169.983L413.016 171.49L413.075 172.962C409.545 172.892 406.412 172.857 403.689 172.857Z" fill="#32524F"/>
<path d="M27.8379 218.159V205.095H29.8752V216.28H39.5924V218.159H27.8379ZM44.0361 218.159V205.064H46.1049V218.159H44.0361ZM52.7063 218.159V205.095H54.4041L59.7537 212.739L65.1136 205.095H66.8117V218.159H64.7741V208.766L59.7537 216.029L54.7436 208.766V218.159H52.7063ZM73.4078 218.159V205.064H75.4766V218.159H73.4078ZM85.1812 218.159V206.912H79.6644V205.095H92.7355V206.912H87.2187V218.159H85.1812ZM96.8554 218.159V205.095H109.111V207.006H98.8928V210.264H105.601V212.144H98.8928V216.28H109.675V218.159H96.8554ZM120.498 205.095C122.635 205.095 124.353 205.706 125.665 206.923C126.971 208.144 127.624 209.727 127.624 211.674C127.624 213.643 126.981 215.214 125.701 216.394C124.421 217.569 122.687 218.159 120.498 218.159H114.709V205.095H120.498ZM120.529 206.975H116.747V216.28H120.529C122.081 216.28 123.303 215.862 124.191 215.032C125.08 214.201 125.524 213.068 125.524 211.643C125.524 210.264 125.064 209.142 124.144 208.275C123.225 207.408 122.023 206.975 120.529 206.975ZM141.296 218.159V205.095H143.333V216.28H153.05V218.159H141.296ZM157.494 218.159V205.064H159.563V218.159H157.494ZM168.395 213.115H173.504L170.965 208.108L168.395 213.115ZM163.657 218.159L170.307 205.095H171.592L178.295 218.159H176.106L174.408 214.838H167.507L165.819 218.159H163.657ZM190.324 207.006H184.4V210.076H190.355C191.008 210.076 191.5 209.946 191.834 209.685C192.163 209.429 192.33 209.042 192.33 208.531C192.33 208.024 192.163 207.643 191.834 207.387C191.5 207.131 190.998 207.006 190.324 207.006ZM191.014 211.988H184.4V216.28H191.014C191.729 216.28 192.283 216.092 192.68 215.71C193.072 215.334 193.271 214.802 193.271 214.118C193.271 213.444 193.072 212.922 192.68 212.546C192.283 212.176 191.729 211.988 191.014 211.988ZM182.362 218.159V205.126H190.387C191.714 205.126 192.722 205.398 193.406 205.946C194.091 206.489 194.43 207.293 194.43 208.348C194.43 208.881 194.326 209.351 194.112 209.763C193.898 210.176 193.584 210.51 193.177 210.766C193.903 211.173 194.451 211.669 194.817 212.259C195.188 212.844 195.371 213.507 195.371 214.238C195.371 215.455 194.963 216.41 194.154 217.11C193.339 217.81 192.215 218.159 190.784 218.159H182.362ZM201.502 218.159V205.064H203.571V218.159H201.502ZM210.172 218.159V205.095H212.21V216.28H221.927V218.159H210.172ZM226.371 218.159V205.064H228.439V218.159H226.371ZM238.144 218.159V206.912H232.627V205.095H245.698V206.912H240.181V218.159H238.144ZM253.579 218.159V211.491L247.624 205.095H250.257L254.593 209.732L258.846 205.095H261.573L255.586 211.46V218.159H253.579ZM288.091 214.964C287.349 216.133 286.372 217.026 285.16 217.642C283.953 218.259 282.574 218.567 281.033 218.567C278.74 218.567 276.848 217.919 275.36 216.619C273.876 215.319 273.134 213.669 273.134 211.674C273.134 209.674 273.876 208.024 275.36 206.714C276.848 205.403 278.74 204.75 281.033 204.75C282.464 204.75 283.76 205.017 284.925 205.554C286.09 206.087 287.025 206.844 287.741 207.821L286.116 208.949C285.578 208.207 284.868 207.633 283.985 207.231C283.102 206.828 282.12 206.63 281.038 206.63C279.361 206.63 277.977 207.105 276.88 208.061C275.783 209.011 275.234 210.207 275.234 211.643C275.234 213.079 275.783 214.275 276.885 215.225C277.987 216.18 279.372 216.655 281.038 216.655C282.198 216.655 283.227 216.426 284.115 215.971C285.004 215.512 285.782 214.802 286.456 213.836L288.091 214.964ZM300.481 216.655C302.226 216.655 303.652 216.186 304.754 215.24C305.857 214.301 306.405 213.1 306.405 211.643C306.405 210.196 305.851 209.001 304.744 208.05C303.636 207.105 302.215 206.63 300.481 206.63C298.746 206.63 297.331 207.1 296.234 208.045C295.137 208.985 294.588 210.186 294.588 211.643C294.588 213.1 295.137 214.301 296.234 215.24C297.331 216.186 298.746 216.655 300.481 216.655ZM300.481 218.567C298.156 218.567 296.239 217.909 294.74 216.593C293.24 215.282 292.488 213.632 292.488 211.643C292.488 209.648 293.235 207.998 294.729 206.698C296.229 205.398 298.146 204.75 300.481 204.75C302.837 204.75 304.765 205.398 306.264 206.693C307.758 207.988 308.505 209.638 308.505 211.643C308.505 213.643 307.753 215.293 306.254 216.603C304.754 217.914 302.832 218.567 300.481 218.567ZM313.916 218.159V205.095H315.614L320.963 212.739L326.323 205.095H328.021V218.159H325.983V208.766L320.963 216.029L315.953 208.766V218.159H313.916ZM336.655 210.546H344.115C344.809 210.546 345.348 210.395 345.718 210.087C346.089 209.779 346.278 209.34 346.278 208.766C346.278 208.207 346.1 207.774 345.74 207.466C345.384 207.158 344.872 207.006 344.209 207.006H336.655V210.546ZM336.655 212.457V218.159H334.617V205.095H344.115C345.463 205.095 346.508 205.413 347.254 206.05C348.001 206.687 348.378 207.586 348.378 208.74C348.378 209.831 348.007 210.724 347.265 211.418C346.518 212.113 345.541 212.457 344.334 212.457H336.655ZM353.872 213.115H358.981L356.442 208.108L353.872 213.115ZM349.133 218.159L355.784 205.095H357.069L363.771 218.159H361.582L359.885 214.838H352.983L351.296 218.159H349.133ZM367.839 218.159V205.095H368.91L377.211 214.275V205.095H379.217V218.159H378.147L369.845 209.011V218.159H367.839ZM389.544 218.159V211.491L383.588 205.095H386.221L390.557 209.732L394.81 205.095H397.537L391.55 211.46V218.159H389.544Z" fill="#9E875D"/>
<path d="M140.167 22.4437C135.529 24.059 130.834 25.4905 126.074 26.7384C124.496 29.169 122.93 31.6073 121.375 34.0607C122.214 34.9489 122.983 35.8368 123.684 36.7173C127.613 41.0999 131.026 45.6893 133.928 50.4895C134.043 50.7305 134.04 50.9565 133.917 51.167C133.798 51.3813 133.63 51.5191 133.408 51.5841C133.186 51.6453 132.986 51.5727 132.806 51.3658C129.298 46.5046 126.472 42.8608 124.324 40.4377C122.179 38.0109 120.835 36.4608 120.299 35.7872C116.573 41.7008 112.95 47.6529 109.426 53.6397C109.231 53.9306 108.994 54.0646 108.706 54.0377C108.423 54.0108 108.197 53.8807 108.029 53.6397C107.86 53.4023 107.852 53.1228 108.002 52.8014C111.345 46.585 114.883 40.4493 118.614 34.3862C116.768 32.6445 115.198 30.9068 113.903 29.1728C113.761 28.9394 113.696 28.6867 113.712 28.415C113.727 28.1432 113.865 27.8828 114.133 27.6416C114.397 27.3967 115.014 27.1593 115.983 26.922C116.952 26.6885 117.94 26.5049 118.951 26.3784C119.82 26.2675 120.655 26.1222 121.463 25.9422C122.057 25.8005 122.643 25.6552 123.225 25.5058C123.592 25.4062 123.96 25.3144 124.324 25.2226C126.913 21.1575 129.505 17.1194 132.102 13.1117C132.416 12.6791 132.772 12.48 133.174 12.5183C133.572 12.5566 133.89 12.7479 134.128 13.0926C134.361 13.4331 134.384 13.8505 134.2 14.3366C133.749 15.389 133.27 16.4303 132.764 17.4522C132.672 17.6321 132.55 17.7469 132.393 17.8005C132.236 17.8542 132.075 17.8542 131.91 17.8005C131.814 17.9574 131.711 18.1144 131.608 18.2713C130.252 20.304 128.912 22.348 127.579 24.4073C129.919 23.7834 132.247 23.1095 134.556 22.3747C139.937 20.6024 145.23 18.6543 150.446 16.5221C152.353 15.7681 154.268 15.0179 156.19 14.2792C156.436 14.1988 156.646 14.2254 156.818 14.371C156.991 14.5127 157.094 14.6963 157.125 14.9298C157.159 15.1633 157.09 15.3662 156.918 15.546C155.903 16.526 154.888 17.5096 153.877 18.4973C153.67 18.6734 153.46 18.7269 153.249 18.6465C153.042 18.57 152.897 18.4244 152.816 18.2139C152.74 18.0073 152.79 17.793 152.97 17.5747C152.985 17.5595 152.996 17.5517 153.004 17.5442C153.019 17.5287 153.035 17.5135 153.046 17.4982C152.261 17.8581 151.468 18.2026 150.668 18.5392C147.198 19.9249 143.698 21.2263 140.167 22.4437ZM119.77 32.5028C120.796 30.8339 121.827 29.1765 122.868 27.5231C122.681 27.5689 122.489 27.6111 122.294 27.6571C121.298 27.8981 120.306 28.1163 119.311 28.3193C117.553 28.6485 116.787 29.0006 117.009 29.3717C117.235 29.7469 118.154 30.7918 119.77 32.5028Z" fill="#9E875D" stroke="#9E875D" stroke-width="0.2" stroke-miterlimit="22.9256"/>
<path d="M160.642 32.2365C157.322 37.2012 154.079 42.2193 150.904 47.2872C150.084 48.5963 149.222 49.936 148.326 51.3026C147.212 52.9828 146.109 54.7054 145.014 56.4622C143.876 61.4537 141.919 65.5723 139.135 68.8182C138.905 69.0517 138.649 69.1435 138.373 69.0977C138.097 69.0556 137.871 68.9178 137.695 68.6882C137.519 68.4622 137.465 68.1943 137.53 67.8881C138.109 65.8785 138.879 63.8996 139.847 61.9551C140.816 60.0106 141.889 58.1044 143.064 56.2365C143.872 52.8106 144.102 49.4421 143.754 46.1274C143.405 42.8125 142.302 40.0414 140.449 37.8174C138.595 35.5934 135.799 34.4031 132.065 34.2462C131.694 34.2154 131.422 34.0548 131.25 33.7562C131.077 33.4614 131.031 33.1591 131.108 32.8452C131.188 32.5313 131.418 32.3322 131.797 32.2479C135.658 31.6433 139.526 31.18 143.398 30.8547C147.273 30.5294 151.16 30.2652 155.055 30.0624C156.828 29.9667 158.624 29.8442 160.443 29.7025C161.393 28.3207 162.354 26.9427 163.327 25.5648C163.534 25.3121 163.779 25.2012 164.059 25.2356C164.342 25.27 164.556 25.3926 164.71 25.6108C164.863 25.829 164.851 26.0778 164.671 26.3609C164.105 27.1762 163.538 27.9992 162.978 28.8298C162.806 29.0749 162.638 29.3198 162.473 29.5572C166.429 29.4768 169.765 29.4232 172.476 29.4002C175.188 29.3772 178.803 29.3619 183.318 29.3467C183.678 29.4041 183.919 29.5572 184.038 29.8059C184.157 30.0508 184.157 30.2998 184.038 30.5524C183.919 30.8012 183.678 30.9504 183.318 31.0039C179.557 31.3868 175.8 31.6356 172.055 31.7543C168.306 31.8768 164.503 32.0374 160.642 32.2365ZM145.699 52.1215C145.856 51.8805 146.013 51.6431 146.17 51.4019C146.925 50.2574 147.66 49.1321 148.368 48.0145C151.727 42.7321 155.158 37.4921 158.659 32.2939C151.715 32.4356 144.795 32.8452 137.891 33.5149C140.024 34.5485 141.701 36.0221 142.926 37.936C144.156 39.85 144.987 42.0316 145.42 44.4852C145.852 46.935 145.948 49.4804 145.699 52.1215Z" fill="#9E875D" stroke="#9E875D" stroke-width="0.0762" stroke-miterlimit="22.9256"/>
<path fill-rule="evenodd" clip-rule="evenodd" d="M98.1926 45.4853C99.6011 52.9524 102.96 59.3156 107.912 64.8863L111.417 68.154C115.554 71.5777 120.986 74.4869 126.311 75.8036C139.226 78.9964 152.66 75.7725 162.488 66.6271L164.552 64.4842C165.204 63.6847 165.739 63.0743 166.464 62.1778C168.946 59.1102 171.054 55.1515 172.411 51.2666C173.56 47.9803 173.408 47.2643 173.921 45.4746C174.203 44.4919 173.851 45.0469 174.38 44.7618L327.819 44.7422V13.4918C325.538 14.087 319.329 16.6433 317.878 16.7867C316.8 15.5606 311.481 11.6081 309.89 10.0032C309.157 10.2711 306.791 12.4368 305.978 13.0796C304.653 14.1262 303.346 15.2067 302.073 16.3289C301.073 17.2096 299.565 16.1554 297.014 15.3135C295.266 14.7366 293.483 13.9809 291.692 13.5018L291.665 31.4221L295.278 31.4008L295.28 18.5902L302.139 20.9031C302.856 20.4012 303.34 19.8916 304.012 19.3631L309.67 14.7312C310.354 15.0333 315.191 19.0928 315.996 19.7942C317.757 21.3282 317.455 20.8464 319.889 20.0214C321.159 19.591 322.913 18.8651 324.207 18.58L324.204 41.155H170.897C170.267 45.8227 169.515 49.8003 167.579 53.5851C165.619 57.4162 163.606 60.5092 160.973 62.9173C159.435 64.3239 158.968 65.0544 156.807 66.6321C155.418 67.6463 153.639 68.8074 151.922 69.6339C148.082 71.4812 144.458 72.7851 139.617 73.2606C120.617 75.1263 105.849 62.0233 102.264 47.2483C94.6516 15.8728 128.531 -7.32879 154.613 9.04263C159.244 11.9502 163.847 16.4791 166.355 21.3114L169.477 19.5196C165.708 11.9368 157.151 5.22947 149.167 2.39461C143.053 0.223175 136.357 -0.469075 129.95 0.578738C115.223 2.98561 103.373 13.4027 99.0876 27.8207C97.383 33.556 97.0648 39.5036 98.1926 45.4853Z" fill="#9E875D"/>
</svg>
