<svg width="14" height="27" viewBox="0 0 14 27" fill="none" xmlns="http://www.w3.org/2000/svg">
<path d="M12.3755 0.912544H8.60316C3.79861 0.864627 3.18497 3.82841 3.18497 7.03601V9.36842H1.06407C0.968207 9.35566 0.870685 9.36509 0.779076 9.39599C0.687467 9.42689 0.604237 9.47842 0.535851 9.54658C0.467465 9.61475 0.415764 9.6977 0.384763 9.78901C0.353763 9.88032 0.344297 9.97753 0.357102 10.0731V14.301C0.344297 14.3966 0.353763 14.4938 0.384763 14.5851C0.415764 14.6764 0.467465 14.7593 0.535851 14.8275C0.604237 14.8957 0.687467 14.9472 0.779076 14.9781C0.870685 15.009 0.968207 15.0184 1.06407 15.0057H3.18497V25.5755C3.17318 25.6712 3.18351 25.7684 3.21515 25.8595C3.24679 25.9506 3.29891 26.0334 3.36753 26.1013C3.43615 26.1693 3.51945 26.2208 3.61108 26.2518C3.7027 26.2828 3.80021 26.2925 3.89618 26.2802H8.21574C8.63285 26.3281 8.97078 25.9913 8.83787 25.5755L8.8407 15.0057H12.3755C12.4714 15.0184 12.5689 15.009 12.6605 14.9781C12.7521 14.9472 12.8354 14.8957 12.9037 14.8275C12.9721 14.7593 13.0238 14.6764 13.0548 14.5851C13.0858 14.4938 13.0953 14.3966 13.0825 14.301V10.0731C13.0953 9.97753 13.0858 9.88032 13.0548 9.78901C13.0238 9.6977 12.9721 9.61475 12.9037 9.54658C12.8354 9.47842 12.7521 9.42689 12.6605 9.39599C12.5689 9.36509 12.4714 9.35566 12.3755 9.36842H8.83646L8.8407 7.25445C8.97785 6.3539 8.97785 6.50047 9.81631 6.54979H12.3458C12.5424 6.5061 12.7516 6.53006 12.8987 6.38772C13.0457 6.24538 13.1306 6.0509 13.0811 5.84514V1.6172C13.0941 1.52173 13.0849 1.42455 13.0541 1.33322C13.0232 1.2419 12.9717 1.1589 12.9034 1.0907C12.8351 1.0225 12.7519 0.970939 12.6604 0.940037C12.5688 0.909135 12.4713 0.899726 12.3755 0.912544ZM11.6191 5.06156L9.846 4.99391C7.65017 4.99391 7.46635 6.18196 7.46635 7.3982L7.4607 10.0703C7.46051 10.1692 7.47991 10.2672 7.51777 10.3587C7.55563 10.4502 7.61122 10.5333 7.68135 10.6033C7.75148 10.6733 7.83477 10.7289 7.92647 10.7668C8.01817 10.8047 8.11647 10.8242 8.21574 10.8242H11.6686V13.547H8.21857C8.01819 13.547 7.82599 13.6263 7.68417 13.7674C7.54235 13.9085 7.46249 14.0999 7.46211 14.2996L7.4607 24.8709H4.5989V14.301C4.5989 13.8853 4.3147 13.5484 3.89618 13.5484H1.77103V10.8256H3.89618C3.99539 10.8258 4.09365 10.8065 4.18536 10.7687C4.27707 10.731 4.36041 10.6756 4.43064 10.6058C4.57203 10.4635 4.59749 10.2718 4.59749 10.0717V7.0346C4.59749 3.87492 5.238 2.36977 8.60174 2.36977H11.6177V5.06156H11.6191Z" fill="#32524F"/>
<path d="M9.846 4.99391L11.6177 5.06156V2.36977H8.60174C5.238 2.36977 4.59749 3.87492 4.59749 7.0346V10.0717C4.59749 10.2718 4.57203 10.4635 4.43064 10.6058C4.36041 10.6756 4.27707 10.731 4.18536 10.7687C4.09365 10.8065 3.99539 10.8258 3.89618 10.8256H1.77103V13.5484H3.89618C4.3147 13.5484 4.5989 13.8853 4.5989 14.301V24.8709H7.4607L7.46211 14.2996C7.46249 14.0999 7.54235 13.9085 7.68417 13.7674C7.82599 13.6263 8.01819 13.547 8.21857 13.547H11.6686V10.8242H8.21574C8.11647 10.8242 8.01817 10.8047 7.92647 10.7668C7.83477 10.7289 7.75148 10.6733 7.68135 10.6033C7.61122 10.5333 7.55563 10.4502 7.51777 10.3587C7.47991 10.2672 7.46051 10.1692 7.4607 10.0703L7.46635 7.3982C7.46635 6.18196 7.65017 4.99391 9.846 4.99391Z" fill="#32524F"/>
</svg>
