<svg width="24" height="24" viewBox="0 0 24 24" fill="none" xmlns="http://www.w3.org/2000/svg">
<path d="M22.9037 4.47513C22.6078 3.71125 22.1558 3.01754 21.5765 2.43842C20.9971 1.8593 20.3033 1.40753 19.5393 1.11201C18.6452 0.776415 17.7008 0.59495 16.746 0.575348C15.5155 0.521681 15.1258 0.506348 12.0055 0.506348C8.88515 0.506348 8.48521 0.506348 7.26493 0.575348C6.31093 0.593948 5.36712 0.77545 4.47426 1.11201C3.71007 1.40718 3.01602 1.85884 2.43663 2.438C1.85725 3.01716 1.40533 3.71105 1.10987 4.47513C0.774208 5.36908 0.593159 6.31364 0.574485 7.26835C0.519541 8.49757 0.50293 8.88729 0.50293 12.0089C0.50293 15.1292 0.50293 15.5266 0.574485 16.7495C0.593652 17.7052 0.773818 18.6482 1.10987 19.544C1.40616 20.3078 1.85852 21.0014 2.43804 21.5805C3.01757 22.1595 3.71151 22.6114 4.47554 22.9071C5.36671 23.2562 6.3109 23.4506 7.26748 23.4821C8.49798 23.5357 8.88771 23.5524 12.008 23.5524C15.1284 23.5524 15.5283 23.5524 16.7486 23.4821C17.7032 23.4627 18.6477 23.2816 19.5418 22.9467C20.3056 22.6505 20.9993 22.1983 21.5786 21.619C22.1578 21.0398 22.61 20.3461 22.9062 19.5823C23.2423 18.6879 23.4224 17.7449 23.4416 16.7891C23.4965 15.5599 23.5132 15.1701 23.5132 12.0485C23.5132 8.92691 23.5132 8.53079 23.4416 7.30796C23.4267 6.33975 23.2447 5.38139 22.9037 4.47513ZM21.3473 16.6549C21.3391 17.3913 21.2047 18.1208 20.9499 18.8118C20.758 19.3087 20.4643 19.7599 20.0875 20.1364C19.7108 20.513 19.2594 20.8065 18.7624 20.9981C18.0791 21.2516 17.3573 21.3861 16.6285 21.3955C15.4146 21.4517 15.0722 21.4657 11.9595 21.4657C8.84426 21.4657 8.5261 21.4657 7.28921 21.3955C6.56078 21.3865 5.83935 21.2521 5.1566 20.9981C4.65786 20.8077 4.20465 20.5147 3.82629 20.1381C3.44792 19.7615 3.15283 19.3096 2.9601 18.8118C2.70894 18.1283 2.57461 17.4073 2.56271 16.6792C2.50776 15.4653 2.49498 15.1229 2.49498 12.0102C2.49498 8.89624 2.49498 8.57807 2.56271 7.3399C2.57097 6.60393 2.70538 5.87483 2.9601 5.18429C3.34982 4.17613 4.14843 3.38263 5.1566 2.99674C5.83968 2.74392 6.56091 2.60952 7.28921 2.59935C8.50437 2.5444 8.84554 2.52907 11.9595 2.52907C15.0734 2.52907 15.3929 2.52907 16.6285 2.59935C17.3573 2.60812 18.0792 2.74255 18.7624 2.99674C19.2593 3.18875 19.7107 3.48255 20.0874 3.85928C20.4641 4.236 20.7579 4.68733 20.9499 5.18429C21.2011 5.86784 21.3354 6.58878 21.3473 7.31691C21.4023 8.53207 21.4163 8.87324 21.4163 11.9872C21.4163 15.0999 21.4163 15.4346 21.3614 16.6562H21.3473V16.6549Z" fill="#32524F" stroke="#32524F" stroke-width="0.5"/>
</svg>
